M48
METRIC,TZ
T1C0.650
T2C0.750
T3C1.700
T4C1.750
T5C3.048
T6C3.988
T7C4.000
%
G90
G05
T1
X12129Y-49498
X12129Y-55278
T2
X14500Y-38100
X17250Y-38100
T3
X306130Y-33317
X316290Y-33317
T4
X20320Y-71438
X20320Y-90488
X20320Y-109538
X20320Y-128588
X20828Y-33338
X29845Y-71438
X29845Y-90488
X29845Y-109538
X30480Y-71438
X30480Y-90488
X30480Y-109538
X30480Y-128588
X30988Y-33338
X39370Y-33338
X39370Y-52388
X39370Y-71438
X39370Y-90488
X39370Y-109538
X39370Y-128588
X40005Y-71438
X40005Y-90488
X40005Y-109538
X49530Y-33338
X49530Y-52388
X49530Y-71438
X49530Y-90488
X49530Y-109538
X49530Y-128588
X58420Y-33338
X58420Y-52388
X58420Y-71438
X58420Y-90488
X58420Y-109538
X58420Y-128588
X68580Y-33338
X68580Y-52388
X68580Y-71438
X68580Y-90488
X68580Y-109538
X68580Y-128588
X77470Y-33338
X77470Y-52388
X77470Y-71438
X77470Y-90488
X77470Y-109538
X77470Y-128588
X87630Y-33338
X87630Y-52388
X87630Y-71438
X87630Y-90488
X87630Y-109538
X87630Y-128588
X96520Y-33338
X96520Y-52388
X96520Y-71438
X96520Y-90488
X96520Y-109538
X96520Y-128588
X106680Y-33338
X106680Y-52388
X106680Y-71438
X106680Y-90488
X106680Y-109538
X106680Y-128588
X115570Y-33338
X115570Y-52388
X115570Y-71438
X115570Y-90488
X115570Y-109538
X115570Y-128588
X125730Y-33338
X125730Y-52388
X125730Y-71438
X125730Y-90488
X125730Y-109538
X125730Y-128588
X134620Y-33338
X134620Y-52388
X134620Y-71438
X134620Y-90488
X134620Y-109538
X134620Y-128588
X144780Y-33338
X144780Y-52388
X144780Y-71438
X144780Y-90488
X144780Y-109538
X144780Y-128588
X153670Y-33338
X153670Y-52388
X153670Y-71438
X153670Y-90488
X153670Y-109538
X153670Y-128588
X163830Y-33338
X163830Y-52388
X163830Y-71438
X163830Y-90488
X163830Y-109538
X163830Y-128588
X172720Y-33338
X172720Y-52388
X172720Y-71438
X172720Y-90488
X172720Y-109538
X172720Y-128588
X182880Y-33338
X182880Y-52388
X182880Y-71438
X182880Y-90488
X182880Y-109538
X182880Y-128588
X191770Y-33338
X191770Y-52388
X191770Y-71438
X191770Y-90488
X191770Y-109538
X191770Y-128588
X201930Y-33338
X201930Y-52388
X201930Y-71438
X201930Y-90488
X201930Y-109538
X201930Y-128588
X210820Y-33338
X210820Y-52388
X210820Y-71438
X210820Y-90488
X210820Y-109538
X210820Y-128588
X220980Y-33338
X220980Y-52388
X220980Y-71438
X220980Y-90488
X220980Y-109538
X220980Y-128588
X229870Y-33338
X229870Y-52388
X229870Y-71438
X229870Y-90488
X229870Y-109538
X229870Y-128588
X240030Y-33338
X240030Y-52388
X240030Y-71438
X240030Y-90488
X240030Y-109538
X240030Y-128588
X248920Y-33338
X248920Y-52388
X248920Y-71438
X248920Y-90488
X248920Y-109538
X248920Y-128588
X259080Y-33338
X259080Y-52388
X259080Y-71438
X259080Y-90488
X259080Y-109538
X259080Y-128588
X267970Y-33338
X267970Y-52388
X267970Y-71438
X267970Y-90488
X267970Y-109538
X267970Y-128588
X278130Y-33338
X278130Y-52388
X278130Y-71438
X278130Y-90488
X278130Y-109538
X278130Y-128588
X287020Y-33338
X287020Y-52388
X287020Y-71438
X287020Y-90488
X287020Y-109538
X287020Y-128588
X296545Y-52388
X297180Y-33338
X297180Y-52388
X297180Y-71438
X297180Y-90488
X297180Y-109538
X297180Y-128588
X306070Y-52388
X306070Y-71438
X306070Y-90488
X306070Y-109538
X306070Y-128588
X306705Y-52388
X315595Y-90488
X315595Y-109538
X316230Y-52388
X316230Y-71438
X316230Y-90488
X316230Y-109538
X316230Y-128588
X325120Y-52388
X325120Y-71438
X325120Y-90488
X325120Y-109538
X325120Y-128588
X325755Y-90488
X325755Y-109538
X335280Y-52388
X335280Y-71438
X335280Y-90488
X335280Y-109538
X335280Y-128588
T5
X23019Y-64453
X23019Y-83503
X23019Y-102553
X46831Y-64453
X46831Y-83503
X46831Y-102553
X82550Y-135573
X120650Y-135573
X234950Y-135573
X273050Y-135573
X289719Y-45403
X308769Y-83503
X308769Y-102553
X313531Y-45403
X332581Y-83503
X332581Y-102553
T6
X23019Y-79693
X23019Y-98743
X23019Y-117793
X25400Y-71438
X25400Y-90488
X25400Y-109538
X25400Y-128588
X25908Y-33338
X34925Y-71438
X34925Y-90488
X34925Y-109538
X44450Y-33338
X44450Y-52388
X44450Y-71438
X44450Y-90488
X44450Y-109538
X44450Y-128588
X46831Y-79693
X46831Y-98743
X46831Y-117793
X63500Y-33338
X63500Y-52388
X63500Y-71438
X63500Y-90488
X63500Y-109538
X63500Y-128588
X82550Y-33338
X82550Y-52388
X82550Y-71438
X82550Y-90488
X82550Y-109538
X82550Y-120333
X82550Y-128588
X101600Y-33338
X101600Y-52388
X101600Y-71438
X101600Y-90488
X101600Y-109538
X101600Y-128588
X120650Y-33338
X120650Y-52388
X120650Y-71438
X120650Y-90488
X120650Y-109538
X120650Y-120333
X120650Y-128588
X139700Y-33338
X139700Y-52388
X139700Y-71438
X139700Y-90488
X139700Y-109538
X139700Y-128588
X158750Y-33338
X158750Y-52388
X158750Y-71438
X158750Y-90488
X158750Y-109538
X158750Y-128588
X177800Y-33338
X177800Y-52388
X177800Y-71438
X177800Y-90488
X177800Y-109538
X177800Y-128588
X196850Y-33338
X196850Y-52388
X196850Y-71438
X196850Y-90488
X196850Y-109538
X196850Y-128588
X215900Y-33338
X215900Y-52388
X215900Y-71438
X215900Y-90488
X215900Y-109538
X215900Y-128588
X234950Y-33338
X234950Y-52388
X234950Y-71438
X234950Y-90488
X234950Y-109538
X234950Y-120333
X234950Y-128588
X254000Y-33338
X254000Y-52388
X254000Y-71438
X254000Y-90488
X254000Y-109538
X254000Y-128588
X273050Y-33338
X273050Y-52388
X273050Y-71438
X273050Y-90488
X273050Y-109538
X273050Y-120333
X273050Y-128588
X289719Y-60643
X292100Y-33338
X292100Y-52388
X292100Y-71438
X292100Y-90488
X292100Y-109538
X292100Y-128588
X301625Y-52388
X308769Y-98743
X308769Y-117793
X311150Y-52388
X311150Y-71438
X311150Y-90488
X311150Y-109538
X311150Y-128588
X313531Y-60643
X320675Y-90488
X320675Y-109538
X330200Y-52388
X330200Y-71438
X330200Y-90488
X330200Y-109538
X330200Y-128588
X332581Y-98743
X332581Y-117793
T7
X311210Y-33317
T0
M30
