M48
METRIC,TZ
T1C0.300
T2C0.500
T3C0.600
T4C1.000
T5C1.470
T6C1.500
%
G90
G05
T1
X14987Y-50974
X21269Y-57257
X27437Y-57113
X27456Y-61189
X30576Y-51547
X39773Y-67090
X60201Y-122095
X71861Y-117524
X71904Y-74085
X73238Y-91525
X73635Y-111957
X73683Y-55561
X73743Y-88707
X75098Y-76005
X76999Y-101595
X77020Y-124564
X78141Y-61874
X79809Y-83130
X82243Y-63151
X90065Y-74540
X91146Y-93280
X91962Y-72875
X92067Y-55561
X92735Y-111957
X97741Y-75841
X98145Y-72807
X106012Y-73781
X106099Y-77940
X106850Y-79580
X107219Y-83453
X107524Y-75070
X107650Y-79428
X107837Y-78628
X108185Y-86204
X108242Y-88931
X108400Y-83642
X108518Y-55561
X108610Y-74863
X109845Y-80772
X111218Y-118534
X111234Y-80422
X111504Y-82047
X111586Y-124958
X111901Y-88931
X112932Y-81085
X113990Y-81839
X114017Y-82645
X114087Y-77599
X114714Y-75352
X115514Y-124400
X116205Y-61922
X117487Y-82878
X118176Y-78068
X118277Y-75749
X118772Y-77195
X121062Y-82861
X121109Y-76207
X123137Y-78068
X126215Y-98648
X126230Y-86078
X128410Y-112075
X128733Y-93138
X128847Y-71639
X129488Y-118111
X129807Y-71612
X130158Y-120682
X130291Y-82029
X131484Y-84258
X131488Y-87948
X144825Y-81535
X165587Y-111957
X168665Y-74519
X174713Y-92753
X177194Y-118952
X178773Y-82160
X181341Y-92753
X183013Y-74519
X184204Y-110970
X213306Y-123739
X228856Y-125715
X242685Y-92935
X243233Y-117397
X243535Y-80001
X244896Y-111857
X244966Y-75067
X255088Y-75067
X255848Y-111284
X261868Y-92935
X269989Y-112523
X272103Y-124560
X287495Y-121325
X300101Y-93018
X302240Y-81702
X302373Y-75067
X311710Y-75067
T4
X26670Y-46990
X26670Y-52070
X26924Y-49530
X26924Y-54610
X308650Y-26238
X308650Y-40738
X311150Y-40738
X313650Y-26238
X313650Y-40738
T5
X21590Y-68897
X21590Y-87948
X21590Y-106998
X21590Y-126048
X22098Y-30798
X27940Y-66358
X27940Y-85408
X27940Y-104458
X27940Y-123508
X28448Y-28258
X31115Y-68897
X31115Y-87948
X31115Y-106998
X37465Y-66358
X37465Y-85408
X37465Y-104458
X40640Y-30798
X40640Y-49848
X40640Y-68897
X40640Y-87948
X40640Y-106998
X40640Y-126048
X46990Y-28258
X46990Y-47308
X46990Y-66358
X46990Y-85408
X46990Y-104458
X46990Y-123508
X59690Y-30798
X59690Y-49848
X59690Y-68897
X59690Y-87948
X59690Y-106998
X59690Y-126048
X66040Y-28258
X66040Y-47308
X66040Y-66358
X66040Y-85408
X66040Y-104458
X66040Y-123508
X78740Y-30798
X78740Y-49848
X78740Y-68897
X78740Y-87948
X78740Y-106998
X78740Y-126048
X85090Y-28258
X85090Y-47308
X85090Y-66358
X85090Y-85408
X85090Y-104458
X85090Y-123508
X97790Y-30798
X97790Y-49848
X97790Y-68897
X97790Y-87948
X97790Y-106998
X97790Y-126048
X104140Y-28258
X104140Y-47308
X104140Y-66358
X104140Y-85408
X104140Y-104458
X104140Y-123508
X116840Y-30798
X116840Y-49848
X116840Y-68897
X116840Y-87948
X116840Y-106998
X116840Y-126048
X123190Y-28258
X123190Y-47308
X123190Y-66358
X123190Y-85408
X123190Y-104458
X123190Y-123508
X135890Y-30798
X135890Y-49848
X135890Y-68897
X135890Y-87948
X135890Y-106998
X135890Y-126048
X142240Y-28258
X142240Y-47308
X142240Y-66358
X142240Y-85408
X142240Y-104458
X142240Y-123508
X154940Y-30798
X154940Y-49848
X154940Y-68897
X154940Y-87948
X154940Y-106998
X154940Y-126048
X161290Y-28258
X161290Y-47308
X161290Y-66358
X161290Y-85408
X161290Y-104458
X161290Y-123508
X173990Y-30798
X173990Y-49848
X173990Y-68897
X173990Y-87948
X173990Y-106998
X173990Y-126048
X180340Y-28258
X180340Y-47308
X180340Y-66358
X180340Y-85408
X180340Y-104458
X180340Y-123508
X193040Y-30798
X193040Y-49848
X193040Y-68897
X193040Y-87948
X193040Y-106998
X193040Y-126048
X199390Y-28258
X199390Y-47308
X199390Y-66358
X199390Y-85408
X199390Y-104458
X199390Y-123508
X212090Y-30798
X212090Y-49848
X212090Y-68897
X212090Y-87948
X212090Y-106998
X212090Y-126048
X218440Y-28258
X218440Y-47308
X218440Y-66358
X218440Y-85408
X218440Y-104458
X218440Y-123508
X231140Y-30798
X231140Y-49848
X231140Y-68897
X231140Y-87948
X231140Y-106998
X231140Y-126048
X237490Y-28258
X237490Y-47308
X237490Y-66358
X237490Y-85408
X237490Y-104458
X237490Y-123508
X250190Y-30798
X250190Y-49848
X250190Y-68897
X250190Y-87948
X250190Y-106998
X250190Y-126048
X256540Y-28258
X256540Y-47308
X256540Y-66358
X256540Y-85408
X256540Y-104458
X256540Y-123508
X269240Y-30798
X269240Y-49848
X269240Y-68897
X269240Y-87948
X269240Y-106998
X269240Y-126048
X275590Y-28258
X275590Y-47308
X275590Y-66358
X275590Y-85408
X275590Y-104458
X275590Y-123508
X288290Y-30798
X288290Y-49848
X288290Y-68897
X288290Y-87948
X288290Y-106998
X288290Y-126048
X294640Y-28258
X294640Y-47308
X294640Y-66358
X294640Y-85408
X294640Y-104458
X294640Y-123508
X297815Y-49848
X304165Y-47308
X307340Y-49848
X307340Y-68897
X307340Y-87948
X307340Y-106998
X307340Y-126048
X313690Y-47308
X313690Y-66358
X313690Y-85408
X313690Y-104458
X313690Y-123508
X316865Y-87948
X316865Y-106998
X323215Y-85408
X323215Y-104458
X326390Y-49848
X326390Y-68897
X326390Y-87948
X326390Y-106998
X326390Y-126048
X332740Y-47308
X332740Y-66358
X332740Y-85408
X332740Y-104458
X332740Y-123508
T6
X307400Y-30778
X313750Y-28238
T2
G00X12029Y-48068
M15
G01X13229Y-48068
M16
G05
G00X12029Y-56707
M15
G01X13229Y-56707
M16
G05
T3
G00X8149Y-48068
M15
G01X8749Y-48068
M16
G05
G00X8149Y-56707
M15
G01X8749Y-56707
M16
G05
T0
M30
