M48
METRIC,TZ
T1C0.300
T2C0.500
T3C0.600
T4C1.000
T5C1.470
T6C1.500
T7C0.650
T8C0.750
T9C1.700
T10C1.750
T11C3.048
T12C3.988
T13C4.000
%
G90
G05
T1
X15375Y-50763
X15411Y-55343
X16807Y-50562
X25768Y-56482
X26424Y-57147
X34640Y-60499
X54372Y-113386
X54475Y-74245
X54694Y-81527
X54710Y-92916
X58143Y-80680
X61137Y-92916
X61382Y-113386
X73025Y-74245
X73141Y-53861
X76853Y-124265
X85662Y-56505
X90900Y-74245
X96275Y-62793
X109439Y-92926
X109510Y-73968
X109804Y-117385
X109887Y-79324
X110812Y-54764
X111797Y-112027
X111876Y-81928
X112699Y-93090
X113829Y-80680
X115063Y-81815
X115356Y-101595
X115507Y-84441
X117406Y-72671
X118091Y-58781
X118128Y-83013
X119053Y-78487
X119993Y-66804
X120525Y-74423
X121901Y-79658
X125538Y-76851
X125559Y-77780
X126079Y-79160
X126804Y-83738
X127494Y-121695
X127637Y-82393
X127732Y-83769
X128057Y-79333
X129467Y-71469
X129583Y-112027
X129851Y-87561
X130884Y-75074
X131038Y-78227
X131391Y-75724
X132026Y-83541
X132828Y-81835
X133164Y-75722
X133999Y-124149
X134287Y-77024
X134319Y-78174
X136433Y-83781
X137571Y-81043
X138030Y-76798
X138384Y-77774
X139187Y-84231
X139464Y-82468
X139499Y-76075
X146436Y-74247
X147626Y-93090
X147805Y-111986
X173957Y-98043
X176813Y-117977
X177407Y-82468
X177494Y-80469
X178472Y-120022
X178668Y-81862
X179706Y-114353
X184204Y-110970
X185469Y-93090
X213351Y-122043
X229024Y-124500
X242272Y-114353
X242742Y-112899
X243075Y-92933
X243468Y-117977
X244212Y-80525
X244928Y-81645
X260448Y-111877
X261049Y-92933
X270595Y-124560
X284719Y-114418
X287900Y-111238
X299406Y-92933
X302755Y-59174
X302814Y-82470
X303004Y-92933
X307518Y-53842
T4
X26670Y-46990
X26670Y-52070
X26924Y-49530
X26924Y-54610
X308650Y-26238
X308650Y-40738
X311150Y-40738
X313650Y-26238
X313650Y-40738
T5
X21590Y-68897
X21590Y-87948
X21590Y-106998
X21590Y-126048
X22098Y-30798
X27940Y-66358
X27940Y-85408
X27940Y-104458
X27940Y-123508
X28448Y-28258
X31115Y-68897
X31115Y-87948
X31115Y-106998
X37465Y-66358
X37465Y-85408
X37465Y-104458
X40640Y-30798
X40640Y-49848
X40640Y-68897
X40640Y-87948
X40640Y-106998
X40640Y-126048
X46990Y-28258
X46990Y-47308
X46990Y-66358
X46990Y-85408
X46990Y-104458
X46990Y-123508
X59690Y-30798
X59690Y-49848
X59690Y-68897
X59690Y-87948
X59690Y-106998
X59690Y-126048
X66040Y-28258
X66040Y-47308
X66040Y-66358
X66040Y-85408
X66040Y-104458
X66040Y-123508
X78740Y-30798
X78740Y-49848
X78740Y-68897
X78740Y-87948
X78740Y-106998
X78740Y-126048
X85090Y-28258
X85090Y-47308
X85090Y-66358
X85090Y-85408
X85090Y-104458
X85090Y-123508
X97790Y-30798
X97790Y-49848
X97790Y-68897
X97790Y-87948
X97790Y-106998
X97790Y-126048
X104140Y-28258
X104140Y-47308
X104140Y-66358
X104140Y-85408
X104140Y-104458
X104140Y-123508
X116840Y-30798
X116840Y-49848
X116840Y-68897
X116840Y-87948
X116840Y-106998
X116840Y-126048
X123190Y-28258
X123190Y-47308
X123190Y-66358
X123190Y-85408
X123190Y-104458
X123190Y-123508
X135890Y-30798
X135890Y-49848
X135890Y-68897
X135890Y-87948
X135890Y-106998
X135890Y-126048
X142240Y-28258
X142240Y-47308
X142240Y-66358
X142240Y-85408
X142240Y-104458
X142240Y-123508
X154940Y-30798
X154940Y-49848
X154940Y-68897
X154940Y-87948
X154940Y-106998
X154940Y-126048
X161290Y-28258
X161290Y-47308
X161290Y-66358
X161290Y-85408
X161290Y-104458
X161290Y-123508
X173990Y-30798
X173990Y-49848
X173990Y-68897
X173990Y-87948
X173990Y-106998
X173990Y-126048
X180340Y-28258
X180340Y-47308
X180340Y-66358
X180340Y-85408
X180340Y-104458
X180340Y-123508
X193040Y-30798
X193040Y-49848
X193040Y-68897
X193040Y-87948
X193040Y-106998
X193040Y-126048
X199390Y-28258
X199390Y-47308
X199390Y-66358
X199390Y-85408
X199390Y-104458
X199390Y-123508
X212090Y-30798
X212090Y-49848
X212090Y-68897
X212090Y-87948
X212090Y-106998
X212090Y-126048
X218440Y-28258
X218440Y-47308
X218440Y-66358
X218440Y-85408
X218440Y-104458
X218440Y-123508
X231140Y-30798
X231140Y-49848
X231140Y-68897
X231140Y-87948
X231140Y-106998
X231140Y-126048
X237490Y-28258
X237490Y-47308
X237490Y-66358
X237490Y-85408
X237490Y-104458
X237490Y-123508
X250190Y-30798
X250190Y-49848
X250190Y-68897
X250190Y-87948
X250190Y-106998
X250190Y-126048
X256540Y-28258
X256540Y-47308
X256540Y-66358
X256540Y-85408
X256540Y-104458
X256540Y-123508
X269240Y-30798
X269240Y-49848
X269240Y-68897
X269240Y-87948
X269240Y-106998
X269240Y-126048
X275590Y-28258
X275590Y-47308
X275590Y-66358
X275590Y-85408
X275590Y-104458
X275590Y-123508
X288290Y-30798
X288290Y-49848
X288290Y-68897
X288290Y-87948
X288290Y-106998
X288290Y-126048
X294640Y-28258
X294640Y-47308
X294640Y-66358
X294640Y-85408
X294640Y-104458
X294640Y-123508
X297815Y-49848
X304165Y-47308
X307340Y-49848
X307340Y-68897
X307340Y-87948
X307340Y-106998
X307340Y-126048
X313690Y-47308
X313690Y-66358
X313690Y-85408
X313690Y-104458
X313690Y-123508
X316865Y-87948
X316865Y-106998
X323215Y-85408
X323215Y-104458
X326390Y-49848
X326390Y-68897
X326390Y-87948
X326390Y-106998
X326390Y-126048
X332740Y-47308
X332740Y-66358
X332740Y-85408
X332740Y-104458
X332740Y-123508
T6
X307400Y-30778
X313750Y-28238
T7
X12129Y-49498
X12129Y-55278
T8
X14500Y-38100
X17250Y-38100
T9
X306130Y-33317
X316290Y-33317
T10
X20320Y-71438
X20320Y-90488
X20320Y-109538
X20320Y-128588
X20828Y-33338
X29845Y-71438
X29845Y-90488
X29845Y-109538
X30480Y-71438
X30480Y-90488
X30480Y-109538
X30480Y-128588
X30988Y-33338
X39370Y-33338
X39370Y-52388
X39370Y-71438
X39370Y-90488
X39370Y-109538
X39370Y-128588
X40005Y-71438
X40005Y-90488
X40005Y-109538
X49530Y-33338
X49530Y-52388
X49530Y-71438
X49530Y-90488
X49530Y-109538
X49530Y-128588
X58420Y-33338
X58420Y-52388
X58420Y-71438
X58420Y-90488
X58420Y-109538
X58420Y-128588
X68580Y-33338
X68580Y-52388
X68580Y-71438
X68580Y-90488
X68580Y-109538
X68580Y-128588
X77470Y-33338
X77470Y-52388
X77470Y-71438
X77470Y-90488
X77470Y-109538
X77470Y-128588
X87630Y-33338
X87630Y-52388
X87630Y-71438
X87630Y-90488
X87630Y-109538
X87630Y-128588
X96520Y-33338
X96520Y-52388
X96520Y-71438
X96520Y-90488
X96520Y-109538
X96520Y-128588
X106680Y-33338
X106680Y-52388
X106680Y-71438
X106680Y-90488
X106680Y-109538
X106680Y-128588
X115570Y-33338
X115570Y-52388
X115570Y-71438
X115570Y-90488
X115570Y-109538
X115570Y-128588
X125730Y-33338
X125730Y-52388
X125730Y-71438
X125730Y-90488
X125730Y-109538
X125730Y-128588
X134620Y-33338
X134620Y-52388
X134620Y-71438
X134620Y-90488
X134620Y-109538
X134620Y-128588
X144780Y-33338
X144780Y-52388
X144780Y-71438
X144780Y-90488
X144780Y-109538
X144780Y-128588
X153670Y-33338
X153670Y-52388
X153670Y-71438
X153670Y-90488
X153670Y-109538
X153670Y-128588
X163830Y-33338
X163830Y-52388
X163830Y-71438
X163830Y-90488
X163830Y-109538
X163830Y-128588
X172720Y-33338
X172720Y-52388
X172720Y-71438
X172720Y-90488
X172720Y-109538
X172720Y-128588
X182880Y-33338
X182880Y-52388
X182880Y-71438
X182880Y-90488
X182880Y-109538
X182880Y-128588
X191770Y-33338
X191770Y-52388
X191770Y-71438
X191770Y-90488
X191770Y-109538
X191770Y-128588
X201930Y-33338
X201930Y-52388
X201930Y-71438
X201930Y-90488
X201930Y-109538
X201930Y-128588
X210820Y-33338
X210820Y-52388
X210820Y-71438
X210820Y-90488
X210820Y-109538
X210820Y-128588
X220980Y-33338
X220980Y-52388
X220980Y-71438
X220980Y-90488
X220980Y-109538
X220980Y-128588
X229870Y-33338
X229870Y-52388
X229870Y-71438
X229870Y-90488
X229870Y-109538
X229870Y-128588
X240030Y-33338
X240030Y-52388
X240030Y-71438
X240030Y-90488
X240030Y-109538
X240030Y-128588
X248920Y-33338
X248920Y-52388
X248920Y-71438
X248920Y-90488
X248920Y-109538
X248920Y-128588
X259080Y-33338
X259080Y-52388
X259080Y-71438
X259080Y-90488
X259080Y-109538
X259080Y-128588
X267970Y-33338
X267970Y-52388
X267970Y-71438
X267970Y-90488
X267970Y-109538
X267970Y-128588
X278130Y-33338
X278130Y-52388
X278130Y-71438
X278130Y-90488
X278130Y-109538
X278130Y-128588
X287020Y-33338
X287020Y-52388
X287020Y-71438
X287020Y-90488
X287020Y-109538
X287020Y-128588
X296545Y-52388
X297180Y-33338
X297180Y-52388
X297180Y-71438
X297180Y-90488
X297180Y-109538
X297180Y-128588
X306070Y-52388
X306070Y-71438
X306070Y-90488
X306070Y-109538
X306070Y-128588
X306705Y-52388
X315595Y-90488
X315595Y-109538
X316230Y-52388
X316230Y-71438
X316230Y-90488
X316230Y-109538
X316230Y-128588
X325120Y-52388
X325120Y-71438
X325120Y-90488
X325120Y-109538
X325120Y-128588
X325755Y-90488
X325755Y-109538
X335280Y-52388
X335280Y-71438
X335280Y-90488
X335280Y-109538
X335280Y-128588
T11
X23019Y-64453
X23019Y-83503
X23019Y-102553
X46831Y-64453
X46831Y-83503
X46831Y-102553
X82550Y-135573
X120650Y-135573
X234950Y-135573
X273050Y-135573
X289719Y-45403
X308769Y-83503
X308769Y-102553
X313531Y-45403
X332581Y-83503
X332581Y-102553
T12
X23019Y-79693
X23019Y-98743
X23019Y-117793
X25400Y-71438
X25400Y-90488
X25400Y-109538
X25400Y-128588
X25908Y-33338
X34925Y-71438
X34925Y-90488
X34925Y-109538
X44450Y-33338
X44450Y-52388
X44450Y-71438
X44450Y-90488
X44450Y-109538
X44450Y-128588
X46831Y-79693
X46831Y-98743
X46831Y-117793
X63500Y-33338
X63500Y-52388
X63500Y-71438
X63500Y-90488
X63500Y-109538
X63500Y-128588
X82550Y-33338
X82550Y-52388
X82550Y-71438
X82550Y-90488
X82550Y-109538
X82550Y-120333
X82550Y-128588
X101600Y-33338
X101600Y-52388
X101600Y-71438
X101600Y-90488
X101600Y-109538
X101600Y-128588
X120650Y-33338
X120650Y-52388
X120650Y-71438
X120650Y-90488
X120650Y-109538
X120650Y-120333
X120650Y-128588
X139700Y-33338
X139700Y-52388
X139700Y-71438
X139700Y-90488
X139700Y-109538
X139700Y-128588
X158750Y-33338
X158750Y-52388
X158750Y-71438
X158750Y-90488
X158750Y-109538
X158750Y-128588
X177800Y-33338
X177800Y-52388
X177800Y-71438
X177800Y-90488
X177800Y-109538
X177800Y-128588
X196850Y-33338
X196850Y-52388
X196850Y-71438
X196850Y-90488
X196850Y-109538
X196850Y-128588
X215900Y-33338
X215900Y-52388
X215900Y-71438
X215900Y-90488
X215900Y-109538
X215900Y-128588
X234950Y-33338
X234950Y-52388
X234950Y-71438
X234950Y-90488
X234950Y-109538
X234950Y-120333
X234950Y-128588
X254000Y-33338
X254000Y-52388
X254000Y-71438
X254000Y-90488
X254000Y-109538
X254000Y-128588
X273050Y-33338
X273050Y-52388
X273050Y-71438
X273050Y-90488
X273050Y-109538
X273050Y-120333
X273050Y-128588
X289719Y-60643
X292100Y-33338
X292100Y-52388
X292100Y-71438
X292100Y-90488
X292100Y-109538
X292100Y-128588
X301625Y-52388
X308769Y-98743
X308769Y-117793
X311150Y-52388
X311150Y-71438
X311150Y-90488
X311150Y-109538
X311150Y-128588
X313531Y-60643
X320675Y-90488
X320675Y-109538
X330200Y-52388
X330200Y-71438
X330200Y-90488
X330200Y-109538
X330200Y-128588
X332581Y-98743
X332581Y-117793
T13
X311210Y-33317
T2
G00X12029Y-48068
M15
G01X13229Y-48068
M16
G05
G00X12029Y-56707
M15
G01X13229Y-56707
M16
G05
T3
G00X8149Y-48068
M15
G01X8749Y-48068
M16
G05
G00X8149Y-56707
M15
G01X8749Y-56707
M16
G05
T0
M30
