G04 #@! TF.GenerationSoftware,KiCad,Pcbnew,(5.1.10)-1*
G04 #@! TF.CreationDate,2021-08-20T10:36:40-07:00*
G04 #@! TF.ProjectId,Orthonite87_PCB,4f727468-6f6e-4697-9465-38375f504342,rev?*
G04 #@! TF.SameCoordinates,Original*
G04 #@! TF.FileFunction,Profile,NP*
%FSLAX46Y46*%
G04 Gerber Fmt 4.6, Leading zero omitted, Abs format (unit mm)*
G04 Created by KiCad (PCBNEW (5.1.10)-1) date 2021-08-20 10:36:40*
%MOMM*%
%LPD*%
G01*
G04 APERTURE LIST*
G04 #@! TA.AperFunction,Profile*
%ADD10C,0.050000*%
G04 #@! TD*
G04 APERTURE END LIST*
D10*
X6350000Y-47625000D02*
G75*
G02*
X7143750Y-46831250I793750J0D01*
G01*
X7143750Y-57943750D02*
G75*
G02*
X6350000Y-57150000I0J793750D01*
G01*
X6350000Y-47625000D02*
X6350000Y-57150000D01*
X11112500Y-57943750D02*
X11906250Y-57943750D01*
X11112500Y-46831250D02*
X11906250Y-46831250D01*
X11906250Y-57943750D02*
G75*
G02*
X12700000Y-58737500I0J-793750D01*
G01*
X12700000Y-46037500D02*
G75*
G02*
X11906250Y-46831250I-793750J0D01*
G01*
X7143750Y-46831250D02*
X11112500Y-46831250D01*
X11112500Y-57943750D02*
X7143750Y-57943750D01*
X12700000Y-58737500D02*
X12700000Y-138112500D01*
X12700000Y-23812500D02*
X12700000Y-46037500D01*
X342900000Y-138112500D02*
G75*
G02*
X339725000Y-141287500I-3175000J0D01*
G01*
X15875000Y-141287500D02*
G75*
G02*
X12700000Y-138112500I0J3175000D01*
G01*
X12700000Y-23812500D02*
G75*
G02*
X15875000Y-20637500I3175000J0D01*
G01*
X339725000Y-20637500D02*
G75*
G02*
X342900000Y-23812500I0J-3175000D01*
G01*
X342900000Y-138112500D02*
X342900000Y-23812500D01*
X15875000Y-141287500D02*
X339725000Y-141287500D01*
X15875000Y-20637500D02*
X339725000Y-20637500D01*
X282643000Y-120603000D02*
X282643000Y-122503000D01*
X285443000Y-119703000D02*
X283543000Y-119703000D01*
X286343000Y-122503000D02*
X286343000Y-120603000D01*
X283543000Y-123403000D02*
X285443000Y-123403000D01*
X282643000Y-120603000D02*
G75*
G02*
X283543000Y-119703000I900000J0D01*
G01*
X283543000Y-123403000D02*
G75*
G02*
X282643000Y-122503000I0J900000D01*
G01*
X286343000Y-122503000D02*
G75*
G02*
X285443000Y-123403000I-900000J0D01*
G01*
X285443000Y-119703000D02*
G75*
G02*
X286343000Y-120603000I0J-900000D01*
G01*
X225532000Y-120818000D02*
X225532000Y-122718000D01*
X228332000Y-119918000D02*
X226432000Y-119918000D01*
X229232000Y-122718000D02*
X229232000Y-120818000D01*
X226432000Y-123618000D02*
X228332000Y-123618000D01*
X225532000Y-120818000D02*
G75*
G02*
X226432000Y-119918000I900000J0D01*
G01*
X226432000Y-123618000D02*
G75*
G02*
X225532000Y-122718000I0J900000D01*
G01*
X229232000Y-122718000D02*
G75*
G02*
X228332000Y-123618000I-900000J0D01*
G01*
X228332000Y-119918000D02*
G75*
G02*
X229232000Y-120818000I0J-900000D01*
G01*
X111321000Y-120603000D02*
X111321000Y-122503000D01*
X114121000Y-119703000D02*
X112221000Y-119703000D01*
X115021000Y-122503000D02*
X115021000Y-120603000D01*
X112221000Y-123403000D02*
X114121000Y-123403000D01*
X111321000Y-120603000D02*
G75*
G02*
X112221000Y-119703000I900000J0D01*
G01*
X112221000Y-123403000D02*
G75*
G02*
X111321000Y-122503000I0J900000D01*
G01*
X115021000Y-122503000D02*
G75*
G02*
X114121000Y-123403000I-900000J0D01*
G01*
X114121000Y-119703000D02*
G75*
G02*
X115021000Y-120603000I0J-900000D01*
G01*
X53980000Y-120856000D02*
X53980000Y-122756000D01*
X56780000Y-119956000D02*
X54880000Y-119956000D01*
X57680000Y-122756000D02*
X57680000Y-120856000D01*
X54880000Y-123656000D02*
X56780000Y-123656000D01*
X53980000Y-120856000D02*
G75*
G02*
X54880000Y-119956000I900000J0D01*
G01*
X54880000Y-123656000D02*
G75*
G02*
X53980000Y-122756000I0J900000D01*
G01*
X57680000Y-122756000D02*
G75*
G02*
X56780000Y-123656000I-900000J0D01*
G01*
X56780000Y-119956000D02*
G75*
G02*
X57680000Y-120856000I0J-900000D01*
G01*
M02*
