M48
METRIC,TZ
T1C0.300
T2C0.500
T3C0.600
T4C1.000
T5C1.470
T6C1.500
%
G90
G05
T1
X15375Y-50763
X15411Y-55343
X16807Y-50562
X25768Y-56482
X26424Y-57147
X34640Y-60499
X54372Y-113386
X54475Y-74245
X54694Y-81527
X54710Y-92916
X58143Y-80680
X61137Y-92916
X61382Y-113386
X73025Y-74245
X73141Y-53861
X76853Y-124265
X85662Y-56505
X90900Y-74245
X96275Y-62793
X109439Y-92926
X109510Y-73968
X109804Y-117385
X109887Y-79324
X110812Y-54764
X111797Y-112027
X111876Y-81928
X112699Y-93090
X113829Y-80680
X115063Y-81815
X115356Y-101595
X115507Y-84441
X117406Y-72671
X118091Y-58781
X118128Y-83013
X119053Y-78487
X119993Y-66804
X120525Y-74423
X121901Y-79658
X125538Y-76851
X125559Y-77780
X126079Y-79160
X126804Y-83738
X127494Y-121695
X127637Y-82393
X127732Y-83769
X128057Y-79333
X129467Y-71469
X129583Y-112027
X129851Y-87561
X130884Y-75074
X131038Y-78227
X131391Y-75724
X132026Y-83541
X132828Y-81835
X133164Y-75722
X133999Y-124149
X134287Y-77024
X134319Y-78174
X136433Y-83781
X137571Y-81043
X138030Y-76798
X138384Y-77774
X139187Y-84231
X139464Y-82468
X139499Y-76075
X146436Y-74247
X147626Y-93090
X147805Y-111986
X173957Y-98043
X176813Y-117977
X177407Y-82468
X177494Y-80469
X178472Y-120022
X178668Y-81862
X179706Y-114353
X184204Y-110970
X185469Y-93090
X213351Y-122043
X229024Y-124500
X242272Y-114353
X242742Y-112899
X243075Y-92933
X243468Y-117977
X244212Y-80525
X244928Y-81645
X260448Y-111877
X261049Y-92933
X270595Y-124560
X284719Y-114418
X287900Y-111238
X299406Y-92933
X302755Y-59174
X302814Y-82470
X303004Y-92933
X307518Y-53842
T4
X26670Y-46990
X26670Y-52070
X26924Y-49530
X26924Y-54610
X308650Y-26238
X308650Y-40738
X311150Y-40738
X313650Y-26238
X313650Y-40738
T5
X21590Y-68897
X21590Y-87948
X21590Y-106998
X21590Y-126048
X22098Y-30798
X27940Y-66358
X27940Y-85408
X27940Y-104458
X27940Y-123508
X28448Y-28258
X31115Y-68897
X31115Y-87948
X31115Y-106998
X37465Y-66358
X37465Y-85408
X37465Y-104458
X40640Y-30798
X40640Y-49848
X40640Y-68897
X40640Y-87948
X40640Y-106998
X40640Y-126048
X46990Y-28258
X46990Y-47308
X46990Y-66358
X46990Y-85408
X46990Y-104458
X46990Y-123508
X59690Y-30798
X59690Y-49848
X59690Y-68897
X59690Y-87948
X59690Y-106998
X59690Y-126048
X66040Y-28258
X66040Y-47308
X66040Y-66358
X66040Y-85408
X66040Y-104458
X66040Y-123508
X78740Y-30798
X78740Y-49848
X78740Y-68897
X78740Y-87948
X78740Y-106998
X78740Y-126048
X85090Y-28258
X85090Y-47308
X85090Y-66358
X85090Y-85408
X85090Y-104458
X85090Y-123508
X97790Y-30798
X97790Y-49848
X97790Y-68897
X97790Y-87948
X97790Y-106998
X97790Y-126048
X104140Y-28258
X104140Y-47308
X104140Y-66358
X104140Y-85408
X104140Y-104458
X104140Y-123508
X116840Y-30798
X116840Y-49848
X116840Y-68897
X116840Y-87948
X116840Y-106998
X116840Y-126048
X123190Y-28258
X123190Y-47308
X123190Y-66358
X123190Y-85408
X123190Y-104458
X123190Y-123508
X135890Y-30798
X135890Y-49848
X135890Y-68897
X135890Y-87948
X135890Y-106998
X135890Y-126048
X142240Y-28258
X142240Y-47308
X142240Y-66358
X142240Y-85408
X142240Y-104458
X142240Y-123508
X154940Y-30798
X154940Y-49848
X154940Y-68897
X154940Y-87948
X154940Y-106998
X154940Y-126048
X161290Y-28258
X161290Y-47308
X161290Y-66358
X161290Y-85408
X161290Y-104458
X161290Y-123508
X173990Y-30798
X173990Y-49848
X173990Y-68897
X173990Y-87948
X173990Y-106998
X173990Y-126048
X180340Y-28258
X180340Y-47308
X180340Y-66358
X180340Y-85408
X180340Y-104458
X180340Y-123508
X193040Y-30798
X193040Y-49848
X193040Y-68897
X193040Y-87948
X193040Y-106998
X193040Y-126048
X199390Y-28258
X199390Y-47308
X199390Y-66358
X199390Y-85408
X199390Y-104458
X199390Y-123508
X212090Y-30798
X212090Y-49848
X212090Y-68897
X212090Y-87948
X212090Y-106998
X212090Y-126048
X218440Y-28258
X218440Y-47308
X218440Y-66358
X218440Y-85408
X218440Y-104458
X218440Y-123508
X231140Y-30798
X231140Y-49848
X231140Y-68897
X231140Y-87948
X231140Y-106998
X231140Y-126048
X237490Y-28258
X237490Y-47308
X237490Y-66358
X237490Y-85408
X237490Y-104458
X237490Y-123508
X250190Y-30798
X250190Y-49848
X250190Y-68897
X250190Y-87948
X250190Y-106998
X250190Y-126048
X256540Y-28258
X256540Y-47308
X256540Y-66358
X256540Y-85408
X256540Y-104458
X256540Y-123508
X269240Y-30798
X269240Y-49848
X269240Y-68897
X269240Y-87948
X269240Y-106998
X269240Y-126048
X275590Y-28258
X275590Y-47308
X275590Y-66358
X275590Y-85408
X275590Y-104458
X275590Y-123508
X288290Y-30798
X288290Y-49848
X288290Y-68897
X288290Y-87948
X288290Y-106998
X288290Y-126048
X294640Y-28258
X294640Y-47308
X294640Y-66358
X294640Y-85408
X294640Y-104458
X294640Y-123508
X297815Y-49848
X304165Y-47308
X307340Y-49848
X307340Y-68897
X307340Y-87948
X307340Y-106998
X307340Y-126048
X313690Y-47308
X313690Y-66358
X313690Y-85408
X313690Y-104458
X313690Y-123508
X316865Y-87948
X316865Y-106998
X323215Y-85408
X323215Y-104458
X326390Y-49848
X326390Y-68897
X326390Y-87948
X326390Y-106998
X326390Y-126048
X332740Y-47308
X332740Y-66358
X332740Y-85408
X332740Y-104458
X332740Y-123508
T6
X307400Y-30778
X313750Y-28238
T2
G00X12029Y-48068
M15
G01X13229Y-48068
M16
G05
G00X12029Y-56707
M15
G01X13229Y-56707
M16
G05
T3
G00X8149Y-48068
M15
G01X8749Y-48068
M16
G05
G00X8149Y-56707
M15
G01X8749Y-56707
M16
G05
T0
M30
