  0
SECTION
  2
HEADER
  9
$ACADVER
  1
AC1032
  9
$ACADMAINTVER
 90
      197
  9
$DWGCODEPAGE
  3
ANSI_1252
  9
$LASTSAVEDBY
  1
mattr
  9
$REQUIREDVERSIONS
160
                 0
  9
$INSBASE
 10
0.0
 20
0.0
 30
0.0
  9
$EXTMIN
 10
-162.4006173000001
 20
-57.62460650000003
 30
0.0
  9
$EXTMAX
 10
323.945
 20
114.558
 30
0.0
  9
$LIMMIN
 10
0.0
 20
0.0
  9
$LIMMAX
 10
12.0
 20
9.0
  9
$ORTHOMODE
 70
     0
  9
$REGENMODE
 70
     1
  9
$FILLMODE
 70
     0
  9
$QTEXTMODE
 70
     0
  9
$MIRRTEXT
 70
     0
  9
$LTSCALE
 40
1.0
  9
$ATTMODE
 70
     1
  9
$TEXTSIZE
 40
0.2
  9
$TRACEWID
 40
0.05
  9
$TEXTSTYLE
  7
Standard
  9
$CLAYER
  8
0
  9
$CELTYPE
  6
Continuous
  9
$CECOLOR
 62
   256
  9
$CELTSCALE
 40
1.0
  9
$DISPSILH
 70
     0
  9
$DIMSCALE
 40
1.0
  9
$DIMASZ
 40
0.18
  9
$DIMEXO
 40
0.0625
  9
$DIMDLI
 40
0.38
  9
$DIMRND
 40
0.0
  9
$DIMDLE
 40
0.0
  9
$DIMEXE
 40
0.18
  9
$DIMTP
 40
0.0
  9
$DIMTM
 40
0.0
  9
$DIMTXT
 40
0.18
  9
$DIMCEN
 40
0.09
  9
$DIMTSZ
 40
0.0
  9
$DIMTOL
 70
     0
  9
$DIMLIM
 70
     0
  9
$DIMTIH
 70
     1
  9
$DIMTOH
 70
     1
  9
$DIMSE1
 70
     0
  9
$DIMSE2
 70
     0
  9
$DIMTAD
 70
     0
  9
$DIMZIN
 70
     0
  9
$DIMBLK
  1

  9
$DIMASO
 70
     1
  9
$DIMSHO
 70
     1
  9
$DIMPOST
  1

  9
$DIMAPOST
  1

  9
$DIMALT
 70
     0
  9
$DIMALTD
 70
     2
  9
$DIMALTF
 40
25.4
  9
$DIMLFAC
 40
1.0
  9
$DIMTOFL
 70
     0
  9
$DIMTVP
 40
0.0
  9
$DIMTIX
 70
     0
  9
$DIMSOXD
 70
     0
  9
$DIMSAH
 70
     0
  9
$DIMBLK1
  1

  9
$DIMBLK2
  1

  9
$DIMSTYLE
  2
Standard
  9
$DIMCLRD
 70
     0
  9
$DIMCLRE
 70
     0
  9
$DIMCLRT
 70
     0
  9
$DIMTFAC
 40
1.0
  9
$DIMGAP
 40
0.09
  9
$DIMJUST
 70
     0
  9
$DIMSD1
 70
     0
  9
$DIMSD2
 70
     0
  9
$DIMTOLJ
 70
     1
  9
$DIMTZIN
 70
     0
  9
$DIMALTZ
 70
     0
  9
$DIMALTTZ
 70
     0
  9
$DIMUPT
 70
     0
  9
$DIMDEC
 70
     4
  9
$DIMTDEC
 70
     4
  9
$DIMALTU
 70
     2
  9
$DIMALTTD
 70
     2
  9
$DIMTXSTY
  7
Standard
  9
$DIMAUNIT
 70
     0
  9
$DIMADEC
 70
     0
  9
$DIMALTRND
 40
0.0
  9
$DIMAZIN
 70
     0
  9
$DIMDSEP
 70
    46
  9
$DIMATFIT
 70
     3
  9
$DIMFRAC
 70
     0
  9
$DIMLDRBLK
  1

  9
$DIMLUNIT
 70
     2
  9
$DIMLWD
 70
    -2
  9
$DIMLWE
 70
    -2
  9
$DIMTMOVE
 70
     0
  9
$DIMFXL
 40
1.0
  9
$DIMFXLON
 70
     0
  9
$DIMJOGANG
 40
0.7853981633974483
  9
$DIMTFILL
 70
     0
  9
$DIMTFILLCLR
 70
     0
  9
$DIMARCSYM
 70
     0
  9
$DIMLTYPE
  6

  9
$DIMLTEX1
  6

  9
$DIMLTEX2
  6

  9
$DIMTXTDIRECTION
 70
     0
  9
$LUNITS
 70
     2
  9
$LUPREC
 70
     4
  9
$SKETCHINC
 40
0.1
  9
$FILLETRAD
 40
2.0
  9
$AUNITS
 70
     0
  9
$AUPREC
 70
     0
  9
$MENU
  1
.
  9
$ELEVATION
 40
0.0
  9
$PELEVATION
 40
0.0
  9
$THICKNESS
 40
0.0
  9
$LIMCHECK
 70
     0
  9
$CHAMFERA
 40
0.0
  9
$CHAMFERB
 40
0.0
  9
$CHAMFERC
 40
0.0
  9
$CHAMFERD
 40
0.0
  9
$SKPOLY
 70
     0
  9
$TDCREATE
 40
2459446.278877315
  9
$TDUCREATE
 40
2459446.570543982
  9
$TDUPDATE
 40
2459446.325104167
  9
$TDUUPDATE
 40
2459446.616770833
  9
$TDINDWG
 40
0.0462268519
  9
$TDUSRTIMER
 40
0.0462268519
  9
$USRTIMER
 70
     1
  9
$ANGBASE
 50
0.0
  9
$ANGDIR
 70
     0
  9
$PDMODE
 70
     0
  9
$PDSIZE
 40
0.0
  9
$PLINEWID
 40
0.0
  9
$SPLFRAME
 70
     1
  9
$SPLINETYPE
 70
     6
  9
$SPLINESEGS
 70
     8
  9
$HANDSEED
  5
329
  9
$SURFTAB1
 70
     6
  9
$SURFTAB2
 70
     6
  9
$SURFTYPE
 70
     6
  9
$SURFU
 70
     6
  9
$SURFV
 70
     6
  9
$UCSBASE
  2

  9
$UCSNAME
  2

  9
$UCSORG
 10
0.0
 20
0.0
 30
0.0
  9
$UCSXDIR
 10
1.0
 20
0.0
 30
0.0
  9
$UCSYDIR
 10
0.0
 20
1.0
 30
0.0
  9
$UCSORTHOREF
  2

  9
$UCSORTHOVIEW
 70
     0
  9
$UCSORGTOP
 10
0.0
 20
0.0
 30
0.0
  9
$UCSORGBOTTOM
 10
0.0
 20
0.0
 30
0.0
  9
$UCSORGLEFT
 10
0.0
 20
0.0
 30
0.0
  9
$UCSORGRIGHT
 10
0.0
 20
0.0
 30
0.0
  9
$UCSORGFRONT
 10
0.0
 20
0.0
 30
0.0
  9
$UCSORGBACK
 10
0.0
 20
0.0
 30
0.0
  9
$PUCSBASE
  2

  9
$PUCSNAME
  2

  9
$PUCSORG
 10
0.0
 20
0.0
 30
0.0
  9
$PUCSXDIR
 10
1.0
 20
0.0
 30
0.0
  9
$PUCSYDIR
 10
0.0
 20
1.0
 30
0.0
  9
$PUCSORTHOREF
  2

  9
$PUCSORTHOVIEW
 70
     0
  9
$PUCSORGTOP
 10
0.0
 20
0.0
 30
0.0
  9
$PUCSORGBOTTOM
 10
0.0
 20
0.0
 30
0.0
  9
$PUCSORGLEFT
 10
0.0
 20
0.0
 30
0.0
  9
$PUCSORGRIGHT
 10
0.0
 20
0.0
 30
0.0
  9
$PUCSORGFRONT
 10
0.0
 20
0.0
 30
0.0
  9
$PUCSORGBACK
 10
0.0
 20
0.0
 30
0.0
  9
$USERI1
 70
     0
  9
$USERI2
 70
     0
  9
$USERI3
 70
     0
  9
$USERI4
 70
     0
  9
$USERI5
 70
     0
  9
$USERR1
 40
0.0
  9
$USERR2
 40
0.0
  9
$USERR3
 40
0.0
  9
$USERR4
 40
0.0
  9
$USERR5
 40
0.0
  9
$WORLDVIEW
 70
     1
  9
$SHADEDGE
 70
     3
  9
$SHADEDIF
 70
    70
  9
$TILEMODE
 70
     1
  9
$MAXACTVP
 70
    64
  9
$PINSBASE
 10
0.0
 20
0.0
 30
0.0
  9
$PLIMCHECK
 70
     0
  9
$PEXTMIN
 10
1.000000000000000E+20
 20
1.000000000000000E+20
 30
1.000000000000000E+20
  9
$PEXTMAX
 10
-1.000000000000000E+20
 20
-1.000000000000000E+20
 30
-1.000000000000000E+20
  9
$PLIMMIN
 10
0.0
 20
0.0
  9
$PLIMMAX
 10
12.0
 20
9.0
  9
$UNITMODE
 70
     0
  9
$VISRETAIN
 70
     1
  9
$PLINEGEN
 70
     0
  9
$PSLTSCALE
 70
     1
  9
$TREEDEPTH
 70
  3020
  9
$CMLSTYLE
  2
Standard
  9
$CMLJUST
 70
     0
  9
$CMLSCALE
 40
1.0
  9
$PROXYGRAPHICS
 70
     1
  9
$MEASUREMENT
 70
     0
  9
$CELWEIGHT
370
    -1
  9
$ENDCAPS
280
     0
  9
$JOINSTYLE
280
     0
  9
$LWDISPLAY
290
     0
  9
$INSUNITS
 70
     0
  9
$HYPERLINKBASE
  1

  9
$STYLESHEET
  1

  9
$XEDIT
290
     1
  9
$CEPSNTYPE
380
     0
  9
$PSTYLEMODE
290
     1
  9
$FINGERPRINTGUID
  2
{43342A87-35CC-5F41-9E27-FEFB6FF0A1A7}
  9
$VERSIONGUID
  2
{AB47DC4A-22E4-C740-A8AA-71D90784EFD7}
  9
$EXTNAMES
290
     1
  9
$PSVPSCALE
 40
0.0
  9
$OLESTARTUP
290
     0
  9
$SORTENTS
280
   127
  9
$INDEXCTL
280
     0
  9
$HIDETEXT
280
     0
  9
$XCLIPFRAME
280
     2
  9
$HALOGAP
280
     0
  9
$OBSCOLOR
 70
   257
  9
$OBSLTYPE
280
     0
  9
$INTERSECTIONDISPLAY
280
     0
  9
$INTERSECTIONCOLOR
 70
   257
  9
$DIMASSOC
280
     1
  9
$PROJECTNAME
  1

  9
$CAMERADISPLAY
290
     0
  9
$LENSLENGTH
 40
50.0
  9
$CAMERAHEIGHT
 40
0.0
  9
$STEPSPERSEC
 40
2.0
  9
$STEPSIZE
 40
6.0
  9
$3DDWFPREC
 40
2.0
  9
$PSOLWIDTH
 40
0.25
  9
$PSOLHEIGHT
 40
4.0
  9
$LOFTANG1
 40
1.570796326794896
  9
$LOFTANG2
 40
1.570796326794896
  9
$LOFTMAG1
 40
0.0
  9
$LOFTMAG2
 40
0.0
  9
$LOFTPARAM
 70
     7
  9
$LOFTNORMALS
280
     1
  9
$LATITUDE
 40
37.795
  9
$LONGITUDE
 40
-122.394
  9
$NORTHDIRECTION
 40
0.0
  9
$TIMEZONE
 70
 -8000
  9
$LIGHTGLYPHDISPLAY
280
     1
  9
$TILEMODELIGHTSYNCH
280
     1
  9
$CMATERIAL
347
11
  9
$SOLIDHIST
280
     0
  9
$SHOWHIST
280
     1
  9
$DWFFRAME
280
     2
  9
$DGNFRAME
280
     0
  9
$REALWORLDSCALE
290
     1
  9
$INTERFERECOLOR
 62
     1
  9
$INTERFEREOBJVS
345
33
  9
$INTERFEREVPVS
346
30
  9
$CSHADOW
280
     0
  9
$SHADOWPLANELOCATION
 40
0.0
  0
ENDSEC
  0
SECTION
  2
CLASSES
  0
CLASS
  1
ACDBDICTIONARYWDFLT
  2
AcDbDictionaryWithDefault
  3
ObjectDBX Classes
 90
        0
 91
        1
280
     0
281
     0
  0
CLASS
  1
MATERIAL
  2
AcDbMaterial
  3
ObjectDBX Classes
 90
     1153
 91
        3
280
     0
281
     0
  0
CLASS
  1
VISUALSTYLE
  2
AcDbVisualStyle
  3
ObjectDBX Classes
 90
     4095
 91
       24
280
     0
281
     0
  0
CLASS
  1
SCALE
  2
AcDbScale
  3
ObjectDBX Classes
 90
     1153
 91
       17
280
     0
281
     0
  0
CLASS
  1
TABLESTYLE
  2
AcDbTableStyle
  3
ObjectDBX Classes
 90
     4095
 91
        1
280
     0
281
     0
  0
CLASS
  1
MLEADERSTYLE
  2
AcDbMLeaderStyle
  3
ACDB_MLEADERSTYLE_CLASS
 90
     4095
 91
        1
280
     0
281
     0
  0
CLASS
  1
ACDBSECTIONVIEWSTYLE
  2
AcDbSectionViewStyle
  3
ObjectDBX Classes
 90
     1025
 91
        1
280
     0
281
     0
  0
CLASS
  1
ACDBDETAILVIEWSTYLE
  2
AcDbDetailViewStyle
  3
ObjectDBX Classes
 90
     1025
 91
        1
280
     0
281
     0
  0
CLASS
  1
DICTIONARYVAR
  2
AcDbDictionaryVar
  3
ObjectDBX Classes
 90
        0
 91
       36
280
     0
281
     0
  0
CLASS
  1
SORTENTSTABLE
  2
AcDbSortentsTable
  3
ObjectDBX Classes
 90
        0
 91
        1
280
     0
281
     0
  0
CLASS
  1
CELLSTYLEMAP
  2
AcDbCellStyleMap
  3
ObjectDBX Classes
 90
     1152
 91
        2
280
     0
281
     0
  0
ENDSEC
  0
SECTION
  2
TABLES
  0
TABLE
  2
VPORT
  5
8
330
0
100
AcDbSymbolTable
 70
     1
  0
VPORT
  5
74
330
8
100
AcDbSymbolTableRecord
100
AcDbViewportTableRecord
  2
*Active
 70
     0
 10
0.0
 20
0.0
 11
1.0
 21
1.0
 12
15.04001362354961
 22
23.2338675048517
 13
0.0
 23
0.0
 14
1.0
 24
1.0
 15
0.0
 25
0.0
 16
0.0
 26
0.0
 36
1.0
 17
0.0
 27
0.0
 37
0.0
 40
409.2044433664571
 41
1.89224629418472
 42
50.0
 43
0.0
 44
0.0
 50
0.0
 51
0.0
 71
     0
 72
   100
 73
     1
 74
     1
 75
     0
 76
     0
 77
     0
 78
     0
281
     0
 65
     1
110
0.0
120
0.0
130
0.0
111
1.0
121
0.0
131
0.0
112
0.0
122
1.0
132
0.0
 79
     0
146
0.0
348
2F
 60
     3
 61
     5
292
     1
282
     1
141
0.0
142
0.0
 63
   250
421
  3355443
1001
ACAD_NAV_VCDISPLAY
1070
     3
  0
ENDTAB
  0
TABLE
  2
LTYPE
  5
5
330
0
100
AcDbSymbolTable
 70
     2
  0
LTYPE
  5
5A
330
5
100
AcDbSymbolTableRecord
100
AcDbLinetypeTableRecord
  2
ByBlock
 70
     0
  3

 72
    65
 73
     0
 40
0.0
  0
LTYPE
  5
5B
330
5
100
AcDbSymbolTableRecord
100
AcDbLinetypeTableRecord
  2
ByLayer
 70
     0
  3

 72
    65
 73
     0
 40
0.0
  0
LTYPE
  5
5C
330
5
100
AcDbSymbolTableRecord
100
AcDbLinetypeTableRecord
  2
Continuous
 70
     0
  3
Solid line
 72
    65
 73
     0
 40
0.0
  0
ENDTAB
  0
TABLE
  2
LAYER
  5
2
102
{ACAD_XDICTIONARY
360
25D
102
}
330
0
100
AcDbSymbolTable
 70
     1
  0
LAYER
  5
54
102
{ACAD_XDICTIONARY
360
258
102
}
330
2
100
AcDbSymbolTableRecord
100
AcDbLayerTableRecord
  2
0
 70
     0
 62
     7
  6
Continuous
370
    -3
390
F
347
21
348
0
  0
ENDTAB
  0
TABLE
  2
STYLE
  5
3
330
0
100
AcDbSymbolTable
 70
     2
  0
STYLE
  5
55
330
3
100
AcDbSymbolTableRecord
100
AcDbTextStyleTableRecord
  2
Standard
 70
     0
 40
0.0
 41
1.0
 50
0.0
 71
     0
 42
0.2
  3
txt
  4

  0
STYLE
  5
59
330
3
100
AcDbSymbolTableRecord
100
AcDbTextStyleTableRecord
  2
Annotative
 70
     0
 40
0.0
 41
1.0
 50
0.0
 71
     0
 42
0.2
  3
txt
  4

1001
AcadAnnotative
1000
AnnotativeData
1002
{
1070
     1
1070
     1
1002
}
  0
ENDTAB
  0
TABLE
  2
VIEW
  5
6
330
0
100
AcDbSymbolTable
 70
     3
  0
ENDTAB
  0
TABLE
  2
UCS
  5
7
330
0
100
AcDbSymbolTable
 70
     0
  0
ENDTAB
  0
TABLE
  2
APPID
  5
9
330
0
100
AcDbSymbolTable
 70
     5
  0
APPID
  5
56
330
9
100
AcDbSymbolTableRecord
100
AcDbRegAppTableRecord
  2
ACAD
 70
     0
  0
APPID
  5
5D
330
9
100
AcDbSymbolTableRecord
100
AcDbRegAppTableRecord
  2
AcadAnnotative
 70
     0
  0
APPID
  5
243
330
9
100
AcDbSymbolTableRecord
100
AcDbRegAppTableRecord
  2
ACAD_NAV_VCDISPLAY
 70
     0
  0
APPID
  5
24E
330
9
100
AcDbSymbolTableRecord
100
AcDbRegAppTableRecord
  2
ACAD_EXEMPT_FROM_CAD_STANDARDS
 70
     0
  0
APPID
  5
255
330
9
100
AcDbSymbolTableRecord
100
AcDbRegAppTableRecord
  2
Acad_TC
 70
     0
  0
ENDTAB
  0
TABLE
  2
DIMSTYLE
  5
A
330
0
100
AcDbSymbolTable
 70
     3
100
AcDbDimStyleTable
 71
     1
340
57
  0
DIMSTYLE
105
57
330
A
100
AcDbSymbolTableRecord
100
AcDbDimStyleTableRecord
  2
Standard
 70
     0
340
55
  0
DIMSTYLE
105
58
330
A
100
AcDbSymbolTableRecord
100
AcDbDimStyleTableRecord
  2
Annotative
 70
     0
340
55
1001
AcadAnnotative
1000
AnnotativeData
1002
{
1070
     1
1070
     1
1002
}
  0
ENDTAB
  0
TABLE
  2
BLOCK_RECORD
  5
1
330
0
100
AcDbSymbolTable
 70
     2
  0
BLOCK_RECORD
  5
6F
102
{ACAD_XDICTIONARY
360
30F
102
}
330
1
100
AcDbSymbolTableRecord
100
AcDbBlockTableRecord
  2
*Model_Space
340
72
 70
     0
280
     1
281
     0
  0
BLOCK_RECORD
  5
6B
330
1
100
AcDbSymbolTableRecord
100
AcDbBlockTableRecord
  2
*Paper_Space
340
6E
 70
     0
280
     1
281
     0
  0
ENDTAB
  0
ENDSEC
  0
SECTION
  2
BLOCKS
  0
BLOCK
  5
70
330
6F
100
AcDbEntity
  8
0
100
AcDbBlockBegin
  2
*Model_Space
 70
     0
 10
0.0
 20
0.0
 30
0.0
  3
*Model_Space
  1

  0
ENDBLK
  5
71
330
6F
100
AcDbEntity
  8
0
100
AcDbBlockEnd
  0
BLOCK
  5
6C
330
6B
100
AcDbEntity
 67
     1
  8
0
100
AcDbBlockBegin
  2
*Paper_Space
 70
     0
 10
0.0
 20
0.0
 30
0.0
  3
*Paper_Space
  1

  0
ENDBLK
  5
6D
330
6B
100
AcDbEntity
 67
     1
  8
0
100
AcDbBlockEnd
  0
ENDSEC
  0
SECTION
  2
ENTITIES
  0
LINE
  5
79
330
6F
100
AcDbEntity
  8
0
 62
     0
100
AcDbLine
 10
102.2489577
 20
-54.6242065
 30
0.0
 11
102.2489577
 21
-40.62334649999999
 31
0.0
  0
LINE
  5
7A
330
6F
100
AcDbEntity
  8
0
 62
     0
100
AcDbLine
 10
102.2489577
 20
-40.62334649999999
 30
0.0
 11
96.89995770000003
 21
-40.62334649999999
 31
0.0
  0
LINE
  5
7B
330
6F
100
AcDbEntity
  8
0
 62
     0
100
AcDbLine
 10
96.89995770000003
 20
-40.62334649999999
 30
0.0
 11
96.89995770000003
 21
-39.6545865
 31
0.0
  0
LINE
  5
7C
330
6F
100
AcDbEntity
  8
0
 62
     0
100
AcDbLine
 10
96.89995770000003
 20
-39.6545865
 30
0.0
 11
93.59995770000001
 21
-39.6545865
 31
0.0
  0
LINE
  5
7D
330
6F
100
AcDbEntity
  8
0
 62
     0
100
AcDbLine
 10
93.59995770000001
 20
-39.6545865
 30
0.0
 11
93.59995770000001
 21
-40.62334649999999
 31
0.0
  0
LINE
  5
7E
330
6F
100
AcDbEntity
  8
0
 62
     0
100
AcDbLine
 10
93.59995770000001
 20
-40.62334649999999
 30
0.0
 11
88.24995770000001
 21
-40.62334649999999
 31
0.0
  0
LINE
  5
7F
330
6F
100
AcDbEntity
  8
0
 62
     0
100
AcDbLine
 10
88.24995770000001
 20
-40.62334649999999
 30
0.0
 11
88.24995770000001
 21
-45.3238165
 31
0.0
  0
LINE
  5
80
330
6F
100
AcDbEntity
  8
0
 62
     0
100
AcDbLine
 10
88.24995770000001
 20
-45.3238165
 30
0.0
 11
83.19895770000002
 21
-45.3238165
 31
0.0
  0
LINE
  5
81
330
6F
100
AcDbEntity
  8
0
 62
     0
100
AcDbLine
 10
83.19895770000002
 20
-45.3238165
 30
0.0
 11
83.19895770000002
 21
-40.62334649999999
 31
0.0
  0
LINE
  5
82
330
6F
100
AcDbEntity
  8
0
 62
     0
100
AcDbLine
 10
83.19895770000002
 20
-40.62334649999999
 30
0.0
 11
69.19995769999999
 21
-40.62334649999999
 31
0.0
  0
LINE
  5
83
330
6F
100
AcDbEntity
  8
0
 62
     0
100
AcDbLine
 10
69.19995769999999
 20
-40.62334649999999
 30
0.0
 11
69.19995769999999
 21
-45.3238165
 31
0.0
  0
LINE
  5
84
330
6F
100
AcDbEntity
  8
0
 62
     0
100
AcDbLine
 10
69.19995769999999
 20
-45.3238165
 30
0.0
 11
64.14895770000001
 21
-45.32381649999999
 31
0.0
  0
LINE
  5
85
330
6F
100
AcDbEntity
  8
0
 62
     0
100
AcDbLine
 10
64.14895770000001
 20
-45.32381649999999
 30
0.0
 11
64.14895770000001
 21
-40.62334649999999
 31
0.0
  0
LINE
  5
86
330
6F
100
AcDbEntity
  8
0
 62
     0
100
AcDbLine
 10
64.14895770000001
 20
-40.62334649999999
 30
0.0
 11
58.80095770000003
 21
-40.62334649999999
 31
0.0
  0
LINE
  5
87
330
6F
100
AcDbEntity
  8
0
 62
     0
100
AcDbLine
 10
58.80095770000003
 20
-40.62334649999999
 30
0.0
 11
58.80095770000003
 21
-39.6545865
 31
0.0
  0
LINE
  5
88
330
6F
100
AcDbEntity
  8
0
 62
     0
100
AcDbLine
 10
58.80095770000003
 20
-39.6545865
 30
0.0
 11
55.49995769999998
 21
-39.6545865
 31
0.0
  0
LINE
  5
89
330
6F
100
AcDbEntity
  8
0
 62
     0
100
AcDbLine
 10
55.49995769999998
 20
-39.6545865
 30
0.0
 11
55.49995769999998
 21
-40.62334649999999
 31
0.0
  0
LINE
  5
8A
330
6F
100
AcDbEntity
  8
0
 62
     0
100
AcDbLine
 10
55.49995769999998
 20
-40.62334649999999
 30
0.0
 11
50.14995770000002
 21
-40.62334649999999
 31
0.0
  0
LINE
  5
8B
330
6F
100
AcDbEntity
  8
0
 62
     0
100
AcDbLine
 10
50.14995770000002
 20
-40.62334649999999
 30
0.0
 11
50.14995770000002
 21
-54.62420649999999
 31
0.0
  0
LINE
  5
8C
330
6F
100
AcDbEntity
  8
0
 62
     0
100
AcDbLine
 10
50.14995770000002
 20
-54.62420649999999
 30
0.0
 11
64.14895770000001
 21
-54.62420649999999
 31
0.0
  0
LINE
  5
8D
330
6F
100
AcDbEntity
  8
0
 62
     0
100
AcDbLine
 10
64.14895770000001
 20
-54.62420649999999
 30
0.0
 11
64.14895770000001
 21
-49.92230649999999
 31
0.0
  0
LINE
  5
8E
330
6F
100
AcDbEntity
  8
0
 62
     0
100
AcDbLine
 10
64.14895770000001
 20
-49.92230649999999
 30
0.0
 11
69.19995769999999
 21
-49.92230649999999
 31
0.0
  0
LINE
  5
8F
330
6F
100
AcDbEntity
  8
0
 62
     0
100
AcDbLine
 10
69.19995769999999
 20
-49.92230649999999
 30
0.0
 11
69.19995769999999
 21
-54.6242065
 31
0.0
  0
LINE
  5
90
330
6F
100
AcDbEntity
  8
0
 62
     0
100
AcDbLine
 10
69.19995769999999
 20
-54.6242065
 30
0.0
 11
83.19895770000002
 21
-54.6242065
 31
0.0
  0
LINE
  5
91
330
6F
100
AcDbEntity
  8
0
 62
     0
100
AcDbLine
 10
83.19895770000002
 20
-54.6242065
 30
0.0
 11
83.19895770000002
 21
-49.92230649999999
 31
0.0
  0
LINE
  5
92
330
6F
100
AcDbEntity
  8
0
 62
     0
100
AcDbLine
 10
83.19895770000002
 20
-49.92230649999999
 30
0.0
 11
88.24995770000001
 21
-49.92230649999999
 31
0.0
  0
LINE
  5
93
330
6F
100
AcDbEntity
  8
0
 62
     0
100
AcDbLine
 10
88.24995770000001
 20
-49.92230649999999
 30
0.0
 11
88.24995770000001
 21
-54.6242065
 31
0.0
  0
LINE
  5
94
330
6F
100
AcDbEntity
  8
0
 62
     0
100
AcDbLine
 10
88.24995770000001
 20
-54.6242065
 30
0.0
 11
102.2489577
 21
-54.6242065
 31
0.0
  0
LINE
  5
95
330
6F
100
AcDbEntity
  8
0
 62
     0
100
AcDbLine
 10
-50.14964230000001
 20
-54.62420650000002
 30
0.0
 11
-50.14964230000001
 21
-40.62334650000002
 31
0.0
  0
LINE
  5
96
330
6F
100
AcDbEntity
  8
0
 62
     0
100
AcDbLine
 10
-50.14964230000001
 20
-40.62334650000002
 30
0.0
 11
-55.4991423
 21
-40.62334650000002
 31
0.0
  0
LINE
  5
97
330
6F
100
AcDbEntity
  8
0
 62
     0
100
AcDbLine
 10
-55.4991423
 20
-40.62334650000002
 30
0.0
 11
-55.4991423
 21
-39.65458650000002
 31
0.0
  0
LINE
  5
98
330
6F
100
AcDbEntity
  8
0
 62
     0
100
AcDbLine
 10
-55.4991423
 20
-39.65458650000002
 30
0.0
 11
-58.79944229999999
 21
-39.65458650000002
 31
0.0
  0
LINE
  5
99
330
6F
100
AcDbEntity
  8
0
 62
     0
100
AcDbLine
 10
-58.79944229999999
 20
-39.65458650000002
 30
0.0
 11
-58.79944229999999
 21
-40.62334650000002
 31
0.0
  0
LINE
  5
9A
330
6F
100
AcDbEntity
  8
0
 62
     0
100
AcDbLine
 10
-58.79944229999999
 20
-40.62334650000002
 30
0.0
 11
-64.15034229999999
 21
-40.62334650000002
 31
0.0
  0
LINE
  5
9B
330
6F
100
AcDbEntity
  8
0
 62
     0
100
AcDbLine
 10
-64.15034229999999
 20
-40.62334650000002
 30
0.0
 11
-64.15034229999999
 21
-45.32381650000002
 31
0.0
  0
LINE
  5
9C
330
6F
100
AcDbEntity
  8
0
 62
     0
100
AcDbLine
 10
-64.15034229999999
 20
-45.32381650000002
 30
0.0
 11
-69.20104229999999
 21
-45.32381650000001
 31
0.0
  0
LINE
  5
9D
330
6F
100
AcDbEntity
  8
0
 62
     0
100
AcDbLine
 10
-69.20104229999999
 20
-45.32381650000001
 30
0.0
 11
-69.20104229999999
 21
-40.62334650000001
 31
0.0
  0
LINE
  5
9E
330
6F
100
AcDbEntity
  8
0
 62
     0
100
AcDbLine
 10
-69.20104229999999
 20
-40.62334650000001
 30
0.0
 11
-83.2003423
 21
-40.62334650000001
 31
0.0
  0
LINE
  5
9F
330
6F
100
AcDbEntity
  8
0
 62
     0
100
AcDbLine
 10
-83.2003423
 20
-40.62334650000001
 30
0.0
 11
-83.2003423
 21
-45.32381650000001
 31
0.0
  0
LINE
  5
A0
330
6F
100
AcDbEntity
  8
0
 62
     0
100
AcDbLine
 10
-83.2003423
 20
-45.32381650000001
 30
0.0
 11
-88.2496423
 21
-45.32381650000001
 31
0.0
  0
LINE
  5
A1
330
6F
100
AcDbEntity
  8
0
 62
     0
100
AcDbLine
 10
-88.2496423
 20
-45.32381650000001
 30
0.0
 11
-88.2496423
 21
-40.62334650000001
 31
0.0
  0
LINE
  5
A2
330
6F
100
AcDbEntity
  8
0
 62
     0
100
AcDbLine
 10
-88.2496423
 20
-40.62334650000001
 30
0.0
 11
-93.6003423
 21
-40.62334650000001
 31
0.0
  0
LINE
  5
A3
330
6F
100
AcDbEntity
  8
0
 62
     0
100
AcDbLine
 10
-93.6003423
 20
-40.62334650000001
 30
0.0
 11
-93.6003423
 21
-39.65458650000002
 31
0.0
  0
LINE
  5
A4
330
6F
100
AcDbEntity
  8
0
 62
     0
100
AcDbLine
 10
-93.6003423
 20
-39.65458650000002
 30
0.0
 11
-96.90034229999998
 21
-39.65458650000002
 31
0.0
  0
LINE
  5
A5
330
6F
100
AcDbEntity
  8
0
 62
     0
100
AcDbLine
 10
-96.90034229999998
 20
-39.65458650000002
 30
0.0
 11
-96.90034229999998
 21
-40.62334650000001
 31
0.0
  0
LINE
  5
A6
330
6F
100
AcDbEntity
  8
0
 62
     0
100
AcDbLine
 10
-96.90034229999998
 20
-40.62334650000001
 30
0.0
 11
-102.2503423
 21
-40.62334650000001
 31
0.0
  0
LINE
  5
A7
330
6F
100
AcDbEntity
  8
0
 62
     0
100
AcDbLine
 10
-102.2503423
 20
-40.62334650000001
 30
0.0
 11
-102.2503423
 21
-54.62420650000002
 31
0.0
  0
LINE
  5
A8
330
6F
100
AcDbEntity
  8
0
 62
     0
100
AcDbLine
 10
-102.2503423
 20
-54.62420650000002
 30
0.0
 11
-88.2496423
 21
-54.62420650000002
 31
0.0
  0
LINE
  5
A9
330
6F
100
AcDbEntity
  8
0
 62
     0
100
AcDbLine
 10
-88.2496423
 20
-54.62420650000002
 30
0.0
 11
-88.2496423
 21
-49.92230650000001
 31
0.0
  0
LINE
  5
AA
330
6F
100
AcDbEntity
  8
0
 62
     0
100
AcDbLine
 10
-88.2496423
 20
-49.92230650000001
 30
0.0
 11
-83.2003423
 21
-49.92230650000001
 31
0.0
  0
LINE
  5
AB
330
6F
100
AcDbEntity
  8
0
 62
     0
100
AcDbLine
 10
-83.2003423
 20
-49.92230650000001
 30
0.0
 11
-83.2003423
 21
-54.62420650000002
 31
0.0
  0
LINE
  5
AC
330
6F
100
AcDbEntity
  8
0
 62
     0
100
AcDbLine
 10
-83.2003423
 20
-54.62420650000002
 30
0.0
 11
-69.20104229999999
 21
-54.62420650000002
 31
0.0
  0
LINE
  5
AD
330
6F
100
AcDbEntity
  8
0
 62
     0
100
AcDbLine
 10
-69.20104229999999
 20
-54.62420650000002
 30
0.0
 11
-69.20104229999999
 21
-49.92230650000001
 31
0.0
  0
LINE
  5
AE
330
6F
100
AcDbEntity
  8
0
 62
     0
100
AcDbLine
 10
-69.20104229999999
 20
-49.92230650000001
 30
0.0
 11
-64.15034229999999
 21
-49.92230650000002
 31
0.0
  0
LINE
  5
AF
330
6F
100
AcDbEntity
  8
0
 62
     0
100
AcDbLine
 10
-64.15034229999999
 20
-49.92230650000002
 30
0.0
 11
-64.15034229999999
 21
-54.62420650000002
 31
0.0
  0
LINE
  5
B0
330
6F
100
AcDbEntity
  8
0
 62
     0
100
AcDbLine
 10
-64.15034229999999
 20
-54.62420650000002
 30
0.0
 11
-50.14964230000001
 21
-54.62420650000002
 31
0.0
  0
LINE
  5
B1
330
6F
100
AcDbEntity
  8
0
 62
     0
100
AcDbLine
 10
145.3999577
 20
-40.6233465
 30
0.0
 11
159.3989577
 21
-40.6233465
 31
0.0
  0
LINE
  5
B2
330
6F
100
AcDbEntity
  8
0
 62
     0
100
AcDbLine
 10
159.3989577
 20
-40.6233465
 30
0.0
 11
159.3989577
 21
-54.62420650000001
 31
0.0
  0
LINE
  5
B3
330
6F
100
AcDbEntity
  8
0
 62
     0
100
AcDbLine
 10
159.3989577
 20
-54.62420650000001
 30
0.0
 11
145.3999577
 21
-54.62420650000001
 31
0.0
  0
LINE
  5
B4
330
6F
100
AcDbEntity
  8
0
 62
     0
100
AcDbLine
 10
145.3999577
 20
-54.62420650000001
 30
0.0
 11
145.3999577
 21
-40.6233465
 31
0.0
  0
LINE
  5
B5
330
6F
100
AcDbEntity
  8
0
 62
     0
100
AcDbLine
 10
126.3499577
 20
-40.6233465
 30
0.0
 11
140.3489577
 21
-40.6233465
 31
0.0
  0
LINE
  5
B6
330
6F
100
AcDbEntity
  8
0
 62
     0
100
AcDbLine
 10
140.3489577
 20
-40.6233465
 30
0.0
 11
140.3489577
 21
-54.62420650000001
 31
0.0
  0
LINE
  5
B7
330
6F
100
AcDbEntity
  8
0
 62
     0
100
AcDbLine
 10
140.3489577
 20
-54.62420650000001
 30
0.0
 11
126.3499577
 21
-54.62420650000001
 31
0.0
  0
LINE
  5
B8
330
6F
100
AcDbEntity
  8
0
 62
     0
100
AcDbLine
 10
126.3499577
 20
-54.62420650000001
 30
0.0
 11
126.3499577
 21
-40.6233465
 31
0.0
  0
LINE
  5
B9
330
6F
100
AcDbEntity
  8
0
 62
     0
100
AcDbLine
 10
107.2999577
 20
-40.6233465
 30
0.0
 11
121.2989577
 21
-40.6233465
 31
0.0
  0
LINE
  5
BA
330
6F
100
AcDbEntity
  8
0
 62
     0
100
AcDbLine
 10
121.2989577
 20
-40.6233465
 30
0.0
 11
121.2989577
 21
-54.62420650000001
 31
0.0
  0
LINE
  5
BB
330
6F
100
AcDbEntity
  8
0
 62
     0
100
AcDbLine
 10
121.2989577
 20
-54.62420650000001
 30
0.0
 11
107.2999577
 21
-54.62420650000001
 31
0.0
  0
LINE
  5
BC
330
6F
100
AcDbEntity
  8
0
 62
     0
100
AcDbLine
 10
107.2999577
 20
-54.62420650000001
 30
0.0
 11
107.2999577
 21
-40.6233465
 31
0.0
  0
LINE
  5
BD
330
6F
100
AcDbEntity
  8
0
 62
     0
100
AcDbLine
 10
31.09995770000001
 20
-40.6233465
 30
0.0
 11
45.09895770000002
 21
-40.6233465
 31
0.0
  0
LINE
  5
BE
330
6F
100
AcDbEntity
  8
0
 62
     0
100
AcDbLine
 10
45.09895770000002
 20
-40.6233465
 30
0.0
 11
45.09895770000002
 21
-54.62420650000001
 31
0.0
  0
LINE
  5
BF
330
6F
100
AcDbEntity
  8
0
 62
     0
100
AcDbLine
 10
45.09895770000002
 20
-54.62420650000001
 30
0.0
 11
31.09995770000001
 21
-54.62420650000001
 31
0.0
  0
LINE
  5
C0
330
6F
100
AcDbEntity
  8
0
 62
     0
100
AcDbLine
 10
31.09995770000001
 20
-54.62420650000001
 30
0.0
 11
31.09995770000001
 21
-40.6233465
 31
0.0
  0
LINE
  5
C1
330
6F
100
AcDbEntity
  8
0
 62
     0
100
AcDbLine
 10
12.04995769999999
 20
-40.6233465
 30
0.0
 11
26.04895770000002
 21
-40.6233465
 31
0.0
  0
LINE
  5
C2
330
6F
100
AcDbEntity
  8
0
 62
     0
100
AcDbLine
 10
26.04895770000002
 20
-40.6233465
 30
0.0
 11
26.04895770000002
 21
-54.62420650000001
 31
0.0
  0
LINE
  5
C3
330
6F
100
AcDbEntity
  8
0
 62
     0
100
AcDbLine
 10
26.04895770000002
 20
-54.62420650000001
 30
0.0
 11
12.04995769999999
 21
-54.62420650000001
 31
0.0
  0
LINE
  5
C4
330
6F
100
AcDbEntity
  8
0
 62
     0
100
AcDbLine
 10
12.04995769999999
 20
-54.62420650000001
 30
0.0
 11
12.04995769999999
 21
-40.6233465
 31
0.0
  0
LINE
  5
C5
330
6F
100
AcDbEntity
  8
0
 62
     0
100
AcDbLine
 10
-7.000042299999989
 20
-40.6233465
 30
0.0
 11
6.998957700000005
 21
-40.6233465
 31
0.0
  0
LINE
  5
C6
330
6F
100
AcDbEntity
  8
0
 62
     0
100
AcDbLine
 10
6.998957700000005
 20
-40.6233465
 30
0.0
 11
6.998957700000005
 21
-54.62420650000001
 31
0.0
  0
LINE
  5
C7
330
6F
100
AcDbEntity
  8
0
 62
     0
100
AcDbLine
 10
6.998957700000005
 20
-54.62420650000001
 30
0.0
 11
-7.000042299999989
 21
-54.62420650000001
 31
0.0
  0
LINE
  5
C8
330
6F
100
AcDbEntity
  8
0
 62
     0
100
AcDbLine
 10
-7.000042299999989
 20
-54.62420650000001
 30
0.0
 11
-7.000042299999989
 21
-40.6233465
 31
0.0
  0
LINE
  5
C9
330
6F
100
AcDbEntity
  8
0
 62
     0
100
AcDbLine
 10
-26.0500423
 20
-40.6233465
 30
0.0
 11
-12.0510423
 21
-40.6233465
 31
0.0
  0
LINE
  5
CA
330
6F
100
AcDbEntity
  8
0
 62
     0
100
AcDbLine
 10
-12.0510423
 20
-40.6233465
 30
0.0
 11
-12.0510423
 21
-54.62420650000001
 31
0.0
  0
LINE
  5
CB
330
6F
100
AcDbEntity
  8
0
 62
     0
100
AcDbLine
 10
-12.0510423
 20
-54.62420650000001
 30
0.0
 11
-26.0500423
 21
-54.62420650000001
 31
0.0
  0
LINE
  5
CC
330
6F
100
AcDbEntity
  8
0
 62
     0
100
AcDbLine
 10
-26.0500423
 20
-54.62420650000001
 30
0.0
 11
-26.0500423
 21
-40.6233465
 31
0.0
  0
LINE
  5
CD
330
6F
100
AcDbEntity
  8
0
 62
     0
100
AcDbLine
 10
-45.10204230000001
 20
-40.6233465
 30
0.0
 11
-31.10104230000002
 21
-40.6233465
 31
0.0
  0
LINE
  5
CE
330
6F
100
AcDbEntity
  8
0
 62
     0
100
AcDbLine
 10
-31.10104230000002
 20
-40.6233465
 30
0.0
 11
-31.10104230000002
 21
-54.62420650000001
 31
0.0
  0
LINE
  5
CF
330
6F
100
AcDbEntity
  8
0
 62
     0
100
AcDbLine
 10
-31.10104230000002
 20
-54.62420650000001
 30
0.0
 11
-45.10204230000001
 21
-54.62420650000001
 31
0.0
  0
LINE
  5
D0
330
6F
100
AcDbEntity
  8
0
 62
     0
100
AcDbLine
 10
-45.10204230000001
 20
-54.62420650000001
 30
0.0
 11
-45.10204230000001
 21
-40.6233465
 31
0.0
  0
LINE
  5
D1
330
6F
100
AcDbEntity
  8
0
 62
     0
100
AcDbLine
 10
-121.3003423
 20
-40.6233465
 30
0.0
 11
-107.3010423
 21
-40.6233465
 31
0.0
  0
LINE
  5
D2
330
6F
100
AcDbEntity
  8
0
 62
     0
100
AcDbLine
 10
-107.3010423
 20
-40.6233465
 30
0.0
 11
-107.3010423
 21
-54.62420650000001
 31
0.0
  0
LINE
  5
D3
330
6F
100
AcDbEntity
  8
0
 62
     0
100
AcDbLine
 10
-107.3010423
 20
-54.62420650000001
 30
0.0
 11
-121.3003423
 21
-54.62420650000001
 31
0.0
  0
LINE
  5
D4
330
6F
100
AcDbEntity
  8
0
 62
     0
100
AcDbLine
 10
-121.3003423
 20
-54.62420650000001
 30
0.0
 11
-121.3003423
 21
-40.6233465
 31
0.0
  0
LINE
  5
D5
330
6F
100
AcDbEntity
  8
0
 62
     0
100
AcDbLine
 10
-140.3503423
 20
-40.6233465
 30
0.0
 11
-126.3510423
 21
-40.6233465
 31
0.0
  0
LINE
  5
D6
330
6F
100
AcDbEntity
  8
0
 62
     0
100
AcDbLine
 10
-126.3510423
 20
-40.6233465
 30
0.0
 11
-126.3510423
 21
-54.62420650000001
 31
0.0
  0
LINE
  5
D7
330
6F
100
AcDbEntity
  8
0
 62
     0
100
AcDbLine
 10
-126.3510423
 20
-54.62420650000001
 30
0.0
 11
-140.3503423
 21
-54.62420650000001
 31
0.0
  0
LINE
  5
D8
330
6F
100
AcDbEntity
  8
0
 62
     0
100
AcDbLine
 10
-140.3503423
 20
-54.62420650000001
 30
0.0
 11
-140.3503423
 21
-40.6233465
 31
0.0
  0
LINE
  5
D9
330
6F
100
AcDbEntity
  8
0
 62
     0
100
AcDbLine
 10
-159.4003923
 20
-40.6233465
 30
0.0
 11
-145.4008423
 21
-40.6233465
 31
0.0
  0
LINE
  5
DA
330
6F
100
AcDbEntity
  8
0
 62
     0
100
AcDbLine
 10
-145.4008423
 20
-40.6233465
 30
0.0
 11
-145.4008423
 21
-54.62420650000001
 31
0.0
  0
LINE
  5
DB
330
6F
100
AcDbEntity
  8
0
 62
     0
100
AcDbLine
 10
-145.4008423
 20
-54.62420650000001
 30
0.0
 11
-159.4003923
 21
-54.62420650000001
 31
0.0
  0
LINE
  5
DC
330
6F
100
AcDbEntity
  8
0
 62
     0
100
AcDbLine
 10
-159.4003923
 20
-54.62420650000001
 30
0.0
 11
-159.4003923
 21
-40.6233465
 31
0.0
  0
LINE
  5
DD
330
6F
100
AcDbEntity
  8
0
 62
     0
100
AcDbLine
 10
126.3499577
 20
-21.57484650000001
 30
0.0
 11
126.3499577
 21
-35.5742465
 31
0.0
  0
LINE
  5
DE
330
6F
100
AcDbEntity
  8
0
 62
     0
100
AcDbLine
 10
126.3499577
 20
-35.5742465
 30
0.0
 11
129.3249577
 21
-35.5742465
 31
0.0
  0
LINE
  5
DF
330
6F
100
AcDbEntity
  8
0
 62
     0
100
AcDbLine
 10
129.3249577
 20
-35.5742465
 30
0.0
 11
129.3249577
 21
-36.54434650000001
 31
0.0
  0
LINE
  5
E0
330
6F
100
AcDbEntity
  8
0
 62
     0
100
AcDbLine
 10
129.3249577
 20
-36.54434650000001
 30
0.0
 11
132.6239577
 21
-36.54434650000001
 31
0.0
  0
LINE
  5
E1
330
6F
100
AcDbEntity
  8
0
 62
     0
100
AcDbLine
 10
132.6239577
 20
-36.54434650000001
 30
0.0
 11
132.6239577
 21
-35.5742465
 31
0.0
  0
LINE
  5
E2
330
6F
100
AcDbEntity
  8
0
 62
     0
100
AcDbLine
 10
132.6239577
 20
-35.5742465
 30
0.0
 11
153.1249577
 21
-35.5742465
 31
0.0
  0
LINE
  5
E3
330
6F
100
AcDbEntity
  8
0
 62
     0
100
AcDbLine
 10
153.1249577
 20
-35.5742465
 30
0.0
 11
153.1249577
 21
-36.54434650000001
 31
0.0
  0
LINE
  5
E4
330
6F
100
AcDbEntity
  8
0
 62
     0
100
AcDbLine
 10
153.1249577
 20
-36.54434650000001
 30
0.0
 11
156.4239577
 21
-36.54434650000001
 31
0.0
  0
LINE
  5
E5
330
6F
100
AcDbEntity
  8
0
 62
     0
100
AcDbLine
 10
156.4239577
 20
-36.54434650000001
 30
0.0
 11
156.4239577
 21
-35.5742465
 31
0.0
  0
LINE
  5
E6
330
6F
100
AcDbEntity
  8
0
 62
     0
100
AcDbLine
 10
156.4239577
 20
-35.5742465
 30
0.0
 11
159.3989577
 21
-35.5742465
 31
0.0
  0
LINE
  5
E7
330
6F
100
AcDbEntity
  8
0
 62
     0
100
AcDbLine
 10
159.3989577
 20
-35.5742465
 30
0.0
 11
159.3989577
 21
-21.57484650000001
 31
0.0
  0
LINE
  5
E8
330
6F
100
AcDbEntity
  8
0
 62
     0
100
AcDbLine
 10
159.3989577
 20
-21.57484650000001
 30
0.0
 11
126.3499577
 21
-21.57484650000001
 31
0.0
  0
LINE
  5
E9
330
6F
100
AcDbEntity
  8
0
 62
     0
100
AcDbLine
 10
-159.4003923
 20
-21.57484650000001
 30
0.0
 11
-159.4003923
 21
-35.5742465
 31
0.0
  0
LINE
  5
EA
330
6F
100
AcDbEntity
  8
0
 62
     0
100
AcDbLine
 10
-159.4003923
 20
-35.5742465
 30
0.0
 11
-156.4252023
 21
-35.5742465
 31
0.0
  0
LINE
  5
EB
330
6F
100
AcDbEntity
  8
0
 62
     0
100
AcDbLine
 10
-156.4252023
 20
-35.5742465
 30
0.0
 11
-156.4252023
 21
-36.54434650000001
 31
0.0
  0
LINE
  5
EC
330
6F
100
AcDbEntity
  8
0
 62
     0
100
AcDbLine
 10
-156.4252023
 20
-36.54434650000001
 30
0.0
 11
-153.1261923
 21
-36.54434650000001
 31
0.0
  0
LINE
  5
ED
330
6F
100
AcDbEntity
  8
0
 62
     0
100
AcDbLine
 10
-153.1261923
 20
-36.54434650000001
 30
0.0
 11
-153.1261923
 21
-35.5742465
 31
0.0
  0
LINE
  5
EE
330
6F
100
AcDbEntity
  8
0
 62
     0
100
AcDbLine
 10
-153.1261923
 20
-35.5742465
 30
0.0
 11
-132.6251423
 21
-35.5742465
 31
0.0
  0
LINE
  5
EF
330
6F
100
AcDbEntity
  8
0
 62
     0
100
AcDbLine
 10
-132.6251423
 20
-35.5742465
 30
0.0
 11
-132.6251423
 21
-36.54434650000001
 31
0.0
  0
LINE
  5
F0
330
6F
100
AcDbEntity
  8
0
 62
     0
100
AcDbLine
 10
-132.6251423
 20
-36.54434650000001
 30
0.0
 11
-129.3260422999999
 21
-36.54434650000001
 31
0.0
  0
LINE
  5
F1
330
6F
100
AcDbEntity
  8
0
 62
     0
100
AcDbLine
 10
-129.3260422999999
 20
-36.54434650000001
 30
0.0
 11
-129.3260422999999
 21
-35.5742465
 31
0.0
  0
LINE
  5
F2
330
6F
100
AcDbEntity
  8
0
 62
     0
100
AcDbLine
 10
-129.3260422999999
 20
-35.5742465
 30
0.0
 11
-126.3510423
 21
-35.5742465
 31
0.0
  0
LINE
  5
F3
330
6F
100
AcDbEntity
  8
0
 62
     0
100
AcDbLine
 10
-126.3510423
 20
-35.5742465
 30
0.0
 11
-126.3510423
 21
-21.57484650000001
 31
0.0
  0
LINE
  5
F4
330
6F
100
AcDbEntity
  8
0
 62
     0
100
AcDbLine
 10
-126.3510423
 20
-21.57484650000001
 30
0.0
 11
-159.4003923
 21
-21.57484650000001
 31
0.0
  0
LINE
  5
F5
330
6F
100
AcDbEntity
  8
0
 62
     0
100
AcDbLine
 10
107.2999577
 20
-21.57484650000001
 30
0.0
 11
121.2989577
 21
-21.57484650000001
 31
0.0
  0
LINE
  5
F6
330
6F
100
AcDbEntity
  8
0
 62
     0
100
AcDbLine
 10
121.2989577
 20
-21.57484650000001
 30
0.0
 11
121.2989577
 21
-35.5742465
 31
0.0
  0
LINE
  5
F7
330
6F
100
AcDbEntity
  8
0
 62
     0
100
AcDbLine
 10
121.2989577
 20
-35.5742465
 30
0.0
 11
107.2999577
 21
-35.5742465
 31
0.0
  0
LINE
  5
F8
330
6F
100
AcDbEntity
  8
0
 62
     0
100
AcDbLine
 10
107.2999577
 20
-35.5742465
 30
0.0
 11
107.2999577
 21
-21.57484650000001
 31
0.0
  0
LINE
  5
F9
330
6F
100
AcDbEntity
  8
0
 62
     0
100
AcDbLine
 10
88.24995770000001
 20
-21.57484650000001
 30
0.0
 11
102.2489577
 21
-21.57484650000001
 31
0.0
  0
LINE
  5
FA
330
6F
100
AcDbEntity
  8
0
 62
     0
100
AcDbLine
 10
102.2489577
 20
-21.57484650000001
 30
0.0
 11
102.2489577
 21
-35.5742465
 31
0.0
  0
LINE
  5
FB
330
6F
100
AcDbEntity
  8
0
 62
     0
100
AcDbLine
 10
102.2489577
 20
-35.5742465
 30
0.0
 11
88.24995770000001
 21
-35.5742465
 31
0.0
  0
LINE
  5
FC
330
6F
100
AcDbEntity
  8
0
 62
     0
100
AcDbLine
 10
88.24995770000001
 20
-35.5742465
 30
0.0
 11
88.24995770000001
 21
-21.57484650000001
 31
0.0
  0
LINE
  5
FD
330
6F
100
AcDbEntity
  8
0
 62
     0
100
AcDbLine
 10
69.19995769999999
 20
-21.57484650000001
 30
0.0
 11
83.19895770000002
 21
-21.57484650000001
 31
0.0
  0
LINE
  5
FE
330
6F
100
AcDbEntity
  8
0
 62
     0
100
AcDbLine
 10
83.19895770000002
 20
-21.57484650000001
 30
0.0
 11
83.19895770000002
 21
-35.5742465
 31
0.0
  0
LINE
  5
FF
330
6F
100
AcDbEntity
  8
0
 62
     0
100
AcDbLine
 10
83.19895770000002
 20
-35.5742465
 30
0.0
 11
69.19995769999999
 21
-35.5742465
 31
0.0
  0
LINE
  5
100
330
6F
100
AcDbEntity
  8
0
 62
     0
100
AcDbLine
 10
69.19995769999999
 20
-35.5742465
 30
0.0
 11
69.19995769999999
 21
-21.57484650000001
 31
0.0
  0
LINE
  5
101
330
6F
100
AcDbEntity
  8
0
 62
     0
100
AcDbLine
 10
50.14995769999998
 20
-21.57484650000001
 30
0.0
 11
64.14895770000001
 21
-21.57484650000001
 31
0.0
  0
LINE
  5
102
330
6F
100
AcDbEntity
  8
0
 62
     0
100
AcDbLine
 10
64.14895770000001
 20
-21.57484650000001
 30
0.0
 11
64.14895770000001
 21
-35.5742465
 31
0.0
  0
LINE
  5
103
330
6F
100
AcDbEntity
  8
0
 62
     0
100
AcDbLine
 10
64.14895770000001
 20
-35.5742465
 30
0.0
 11
50.14995769999998
 21
-35.5742465
 31
0.0
  0
LINE
  5
104
330
6F
100
AcDbEntity
  8
0
 62
     0
100
AcDbLine
 10
50.14995769999998
 20
-35.5742465
 30
0.0
 11
50.14995769999998
 21
-21.57484650000001
 31
0.0
  0
LINE
  5
105
330
6F
100
AcDbEntity
  8
0
 62
     0
100
AcDbLine
 10
31.09995770000001
 20
-21.57484650000001
 30
0.0
 11
45.09895770000002
 21
-21.57484650000001
 31
0.0
  0
LINE
  5
106
330
6F
100
AcDbEntity
  8
0
 62
     0
100
AcDbLine
 10
45.09895770000002
 20
-21.57484650000001
 30
0.0
 11
45.09895770000002
 21
-35.5742465
 31
0.0
  0
LINE
  5
107
330
6F
100
AcDbEntity
  8
0
 62
     0
100
AcDbLine
 10
45.09895770000002
 20
-35.5742465
 30
0.0
 11
31.09995770000001
 21
-35.5742465
 31
0.0
  0
LINE
  5
108
330
6F
100
AcDbEntity
  8
0
 62
     0
100
AcDbLine
 10
31.09995770000001
 20
-35.5742465
 30
0.0
 11
31.09995770000001
 21
-21.57484650000001
 31
0.0
  0
LINE
  5
109
330
6F
100
AcDbEntity
  8
0
 62
     0
100
AcDbLine
 10
12.04995769999999
 20
-21.57484650000001
 30
0.0
 11
26.04895770000002
 21
-21.57484650000001
 31
0.0
  0
LINE
  5
10A
330
6F
100
AcDbEntity
  8
0
 62
     0
100
AcDbLine
 10
26.04895770000002
 20
-21.57484650000001
 30
0.0
 11
26.04895770000002
 21
-35.5742465
 31
0.0
  0
LINE
  5
10B
330
6F
100
AcDbEntity
  8
0
 62
     0
100
AcDbLine
 10
26.04895770000002
 20
-35.5742465
 30
0.0
 11
12.04995769999999
 21
-35.5742465
 31
0.0
  0
LINE
  5
10C
330
6F
100
AcDbEntity
  8
0
 62
     0
100
AcDbLine
 10
12.04995769999999
 20
-35.5742465
 30
0.0
 11
12.04995769999999
 21
-21.57484650000001
 31
0.0
  0
LINE
  5
10D
330
6F
100
AcDbEntity
  8
0
 62
     0
100
AcDbLine
 10
-7.000042299999989
 20
-21.57484650000001
 30
0.0
 11
6.998957700000005
 21
-21.57484650000001
 31
0.0
  0
LINE
  5
10E
330
6F
100
AcDbEntity
  8
0
 62
     0
100
AcDbLine
 10
6.998957700000005
 20
-21.57484650000001
 30
0.0
 11
6.998957700000005
 21
-35.5742465
 31
0.0
  0
LINE
  5
10F
330
6F
100
AcDbEntity
  8
0
 62
     0
100
AcDbLine
 10
6.998957700000005
 20
-35.5742465
 30
0.0
 11
-7.000042299999989
 21
-35.5742465
 31
0.0
  0
LINE
  5
110
330
6F
100
AcDbEntity
  8
0
 62
     0
100
AcDbLine
 10
-7.000042299999989
 20
-35.5742465
 30
0.0
 11
-7.000042299999989
 21
-21.57484650000001
 31
0.0
  0
LINE
  5
111
330
6F
100
AcDbEntity
  8
0
 62
     0
100
AcDbLine
 10
-26.0500423
 20
-21.57484650000001
 30
0.0
 11
-12.0510423
 21
-21.57484650000001
 31
0.0
  0
LINE
  5
112
330
6F
100
AcDbEntity
  8
0
 62
     0
100
AcDbLine
 10
-12.0510423
 20
-21.57484650000001
 30
0.0
 11
-12.0510423
 21
-35.5742465
 31
0.0
  0
LINE
  5
113
330
6F
100
AcDbEntity
  8
0
 62
     0
100
AcDbLine
 10
-12.0510423
 20
-35.5742465
 30
0.0
 11
-26.0500423
 21
-35.5742465
 31
0.0
  0
LINE
  5
114
330
6F
100
AcDbEntity
  8
0
 62
     0
100
AcDbLine
 10
-26.0500423
 20
-35.5742465
 30
0.0
 11
-26.0500423
 21
-21.57484650000001
 31
0.0
  0
LINE
  5
115
330
6F
100
AcDbEntity
  8
0
 62
     0
100
AcDbLine
 10
-45.10204230000001
 20
-21.57484650000001
 30
0.0
 11
-31.10104230000002
 21
-21.57484650000001
 31
0.0
  0
LINE
  5
116
330
6F
100
AcDbEntity
  8
0
 62
     0
100
AcDbLine
 10
-31.10104230000002
 20
-21.57484650000001
 30
0.0
 11
-31.10104230000002
 21
-35.5742465
 31
0.0
  0
LINE
  5
117
330
6F
100
AcDbEntity
  8
0
 62
     0
100
AcDbLine
 10
-31.10104230000002
 20
-35.5742465
 30
0.0
 11
-45.10204230000001
 21
-35.5742465
 31
0.0
  0
LINE
  5
118
330
6F
100
AcDbEntity
  8
0
 62
     0
100
AcDbLine
 10
-45.10204230000001
 20
-35.5742465
 30
0.0
 11
-45.10204230000001
 21
-21.57484650000001
 31
0.0
  0
LINE
  5
119
330
6F
100
AcDbEntity
  8
0
 62
     0
100
AcDbLine
 10
-64.15174229999999
 20
-21.57484650000001
 30
0.0
 11
-50.1510423
 21
-21.57484650000001
 31
0.0
  0
LINE
  5
11A
330
6F
100
AcDbEntity
  8
0
 62
     0
100
AcDbLine
 10
-50.1510423
 20
-21.57484650000001
 30
0.0
 11
-50.1510423
 21
-35.5742465
 31
0.0
  0
LINE
  5
11B
330
6F
100
AcDbEntity
  8
0
 62
     0
100
AcDbLine
 10
-50.1510423
 20
-35.5742465
 30
0.0
 11
-64.15174229999999
 21
-35.5742465
 31
0.0
  0
LINE
  5
11C
330
6F
100
AcDbEntity
  8
0
 62
     0
100
AcDbLine
 10
-64.15174229999999
 20
-35.5742465
 30
0.0
 11
-64.15174229999999
 21
-21.57484650000001
 31
0.0
  0
LINE
  5
11D
330
6F
100
AcDbEntity
  8
0
 62
     0
100
AcDbLine
 10
-83.2003423
 20
-21.57484650000001
 30
0.0
 11
-69.20104229999999
 21
-21.57484650000001
 31
0.0
  0
LINE
  5
11E
330
6F
100
AcDbEntity
  8
0
 62
     0
100
AcDbLine
 10
-69.20104229999999
 20
-21.57484650000001
 30
0.0
 11
-69.20104229999999
 21
-35.5742465
 31
0.0
  0
LINE
  5
11F
330
6F
100
AcDbEntity
  8
0
 62
     0
100
AcDbLine
 10
-69.20104229999999
 20
-35.5742465
 30
0.0
 11
-83.2003423
 21
-35.5742465
 31
0.0
  0
LINE
  5
120
330
6F
100
AcDbEntity
  8
0
 62
     0
100
AcDbLine
 10
-83.2003423
 20
-35.5742465
 30
0.0
 11
-83.2003423
 21
-21.57484650000001
 31
0.0
  0
LINE
  5
121
330
6F
100
AcDbEntity
  8
0
 62
     0
100
AcDbLine
 10
-102.2503423
 20
-21.57484650000001
 30
0.0
 11
-88.2510423
 21
-21.57484650000001
 31
0.0
  0
LINE
  5
122
330
6F
100
AcDbEntity
  8
0
 62
     0
100
AcDbLine
 10
-88.2510423
 20
-21.57484650000001
 30
0.0
 11
-88.2510423
 21
-35.5742465
 31
0.0
  0
LINE
  5
123
330
6F
100
AcDbEntity
  8
0
 62
     0
100
AcDbLine
 10
-88.2510423
 20
-35.5742465
 30
0.0
 11
-102.2503423
 21
-35.5742465
 31
0.0
  0
LINE
  5
124
330
6F
100
AcDbEntity
  8
0
 62
     0
100
AcDbLine
 10
-102.2503423
 20
-35.5742465
 30
0.0
 11
-102.2503423
 21
-21.57484650000001
 31
0.0
  0
LINE
  5
125
330
6F
100
AcDbEntity
  8
0
 62
     0
100
AcDbLine
 10
-121.3003423
 20
-21.57484650000001
 30
0.0
 11
-107.3010423
 21
-21.57484650000001
 31
0.0
  0
LINE
  5
126
330
6F
100
AcDbEntity
  8
0
 62
     0
100
AcDbLine
 10
-107.3010423
 20
-21.57484650000001
 30
0.0
 11
-107.3010423
 21
-35.5742465
 31
0.0
  0
LINE
  5
127
330
6F
100
AcDbEntity
  8
0
 62
     0
100
AcDbLine
 10
-107.3010423
 20
-35.5742465
 30
0.0
 11
-121.3003423
 21
-35.5742465
 31
0.0
  0
LINE
  5
128
330
6F
100
AcDbEntity
  8
0
 62
     0
100
AcDbLine
 10
-121.3003423
 20
-35.5742465
 30
0.0
 11
-121.3003423
 21
-21.57484650000001
 31
0.0
  0
LINE
  5
129
330
6F
100
AcDbEntity
  8
0
 62
     0
100
AcDbLine
 10
126.3499577
 20
-2.524746500000006
 30
0.0
 11
126.3499577
 21
-16.5240465
 31
0.0
  0
LINE
  5
12A
330
6F
100
AcDbEntity
  8
0
 62
     0
100
AcDbLine
 10
126.3499577
 20
-16.5240465
 30
0.0
 11
129.3249577
 21
-16.5240465
 31
0.0
  0
LINE
  5
12B
330
6F
100
AcDbEntity
  8
0
 62
     0
100
AcDbLine
 10
129.3249577
 20
-16.5240465
 30
0.0
 11
129.3249577
 21
-17.4942465
 31
0.0
  0
LINE
  5
12C
330
6F
100
AcDbEntity
  8
0
 62
     0
100
AcDbLine
 10
129.3249577
 20
-17.4942465
 30
0.0
 11
132.6239577
 21
-17.4942465
 31
0.0
  0
LINE
  5
12D
330
6F
100
AcDbEntity
  8
0
 62
     0
100
AcDbLine
 10
132.6239577
 20
-17.4942465
 30
0.0
 11
132.6239577
 21
-16.5240465
 31
0.0
  0
LINE
  5
12E
330
6F
100
AcDbEntity
  8
0
 62
     0
100
AcDbLine
 10
132.6239577
 20
-16.5240465
 30
0.0
 11
153.1249577
 21
-16.5240465
 31
0.0
  0
LINE
  5
12F
330
6F
100
AcDbEntity
  8
0
 62
     0
100
AcDbLine
 10
153.1249577
 20
-16.5240465
 30
0.0
 11
153.1249577
 21
-17.4942465
 31
0.0
  0
LINE
  5
130
330
6F
100
AcDbEntity
  8
0
 62
     0
100
AcDbLine
 10
153.1249577
 20
-17.4942465
 30
0.0
 11
156.4239577
 21
-17.4942465
 31
0.0
  0
LINE
  5
131
330
6F
100
AcDbEntity
  8
0
 62
     0
100
AcDbLine
 10
156.4239577
 20
-17.4942465
 30
0.0
 11
156.4239577
 21
-16.5240465
 31
0.0
  0
LINE
  5
132
330
6F
100
AcDbEntity
  8
0
 62
     0
100
AcDbLine
 10
156.4239577
 20
-16.5240465
 30
0.0
 11
159.3989577
 21
-16.5240465
 31
0.0
  0
LINE
  5
133
330
6F
100
AcDbEntity
  8
0
 62
     0
100
AcDbLine
 10
159.3989577
 20
-16.5240465
 30
0.0
 11
159.3989577
 21
-2.524746500000006
 31
0.0
  0
LINE
  5
134
330
6F
100
AcDbEntity
  8
0
 62
     0
100
AcDbLine
 10
159.3989577
 20
-2.524746500000006
 30
0.0
 11
126.3499577
 21
-2.524746500000006
 31
0.0
  0
LINE
  5
135
330
6F
100
AcDbEntity
  8
0
 62
     0
100
AcDbLine
 10
-159.4003923
 20
-2.524746500000006
 30
0.0
 11
-159.4003923
 21
-16.5240465
 31
0.0
  0
LINE
  5
136
330
6F
100
AcDbEntity
  8
0
 62
     0
100
AcDbLine
 10
-159.4003923
 20
-16.5240465
 30
0.0
 11
-156.4252023
 21
-16.5240465
 31
0.0
  0
LINE
  5
137
330
6F
100
AcDbEntity
  8
0
 62
     0
100
AcDbLine
 10
-156.4252023
 20
-16.5240465
 30
0.0
 11
-156.4252023
 21
-17.4942465
 31
0.0
  0
LINE
  5
138
330
6F
100
AcDbEntity
  8
0
 62
     0
100
AcDbLine
 10
-156.4252023
 20
-17.4942465
 30
0.0
 11
-153.1261923
 21
-17.4942465
 31
0.0
  0
LINE
  5
139
330
6F
100
AcDbEntity
  8
0
 62
     0
100
AcDbLine
 10
-153.1261923
 20
-17.4942465
 30
0.0
 11
-153.1261923
 21
-16.5240465
 31
0.0
  0
LINE
  5
13A
330
6F
100
AcDbEntity
  8
0
 62
     0
100
AcDbLine
 10
-153.1261923
 20
-16.5240465
 30
0.0
 11
-132.6251423
 21
-16.5240465
 31
0.0
  0
LINE
  5
13B
330
6F
100
AcDbEntity
  8
0
 62
     0
100
AcDbLine
 10
-132.6251423
 20
-16.5240465
 30
0.0
 11
-132.6251423
 21
-17.4942465
 31
0.0
  0
LINE
  5
13C
330
6F
100
AcDbEntity
  8
0
 62
     0
100
AcDbLine
 10
-132.6251423
 20
-17.4942465
 30
0.0
 11
-129.3260422999999
 21
-17.4942465
 31
0.0
  0
LINE
  5
13D
330
6F
100
AcDbEntity
  8
0
 62
     0
100
AcDbLine
 10
-129.3260422999999
 20
-17.4942465
 30
0.0
 11
-129.3260422999999
 21
-16.5240465
 31
0.0
  0
LINE
  5
13E
330
6F
100
AcDbEntity
  8
0
 62
     0
100
AcDbLine
 10
-129.3260422999999
 20
-16.5240465
 30
0.0
 11
-126.3510423
 21
-16.5240465
 31
0.0
  0
LINE
  5
13F
330
6F
100
AcDbEntity
  8
0
 62
     0
100
AcDbLine
 10
-126.3510423
 20
-16.5240465
 30
0.0
 11
-126.3510423
 21
-2.524746500000006
 31
0.0
  0
LINE
  5
140
330
6F
100
AcDbEntity
  8
0
 62
     0
100
AcDbLine
 10
-126.3510423
 20
-2.524746500000006
 30
0.0
 11
-159.4003923
 21
-2.524746500000006
 31
0.0
  0
LINE
  5
141
330
6F
100
AcDbEntity
  8
0
 62
     0
100
AcDbLine
 10
107.2999577
 20
-2.524746500000006
 30
0.0
 11
121.2989577
 21
-2.524746500000006
 31
0.0
  0
LINE
  5
142
330
6F
100
AcDbEntity
  8
0
 62
     0
100
AcDbLine
 10
121.2989577
 20
-2.524746500000006
 30
0.0
 11
121.2989577
 21
-16.5240465
 31
0.0
  0
LINE
  5
143
330
6F
100
AcDbEntity
  8
0
 62
     0
100
AcDbLine
 10
121.2989577
 20
-16.5240465
 30
0.0
 11
107.2999577
 21
-16.5240465
 31
0.0
  0
LINE
  5
144
330
6F
100
AcDbEntity
  8
0
 62
     0
100
AcDbLine
 10
107.2999577
 20
-16.5240465
 30
0.0
 11
107.2999577
 21
-2.524746500000006
 31
0.0
  0
LINE
  5
145
330
6F
100
AcDbEntity
  8
0
 62
     0
100
AcDbLine
 10
88.24995770000001
 20
-2.524746500000006
 30
0.0
 11
102.2489577
 21
-2.524746500000006
 31
0.0
  0
LINE
  5
146
330
6F
100
AcDbEntity
  8
0
 62
     0
100
AcDbLine
 10
102.2489577
 20
-2.524746500000006
 30
0.0
 11
102.2489577
 21
-16.5240465
 31
0.0
  0
LINE
  5
147
330
6F
100
AcDbEntity
  8
0
 62
     0
100
AcDbLine
 10
102.2489577
 20
-16.5240465
 30
0.0
 11
88.24995770000001
 21
-16.5240465
 31
0.0
  0
LINE
  5
148
330
6F
100
AcDbEntity
  8
0
 62
     0
100
AcDbLine
 10
88.24995770000001
 20
-16.5240465
 30
0.0
 11
88.24995770000001
 21
-2.524746500000006
 31
0.0
  0
LINE
  5
149
330
6F
100
AcDbEntity
  8
0
 62
     0
100
AcDbLine
 10
69.19995769999999
 20
-2.524746500000006
 30
0.0
 11
83.19895770000002
 21
-2.524746500000006
 31
0.0
  0
LINE
  5
14A
330
6F
100
AcDbEntity
  8
0
 62
     0
100
AcDbLine
 10
83.19895770000002
 20
-2.524746500000006
 30
0.0
 11
83.19895770000002
 21
-16.5240465
 31
0.0
  0
LINE
  5
14B
330
6F
100
AcDbEntity
  8
0
 62
     0
100
AcDbLine
 10
83.19895770000002
 20
-16.5240465
 30
0.0
 11
69.19995769999999
 21
-16.5240465
 31
0.0
  0
LINE
  5
14C
330
6F
100
AcDbEntity
  8
0
 62
     0
100
AcDbLine
 10
69.19995769999999
 20
-16.5240465
 30
0.0
 11
69.19995769999999
 21
-2.524746500000006
 31
0.0
  0
LINE
  5
14D
330
6F
100
AcDbEntity
  8
0
 62
     0
100
AcDbLine
 10
50.14995769999998
 20
-2.524746500000006
 30
0.0
 11
64.14895770000001
 21
-2.524746500000006
 31
0.0
  0
LINE
  5
14E
330
6F
100
AcDbEntity
  8
0
 62
     0
100
AcDbLine
 10
64.14895770000001
 20
-2.524746500000006
 30
0.0
 11
64.14895770000001
 21
-16.5240465
 31
0.0
  0
LINE
  5
14F
330
6F
100
AcDbEntity
  8
0
 62
     0
100
AcDbLine
 10
64.14895770000001
 20
-16.5240465
 30
0.0
 11
50.14995769999998
 21
-16.5240465
 31
0.0
  0
LINE
  5
150
330
6F
100
AcDbEntity
  8
0
 62
     0
100
AcDbLine
 10
50.14995769999998
 20
-16.5240465
 30
0.0
 11
50.14995769999998
 21
-2.524746500000006
 31
0.0
  0
LINE
  5
151
330
6F
100
AcDbEntity
  8
0
 62
     0
100
AcDbLine
 10
31.09995770000001
 20
-2.524746500000006
 30
0.0
 11
45.09895770000002
 21
-2.524746500000006
 31
0.0
  0
LINE
  5
152
330
6F
100
AcDbEntity
  8
0
 62
     0
100
AcDbLine
 10
45.09895770000002
 20
-2.524746500000006
 30
0.0
 11
45.09895770000002
 21
-16.5240465
 31
0.0
  0
LINE
  5
153
330
6F
100
AcDbEntity
  8
0
 62
     0
100
AcDbLine
 10
45.09895770000002
 20
-16.5240465
 30
0.0
 11
31.09995770000001
 21
-16.5240465
 31
0.0
  0
LINE
  5
154
330
6F
100
AcDbEntity
  8
0
 62
     0
100
AcDbLine
 10
31.09995770000001
 20
-16.5240465
 30
0.0
 11
31.09995770000001
 21
-2.524746500000006
 31
0.0
  0
LINE
  5
155
330
6F
100
AcDbEntity
  8
0
 62
     0
100
AcDbLine
 10
12.04995769999999
 20
-2.524746500000006
 30
0.0
 11
26.04895770000002
 21
-2.524746500000006
 31
0.0
  0
LINE
  5
156
330
6F
100
AcDbEntity
  8
0
 62
     0
100
AcDbLine
 10
26.04895770000002
 20
-2.524746500000006
 30
0.0
 11
26.04895770000002
 21
-16.5240465
 31
0.0
  0
LINE
  5
157
330
6F
100
AcDbEntity
  8
0
 62
     0
100
AcDbLine
 10
26.04895770000002
 20
-16.5240465
 30
0.0
 11
12.04995769999999
 21
-16.5240465
 31
0.0
  0
LINE
  5
158
330
6F
100
AcDbEntity
  8
0
 62
     0
100
AcDbLine
 10
12.04995769999999
 20
-16.5240465
 30
0.0
 11
12.04995769999999
 21
-2.524746500000006
 31
0.0
  0
LINE
  5
159
330
6F
100
AcDbEntity
  8
0
 62
     0
100
AcDbLine
 10
-7.000042299999989
 20
-2.524746500000006
 30
0.0
 11
6.998957700000005
 21
-2.524746500000006
 31
0.0
  0
LINE
  5
15A
330
6F
100
AcDbEntity
  8
0
 62
     0
100
AcDbLine
 10
6.998957700000005
 20
-2.524746500000006
 30
0.0
 11
6.998957700000005
 21
-16.5240465
 31
0.0
  0
LINE
  5
15B
330
6F
100
AcDbEntity
  8
0
 62
     0
100
AcDbLine
 10
6.998957700000005
 20
-16.5240465
 30
0.0
 11
-7.000042299999989
 21
-16.5240465
 31
0.0
  0
LINE
  5
15C
330
6F
100
AcDbEntity
  8
0
 62
     0
100
AcDbLine
 10
-7.000042299999989
 20
-16.5240465
 30
0.0
 11
-7.000042299999989
 21
-2.524746500000006
 31
0.0
  0
LINE
  5
15D
330
6F
100
AcDbEntity
  8
0
 62
     0
100
AcDbLine
 10
-26.0500423
 20
-2.524746500000006
 30
0.0
 11
-12.0510423
 21
-2.524746500000006
 31
0.0
  0
LINE
  5
15E
330
6F
100
AcDbEntity
  8
0
 62
     0
100
AcDbLine
 10
-12.0510423
 20
-2.524746500000006
 30
0.0
 11
-12.0510423
 21
-16.5240465
 31
0.0
  0
LINE
  5
15F
330
6F
100
AcDbEntity
  8
0
 62
     0
100
AcDbLine
 10
-12.0510423
 20
-16.5240465
 30
0.0
 11
-26.0500423
 21
-16.5240465
 31
0.0
  0
LINE
  5
160
330
6F
100
AcDbEntity
  8
0
 62
     0
100
AcDbLine
 10
-26.0500423
 20
-16.5240465
 30
0.0
 11
-26.0500423
 21
-2.524746500000006
 31
0.0
  0
LINE
  5
161
330
6F
100
AcDbEntity
  8
0
 62
     0
100
AcDbLine
 10
-45.10204230000001
 20
-2.524746500000006
 30
0.0
 11
-31.10104230000002
 21
-2.524746500000006
 31
0.0
  0
LINE
  5
162
330
6F
100
AcDbEntity
  8
0
 62
     0
100
AcDbLine
 10
-31.10104230000002
 20
-2.524746500000006
 30
0.0
 11
-31.10104230000002
 21
-16.5240465
 31
0.0
  0
LINE
  5
163
330
6F
100
AcDbEntity
  8
0
 62
     0
100
AcDbLine
 10
-31.10104230000002
 20
-16.5240465
 30
0.0
 11
-45.10204230000001
 21
-16.5240465
 31
0.0
  0
LINE
  5
164
330
6F
100
AcDbEntity
  8
0
 62
     0
100
AcDbLine
 10
-45.10204230000001
 20
-16.5240465
 30
0.0
 11
-45.10204230000001
 21
-2.524746500000006
 31
0.0
  0
LINE
  5
165
330
6F
100
AcDbEntity
  8
0
 62
     0
100
AcDbLine
 10
-64.15174229999999
 20
-2.524746500000006
 30
0.0
 11
-50.1510423
 21
-2.524746500000006
 31
0.0
  0
LINE
  5
166
330
6F
100
AcDbEntity
  8
0
 62
     0
100
AcDbLine
 10
-50.1510423
 20
-2.524746500000006
 30
0.0
 11
-50.1510423
 21
-16.5240465
 31
0.0
  0
LINE
  5
167
330
6F
100
AcDbEntity
  8
0
 62
     0
100
AcDbLine
 10
-50.1510423
 20
-16.5240465
 30
0.0
 11
-64.15174229999999
 21
-16.5240465
 31
0.0
  0
LINE
  5
168
330
6F
100
AcDbEntity
  8
0
 62
     0
100
AcDbLine
 10
-64.15174229999999
 20
-16.5240465
 30
0.0
 11
-64.15174229999999
 21
-2.524746500000006
 31
0.0
  0
LINE
  5
169
330
6F
100
AcDbEntity
  8
0
 62
     0
100
AcDbLine
 10
-83.2003423
 20
-2.524746500000006
 30
0.0
 11
-69.20104229999999
 21
-2.524746500000006
 31
0.0
  0
LINE
  5
16A
330
6F
100
AcDbEntity
  8
0
 62
     0
100
AcDbLine
 10
-69.20104229999999
 20
-2.524746500000006
 30
0.0
 11
-69.20104229999999
 21
-16.5240465
 31
0.0
  0
LINE
  5
16B
330
6F
100
AcDbEntity
  8
0
 62
     0
100
AcDbLine
 10
-69.20104229999999
 20
-16.5240465
 30
0.0
 11
-83.2003423
 21
-16.5240465
 31
0.0
  0
LINE
  5
16C
330
6F
100
AcDbEntity
  8
0
 62
     0
100
AcDbLine
 10
-83.2003423
 20
-16.5240465
 30
0.0
 11
-83.2003423
 21
-2.524746500000006
 31
0.0
  0
LINE
  5
16D
330
6F
100
AcDbEntity
  8
0
 62
     0
100
AcDbLine
 10
-102.2503423
 20
-2.524746500000006
 30
0.0
 11
-88.2510423
 21
-2.524746500000006
 31
0.0
  0
LINE
  5
16E
330
6F
100
AcDbEntity
  8
0
 62
     0
100
AcDbLine
 10
-88.2510423
 20
-2.524746500000006
 30
0.0
 11
-88.2510423
 21
-16.5240465
 31
0.0
  0
LINE
  5
16F
330
6F
100
AcDbEntity
  8
0
 62
     0
100
AcDbLine
 10
-88.2510423
 20
-16.5240465
 30
0.0
 11
-102.2503423
 21
-16.5240465
 31
0.0
  0
LINE
  5
170
330
6F
100
AcDbEntity
  8
0
 62
     0
100
AcDbLine
 10
-102.2503423
 20
-16.5240465
 30
0.0
 11
-102.2503423
 21
-2.524746500000006
 31
0.0
  0
LINE
  5
171
330
6F
100
AcDbEntity
  8
0
 62
     0
100
AcDbLine
 10
-121.3003423
 20
-2.524746500000006
 30
0.0
 11
-107.3010423
 21
-2.524746500000006
 31
0.0
  0
LINE
  5
172
330
6F
100
AcDbEntity
  8
0
 62
     0
100
AcDbLine
 10
-107.3010423
 20
-2.524746500000006
 30
0.0
 11
-107.3010423
 21
-16.5240465
 31
0.0
  0
LINE
  5
173
330
6F
100
AcDbEntity
  8
0
 62
     0
100
AcDbLine
 10
-107.3010423
 20
-16.5240465
 30
0.0
 11
-121.3003423
 21
-16.5240465
 31
0.0
  0
LINE
  5
174
330
6F
100
AcDbEntity
  8
0
 62
     0
100
AcDbLine
 10
-121.3003423
 20
-16.5240465
 30
0.0
 11
-121.3003423
 21
-2.524746500000006
 31
0.0
  0
LINE
  5
175
330
6F
100
AcDbEntity
  8
0
 62
     0
100
AcDbLine
 10
-159.4003923
 20
16.52525349999999
 30
0.0
 11
-159.4003923
 21
2.525953499999992
 31
0.0
  0
LINE
  5
176
330
6F
100
AcDbEntity
  8
0
 62
     0
100
AcDbLine
 10
-159.4003923
 20
2.525953499999992
 30
0.0
 11
-156.4252023
 21
2.525953499999992
 31
0.0
  0
LINE
  5
177
330
6F
100
AcDbEntity
  8
0
 62
     0
100
AcDbLine
 10
-156.4252023
 20
2.525953499999992
 30
0.0
 11
-156.4252023
 21
1.555753499999994
 31
0.0
  0
LINE
  5
178
330
6F
100
AcDbEntity
  8
0
 62
     0
100
AcDbLine
 10
-156.4252023
 20
1.555753499999994
 30
0.0
 11
-153.1261923
 21
1.555753499999994
 31
0.0
  0
LINE
  5
179
330
6F
100
AcDbEntity
  8
0
 62
     0
100
AcDbLine
 10
-153.1261923
 20
1.555753499999994
 30
0.0
 11
-153.1261923
 21
2.525953499999992
 31
0.0
  0
LINE
  5
17A
330
6F
100
AcDbEntity
  8
0
 62
     0
100
AcDbLine
 10
-153.1261923
 20
2.525953499999992
 30
0.0
 11
-132.6251423
 21
2.525953499999992
 31
0.0
  0
LINE
  5
17B
330
6F
100
AcDbEntity
  8
0
 62
     0
100
AcDbLine
 10
-132.6251423
 20
2.525953499999992
 30
0.0
 11
-132.6251423
 21
1.555753499999994
 31
0.0
  0
LINE
  5
17C
330
6F
100
AcDbEntity
  8
0
 62
     0
100
AcDbLine
 10
-132.6251423
 20
1.555753499999994
 30
0.0
 11
-129.3260422999999
 21
1.555753499999994
 31
0.0
  0
LINE
  5
17D
330
6F
100
AcDbEntity
  8
0
 62
     0
100
AcDbLine
 10
-129.3260422999999
 20
1.555753499999994
 30
0.0
 11
-129.3260422999999
 21
2.525953499999992
 31
0.0
  0
LINE
  5
17E
330
6F
100
AcDbEntity
  8
0
 62
     0
100
AcDbLine
 10
-129.3260422999999
 20
2.525953499999992
 30
0.0
 11
-126.3510423
 21
2.525953499999992
 31
0.0
  0
LINE
  5
17F
330
6F
100
AcDbEntity
  8
0
 62
     0
100
AcDbLine
 10
-126.3510423
 20
2.525953499999992
 30
0.0
 11
-126.3510423
 21
16.52525349999999
 31
0.0
  0
LINE
  5
180
330
6F
100
AcDbEntity
  8
0
 62
     0
100
AcDbLine
 10
-126.3510423
 20
16.52525349999999
 30
0.0
 11
-159.4003923
 21
16.52525349999999
 31
0.0
  0
LINE
  5
181
330
6F
100
AcDbEntity
  8
0
 62
     0
100
AcDbLine
 10
145.3999577
 20
16.52525349999999
 30
0.0
 11
159.3989577
 21
16.52525349999999
 31
0.0
  0
LINE
  5
182
330
6F
100
AcDbEntity
  8
0
 62
     0
100
AcDbLine
 10
159.3989577
 20
16.52525349999999
 30
0.0
 11
159.3989577
 21
2.525953499999992
 31
0.0
  0
LINE
  5
183
330
6F
100
AcDbEntity
  8
0
 62
     0
100
AcDbLine
 10
159.3989577
 20
2.525953499999992
 30
0.0
 11
145.3999577
 21
2.525953499999992
 31
0.0
  0
LINE
  5
184
330
6F
100
AcDbEntity
  8
0
 62
     0
100
AcDbLine
 10
145.3999577
 20
2.525953499999992
 30
0.0
 11
145.3999577
 21
16.52525349999999
 31
0.0
  0
LINE
  5
185
330
6F
100
AcDbEntity
  8
0
 62
     0
100
AcDbLine
 10
126.3499577
 20
16.52525349999999
 30
0.0
 11
140.3489577
 21
16.52525349999999
 31
0.0
  0
LINE
  5
186
330
6F
100
AcDbEntity
  8
0
 62
     0
100
AcDbLine
 10
140.3489577
 20
16.52525349999999
 30
0.0
 11
140.3489577
 21
2.525953499999992
 31
0.0
  0
LINE
  5
187
330
6F
100
AcDbEntity
  8
0
 62
     0
100
AcDbLine
 10
140.3489577
 20
2.525953499999992
 30
0.0
 11
126.3499577
 21
2.525953499999992
 31
0.0
  0
LINE
  5
188
330
6F
100
AcDbEntity
  8
0
 62
     0
100
AcDbLine
 10
126.3499577
 20
2.525953499999992
 30
0.0
 11
126.3499577
 21
16.52525349999999
 31
0.0
  0
LINE
  5
189
330
6F
100
AcDbEntity
  8
0
 62
     0
100
AcDbLine
 10
107.2999577
 20
16.52525349999999
 30
0.0
 11
121.2989577
 21
16.52525349999999
 31
0.0
  0
LINE
  5
18A
330
6F
100
AcDbEntity
  8
0
 62
     0
100
AcDbLine
 10
121.2989577
 20
16.52525349999999
 30
0.0
 11
121.2989577
 21
2.525953499999992
 31
0.0
  0
LINE
  5
18B
330
6F
100
AcDbEntity
  8
0
 62
     0
100
AcDbLine
 10
121.2989577
 20
2.525953499999992
 30
0.0
 11
107.2999577
 21
2.525953499999992
 31
0.0
  0
LINE
  5
18C
330
6F
100
AcDbEntity
  8
0
 62
     0
100
AcDbLine
 10
107.2999577
 20
2.525953499999992
 30
0.0
 11
107.2999577
 21
16.52525349999999
 31
0.0
  0
LINE
  5
18D
330
6F
100
AcDbEntity
  8
0
 62
     0
100
AcDbLine
 10
88.24995770000001
 20
16.52525349999999
 30
0.0
 11
102.2489577
 21
16.52525349999999
 31
0.0
  0
LINE
  5
18E
330
6F
100
AcDbEntity
  8
0
 62
     0
100
AcDbLine
 10
102.2489577
 20
16.52525349999999
 30
0.0
 11
102.2489577
 21
2.525953499999992
 31
0.0
  0
LINE
  5
18F
330
6F
100
AcDbEntity
  8
0
 62
     0
100
AcDbLine
 10
102.2489577
 20
2.525953499999992
 30
0.0
 11
88.24995770000001
 21
2.525953499999992
 31
0.0
  0
LINE
  5
190
330
6F
100
AcDbEntity
  8
0
 62
     0
100
AcDbLine
 10
88.24995770000001
 20
2.525953499999992
 30
0.0
 11
88.24995770000001
 21
16.52525349999999
 31
0.0
  0
LINE
  5
191
330
6F
100
AcDbEntity
  8
0
 62
     0
100
AcDbLine
 10
69.19995769999999
 20
16.52525349999999
 30
0.0
 11
83.19895770000002
 21
16.52525349999999
 31
0.0
  0
LINE
  5
192
330
6F
100
AcDbEntity
  8
0
 62
     0
100
AcDbLine
 10
83.19895770000002
 20
16.52525349999999
 30
0.0
 11
83.19895770000002
 21
2.525953499999992
 31
0.0
  0
LINE
  5
193
330
6F
100
AcDbEntity
  8
0
 62
     0
100
AcDbLine
 10
83.19895770000002
 20
2.525953499999992
 30
0.0
 11
69.19995769999999
 21
2.525953499999992
 31
0.0
  0
LINE
  5
194
330
6F
100
AcDbEntity
  8
0
 62
     0
100
AcDbLine
 10
69.19995769999999
 20
2.525953499999992
 30
0.0
 11
69.19995769999999
 21
16.52525349999999
 31
0.0
  0
LINE
  5
195
330
6F
100
AcDbEntity
  8
0
 62
     0
100
AcDbLine
 10
50.14995769999998
 20
16.52525349999999
 30
0.0
 11
64.14895770000001
 21
16.52525349999999
 31
0.0
  0
LINE
  5
196
330
6F
100
AcDbEntity
  8
0
 62
     0
100
AcDbLine
 10
64.14895770000001
 20
16.52525349999999
 30
0.0
 11
64.14895770000001
 21
2.525953499999992
 31
0.0
  0
LINE
  5
197
330
6F
100
AcDbEntity
  8
0
 62
     0
100
AcDbLine
 10
64.14895770000001
 20
2.525953499999992
 30
0.0
 11
50.14995769999998
 21
2.525953499999992
 31
0.0
  0
LINE
  5
198
330
6F
100
AcDbEntity
  8
0
 62
     0
100
AcDbLine
 10
50.14995769999998
 20
2.525953499999992
 30
0.0
 11
50.14995769999998
 21
16.52525349999999
 31
0.0
  0
LINE
  5
199
330
6F
100
AcDbEntity
  8
0
 62
     0
100
AcDbLine
 10
31.09995770000001
 20
16.52525349999999
 30
0.0
 11
45.09895770000002
 21
16.52525349999999
 31
0.0
  0
LINE
  5
19A
330
6F
100
AcDbEntity
  8
0
 62
     0
100
AcDbLine
 10
45.09895770000002
 20
16.52525349999999
 30
0.0
 11
45.09895770000002
 21
2.525953499999992
 31
0.0
  0
LINE
  5
19B
330
6F
100
AcDbEntity
  8
0
 62
     0
100
AcDbLine
 10
45.09895770000002
 20
2.525953499999992
 30
0.0
 11
31.09995770000001
 21
2.525953499999992
 31
0.0
  0
LINE
  5
19C
330
6F
100
AcDbEntity
  8
0
 62
     0
100
AcDbLine
 10
31.09995770000001
 20
2.525953499999992
 30
0.0
 11
31.09995770000001
 21
16.52525349999999
 31
0.0
  0
LINE
  5
19D
330
6F
100
AcDbEntity
  8
0
 62
     0
100
AcDbLine
 10
12.04995769999999
 20
16.52525349999999
 30
0.0
 11
26.04895770000002
 21
16.52525349999999
 31
0.0
  0
LINE
  5
19E
330
6F
100
AcDbEntity
  8
0
 62
     0
100
AcDbLine
 10
26.04895770000002
 20
16.52525349999999
 30
0.0
 11
26.04895770000002
 21
2.525953499999992
 31
0.0
  0
LINE
  5
19F
330
6F
100
AcDbEntity
  8
0
 62
     0
100
AcDbLine
 10
26.04895770000002
 20
2.525953499999992
 30
0.0
 11
12.04995769999999
 21
2.525953499999992
 31
0.0
  0
LINE
  5
1A0
330
6F
100
AcDbEntity
  8
0
 62
     0
100
AcDbLine
 10
12.04995769999999
 20
2.525953499999992
 30
0.0
 11
12.04995769999999
 21
16.52525349999999
 31
0.0
  0
LINE
  5
1A1
330
6F
100
AcDbEntity
  8
0
 62
     0
100
AcDbLine
 10
-7.000042299999989
 20
16.52525349999999
 30
0.0
 11
6.998957700000005
 21
16.52525349999999
 31
0.0
  0
LINE
  5
1A2
330
6F
100
AcDbEntity
  8
0
 62
     0
100
AcDbLine
 10
6.998957700000005
 20
16.52525349999999
 30
0.0
 11
6.998957700000005
 21
2.525953499999992
 31
0.0
  0
LINE
  5
1A3
330
6F
100
AcDbEntity
  8
0
 62
     0
100
AcDbLine
 10
6.998957700000005
 20
2.525953499999992
 30
0.0
 11
-7.000042299999989
 21
2.525953499999992
 31
0.0
  0
LINE
  5
1A4
330
6F
100
AcDbEntity
  8
0
 62
     0
100
AcDbLine
 10
-7.000042299999989
 20
2.525953499999992
 30
0.0
 11
-7.000042299999989
 21
16.52525349999999
 31
0.0
  0
LINE
  5
1A5
330
6F
100
AcDbEntity
  8
0
 62
     0
100
AcDbLine
 10
-26.0500423
 20
16.52525349999999
 30
0.0
 11
-12.0510423
 21
16.52525349999999
 31
0.0
  0
LINE
  5
1A6
330
6F
100
AcDbEntity
  8
0
 62
     0
100
AcDbLine
 10
-12.0510423
 20
16.52525349999999
 30
0.0
 11
-12.0510423
 21
2.525953499999992
 31
0.0
  0
LINE
  5
1A7
330
6F
100
AcDbEntity
  8
0
 62
     0
100
AcDbLine
 10
-12.0510423
 20
2.525953499999992
 30
0.0
 11
-26.0500423
 21
2.525953499999992
 31
0.0
  0
LINE
  5
1A8
330
6F
100
AcDbEntity
  8
0
 62
     0
100
AcDbLine
 10
-26.0500423
 20
2.525953499999992
 30
0.0
 11
-26.0500423
 21
16.52525349999999
 31
0.0
  0
LINE
  5
1A9
330
6F
100
AcDbEntity
  8
0
 62
     0
100
AcDbLine
 10
-45.10204230000001
 20
16.52525349999999
 30
0.0
 11
-31.10104230000002
 21
16.52525349999999
 31
0.0
  0
LINE
  5
1AA
330
6F
100
AcDbEntity
  8
0
 62
     0
100
AcDbLine
 10
-31.10104230000002
 20
16.52525349999999
 30
0.0
 11
-31.10104230000002
 21
2.525953499999992
 31
0.0
  0
LINE
  5
1AB
330
6F
100
AcDbEntity
  8
0
 62
     0
100
AcDbLine
 10
-31.10104230000002
 20
2.525953499999992
 30
0.0
 11
-45.10204230000001
 21
2.525953499999992
 31
0.0
  0
LINE
  5
1AC
330
6F
100
AcDbEntity
  8
0
 62
     0
100
AcDbLine
 10
-45.10204230000001
 20
2.525953499999992
 30
0.0
 11
-45.10204230000001
 21
16.52525349999999
 31
0.0
  0
LINE
  5
1AD
330
6F
100
AcDbEntity
  8
0
 62
     0
100
AcDbLine
 10
-64.15174229999999
 20
16.52525349999999
 30
0.0
 11
-50.1510423
 21
16.52525349999999
 31
0.0
  0
LINE
  5
1AE
330
6F
100
AcDbEntity
  8
0
 62
     0
100
AcDbLine
 10
-50.1510423
 20
16.52525349999999
 30
0.0
 11
-50.1510423
 21
2.525953499999992
 31
0.0
  0
LINE
  5
1AF
330
6F
100
AcDbEntity
  8
0
 62
     0
100
AcDbLine
 10
-50.1510423
 20
2.525953499999992
 30
0.0
 11
-64.15174229999999
 21
2.525953499999992
 31
0.0
  0
LINE
  5
1B0
330
6F
100
AcDbEntity
  8
0
 62
     0
100
AcDbLine
 10
-64.15174229999999
 20
2.525953499999992
 30
0.0
 11
-64.15174229999999
 21
16.52525349999999
 31
0.0
  0
LINE
  5
1B1
330
6F
100
AcDbEntity
  8
0
 62
     0
100
AcDbLine
 10
-83.2003423
 20
16.52525349999999
 30
0.0
 11
-69.20104229999999
 21
16.52525349999999
 31
0.0
  0
LINE
  5
1B2
330
6F
100
AcDbEntity
  8
0
 62
     0
100
AcDbLine
 10
-69.20104229999999
 20
16.52525349999999
 30
0.0
 11
-69.20104229999999
 21
2.525953499999992
 31
0.0
  0
LINE
  5
1B3
330
6F
100
AcDbEntity
  8
0
 62
     0
100
AcDbLine
 10
-69.20104229999999
 20
2.525953499999992
 30
0.0
 11
-83.2003423
 21
2.525953499999992
 31
0.0
  0
LINE
  5
1B4
330
6F
100
AcDbEntity
  8
0
 62
     0
100
AcDbLine
 10
-83.2003423
 20
2.525953499999992
 30
0.0
 11
-83.2003423
 21
16.52525349999999
 31
0.0
  0
LINE
  5
1B5
330
6F
100
AcDbEntity
  8
0
 62
     0
100
AcDbLine
 10
-102.2503423
 20
16.52525349999999
 30
0.0
 11
-88.2510423
 21
16.52525349999999
 31
0.0
  0
LINE
  5
1B6
330
6F
100
AcDbEntity
  8
0
 62
     0
100
AcDbLine
 10
-88.2510423
 20
16.52525349999999
 30
0.0
 11
-88.2510423
 21
2.525953499999992
 31
0.0
  0
LINE
  5
1B7
330
6F
100
AcDbEntity
  8
0
 62
     0
100
AcDbLine
 10
-88.2510423
 20
2.525953499999992
 30
0.0
 11
-102.2503423
 21
2.525953499999992
 31
0.0
  0
LINE
  5
1B8
330
6F
100
AcDbEntity
  8
0
 62
     0
100
AcDbLine
 10
-102.2503423
 20
2.525953499999992
 30
0.0
 11
-102.2503423
 21
16.52525349999999
 31
0.0
  0
LINE
  5
1B9
330
6F
100
AcDbEntity
  8
0
 62
     0
100
AcDbLine
 10
-121.3003423
 20
16.52525349999999
 30
0.0
 11
-107.3010423
 21
16.52525349999999
 31
0.0
  0
LINE
  5
1BA
330
6F
100
AcDbEntity
  8
0
 62
     0
100
AcDbLine
 10
-107.3010423
 20
16.52525349999999
 30
0.0
 11
-107.3010423
 21
2.525953499999992
 31
0.0
  0
LINE
  5
1BB
330
6F
100
AcDbEntity
  8
0
 62
     0
100
AcDbLine
 10
-107.3010423
 20
2.525953499999992
 30
0.0
 11
-121.3003423
 21
2.525953499999992
 31
0.0
  0
LINE
  5
1BC
330
6F
100
AcDbEntity
  8
0
 62
     0
100
AcDbLine
 10
-121.3003423
 20
2.525953499999992
 30
0.0
 11
-121.3003423
 21
16.52525349999999
 31
0.0
  0
LINE
  5
1BD
330
6F
100
AcDbEntity
  8
0
 62
     0
100
AcDbLine
 10
107.2999577
 20
35.57525349999999
 30
0.0
 11
107.2999577
 21
21.5759535
 31
0.0
  0
LINE
  5
1BE
330
6F
100
AcDbEntity
  8
0
 62
     0
100
AcDbLine
 10
107.2999577
 20
21.5759535
 30
0.0
 11
110.2749577
 21
21.5759535
 31
0.0
  0
LINE
  5
1BF
330
6F
100
AcDbEntity
  8
0
 62
     0
100
AcDbLine
 10
110.2749577
 20
21.5759535
 30
0.0
 11
110.2749577
 21
20.60575349999999
 31
0.0
  0
LINE
  5
1C0
330
6F
100
AcDbEntity
  8
0
 62
     0
100
AcDbLine
 10
110.2749577
 20
20.60575349999999
 30
0.0
 11
113.5739577
 21
20.60575349999999
 31
0.0
  0
LINE
  5
1C1
330
6F
100
AcDbEntity
  8
0
 62
     0
100
AcDbLine
 10
113.5739577
 20
20.60575349999999
 30
0.0
 11
113.5739577
 21
21.5759535
 31
0.0
  0
LINE
  5
1C2
330
6F
100
AcDbEntity
  8
0
 62
     0
100
AcDbLine
 10
113.5739577
 20
21.5759535
 30
0.0
 11
134.0749577
 21
21.5759535
 31
0.0
  0
LINE
  5
1C3
330
6F
100
AcDbEntity
  8
0
 62
     0
100
AcDbLine
 10
134.0749577
 20
21.5759535
 30
0.0
 11
134.0749577
 21
20.60575349999999
 31
0.0
  0
LINE
  5
1C4
330
6F
100
AcDbEntity
  8
0
 62
     0
100
AcDbLine
 10
134.0749577
 20
20.60575349999999
 30
0.0
 11
137.3739577
 21
20.60575349999999
 31
0.0
  0
LINE
  5
1C5
330
6F
100
AcDbEntity
  8
0
 62
     0
100
AcDbLine
 10
137.3739577
 20
20.60575349999999
 30
0.0
 11
137.3739577
 21
21.5759535
 31
0.0
  0
LINE
  5
1C6
330
6F
100
AcDbEntity
  8
0
 62
     0
100
AcDbLine
 10
137.3739577
 20
21.5759535
 30
0.0
 11
140.3489577
 21
21.5759535
 31
0.0
  0
LINE
  5
1C7
330
6F
100
AcDbEntity
  8
0
 62
     0
100
AcDbLine
 10
140.3489577
 20
21.5759535
 30
0.0
 11
140.3489577
 21
35.57525349999999
 31
0.0
  0
LINE
  5
1C8
330
6F
100
AcDbEntity
  8
0
 62
     0
100
AcDbLine
 10
140.3489577
 20
35.57525349999999
 30
0.0
 11
107.2999577
 21
35.57525349999999
 31
0.0
  0
LINE
  5
1C9
330
6F
100
AcDbEntity
  8
0
 62
     0
100
AcDbLine
 10
145.3999577
 20
35.57525349999999
 30
0.0
 11
159.3989577
 21
35.57525349999999
 31
0.0
  0
LINE
  5
1CA
330
6F
100
AcDbEntity
  8
0
 62
     0
100
AcDbLine
 10
159.3989577
 20
35.57525349999999
 30
0.0
 11
159.3989577
 21
21.5759535
 31
0.0
  0
LINE
  5
1CB
330
6F
100
AcDbEntity
  8
0
 62
     0
100
AcDbLine
 10
159.3989577
 20
21.5759535
 30
0.0
 11
145.3999577
 21
21.5759535
 31
0.0
  0
LINE
  5
1CC
330
6F
100
AcDbEntity
  8
0
 62
     0
100
AcDbLine
 10
145.3999577
 20
21.5759535
 30
0.0
 11
145.3999577
 21
35.57525349999999
 31
0.0
  0
LINE
  5
1CD
330
6F
100
AcDbEntity
  8
0
 62
     0
100
AcDbLine
 10
88.24995770000001
 20
35.57525349999999
 30
0.0
 11
102.2489577
 21
35.57525349999999
 31
0.0
  0
LINE
  5
1CE
330
6F
100
AcDbEntity
  8
0
 62
     0
100
AcDbLine
 10
102.2489577
 20
35.57525349999999
 30
0.0
 11
102.2489577
 21
21.5759535
 31
0.0
  0
LINE
  5
1CF
330
6F
100
AcDbEntity
  8
0
 62
     0
100
AcDbLine
 10
102.2489577
 20
21.5759535
 30
0.0
 11
88.24995770000001
 21
21.5759535
 31
0.0
  0
LINE
  5
1D0
330
6F
100
AcDbEntity
  8
0
 62
     0
100
AcDbLine
 10
88.24995770000001
 20
21.5759535
 30
0.0
 11
88.24995770000001
 21
35.57525349999999
 31
0.0
  0
LINE
  5
1D1
330
6F
100
AcDbEntity
  8
0
 62
     0
100
AcDbLine
 10
69.19995769999999
 20
35.57525349999999
 30
0.0
 11
83.19895770000002
 21
35.57525349999999
 31
0.0
  0
LINE
  5
1D2
330
6F
100
AcDbEntity
  8
0
 62
     0
100
AcDbLine
 10
83.19895770000002
 20
35.57525349999999
 30
0.0
 11
83.19895770000002
 21
21.5759535
 31
0.0
  0
LINE
  5
1D3
330
6F
100
AcDbEntity
  8
0
 62
     0
100
AcDbLine
 10
83.19895770000002
 20
21.5759535
 30
0.0
 11
69.19995769999999
 21
21.5759535
 31
0.0
  0
LINE
  5
1D4
330
6F
100
AcDbEntity
  8
0
 62
     0
100
AcDbLine
 10
69.19995769999999
 20
21.5759535
 30
0.0
 11
69.19995769999999
 21
35.57525349999999
 31
0.0
  0
LINE
  5
1D5
330
6F
100
AcDbEntity
  8
0
 62
     0
100
AcDbLine
 10
50.14995769999998
 20
35.57525349999999
 30
0.0
 11
64.14895770000001
 21
35.57525349999999
 31
0.0
  0
LINE
  5
1D6
330
6F
100
AcDbEntity
  8
0
 62
     0
100
AcDbLine
 10
64.14895770000001
 20
35.57525349999999
 30
0.0
 11
64.14895770000001
 21
21.5759535
 31
0.0
  0
LINE
  5
1D7
330
6F
100
AcDbEntity
  8
0
 62
     0
100
AcDbLine
 10
64.14895770000001
 20
21.5759535
 30
0.0
 11
50.14995769999998
 21
21.5759535
 31
0.0
  0
LINE
  5
1D8
330
6F
100
AcDbEntity
  8
0
 62
     0
100
AcDbLine
 10
50.14995769999998
 20
21.5759535
 30
0.0
 11
50.14995769999998
 21
35.57525349999999
 31
0.0
  0
LINE
  5
1D9
330
6F
100
AcDbEntity
  8
0
 62
     0
100
AcDbLine
 10
31.09995770000001
 20
35.57525349999999
 30
0.0
 11
45.09895770000002
 21
35.57525349999999
 31
0.0
  0
LINE
  5
1DA
330
6F
100
AcDbEntity
  8
0
 62
     0
100
AcDbLine
 10
45.09895770000002
 20
35.57525349999999
 30
0.0
 11
45.09895770000002
 21
21.5759535
 31
0.0
  0
LINE
  5
1DB
330
6F
100
AcDbEntity
  8
0
 62
     0
100
AcDbLine
 10
45.09895770000002
 20
21.5759535
 30
0.0
 11
31.09995770000001
 21
21.5759535
 31
0.0
  0
LINE
  5
1DC
330
6F
100
AcDbEntity
  8
0
 62
     0
100
AcDbLine
 10
31.09995770000001
 20
21.5759535
 30
0.0
 11
31.09995770000001
 21
35.57525349999999
 31
0.0
  0
LINE
  5
1DD
330
6F
100
AcDbEntity
  8
0
 62
     0
100
AcDbLine
 10
12.04995769999999
 20
35.57525349999999
 30
0.0
 11
26.04895770000002
 21
35.57525349999999
 31
0.0
  0
LINE
  5
1DE
330
6F
100
AcDbEntity
  8
0
 62
     0
100
AcDbLine
 10
26.04895770000002
 20
35.57525349999999
 30
0.0
 11
26.04895770000002
 21
21.5759535
 31
0.0
  0
LINE
  5
1DF
330
6F
100
AcDbEntity
  8
0
 62
     0
100
AcDbLine
 10
26.04895770000002
 20
21.5759535
 30
0.0
 11
12.04995769999999
 21
21.5759535
 31
0.0
  0
LINE
  5
1E0
330
6F
100
AcDbEntity
  8
0
 62
     0
100
AcDbLine
 10
12.04995769999999
 20
21.5759535
 30
0.0
 11
12.04995769999999
 21
35.57525349999999
 31
0.0
  0
LINE
  5
1E1
330
6F
100
AcDbEntity
  8
0
 62
     0
100
AcDbLine
 10
-7.000042299999989
 20
35.57525349999999
 30
0.0
 11
6.998957700000005
 21
35.57525349999999
 31
0.0
  0
LINE
  5
1E2
330
6F
100
AcDbEntity
  8
0
 62
     0
100
AcDbLine
 10
6.998957700000005
 20
35.57525349999999
 30
0.0
 11
6.998957700000005
 21
21.5759535
 31
0.0
  0
LINE
  5
1E3
330
6F
100
AcDbEntity
  8
0
 62
     0
100
AcDbLine
 10
6.998957700000005
 20
21.5759535
 30
0.0
 11
-7.000042299999989
 21
21.5759535
 31
0.0
  0
LINE
  5
1E4
330
6F
100
AcDbEntity
  8
0
 62
     0
100
AcDbLine
 10
-7.000042299999989
 20
21.5759535
 30
0.0
 11
-7.000042299999989
 21
35.57525349999999
 31
0.0
  0
LINE
  5
1E5
330
6F
100
AcDbEntity
  8
0
 62
     0
100
AcDbLine
 10
-26.0500423
 20
35.57525349999999
 30
0.0
 11
-12.0510423
 21
35.57525349999999
 31
0.0
  0
LINE
  5
1E6
330
6F
100
AcDbEntity
  8
0
 62
     0
100
AcDbLine
 10
-12.0510423
 20
35.57525349999999
 30
0.0
 11
-12.0510423
 21
21.5759535
 31
0.0
  0
LINE
  5
1E7
330
6F
100
AcDbEntity
  8
0
 62
     0
100
AcDbLine
 10
-12.0510423
 20
21.5759535
 30
0.0
 11
-26.0500423
 21
21.5759535
 31
0.0
  0
LINE
  5
1E8
330
6F
100
AcDbEntity
  8
0
 62
     0
100
AcDbLine
 10
-26.0500423
 20
21.5759535
 30
0.0
 11
-26.0500423
 21
35.57525349999999
 31
0.0
  0
LINE
  5
1E9
330
6F
100
AcDbEntity
  8
0
 62
     0
100
AcDbLine
 10
-45.10204230000001
 20
35.57525349999999
 30
0.0
 11
-31.10104230000002
 21
35.57525349999999
 31
0.0
  0
LINE
  5
1EA
330
6F
100
AcDbEntity
  8
0
 62
     0
100
AcDbLine
 10
-31.10104230000002
 20
35.57525349999999
 30
0.0
 11
-31.10104230000002
 21
21.5759535
 31
0.0
  0
LINE
  5
1EB
330
6F
100
AcDbEntity
  8
0
 62
     0
100
AcDbLine
 10
-31.10104230000002
 20
21.5759535
 30
0.0
 11
-45.10204230000001
 21
21.5759535
 31
0.0
  0
LINE
  5
1EC
330
6F
100
AcDbEntity
  8
0
 62
     0
100
AcDbLine
 10
-45.10204230000001
 20
21.5759535
 30
0.0
 11
-45.10204230000001
 21
35.57525349999999
 31
0.0
  0
LINE
  5
1ED
330
6F
100
AcDbEntity
  8
0
 62
     0
100
AcDbLine
 10
-64.15174229999999
 20
35.57525349999999
 30
0.0
 11
-50.1510423
 21
35.57525349999999
 31
0.0
  0
LINE
  5
1EE
330
6F
100
AcDbEntity
  8
0
 62
     0
100
AcDbLine
 10
-50.1510423
 20
35.57525349999999
 30
0.0
 11
-50.1510423
 21
21.5759535
 31
0.0
  0
LINE
  5
1EF
330
6F
100
AcDbEntity
  8
0
 62
     0
100
AcDbLine
 10
-50.1510423
 20
21.5759535
 30
0.0
 11
-64.15174229999999
 21
21.5759535
 31
0.0
  0
LINE
  5
1F0
330
6F
100
AcDbEntity
  8
0
 62
     0
100
AcDbLine
 10
-64.15174229999999
 20
21.5759535
 30
0.0
 11
-64.15174229999999
 21
35.57525349999999
 31
0.0
  0
LINE
  5
1F1
330
6F
100
AcDbEntity
  8
0
 62
     0
100
AcDbLine
 10
-83.2003423
 20
35.57525349999999
 30
0.0
 11
-69.20104229999999
 21
35.57525349999999
 31
0.0
  0
LINE
  5
1F2
330
6F
100
AcDbEntity
  8
0
 62
     0
100
AcDbLine
 10
-69.20104229999999
 20
35.57525349999999
 30
0.0
 11
-69.20104229999999
 21
21.5759535
 31
0.0
  0
LINE
  5
1F3
330
6F
100
AcDbEntity
  8
0
 62
     0
100
AcDbLine
 10
-69.20104229999999
 20
21.5759535
 30
0.0
 11
-83.2003423
 21
21.5759535
 31
0.0
  0
LINE
  5
1F4
330
6F
100
AcDbEntity
  8
0
 62
     0
100
AcDbLine
 10
-83.2003423
 20
21.5759535
 30
0.0
 11
-83.2003423
 21
35.57525349999999
 31
0.0
  0
LINE
  5
1F5
330
6F
100
AcDbEntity
  8
0
 62
     0
100
AcDbLine
 10
-102.2503423
 20
35.57525349999999
 30
0.0
 11
-88.2510423
 21
35.57525349999999
 31
0.0
  0
LINE
  5
1F6
330
6F
100
AcDbEntity
  8
0
 62
     0
100
AcDbLine
 10
-88.2510423
 20
35.57525349999999
 30
0.0
 11
-88.2510423
 21
21.5759535
 31
0.0
  0
LINE
  5
1F7
330
6F
100
AcDbEntity
  8
0
 62
     0
100
AcDbLine
 10
-88.2510423
 20
21.5759535
 30
0.0
 11
-102.2503423
 21
21.5759535
 31
0.0
  0
LINE
  5
1F8
330
6F
100
AcDbEntity
  8
0
 62
     0
100
AcDbLine
 10
-102.2503423
 20
21.5759535
 30
0.0
 11
-102.2503423
 21
35.57525349999999
 31
0.0
  0
LINE
  5
1F9
330
6F
100
AcDbEntity
  8
0
 62
     0
100
AcDbLine
 10
-121.3003423
 20
35.57525349999999
 30
0.0
 11
-107.3010423
 21
35.57525349999999
 31
0.0
  0
LINE
  5
1FA
330
6F
100
AcDbEntity
  8
0
 62
     0
100
AcDbLine
 10
-107.3010423
 20
35.57525349999999
 30
0.0
 11
-107.3010423
 21
21.5759535
 31
0.0
  0
LINE
  5
1FB
330
6F
100
AcDbEntity
  8
0
 62
     0
100
AcDbLine
 10
-107.3010423
 20
21.5759535
 30
0.0
 11
-121.3003423
 21
21.5759535
 31
0.0
  0
LINE
  5
1FC
330
6F
100
AcDbEntity
  8
0
 62
     0
100
AcDbLine
 10
-121.3003423
 20
21.5759535
 30
0.0
 11
-121.3003423
 21
35.57525349999999
 31
0.0
  0
LINE
  5
1FD
330
6F
100
AcDbEntity
  8
0
 62
     0
100
AcDbLine
 10
-140.3503423
 20
35.57525349999999
 30
0.0
 11
-126.3510423
 21
35.57525349999999
 31
0.0
  0
LINE
  5
1FE
330
6F
100
AcDbEntity
  8
0
 62
     0
100
AcDbLine
 10
-126.3510423
 20
35.57525349999999
 30
0.0
 11
-126.3510423
 21
21.5759535
 31
0.0
  0
LINE
  5
1FF
330
6F
100
AcDbEntity
  8
0
 62
     0
100
AcDbLine
 10
-126.3510423
 20
21.5759535
 30
0.0
 11
-140.3503423
 21
21.5759535
 31
0.0
  0
LINE
  5
200
330
6F
100
AcDbEntity
  8
0
 62
     0
100
AcDbLine
 10
-140.3503423
 20
21.5759535
 30
0.0
 11
-140.3503423
 21
35.57525349999999
 31
0.0
  0
LINE
  5
201
330
6F
100
AcDbEntity
  8
0
 62
     0
100
AcDbLine
 10
126.3499577
 20
54.62515349999998
 30
0.0
 11
140.3489577
 21
54.62515349999998
 31
0.0
  0
LINE
  5
202
330
6F
100
AcDbEntity
  8
0
 62
     0
100
AcDbLine
 10
140.3489577
 20
54.62515349999998
 30
0.0
 11
140.3489577
 21
40.62595349999999
 31
0.0
  0
LINE
  5
203
330
6F
100
AcDbEntity
  8
0
 62
     0
100
AcDbLine
 10
140.3489577
 20
40.62595349999999
 30
0.0
 11
126.3499577
 21
40.62595349999999
 31
0.0
  0
LINE
  5
204
330
6F
100
AcDbEntity
  8
0
 62
     0
100
AcDbLine
 10
126.3499577
 20
40.62595349999999
 30
0.0
 11
126.3499577
 21
54.62515349999998
 31
0.0
  0
LINE
  5
205
330
6F
100
AcDbEntity
  8
0
 62
     0
100
AcDbLine
 10
107.2999577
 20
54.62515349999998
 30
0.0
 11
121.2989577
 21
54.62515349999998
 31
0.0
  0
LINE
  5
206
330
6F
100
AcDbEntity
  8
0
 62
     0
100
AcDbLine
 10
121.2989577
 20
54.62515349999998
 30
0.0
 11
121.2989577
 21
40.62595349999999
 31
0.0
  0
LINE
  5
207
330
6F
100
AcDbEntity
  8
0
 62
     0
100
AcDbLine
 10
121.2989577
 20
40.62595349999999
 30
0.0
 11
107.2999577
 21
40.62595349999999
 31
0.0
  0
LINE
  5
208
330
6F
100
AcDbEntity
  8
0
 62
     0
100
AcDbLine
 10
107.2999577
 20
40.62595349999999
 30
0.0
 11
107.2999577
 21
54.62515349999998
 31
0.0
  0
LINE
  5
209
330
6F
100
AcDbEntity
  8
0
 62
     0
100
AcDbLine
 10
88.24995770000001
 20
54.62515349999998
 30
0.0
 11
102.2489577
 21
54.62515349999998
 31
0.0
  0
LINE
  5
20A
330
6F
100
AcDbEntity
  8
0
 62
     0
100
AcDbLine
 10
102.2489577
 20
54.62515349999998
 30
0.0
 11
102.2489577
 21
40.62595349999999
 31
0.0
  0
LINE
  5
20B
330
6F
100
AcDbEntity
  8
0
 62
     0
100
AcDbLine
 10
102.2489577
 20
40.62595349999999
 30
0.0
 11
88.24995770000001
 21
40.62595349999999
 31
0.0
  0
LINE
  5
20C
330
6F
100
AcDbEntity
  8
0
 62
     0
100
AcDbLine
 10
88.24995770000001
 20
40.62595349999999
 30
0.0
 11
88.24995770000001
 21
54.62515349999998
 31
0.0
  0
LINE
  5
20D
330
6F
100
AcDbEntity
  8
0
 62
     0
100
AcDbLine
 10
69.19995769999999
 20
54.62515349999998
 30
0.0
 11
83.19895770000002
 21
54.62515349999998
 31
0.0
  0
LINE
  5
20E
330
6F
100
AcDbEntity
  8
0
 62
     0
100
AcDbLine
 10
83.19895770000002
 20
54.62515349999998
 30
0.0
 11
83.19895770000002
 21
40.62595349999999
 31
0.0
  0
LINE
  5
20F
330
6F
100
AcDbEntity
  8
0
 62
     0
100
AcDbLine
 10
83.19895770000002
 20
40.62595349999999
 30
0.0
 11
69.19995769999999
 21
40.62595349999999
 31
0.0
  0
LINE
  5
210
330
6F
100
AcDbEntity
  8
0
 62
     0
100
AcDbLine
 10
69.19995769999999
 20
40.62595349999999
 30
0.0
 11
69.19995769999999
 21
54.62515349999998
 31
0.0
  0
LINE
  5
211
330
6F
100
AcDbEntity
  8
0
 62
     0
100
AcDbLine
 10
50.14995769999998
 20
54.62515349999998
 30
0.0
 11
64.14895770000001
 21
54.62515349999998
 31
0.0
  0
LINE
  5
212
330
6F
100
AcDbEntity
  8
0
 62
     0
100
AcDbLine
 10
64.14895770000001
 20
54.62515349999998
 30
0.0
 11
64.14895770000001
 21
40.62595349999999
 31
0.0
  0
LINE
  5
213
330
6F
100
AcDbEntity
  8
0
 62
     0
100
AcDbLine
 10
64.14895770000001
 20
40.62595349999999
 30
0.0
 11
50.14995769999998
 21
40.62595349999999
 31
0.0
  0
LINE
  5
214
330
6F
100
AcDbEntity
  8
0
 62
     0
100
AcDbLine
 10
50.14995769999998
 20
40.62595349999999
 30
0.0
 11
50.14995769999998
 21
54.62515349999998
 31
0.0
  0
LINE
  5
215
330
6F
100
AcDbEntity
  8
0
 62
     0
100
AcDbLine
 10
31.09995770000001
 20
54.62515349999998
 30
0.0
 11
45.09895770000002
 21
54.62515349999998
 31
0.0
  0
LINE
  5
216
330
6F
100
AcDbEntity
  8
0
 62
     0
100
AcDbLine
 10
45.09895770000002
 20
54.62515349999998
 30
0.0
 11
45.09895770000002
 21
40.62595349999999
 31
0.0
  0
LINE
  5
217
330
6F
100
AcDbEntity
  8
0
 62
     0
100
AcDbLine
 10
45.09895770000002
 20
40.62595349999999
 30
0.0
 11
31.09995770000001
 21
40.62595349999999
 31
0.0
  0
LINE
  5
218
330
6F
100
AcDbEntity
  8
0
 62
     0
100
AcDbLine
 10
31.09995770000001
 20
40.62595349999999
 30
0.0
 11
31.09995770000001
 21
54.62515349999998
 31
0.0
  0
LINE
  5
219
330
6F
100
AcDbEntity
  8
0
 62
     0
100
AcDbLine
 10
12.04995769999999
 20
54.62515349999998
 30
0.0
 11
26.04895770000002
 21
54.62515349999998
 31
0.0
  0
LINE
  5
21A
330
6F
100
AcDbEntity
  8
0
 62
     0
100
AcDbLine
 10
26.04895770000002
 20
54.62515349999998
 30
0.0
 11
26.04895770000002
 21
40.62595349999999
 31
0.0
  0
LINE
  5
21B
330
6F
100
AcDbEntity
  8
0
 62
     0
100
AcDbLine
 10
26.04895770000002
 20
40.62595349999999
 30
0.0
 11
12.04995769999999
 21
40.62595349999999
 31
0.0
  0
LINE
  5
21C
330
6F
100
AcDbEntity
  8
0
 62
     0
100
AcDbLine
 10
12.04995769999999
 20
40.62595349999999
 30
0.0
 11
12.04995769999999
 21
54.62515349999998
 31
0.0
  0
LINE
  5
21D
330
6F
100
AcDbEntity
  8
0
 62
     0
100
AcDbLine
 10
-7.000042299999989
 20
54.62515349999998
 30
0.0
 11
6.998957700000005
 21
54.62515349999998
 31
0.0
  0
LINE
  5
21E
330
6F
100
AcDbEntity
  8
0
 62
     0
100
AcDbLine
 10
6.998957700000005
 20
54.62515349999998
 30
0.0
 11
6.998957700000005
 21
40.62595349999999
 31
0.0
  0
LINE
  5
21F
330
6F
100
AcDbEntity
  8
0
 62
     0
100
AcDbLine
 10
6.998957700000005
 20
40.62595349999999
 30
0.0
 11
-7.000042299999989
 21
40.62595349999999
 31
0.0
  0
LINE
  5
220
330
6F
100
AcDbEntity
  8
0
 62
     0
100
AcDbLine
 10
-7.000042299999989
 20
40.62595349999999
 30
0.0
 11
-7.000042299999989
 21
54.62515349999998
 31
0.0
  0
LINE
  5
221
330
6F
100
AcDbEntity
  8
0
 62
     0
100
AcDbLine
 10
-26.0500423
 20
54.62515349999998
 30
0.0
 11
-12.0510423
 21
54.62515349999998
 31
0.0
  0
LINE
  5
222
330
6F
100
AcDbEntity
  8
0
 62
     0
100
AcDbLine
 10
-12.0510423
 20
54.62515349999998
 30
0.0
 11
-12.0510423
 21
40.62595349999999
 31
0.0
  0
LINE
  5
223
330
6F
100
AcDbEntity
  8
0
 62
     0
100
AcDbLine
 10
-12.0510423
 20
40.62595349999999
 30
0.0
 11
-26.0500423
 21
40.62595349999999
 31
0.0
  0
LINE
  5
224
330
6F
100
AcDbEntity
  8
0
 62
     0
100
AcDbLine
 10
-26.0500423
 20
40.62595349999999
 30
0.0
 11
-26.0500423
 21
54.62515349999998
 31
0.0
  0
LINE
  5
225
330
6F
100
AcDbEntity
  8
0
 62
     0
100
AcDbLine
 10
-45.10204230000001
 20
54.62515349999998
 30
0.0
 11
-31.10104230000002
 21
54.62515349999998
 31
0.0
  0
LINE
  5
226
330
6F
100
AcDbEntity
  8
0
 62
     0
100
AcDbLine
 10
-31.10104230000002
 20
54.62515349999998
 30
0.0
 11
-31.10104230000002
 21
40.62595349999999
 31
0.0
  0
LINE
  5
227
330
6F
100
AcDbEntity
  8
0
 62
     0
100
AcDbLine
 10
-31.10104230000002
 20
40.62595349999999
 30
0.0
 11
-45.10204230000001
 21
40.62595349999999
 31
0.0
  0
LINE
  5
228
330
6F
100
AcDbEntity
  8
0
 62
     0
100
AcDbLine
 10
-45.10204230000001
 20
40.62595349999999
 30
0.0
 11
-45.10204230000001
 21
54.62515349999998
 31
0.0
  0
LINE
  5
229
330
6F
100
AcDbEntity
  8
0
 62
     0
100
AcDbLine
 10
-64.15174229999999
 20
54.62515349999998
 30
0.0
 11
-50.1510423
 21
54.62515349999998
 31
0.0
  0
LINE
  5
22A
330
6F
100
AcDbEntity
  8
0
 62
     0
100
AcDbLine
 10
-50.1510423
 20
54.62515349999998
 30
0.0
 11
-50.1510423
 21
40.62595349999999
 31
0.0
  0
LINE
  5
22B
330
6F
100
AcDbEntity
  8
0
 62
     0
100
AcDbLine
 10
-50.1510423
 20
40.62595349999999
 30
0.0
 11
-64.15174229999999
 21
40.62595349999999
 31
0.0
  0
LINE
  5
22C
330
6F
100
AcDbEntity
  8
0
 62
     0
100
AcDbLine
 10
-64.15174229999999
 20
40.62595349999999
 30
0.0
 11
-64.15174229999999
 21
54.62515349999998
 31
0.0
  0
LINE
  5
22D
330
6F
100
AcDbEntity
  8
0
 62
     0
100
AcDbLine
 10
-83.2003423
 20
54.62515349999998
 30
0.0
 11
-69.20104229999999
 21
54.62515349999998
 31
0.0
  0
LINE
  5
22E
330
6F
100
AcDbEntity
  8
0
 62
     0
100
AcDbLine
 10
-69.20104229999999
 20
54.62515349999998
 30
0.0
 11
-69.20104229999999
 21
40.62595349999999
 31
0.0
  0
LINE
  5
22F
330
6F
100
AcDbEntity
  8
0
 62
     0
100
AcDbLine
 10
-69.20104229999999
 20
40.62595349999999
 30
0.0
 11
-83.2003423
 21
40.62595349999999
 31
0.0
  0
LINE
  5
230
330
6F
100
AcDbEntity
  8
0
 62
     0
100
AcDbLine
 10
-83.2003423
 20
40.62595349999999
 30
0.0
 11
-83.2003423
 21
54.62515349999998
 31
0.0
  0
LINE
  5
231
330
6F
100
AcDbEntity
  8
0
 62
     0
100
AcDbLine
 10
-102.2503423
 20
54.62515349999998
 30
0.0
 11
-88.2510423
 21
54.62515349999998
 31
0.0
  0
LINE
  5
232
330
6F
100
AcDbEntity
  8
0
 62
     0
100
AcDbLine
 10
-88.2510423
 20
54.62515349999998
 30
0.0
 11
-88.2510423
 21
40.62595349999999
 31
0.0
  0
LINE
  5
233
330
6F
100
AcDbEntity
  8
0
 62
     0
100
AcDbLine
 10
-88.2510423
 20
40.62595349999999
 30
0.0
 11
-102.2503423
 21
40.62595349999999
 31
0.0
  0
LINE
  5
234
330
6F
100
AcDbEntity
  8
0
 62
     0
100
AcDbLine
 10
-102.2503423
 20
40.62595349999999
 30
0.0
 11
-102.2503423
 21
54.62515349999998
 31
0.0
  0
LINE
  5
235
330
6F
100
AcDbEntity
  8
0
 62
     0
100
AcDbLine
 10
-121.3003423
 20
54.62515349999998
 30
0.0
 11
-107.3010423
 21
54.62515349999998
 31
0.0
  0
LINE
  5
236
330
6F
100
AcDbEntity
  8
0
 62
     0
100
AcDbLine
 10
-107.3010423
 20
54.62515349999998
 30
0.0
 11
-107.3010423
 21
40.62595349999999
 31
0.0
  0
LINE
  5
237
330
6F
100
AcDbEntity
  8
0
 62
     0
100
AcDbLine
 10
-107.3010423
 20
40.62595349999999
 30
0.0
 11
-121.3003423
 21
40.62595349999999
 31
0.0
  0
LINE
  5
238
330
6F
100
AcDbEntity
  8
0
 62
     0
100
AcDbLine
 10
-121.3003423
 20
40.62595349999999
 30
0.0
 11
-121.3003423
 21
54.62515349999998
 31
0.0
  0
LINE
  5
239
330
6F
100
AcDbEntity
  8
0
 62
     0
100
AcDbLine
 10
-140.3503423
 20
54.62515349999998
 30
0.0
 11
-126.3510423
 21
54.62515349999998
 31
0.0
  0
LINE
  5
23A
330
6F
100
AcDbEntity
  8
0
 62
     0
100
AcDbLine
 10
-126.3510423
 20
54.62515349999998
 30
0.0
 11
-126.3510423
 21
40.62595349999999
 31
0.0
  0
LINE
  5
23B
330
6F
100
AcDbEntity
  8
0
 62
     0
100
AcDbLine
 10
-126.3510423
 20
40.62595349999999
 30
0.0
 11
-140.3503423
 21
40.62595349999999
 31
0.0
  0
LINE
  5
23C
330
6F
100
AcDbEntity
  8
0
 62
     0
100
AcDbLine
 10
-140.3503423
 20
40.62595349999999
 30
0.0
 11
-140.3503423
 21
54.62515349999998
 31
0.0
  0
LINE
  5
23D
330
6F
100
AcDbEntity
  8
0
 62
     0
100
AcDbLine
 10
-159.4003923
 20
54.62515349999998
 30
0.0
 11
-145.4008423
 21
54.62515349999998
 31
0.0
  0
LINE
  5
23E
330
6F
100
AcDbEntity
  8
0
 62
     0
100
AcDbLine
 10
-145.4008423
 20
54.62515349999998
 30
0.0
 11
-145.4008423
 21
40.62595349999999
 31
0.0
  0
LINE
  5
23F
330
6F
100
AcDbEntity
  8
0
 62
     0
100
AcDbLine
 10
-145.4008423
 20
40.62595349999999
 30
0.0
 11
-159.4003923
 21
40.62595349999999
 31
0.0
  0
LINE
  5
240
330
6F
100
AcDbEntity
  8
0
 62
     0
100
AcDbLine
 10
-159.4003923
 20
40.62595349999999
 30
0.0
 11
-159.4003923
 21
54.62515349999998
 31
0.0
  0
LINE
  5
26E
330
6F
100
AcDbEntity
  8
0
  6
Continuous
100
AcDbLine
 10
-83.2003423
 20
-40.62334650000001
 30
0.0
 11
-69.20104229999999
 21
-40.62334650000002
 31
0.0
  0
LINE
  5
271
330
6F
100
AcDbEntity
  8
0
  6
Continuous
100
AcDbLine
 10
69.19995769999999
 20
-40.62334649999999
 30
0.0
 11
83.19895770000002
 21
-40.62334649999999
 31
0.0
  0
POINT
  5
273
330
6F
100
AcDbEntity
  8
0
  6
Continuous
100
AcDbPoint
 10
0.0
 20
0.0
 30
0.0
  0
LINE
  5
276
330
6F
100
AcDbEntity
  8
0
  6
Continuous
100
AcDbLine
 10
-145.4008423
 20
40.62595349999999
 30
0.0
 11
-159.4003923
 21
40.62595349999999
 31
0.0
  0
CIRCLE
  5
279
330
6F
100
AcDbEntity
  8
0
  6
Continuous
100
AcDbCircle
 10
-152.4006173
 20
47.62555349999998
 30
0.0
 40
2.0
  0
CIRCLE
  5
29C
330
6F
100
AcDbEntity
  8
0
  6
Continuous
100
AcDbCircle
 10
-133.3508173
 20
47.62555349999998
 30
0.0
 40
2.0
  0
CIRCLE
  5
29D
330
6F
100
AcDbEntity
  8
0
  6
Continuous
100
AcDbCircle
 10
-114.3008173
 20
47.62555349999998
 30
0.0
 40
2.0
  0
CIRCLE
  5
29E
330
6F
100
AcDbEntity
  8
0
  6
Continuous
100
AcDbCircle
 10
-95.25081730000001
 20
47.62555349999998
 30
0.0
 40
2.0
  0
CIRCLE
  5
29F
330
6F
100
AcDbEntity
  8
0
  6
Continuous
100
AcDbCircle
 10
-76.20081729999999
 20
47.62555349999998
 30
0.0
 40
2.0
  0
CIRCLE
  5
2A0
330
6F
100
AcDbEntity
  8
0
  6
Continuous
100
AcDbCircle
 10
-57.1508173
 20
47.62555349999998
 30
0.0
 40
2.0
  0
CIRCLE
  5
2A1
330
6F
100
AcDbEntity
  8
0
  6
Continuous
100
AcDbCircle
 10
-38.10081730000002
 20
47.62555349999998
 30
0.0
 40
2.0
  0
CIRCLE
  5
2A2
330
6F
100
AcDbEntity
  8
0
  6
Continuous
100
AcDbCircle
 10
-19.0508173
 20
47.62555349999998
 30
0.0
 40
2.0
  0
CIRCLE
  5
2A3
330
6F
100
AcDbEntity
  8
0
  6
Continuous
100
AcDbCircle
 10
-0.0008172999999942
 20
47.62555349999998
 30
0.0
 40
2.0
  0
CIRCLE
  5
2A4
330
6F
100
AcDbEntity
  8
0
  6
Continuous
100
AcDbCircle
 10
19.04918270000002
 20
47.62555349999998
 30
0.0
 40
2.0
  0
CIRCLE
  5
2A5
330
6F
100
AcDbEntity
  8
0
  6
Continuous
100
AcDbCircle
 10
38.09918270000003
 20
47.62555349999998
 30
0.0
 40
2.0
  0
CIRCLE
  5
2A6
330
6F
100
AcDbEntity
  8
0
  6
Continuous
100
AcDbCircle
 10
57.14918270000001
 20
47.62555349999998
 30
0.0
 40
2.0
  0
CIRCLE
  5
2A7
330
6F
100
AcDbEntity
  8
0
  6
Continuous
100
AcDbCircle
 10
76.19918270000002
 20
47.62555349999998
 30
0.0
 40
2.0
  0
CIRCLE
  5
2A8
330
6F
100
AcDbEntity
  8
0
  6
Continuous
100
AcDbCircle
 10
95.2491827
 20
47.62555349999998
 30
0.0
 40
2.0
  0
CIRCLE
  5
2A9
330
6F
100
AcDbEntity
  8
0
  6
Continuous
100
AcDbCircle
 10
114.2991827
 20
47.62555349999998
 30
0.0
 40
2.0
  0
CIRCLE
  5
2AA
330
6F
100
AcDbEntity
  8
0
  6
Continuous
100
AcDbCircle
 10
133.3491827
 20
47.62555349999998
 30
0.0
 40
2.0
  0
CIRCLE
  5
2AB
330
6F
100
AcDbEntity
  8
0
  6
Continuous
100
AcDbCircle
 10
152.3991827
 20
28.57555349999998
 30
0.0
 40
2.0
  0
CIRCLE
  5
2AC
330
6F
100
AcDbEntity
  8
0
  6
Continuous
100
AcDbCircle
 10
133.3491827
 20
28.57555349999998
 30
0.0
 40
2.0
  0
CIRCLE
  5
2AD
330
6F
100
AcDbEntity
  8
0
  6
Continuous
100
AcDbCircle
 10
95.2491827
 20
28.57555349999998
 30
0.0
 40
2.0
  0
CIRCLE
  5
2AE
330
6F
100
AcDbEntity
  8
0
  6
Continuous
100
AcDbCircle
 10
152.3991827
 20
9.525553499999972
 30
0.0
 40
2.0
  0
CIRCLE
  5
2AF
330
6F
100
AcDbEntity
  8
0
  6
Continuous
100
AcDbCircle
 10
133.3491827
 20
9.525553499999972
 30
0.0
 40
2.0
  0
CIRCLE
  5
2B0
330
6F
100
AcDbEntity
  8
0
  6
Continuous
100
AcDbCircle
 10
114.2991827
 20
9.525553499999972
 30
0.0
 40
2.0
  0
CIRCLE
  5
2B1
330
6F
100
AcDbEntity
  8
0
  6
Continuous
100
AcDbCircle
 10
95.2491827
 20
9.525553499999972
 30
0.0
 40
2.0
  0
CIRCLE
  5
2B2
330
6F
100
AcDbEntity
  8
0
  6
Continuous
100
AcDbCircle
 10
76.19918270000002
 20
9.525553499999972
 30
0.0
 40
2.0
  0
CIRCLE
  5
2B3
330
6F
100
AcDbEntity
  8
0
  6
Continuous
100
AcDbCircle
 10
76.19918270000002
 20
28.57555349999998
 30
0.0
 40
2.0
  0
CIRCLE
  5
2B4
330
6F
100
AcDbEntity
  8
0
  6
Continuous
100
AcDbCircle
 10
57.14918270000001
 20
28.57555349999998
 30
0.0
 40
2.0
  0
CIRCLE
  5
2B5
330
6F
100
AcDbEntity
  8
0
  6
Continuous
100
AcDbCircle
 10
57.14918270000001
 20
9.525553499999972
 30
0.0
 40
2.0
  0
CIRCLE
  5
2B6
330
6F
100
AcDbEntity
  8
0
  6
Continuous
100
AcDbCircle
 10
38.09918270000003
 20
28.57555349999998
 30
0.0
 40
2.0
  0
CIRCLE
  5
2B7
330
6F
100
AcDbEntity
  8
0
  6
Continuous
100
AcDbCircle
 10
19.04918270000002
 20
28.57555349999998
 30
0.0
 40
2.0
  0
CIRCLE
  5
2B8
330
6F
100
AcDbEntity
  8
0
  6
Continuous
100
AcDbCircle
 10
-0.0008172999999942
 20
28.57555349999998
 30
0.0
 40
2.0
  0
CIRCLE
  5
2B9
330
6F
100
AcDbEntity
  8
0
  6
Continuous
100
AcDbCircle
 10
-19.0508173
 20
28.57555349999998
 30
0.0
 40
2.0
  0
CIRCLE
  5
2BA
330
6F
100
AcDbEntity
  8
0
  6
Continuous
100
AcDbCircle
 10
-38.10081730000002
 20
28.57555349999998
 30
0.0
 40
2.0
  0
CIRCLE
  5
2BB
330
6F
100
AcDbEntity
  8
0
  6
Continuous
100
AcDbCircle
 10
-57.1508173
 20
28.57555349999998
 30
0.0
 40
2.0
  0
CIRCLE
  5
2BC
330
6F
100
AcDbEntity
  8
0
  6
Continuous
100
AcDbCircle
 10
-76.20081729999999
 20
28.57555349999998
 30
0.0
 40
2.0
  0
CIRCLE
  5
2BD
330
6F
100
AcDbEntity
  8
0
  6
Continuous
100
AcDbCircle
 10
-95.25081730000001
 20
28.57555349999998
 30
0.0
 40
2.0
  0
CIRCLE
  5
2BE
330
6F
100
AcDbEntity
  8
0
  6
Continuous
100
AcDbCircle
 10
-114.3008173
 20
28.57555349999998
 30
0.0
 40
2.0
  0
CIRCLE
  5
2BF
330
6F
100
AcDbEntity
  8
0
  6
Continuous
100
AcDbCircle
 10
-133.3508173
 20
28.57555349999998
 30
0.0
 40
2.0
  0
CIRCLE
  5
2C0
330
6F
100
AcDbEntity
  8
0
  6
Continuous
100
AcDbCircle
 10
-133.3508173
 20
9.525553499999972
 30
0.0
 40
2.0
  0
CIRCLE
  5
2C1
330
6F
100
AcDbEntity
  8
0
  6
Continuous
100
AcDbCircle
 10
-114.3008173
 20
9.525553499999972
 30
0.0
 40
2.0
  0
CIRCLE
  5
2C2
330
6F
100
AcDbEntity
  8
0
  6
Continuous
100
AcDbCircle
 10
-133.3508173
 20
-9.52444650000001
 30
0.0
 40
2.0
  0
CIRCLE
  5
2C3
330
6F
100
AcDbEntity
  8
0
  6
Continuous
100
AcDbCircle
 10
-95.25081730000001
 20
9.525553499999972
 30
0.0
 40
2.0
  0
CIRCLE
  5
2C4
330
6F
100
AcDbEntity
  8
0
  6
Continuous
100
AcDbCircle
 10
-76.20081729999999
 20
9.525553499999972
 30
0.0
 40
2.0
  0
CIRCLE
  5
2C5
330
6F
100
AcDbEntity
  8
0
  6
Continuous
100
AcDbCircle
 10
-57.1508173
 20
9.525553499999972
 30
0.0
 40
2.0
  0
CIRCLE
  5
2C6
330
6F
100
AcDbEntity
  8
0
  6
Continuous
100
AcDbCircle
 10
-38.10081730000002
 20
9.525553499999972
 30
0.0
 40
2.0
  0
CIRCLE
  5
2C7
330
6F
100
AcDbEntity
  8
0
  6
Continuous
100
AcDbCircle
 10
-19.0508173
 20
9.525553499999972
 30
0.0
 40
2.0
  0
CIRCLE
  5
2C8
330
6F
100
AcDbEntity
  8
0
  6
Continuous
100
AcDbCircle
 10
-0.0008172999999942
 20
9.525553499999972
 30
0.0
 40
2.0
  0
CIRCLE
  5
2C9
330
6F
100
AcDbEntity
  8
0
  6
Continuous
100
AcDbCircle
 10
19.04918270000002
 20
9.525553499999972
 30
0.0
 40
2.0
  0
CIRCLE
  5
2CA
330
6F
100
AcDbEntity
  8
0
  6
Continuous
100
AcDbCircle
 10
38.09918270000003
 20
9.525553499999972
 30
0.0
 40
2.0
  0
CIRCLE
  5
2CB
330
6F
100
AcDbEntity
  8
0
  6
Continuous
100
AcDbCircle
 10
152.3991827
 20
-9.52444650000001
 30
0.0
 40
2.0
  0
CIRCLE
  5
2CC
330
6F
100
AcDbEntity
  8
0
  6
Continuous
100
AcDbCircle
 10
152.3991827
 20
-28.57464650000002
 30
0.0
 40
2.0
  0
CIRCLE
  5
2CD
330
6F
100
AcDbEntity
  8
0
  6
Continuous
100
AcDbCircle
 10
152.3991827
 20
-47.62460650000003
 30
0.0
 40
2.0
  0
CIRCLE
  5
2CE
330
6F
100
AcDbEntity
  8
0
  6
Continuous
100
AcDbCircle
 10
133.3491827
 20
-47.62460650000003
 30
0.0
 40
2.0
  0
CIRCLE
  5
2CF
330
6F
100
AcDbEntity
  8
0
  6
Continuous
100
AcDbCircle
 10
114.2991827
 20
-47.62460650000003
 30
0.0
 40
2.0
  0
CIRCLE
  5
2D0
330
6F
100
AcDbEntity
  8
0
  6
Continuous
100
AcDbCircle
 10
95.24918270000004
 20
-47.62460650000001
 30
0.0
 40
2.0
  0
CIRCLE
  5
2D1
330
6F
100
AcDbEntity
  8
0
  6
Continuous
100
AcDbCircle
 10
114.2991827
 20
-28.57464650000002
 30
0.0
 40
2.0
  0
CIRCLE
  5
2D2
330
6F
100
AcDbEntity
  8
0
  6
Continuous
100
AcDbCircle
 10
95.2491827
 20
-28.57464650000002
 30
0.0
 40
2.0
  0
CIRCLE
  5
2D3
330
6F
100
AcDbEntity
  8
0
  6
Continuous
100
AcDbCircle
 10
76.19918270000002
 20
-47.62460650000001
 30
0.0
 40
2.0
  0
CIRCLE
  5
2D4
330
6F
100
AcDbEntity
  8
0
  6
Continuous
100
AcDbCircle
 10
57.14918270000001
 20
-47.6246065
 30
0.0
 40
2.0
  0
CIRCLE
  5
2D5
330
6F
100
AcDbEntity
  8
0
  6
Continuous
100
AcDbCircle
 10
57.14918270000001
 20
-28.57464650000002
 30
0.0
 40
2.0
  0
CIRCLE
  5
2D6
330
6F
100
AcDbEntity
  8
0
  6
Continuous
100
AcDbCircle
 10
57.14918270000001
 20
-9.52444650000001
 30
0.0
 40
2.0
  0
CIRCLE
  5
2D7
330
6F
100
AcDbEntity
  8
0
  6
Continuous
100
AcDbCircle
 10
76.19918270000002
 20
-9.52444650000001
 30
0.0
 40
2.0
  0
CIRCLE
  5
2D8
330
6F
100
AcDbEntity
  8
0
  6
Continuous
100
AcDbCircle
 10
76.19918270000002
 20
-28.57464650000002
 30
0.0
 40
2.0
  0
CIRCLE
  5
2D9
330
6F
100
AcDbEntity
  8
0
  6
Continuous
100
AcDbCircle
 10
95.2491827
 20
-9.52444650000001
 30
0.0
 40
2.0
  0
CIRCLE
  5
2DA
330
6F
100
AcDbEntity
  8
0
  6
Continuous
100
AcDbCircle
 10
114.2991827
 20
-9.52444650000001
 30
0.0
 40
2.0
  0
CIRCLE
  5
2DB
330
6F
100
AcDbEntity
  8
0
  6
Continuous
100
AcDbCircle
 10
38.09918270000003
 20
-9.52444650000001
 30
0.0
 40
2.0
  0
CIRCLE
  5
2DC
330
6F
100
AcDbEntity
  8
0
  6
Continuous
100
AcDbCircle
 10
38.09918270000003
 20
-28.57464650000002
 30
0.0
 40
2.0
  0
CIRCLE
  5
2DD
330
6F
100
AcDbEntity
  8
0
  6
Continuous
100
AcDbCircle
 10
38.09918270000003
 20
-47.62460650000003
 30
0.0
 40
2.0
  0
CIRCLE
  5
2DE
330
6F
100
AcDbEntity
  8
0
  6
Continuous
100
AcDbCircle
 10
19.04918270000002
 20
-28.57464650000002
 30
0.0
 40
2.0
  0
CIRCLE
  5
2DF
330
6F
100
AcDbEntity
  8
0
  6
Continuous
100
AcDbCircle
 10
19.04918270000002
 20
-9.52444650000001
 30
0.0
 40
2.0
  0
CIRCLE
  5
2E0
330
6F
100
AcDbEntity
  8
0
  6
Continuous
100
AcDbCircle
 10
19.04918270000002
 20
-47.62460650000003
 30
0.0
 40
2.0
  0
CIRCLE
  5
2E1
330
6F
100
AcDbEntity
  8
0
  6
Continuous
100
AcDbCircle
 10
-0.0008172999999942
 20
-9.52444650000001
 30
0.0
 40
2.0
  0
CIRCLE
  5
2E2
330
6F
100
AcDbEntity
  8
0
  6
Continuous
100
AcDbCircle
 10
-19.0508173
 20
-9.52444650000001
 30
0.0
 40
2.0
  0
CIRCLE
  5
2E3
330
6F
100
AcDbEntity
  8
0
  6
Continuous
100
AcDbCircle
 10
-19.0508173
 20
-28.57464650000002
 30
0.0
 40
2.0
  0
CIRCLE
  5
2E4
330
6F
100
AcDbEntity
  8
0
  6
Continuous
100
AcDbCircle
 10
-0.0008172999999942
 20
-28.57464650000002
 30
0.0
 40
2.0
  0
CIRCLE
  5
2E5
330
6F
100
AcDbEntity
  8
0
  6
Continuous
100
AcDbCircle
 10
-0.0008172999999942
 20
-47.62460650000003
 30
0.0
 40
2.0
  0
CIRCLE
  5
2E6
330
6F
100
AcDbEntity
  8
0
  6
Continuous
100
AcDbCircle
 10
-19.0508173
 20
-47.62460650000003
 30
0.0
 40
2.0
  0
CIRCLE
  5
2E7
330
6F
100
AcDbEntity
  8
0
  6
Continuous
100
AcDbCircle
 10
-38.10081730000002
 20
-28.57464650000002
 30
0.0
 40
2.0
  0
CIRCLE
  5
2E8
330
6F
100
AcDbEntity
  8
0
  6
Continuous
100
AcDbCircle
 10
-38.10081730000002
 20
-9.52444650000001
 30
0.0
 40
2.0
  0
CIRCLE
  5
2E9
330
6F
100
AcDbEntity
  8
0
  6
Continuous
100
AcDbCircle
 10
-57.1508173
 20
-9.52444650000001
 30
0.0
 40
2.0
  0
CIRCLE
  5
2EA
330
6F
100
AcDbEntity
  8
0
  6
Continuous
100
AcDbCircle
 10
-38.10081730000002
 20
-47.62460650000003
 30
0.0
 40
2.0
  0
CIRCLE
  5
2EB
330
6F
100
AcDbEntity
  8
0
  6
Continuous
100
AcDbCircle
 10
-57.14941730000001
 20
-47.62460650000003
 30
0.0
 40
2.0
  0
CIRCLE
  5
2EC
330
6F
100
AcDbEntity
  8
0
  6
Continuous
100
AcDbCircle
 10
-57.1508173
 20
-28.57464650000002
 30
0.0
 40
2.0
  0
CIRCLE
  5
2ED
330
6F
100
AcDbEntity
  8
0
  6
Continuous
100
AcDbCircle
 10
-76.20081729999999
 20
-47.62460650000003
 30
0.0
 40
2.0
  0
CIRCLE
  5
2EE
330
6F
100
AcDbEntity
  8
0
  6
Continuous
100
AcDbCircle
 10
-76.20081729999999
 20
-28.57464650000002
 30
0.0
 40
2.0
  0
CIRCLE
  5
2EF
330
6F
100
AcDbEntity
  8
0
  6
Continuous
100
AcDbCircle
 10
-76.20081729999999
 20
-9.52444650000001
 30
0.0
 40
2.0
  0
CIRCLE
  5
2F0
330
6F
100
AcDbEntity
  8
0
  6
Continuous
100
AcDbCircle
 10
-95.25081730000001
 20
-9.52444650000001
 30
0.0
 40
2.0
  0
CIRCLE
  5
2F1
330
6F
100
AcDbEntity
  8
0
  6
Continuous
100
AcDbCircle
 10
-95.25081730000001
 20
-28.57464650000002
 30
0.0
 40
2.0
  0
CIRCLE
  5
2F2
330
6F
100
AcDbEntity
  8
0
  6
Continuous
100
AcDbCircle
 10
-95.25081730000001
 20
-47.62460650000003
 30
0.0
 40
2.0
  0
CIRCLE
  5
2F3
330
6F
100
AcDbEntity
  8
0
  6
Continuous
100
AcDbCircle
 10
-114.3008173
 20
-47.62460650000003
 30
0.0
 40
2.0
  0
CIRCLE
  5
2F4
330
6F
100
AcDbEntity
  8
0
  6
Continuous
100
AcDbCircle
 10
-114.3008173
 20
-28.57464650000002
 30
0.0
 40
2.0
  0
CIRCLE
  5
2F5
330
6F
100
AcDbEntity
  8
0
  6
Continuous
100
AcDbCircle
 10
-114.3008173
 20
-9.52444650000001
 30
0.0
 40
2.0
  0
CIRCLE
  5
2F6
330
6F
100
AcDbEntity
  8
0
  6
Continuous
100
AcDbCircle
 10
-133.3508173
 20
-28.57464650000002
 30
0.0
 40
2.0
  0
CIRCLE
  5
2F7
330
6F
100
AcDbEntity
  8
0
  6
Continuous
100
AcDbCircle
 10
-133.3508173
 20
-47.62460650000003
 30
0.0
 40
2.0
  0
CIRCLE
  5
2F8
330
6F
100
AcDbEntity
  8
0
  6
Continuous
100
AcDbCircle
 10
-152.4006173
 20
-47.62460650000003
 30
0.0
 40
2.0
  0
CIRCLE
  5
2F9
330
6F
100
AcDbEntity
  8
0
  6
Continuous
100
AcDbCircle
 10
-152.4006173
 20
9.525553499999972
 30
0.0
 40
2.0
  0
CIRCLE
  5
2FA
330
6F
100
AcDbEntity
  8
0
  6
Continuous
100
AcDbCircle
 10
-152.4006173
 20
-9.52444650000001
 30
0.0
 40
2.0
  0
CIRCLE
  5
2FB
330
6F
100
AcDbEntity
  8
0
  6
Continuous
100
AcDbCircle
 10
-152.4006173
 20
-28.57464650000002
 30
0.0
 40
2.0
  0
CIRCLE
  5
2FC
330
6F
100
AcDbEntity
  8
0
  6
Continuous
100
AcDbCircle
 10
133.3497327
 20
-28.57464650000002
 30
0.0
 40
2.0
  0
CIRCLE
  5
2FD
330
6F
100
AcDbEntity
  8
0
  6
Continuous
100
AcDbCircle
 10
133.3497327
 20
-9.52444650000001
 30
0.0
 40
2.0
  0
CIRCLE
  5
2FE
330
6F
100
AcDbEntity
  8
0
  6
Continuous
100
AcDbCircle
 10
114.2997327
 20
28.57555349999998
 30
0.0
 40
2.0
  0
CIRCLE
  5
2FF
330
6F
100
AcDbEntity
  8
0
  6
Continuous
100
AcDbCircle
 10
-142.8757173
 20
9.52565349999999
 30
0.0
 40
2.0
  0
CIRCLE
  5
300
330
6F
100
AcDbEntity
  8
0
  6
Continuous
100
AcDbCircle
 10
-142.8757173
 20
-9.524346500000007
 30
0.0
 40
2.0
  0
CIRCLE
  5
301
330
6F
100
AcDbEntity
  8
0
  6
Continuous
100
AcDbCircle
 10
-142.8757173
 20
-28.57444650000001
 30
0.0
 40
2.0
  0
CIRCLE
  5
302
330
6F
100
AcDbEntity
  8
0
  6
Continuous
100
AcDbCircle
 10
142.8744577
 20
-28.57444650000001
 30
0.0
 40
2.0
  0
CIRCLE
  5
303
330
6F
100
AcDbEntity
  8
0
  6
Continuous
100
AcDbCircle
 10
142.8744577
 20
-9.524346500000007
 30
0.0
 40
2.0
  0
CIRCLE
  5
304
330
6F
100
AcDbEntity
  8
0
  6
Continuous
100
AcDbCircle
 10
123.8244577
 20
28.57565349999999
 30
0.0
 40
2.0
  0
LINE
  5
30A
330
6F
100
AcDbEntity
  8
0
  6
Continuous
100
AcDbLine
 10
-162.4006173000001
 20
-55.62460650000002
 30
0.0
 11
-162.4006173
 21
55.62555349999998
 31
0.0
  0
LINE
  5
30B
330
6F
100
AcDbEntity
  8
0
  6
Continuous
100
AcDbLine
 10
-160.4006173
 20
57.62555349999999
 30
0.0
 11
160.3991827
 21
57.62555349999995
 31
0.0
  0
LINE
  5
30C
330
6F
100
AcDbEntity
  8
0
  6
Continuous
100
AcDbLine
 10
162.3991827
 20
55.62555349999994
 30
0.0
 11
162.3991827
 21
-55.62460650000001
 31
0.0
  0
ARC
  5
30E
330
6F
100
AcDbEntity
  8
0
  6
Continuous
100
AcDbCircle
 10
-160.4006173
 20
55.6255535
 30
0.0
 40
2.0
100
AcDbArc
 50
89.99999999999998
 51
180.0
  0
ARC
  5
311
330
6F
100
AcDbEntity
  8
0
  6
Continuous
100
AcDbCircle
 10
160.3991827
 20
55.62555349999994
 30
0.0
 40
2.0
100
AcDbArc
 50
0.0
 51
90.0
  0
ARC
  5
312
330
6F
100
AcDbEntity
  8
0
  6
Continuous
100
AcDbCircle
 10
160.3991827
 20
-55.62460650000002
 30
0.0
 40
2.0
100
AcDbArc
 50
270.0
 51
0.0
  0
ARC
  5
313
330
6F
100
AcDbEntity
  8
0
  6
Continuous
100
AcDbCircle
 10
-160.4006173000001
 20
-55.62460650000002
 30
0.0
 40
2.0
100
AcDbArc
 50
180.0
 51
270.0
  0
LINE
  5
314
330
6F
100
AcDbEntity
  8
0
  6
Continuous
100
AcDbLine
 10
160.3991827
 20
-57.62460650000002
 30
0.0
 11
-160.4006173000001
 21
-57.62460650000003
 31
0.0
  0
ENDSEC
  0
SECTION
  2
OBJECTS
  0
DICTIONARY
  5
C
330
0
100
AcDbDictionary
281
     1
  3
ACAD_CIP_PREVIOUS_PRODUCT_INFO
350
242
  3
ACAD_COLOR
350
62
  3
ACAD_DETAILVIEWSTYLE
350
69
  3
ACAD_GROUP
350
D
  3
ACAD_LAYOUT
350
61
  3
ACAD_MATERIAL
350
10
  3
ACAD_MLEADERSTYLE
350
65
  3
ACAD_MLINESTYLE
350
5E
  3
ACAD_PLOTSETTINGS
350
60
  3
ACAD_PLOTSTYLENAME
350
E
  3
ACAD_SCALELIST
350
42
  3
ACAD_SECTIONVIEWSTYLE
350
67
  3
ACAD_TABLESTYLE
350
63
  3
ACAD_VISUALSTYLE
350
29
  3
ACDB_RECOMPOSE_DATA
350
328
  3
AcDbVariableDictionary
350
284
  0
DICTIONARY
  5
25D
330
2
100
AcDbDictionary
280
     1
281
     1
  3
ACAD_LAYERSTATES
360
25E
  0
DICTIONARY
  5
258
330
54
100
AcDbDictionary
280
     1
281
     1
  3
ADSK_XREC_LAYER_RECONCILED
360
259
  0
DICTIONARY
  5
30F
330
6F
100
AcDbDictionary
280
     1
281
     1
  3
ACAD_SORTENTS
360
310
  0
XRECORD
  5
242
102
{ACAD_REACTORS
330
C
102
}
330
C
100
AcDbXrecord
280
     1
300
ACD
300
2022
300
87545ACD_2022_0F
  0
DICTIONARY
  5
62
102
{ACAD_REACTORS
330
C
102
}
330
C
100
AcDbDictionary
281
     1
  0
DICTIONARY
  5
69
102
{ACAD_REACTORS
330
C
102
}
330
C
100
AcDbDictionary
281
     1
  3
Imperial24
350
6A
  0
DICTIONARY
  5
D
102
{ACAD_REACTORS
330
C
102
}
330
C
100
AcDbDictionary
281
     1
  0
DICTIONARY
  5
61
102
{ACAD_REACTORS
330
C
102
}
330
C
100
AcDbDictionary
281
     1
  3
Layout1
350
6E
  3
Model
350
72
  0
DICTIONARY
  5
10
102
{ACAD_REACTORS
330
C
102
}
330
C
100
AcDbDictionary
281
     1
  3
ByBlock
350
19
  3
ByLayer
350
11
  3
Global
350
21
  0
DICTIONARY
  5
65
102
{ACAD_REACTORS
330
C
102
}
330
C
100
AcDbDictionary
281
     1
  3
Standard
350
66
  0
DICTIONARY
  5
5E
102
{ACAD_REACTORS
330
C
102
}
330
C
100
AcDbDictionary
281
     1
  3
Standard
350
5F
  0
DICTIONARY
  5
60
102
{ACAD_REACTORS
330
C
102
}
330
C
100
AcDbDictionary
281
     1
  0
ACDBDICTIONARYWDFLT
  5
E
102
{ACAD_REACTORS
330
C
102
}
330
C
100
AcDbDictionary
281
     1
  3
Normal
350
F
100
AcDbDictionaryWithDefault
340
F
  0
DICTIONARY
  5
42
102
{ACAD_REACTORS
330
C
102
}
330
C
100
AcDbDictionary
281
     1
  3
A0
350
43
  3
A1
350
44
  3
A2
350
45
  3
A3
350
46
  3
A4
350
47
  3
A5
350
48
  3
A6
350
49
  3
A7
350
4A
  3
A8
350
4B
  3
A9
350
4C
  3
B0
350
4D
  3
B1
350
4E
  3
B2
350
4F
  3
B3
350
50
  3
B4
350
51
  3
B5
350
52
  3
B6
350
53
  0
DICTIONARY
  5
67
102
{ACAD_REACTORS
330
C
102
}
330
C
100
AcDbDictionary
281
     1
  3
Imperial24
350
68
  0
DICTIONARY
  5
63
102
{ACAD_REACTORS
330
C
102
}
330
C
100
AcDbDictionary
281
     1
  3
Standard
350
64
  0
DICTIONARY
  5
29
102
{ACAD_REACTORS
330
C
102
}
330
C
100
AcDbDictionary
281
     1
  3
2dWireframe
350
2F
  3
Basic
350
2E
  3
Brighten
350
35
  3
ColorChange
350
39
  3
Conceptual
350
32
  3
Dim
350
34
  3
EdgeColorOff
350
41
  3
Facepattern
350
38
  3
Flat
350
2A
  3
FlatWithEdges
350
2B
  3
Gouraud
350
2C
  3
GouraudWithEdges
350
2D
  3
Hidden
350
31
  3
JitterOff
350
3F
  3
Linepattern
350
37
  3
OverhangOff
350
40
  3
Realistic
350
33
  3
Shaded
350
3E
  3
Shaded with edges
350
3D
  3
Shades of Gray
350
3A
  3
Sketchy
350
3B
  3
Thicken
350
36
  3
Wireframe
350
30
  3
X-Ray
350
3C
  0
XRECORD
  5
328
102
{ACAD_REACTORS
330
C
102
}
330
C
100
AcDbXrecord
280
     1
 90
        1
330
64
  0
DICTIONARY
  5
284
102
{ACAD_REACTORS
330
C
102
}
330
C
100
AcDbDictionary
281
     1
  3
CANNOSCALE
350
28A
  3
CMLEADERSTYLE
350
286
  3
CTABLESTYLE
350
285
  3
CVIEWDETAILSTYLE
350
287
  3
CVIEWSECTIONSTYLE
350
288
  3
LAYEREVAL
350
28C
  3
LAYERNOTIFY
350
28D
  3
LIGHTINGUNITS
350
28B
  3
MSLTSCALE
350
289
  0
DICTIONARY
  5
25E
102
{ACAD_REACTORS
330
25D
102
}
330
25D
100
AcDbDictionary
281
     1
  0
XRECORD
  5
259
102
{ACAD_REACTORS
330
258
102
}
330
258
100
AcDbXrecord
280
     1
290
     1
  0
SORTENTSTABLE
  5
310
102
{ACAD_REACTORS
330
30F
102
}
330
30F
100
AcDbSortentsTable
330
6F
331
30A
  5
30B
331
30B
  5
30D
331
30C
  5
30E
331
30E
  5
30C
331
311
  5
312
331
312
  5
311
331
313
  5
30A
  0
ACDBDETAILVIEWSTYLE
  5
6A
102
{ACAD_REACTORS
330
69
102
}
330
69
100
AcDbModelDocViewStyle
 70
     0
  3
Imperial24
290
     0
300
Imperial24
 90
        0
100
AcDbDetailViewStyle
 70
     0
 71
     0
 90
        3
 71
     1
340
55
 62
   256
 40
0.24
340
0
 62
   256
 40
0.24
300

 40
0.36
280
     3
 71
     2
340
5C
 90
       25
 62
   256
 71
     3
340
55
 62
   256
 40
0.24
 90
        1
 40
0.75
 90
        1
300
%<\AcVar ViewType \f "%tc1">% %<\AcVar ViewDetailId>%\PSCALE %<\AcVar ViewScale \f "%sn">%
 71
     4
340
5C
 90
       25
 62
   256
340
5C
 90
       25
 62
   256
280
     0
  0
LAYOUT
  5
6E
102
{ACAD_REACTORS
330
61
102
}
330
61
100
AcDbPlotSettings
  1

  2
Microsoft Print to PDF
  4

  6

 40
0.0
 41
0.0
 42
0.0
 43
0.0
 44
0.0
 45
0.0
 46
0.0
 47
0.0
 48
0.0
 49
0.0
140
0.0
141
0.0
142
1.0
143
1.0
 70
   688
 72
     0
 73
     0
 74
     5
  7

 75
    16
147
1.0
 76
     0
 77
     2
 78
   300
148
0.0
149
0.0
100
AcDbLayout
  1
Layout1
 70
     1
 71
     1
 10
0.0
 20
0.0
 11
12.0
 21
9.0
 12
0.0
 22
0.0
 32
0.0
 14
1.000000000000000E+20
 24
1.000000000000000E+20
 34
1.000000000000000E+20
 15
-1.000000000000000E+20
 25
-1.000000000000000E+20
 35
-1.000000000000000E+20
146
0.0
 13
0.0
 23
0.0
 33
0.0
 16
1.0
 26
0.0
 36
0.0
 17
0.0
 27
1.0
 37
0.0
 76
     0
330
6B
  0
LAYOUT
  5
72
102
{ACAD_REACTORS
330
61
102
}
330
61
100
AcDbPlotSettings
  1

  2
Microsoft Print to PDF
  4

  6

 40
0.0
 41
0.0
 42
0.0
 43
0.0
 44
0.0
 45
0.0
 46
0.0
 47
0.0
 48
0.0
 49
0.0
140
0.0
141
0.0
142
1.0
143
1.0
 70
  1712
 72
     0
 73
     0
 74
     0
  7

 75
     0
147
1.0
 76
     0
 77
     2
 78
   300
148
0.0
149
0.0
100
AcDbLayout
  1
Model
 70
     1
 71
     0
 10
0.0
 20
0.0
 11
12.0
 21
9.0
 12
0.0
 22
0.0
 32
0.0
 14
0.0
 24
0.0
 34
0.0
 15
0.0
 25
0.0
 35
0.0
146
0.0
 13
0.0
 23
0.0
 33
0.0
 16
1.0
 26
0.0
 36
0.0
 17
0.0
 27
1.0
 37
0.0
 76
     0
330
6F
331
74
  0
MATERIAL
  5
19
102
{ACAD_XDICTIONARY
360
1A
102
}
102
{ACAD_REACTORS
330
10
102
}
330
10
100
AcDbMaterial
  1
ByBlock
 72
     0
 43
0.0208333333333333
 43
0.0
 43
0.0
 43
0.0
 43
0.0
 43
0.0208333333333333
 43
0.0
 43
0.0
 43
0.0
 43
0.0
 43
1.0
 43
0.0
 43
0.0
 43
0.0
 43
0.0
 43
1.0
 77
     0
 47
0.0208333333333333
 47
0.0
 47
0.0
 47
0.0
 47
0.0
 47
0.0208333333333333
 47
0.0
 47
0.0
 47
0.0
 47
0.0
 47
1.0
 47
0.0
 47
0.0
 47
0.0
 47
0.0
 47
1.0
171
     0
 49
0.0208333333333333
 49
0.0
 49
0.0
 49
0.0
 49
0.0
 49
0.0208333333333333
 49
0.0
 49
0.0
 49
0.0
 49
0.0
 49
1.0
 49
0.0
 49
0.0
 49
0.0
 49
0.0
 49
1.0
175
     0
142
0.0208333333333333
142
0.0
142
0.0
142
0.0
142
0.0
142
0.0208333333333333
142
0.0
142
0.0
142
0.0
142
0.0
142
1.0
142
0.0
142
0.0
142
0.0
142
0.0
142
1.0
179
     0
144
0.0208333333333333
144
0.0
144
0.0
144
0.0
144
0.0
144
0.0208333333333333
144
0.0
144
0.0
144
0.0
144
0.0
144
1.0
144
0.0
144
0.0
144
0.0
144
0.0
144
1.0
147
0.0208333333333333
147
0.0
147
0.0
147
0.0
147
0.0
147
0.0208333333333333
147
0.0
147
0.0
147
0.0
147
0.0
147
1.0
147
0.0
147
0.0
147
0.0
147
0.0
147
1.0
  0
MATERIAL
  5
11
102
{ACAD_XDICTIONARY
360
12
102
}
102
{ACAD_REACTORS
330
10
102
}
330
10
100
AcDbMaterial
  1
ByLayer
 72
     0
 43
0.0208333333333333
 43
0.0
 43
0.0
 43
0.0
 43
0.0
 43
0.0208333333333333
 43
0.0
 43
0.0
 43
0.0
 43
0.0
 43
1.0
 43
0.0
 43
0.0
 43
0.0
 43
0.0
 43
1.0
 77
     0
 47
0.0208333333333333
 47
0.0
 47
0.0
 47
0.0
 47
0.0
 47
0.0208333333333333
 47
0.0
 47
0.0
 47
0.0
 47
0.0
 47
1.0
 47
0.0
 47
0.0
 47
0.0
 47
0.0
 47
1.0
171
     0
 49
0.0208333333333333
 49
0.0
 49
0.0
 49
0.0
 49
0.0
 49
0.0208333333333333
 49
0.0
 49
0.0
 49
0.0
 49
0.0
 49
1.0
 49
0.0
 49
0.0
 49
0.0
 49
0.0
 49
1.0
175
     0
142
0.0208333333333333
142
0.0
142
0.0
142
0.0
142
0.0
142
0.0208333333333333
142
0.0
142
0.0
142
0.0
142
0.0
142
1.0
142
0.0
142
0.0
142
0.0
142
0.0
142
1.0
179
     0
144
0.0208333333333333
144
0.0
144
0.0
144
0.0
144
0.0
144
0.0208333333333333
144
0.0
144
0.0
144
0.0
144
0.0
144
1.0
144
0.0
144
0.0
144
0.0
144
0.0
144
1.0
147
0.0208333333333333
147
0.0
147
0.0
147
0.0
147
0.0
147
0.0208333333333333
147
0.0
147
0.0
147
0.0
147
0.0
147
1.0
147
0.0
147
0.0
147
0.0
147
0.0
147
1.0
  0
MATERIAL
  5
21
102
{ACAD_XDICTIONARY
360
22
102
}
102
{ACAD_REACTORS
330
10
102
}
330
10
100
AcDbMaterial
  1
Global
 72
     0
 43
0.0208333333333333
 43
0.0
 43
0.0
 43
0.0
 43
0.0
 43
0.0208333333333333
 43
0.0
 43
0.0
 43
0.0
 43
0.0
 43
1.0
 43
0.0
 43
0.0
 43
0.0
 43
0.0
 43
1.0
 77
     0
 47
0.0208333333333333
 47
0.0
 47
0.0
 47
0.0
 47
0.0
 47
0.0208333333333333
 47
0.0
 47
0.0
 47
0.0
 47
0.0
 47
1.0
 47
0.0
 47
0.0
 47
0.0
 47
0.0
 47
1.0
171
     0
 49
0.0208333333333333
 49
0.0
 49
0.0
 49
0.0
 49
0.0
 49
0.0208333333333333
 49
0.0
 49
0.0
 49
0.0
 49
0.0
 49
1.0
 49
0.0
 49
0.0
 49
0.0
 49
0.0
 49
1.0
175
     0
142
0.0208333333333333
142
0.0
142
0.0
142
0.0
142
0.0
142
0.0208333333333333
142
0.0
142
0.0
142
0.0
142
0.0
142
1.0
142
0.0
142
0.0
142
0.0
142
0.0
142
1.0
179
     0
144
0.0208333333333333
144
0.0
144
0.0
144
0.0
144
0.0
144
0.0208333333333333
144
0.0
144
0.0
144
0.0
144
0.0
144
1.0
144
0.0
144
0.0
144
0.0
144
0.0
144
1.0
147
0.0208333333333333
147
0.0
147
0.0
147
0.0
147
0.0
147
0.0208333333333333
147
0.0
147
0.0
147
0.0
147
0.0
147
1.0
147
0.0
147
0.0
147
0.0
147
0.0
147
1.0
  0
MLEADERSTYLE
  5
66
102
{ACAD_REACTORS
330
65
102
}
330
65
100
AcDbMLeaderStyle
179
     2
170
     2
171
     1
172
     0
 90
        2
 40
0.0
 41
0.0
173
     1
 91
-1056964608
340
5A
 92
       -2
290
     1
 42
0.09
291
     1
 43
0.36
  3
Standard
 44
0.18
300

342
55
174
     1
178
     6
175
     1
176
     0
 93
-1056964608
 45
0.18
292
     0
297
     0
 46
0.18
 94
-1056964608
 47
1.0
 49
1.0
140
1.0
293
     1
141
0.0
294
     1
177
     0
142
1.0
295
     0
296
     0
143
0.125
271
     0
272
     9
273
     9
298
     0
  0
MLINESTYLE
  5
5F
102
{ACAD_REACTORS
330
5E
102
}
330
5E
100
AcDbMlineStyle
  2
STANDARD
 70
     0
  3

 62
   256
 51
90.0
 52
90.0
 71
     2
 49
0.5
 62
   256
  6
BYLAYER
 49
-0.5
 62
   256
  6
BYLAYER
  0
ACDBPLACEHOLDER
  5
F
102
{ACAD_REACTORS
330
E
102
}
330
E
  0
SCALE
  5
43
102
{ACAD_REACTORS
330
42
102
}
330
42
100
AcDbScale
 70
     0
300
1:1
140
1.0
141
1.0
290
     1
  0
SCALE
  5
44
102
{ACAD_REACTORS
330
42
102
}
330
42
100
AcDbScale
 70
     0
300
1/128" = 1'-0"
140
0.0078125
141
12.0
290
     0
  0
SCALE
  5
45
102
{ACAD_REACTORS
330
42
102
}
330
42
100
AcDbScale
 70
     0
300
1/64" = 1'-0"
140
0.015625
141
12.0
290
     0
  0
SCALE
  5
46
102
{ACAD_REACTORS
330
42
102
}
330
42
100
AcDbScale
 70
     0
300
1/32" = 1'-0"
140
0.03125
141
12.0
290
     0
  0
SCALE
  5
47
102
{ACAD_REACTORS
330
42
102
}
330
42
100
AcDbScale
 70
     0
300
1/16" = 1'-0"
140
0.0625
141
12.0
290
     0
  0
SCALE
  5
48
102
{ACAD_REACTORS
330
42
102
}
330
42
100
AcDbScale
 70
     0
300
3/32" = 1'-0"
140
0.09375
141
12.0
290
     0
  0
SCALE
  5
49
102
{ACAD_REACTORS
330
42
102
}
330
42
100
AcDbScale
 70
     0
300
1/8" = 1'-0"
140
0.125
141
12.0
290
     0
  0
SCALE
  5
4A
102
{ACAD_REACTORS
330
42
102
}
330
42
100
AcDbScale
 70
     0
300
3/16" = 1'-0"
140
0.1875
141
12.0
290
     0
  0
SCALE
  5
4B
102
{ACAD_REACTORS
330
42
102
}
330
42
100
AcDbScale
 70
     0
300
1/4" = 1'-0"
140
0.25
141
12.0
290
     0
  0
SCALE
  5
4C
102
{ACAD_REACTORS
330
42
102
}
330
42
100
AcDbScale
 70
     0
300
3/8" = 1'-0"
140
0.375
141
12.0
290
     0
  0
SCALE
  5
4D
102
{ACAD_REACTORS
330
42
102
}
330
42
100
AcDbScale
 70
     0
300
1/2" = 1'-0"
140
0.5
141
12.0
290
     0
  0
SCALE
  5
4E
102
{ACAD_REACTORS
330
42
102
}
330
42
100
AcDbScale
 70
     0
300
3/4" = 1'-0"
140
0.75
141
12.0
290
     0
  0
SCALE
  5
4F
102
{ACAD_REACTORS
330
42
102
}
330
42
100
AcDbScale
 70
     0
300
1" = 1'-0"
140
1.0
141
12.0
290
     0
  0
SCALE
  5
50
102
{ACAD_REACTORS
330
42
102
}
330
42
100
AcDbScale
 70
     0
300
1-1/2" = 1'-0"
140
1.5
141
12.0
290
     0
  0
SCALE
  5
51
102
{ACAD_REACTORS
330
42
102
}
330
42
100
AcDbScale
 70
     0
300
3" = 1'-0"
140
3.0
141
12.0
290
     0
  0
SCALE
  5
52
102
{ACAD_REACTORS
330
42
102
}
330
42
100
AcDbScale
 70
     0
300
6" = 1'-0"
140
6.0
141
12.0
290
     0
  0
SCALE
  5
53
102
{ACAD_REACTORS
330
42
102
}
330
42
100
AcDbScale
 70
     0
300
1'-0" = 1'-0"
140
12.0
141
12.0
290
     0
  0
ACDBSECTIONVIEWSTYLE
  5
68
102
{ACAD_REACTORS
330
67
102
}
330
67
100
AcDbModelDocViewStyle
 70
     0
  3
Imperial24
290
     0
300
Imperial24
 90
        0
100
AcDbSectionViewStyle
 70
     0
 71
     0
 90
       78
 71
     1
340
55
 62
   256
 40
0.24
340
0
340
0
 62
   256
 40
0.24
300
I, O, Q, S, X, Z
 40
0.48
 90
        3
 40
0.18
 90
        1
 71
     2
340
5C
 90
       25
 62
   256
340
5C
 90
       50
 62
   256
 40
0.24
 40
0.0
 40
0.24
 71
     3
340
55
 62
   256
 40
0.24
 90
        1
 40
0.75
 90
        1
300
%<\AcVar ViewType \f "%tc1">% %<\AcVar ViewSectionStartId>%-%<\AcVar ViewSectionEndId>%\PSCALE %<\AcVar ViewScale \f "%sn">%
 71
     4
 62
   256
 62
   257
300
ANSI31
 40
1.0
 90
        0
290
     0
290
     0
 90
        6
 40
0.0
 40
1.570796326794896
 40
0.2617993877991494
 40
1.308996938995747
 40
-0.2617993877991494
 40
1.832595714594046
  0
TABLESTYLE
  5
64
102
{ACAD_XDICTIONARY
360
326
102
}
102
{ACAD_REACTORS
330
63
102
}
330
63
100
AcDbTableStyle
280
     0
  3
Standard
 70
     0
 71
     0
 40
0.06
 41
0.06
280
     0
281
     0
  7
Standard
140
0.18
170
     2
 62
     0
 63
     7
283
     0
 90
      512
 91
        0
  1

274
    -2
284
     1
 64
     0
275
    -2
285
     1
 65
     0
276
    -2
286
     1
 66
     0
277
    -2
287
     1
 67
     0
278
    -2
288
     1
 68
     0
279
    -2
289
     1
 69
     0
  7
Standard
140
0.25
170
     5
 62
     0
 63
     7
283
     0
 90
      512
 91
        0
  1

274
    -2
284
     1
 64
     0
275
    -2
285
     1
 65
     0
276
    -2
286
     1
 66
     0
277
    -2
287
     1
 67
     0
278
    -2
288
     1
 68
     0
279
    -2
289
     1
 69
     0
  7
Standard
140
0.18
170
     5
 62
     0
 63
     7
283
     0
 90
      512
 91
        0
  1

274
    -2
284
     1
 64
     0
275
    -2
285
     1
 65
     0
276
    -2
286
     1
 66
     0
277
    -2
287
     1
 67
     0
278
    -2
288
     1
 68
     0
279
    -2
289
     1
 69
     0
  0
VISUALSTYLE
  5
2F
102
{ACAD_REACTORS
330
29
102
}
330
29
100
AcDbVisualStyle
  2
2dWireframe
 70
     4
177
     3
291
     0
 70
    58
 90
        0
176
     1
 90
        2
176
     1
 90
        0
176
     1
 90
        0
176
     1
 40
0.6
176
     1
 40
30.0
176
     1
 62
     7
420
 16777215
176
     1
 90
        1
176
     1
 90
        4
176
     1
 62
     7
176
     1
 62
   257
176
     1
 90
        1
176
     1
 90
        1
176
     1
 40
1.0
176
     1
 90
        0
176
     1
 62
   257
176
     1
 40
1.0
176
     1
 90
        1
176
     1
 90
        6
176
     1
 90
        2
176
     1
 62
     7
176
     1
 90
        5
176
     1
 90
        0
176
     1
 90
        0
176
     1
290
     0
176
     1
 90
        1
176
     1
 40
0.0
176
     1
 90
        0
176
     1
290
     1
176
     1
290
     1
176
     1
290
     0
176
     1
290
     0
176
     1
290
     0
176
     1
290
     0
176
     1
290
     0
176
     1
290
     0
176
     1
290
     0
176
     1
 90
       50
176
     1
 40
0.0
176
     1
 40
1.0
176
     1
 90
        0
176
     1
 62
    18
420
        0
176
     1
 90
       50
176
     1
 90
        3
176
     1
 62
     5
420
      255
176
     1
290
     0
176
     1
 90
       50
176
     1
 90
       50
176
     1
 90
       50
176
     1
290
     0
176
     1
 90
       50
176
     1
 62
   256
176
     0
 40
1.0
176
     0
 90
        2
176
     1
  1
strokes_ogs.tif
176
     1
290
     0
176
     1
 40
1.0
176
     1
 40
1.0
176
     1
  0
VISUALSTYLE
  5
2E
102
{ACAD_REACTORS
330
29
102
}
330
29
100
AcDbVisualStyle
  2
Basic
 70
     7
177
     3
291
     1
 70
    58
 90
        1
176
     1
 90
        0
176
     1
 90
        1
176
     1
 90
        0
176
     1
 40
0.6
176
     1
 40
30.0
176
     1
 62
     7
420
 16777215
176
     1
 90
        0
176
     1
 90
        4
176
     1
 62
     7
176
     1
 62
   257
176
     1
 90
        1
176
     1
 90
        1
176
     1
 40
1.0
176
     1
 90
        8
176
     1
 62
     7
176
     1
 40
1.0
176
     1
 90
        1
176
     1
 90
        6
176
     1
 90
        2
176
     1
 62
     7
176
     1
 90
        5
176
     1
 90
        0
176
     1
 90
        0
176
     1
290
     0
176
     1
 90
        1
176
     1
 40
0.0
176
     1
 90
        0
176
     1
290
     0
176
     1
290
     1
176
     1
290
     1
176
     1
290
     0
176
     1
290
     0
176
     1
290
     0
176
     1
290
     0
176
     1
290
     0
176
     1
290
     0
176
     1
 90
       50
176
     1
 40
0.0
176
     1
 40
1.0
176
     1
 90
        0
176
     1
 62
    18
420
        0
176
     1
 90
       50
176
     1
 90
        3
176
     1
 62
     5
420
      255
176
     1
290
     0
176
     1
 90
       50
176
     1
 90
       50
176
     1
 90
       50
176
     1
290
     0
176
     1
 90
       50
176
     1
 62
   256
176
     0
 40
1.0
176
     0
 90
        2
176
     1
  1
strokes_ogs.tif
176
     1
290
     0
176
     1
 40
1.0
176
     1
 40
1.0
176
     1
  0
VISUALSTYLE
  5
35
102
{ACAD_REACTORS
330
29
102
}
330
29
100
AcDbVisualStyle
  2
Brighten
 70
    12
177
     3
291
     1
 70
    58
 90
        2
176
     1
 90
        2
176
     1
 90
        0
176
     1
 90
        0
176
     1
 40
0.6
176
     1
 40
30.0
176
     1
 62
     7
420
 16777215
176
     1
 90
        1
176
     1
 90
        4
176
     1
 62
     7
176
     1
 62
   257
176
     1
 90
        1
176
     1
 90
        1
176
     1
 40
1.0
176
     1
 90
        8
176
     1
 62
     7
176
     1
 40
1.0
176
     1
 90
        1
176
     1
 90
        6
176
     1
 90
        2
176
     1
 62
     7
176
     1
 90
        5
176
     1
 90
        0
176
     1
 90
        0
176
     1
290
     0
176
     1
 90
        1
176
     1
 40
50.0
176
     1
 90
        0
176
     1
290
     0
176
     1
290
     1
176
     1
290
     1
176
     1
290
     0
176
     1
290
     0
176
     1
290
     0
176
     1
290
     0
176
     1
290
     0
176
     1
290
     0
176
     1
 90
       50
176
     1
 40
0.0
176
     1
 40
1.0
176
     1
 90
        0
176
     1
 62
    18
420
        0
176
     1
 90
       50
176
     1
 90
        3
176
     1
 62
     5
420
      255
176
     1
290
     0
176
     1
 90
       50
176
     1
 90
       50
176
     1
 90
       50
176
     1
290
     0
176
     1
 90
       50
176
     1
 62
   256
176
     0
 40
1.0
176
     0
 90
        2
176
     1
  1
strokes_ogs.tif
176
     1
290
     0
176
     1
 40
1.0
176
     1
 40
1.0
176
     1
  0
VISUALSTYLE
  5
39
102
{ACAD_REACTORS
330
29
102
}
330
29
100
AcDbVisualStyle
  2
ColorChange
 70
    16
177
     3
291
     1
 70
    58
 90
        2
176
     1
 90
        2
176
     1
 90
        3
176
     1
 90
        0
176
     1
 40
0.6
176
     1
 40
30.0
176
     1
 62
     8
420
  8421504
176
     1
 90
        1
176
     1
 90
        4
176
     1
 62
     7
176
     1
 62
   257
176
     1
 90
        1
176
     1
 90
        1
176
     1
 40
1.0
176
     1
 90
        8
176
     1
 62
     8
420
  8421504
176
     1
 40
1.0
176
     1
 90
        1
176
     1
 90
        6
176
     1
 90
        2
176
     1
 62
     7
176
     1
 90
        5
176
     1
 90
        0
176
     1
 90
        0
176
     1
290
     0
176
     1
 90
        1
176
     1
 40
0.0
176
     1
 90
        0
176
     1
290
     0
176
     1
290
     1
176
     1
290
     1
176
     1
290
     0
176
     1
290
     0
176
     1
290
     0
176
     1
290
     0
176
     1
290
     0
176
     1
290
     0
176
     1
 90
       50
176
     1
 40
0.0
176
     1
 40
1.0
176
     1
 90
        0
176
     1
 62
    18
420
        0
176
     1
 90
       50
176
     1
 90
        3
176
     1
 62
     5
420
      255
176
     1
290
     0
176
     1
 90
       50
176
     1
 90
       50
176
     1
 90
       50
176
     1
290
     0
176
     1
 90
       50
176
     1
 62
   256
176
     0
 40
1.0
176
     0
 90
        2
176
     1
  1
strokes_ogs.tif
176
     1
290
     0
176
     1
 40
1.0
176
     1
 40
1.0
176
     1
  0
VISUALSTYLE
  5
32
102
{ACAD_REACTORS
330
29
102
}
330
29
100
AcDbVisualStyle
  2
Conceptual
 70
     9
177
     3
291
     0
 70
    58
 90
        3
176
     1
 90
        2
176
     1
 90
        0
176
     1
 90
        0
176
     1
 40
0.6
176
     1
 40
30.0
176
     1
 62
     7
420
 16777215
176
     1
 90
        2
176
     1
 90
        2
176
     1
 62
     7
176
     1
 62
   257
176
     1
 90
        1
176
     1
 90
        1
176
     1
 40
179.0
176
     1
 90
        8
176
     1
 62
     7
176
     1
 40
1.0
176
     1
 90
        1
176
     1
 90
        6
176
     1
 90
        2
176
     1
 62
     7
176
     1
 90
        3
176
     1
 90
        0
176
     1
 90
        0
176
     1
290
     0
176
     1
 90
        1
176
     1
 40
0.0
176
     1
 90
        0
176
     1
290
     0
176
     1
290
     1
176
     1
290
     1
176
     1
290
     0
176
     1
290
     0
176
     1
290
     0
176
     1
290
     0
176
     1
290
     0
176
     1
290
     0
176
     1
 90
       50
176
     1
 40
0.0
176
     1
 40
1.0
176
     1
 90
        0
176
     1
 62
    18
420
        0
176
     1
 90
       50
176
     1
 90
        3
176
     1
 62
     5
420
      255
176
     1
290
     0
176
     1
 90
       50
176
     1
 90
       50
176
     1
 90
       50
176
     1
290
     0
176
     1
 90
       50
176
     1
 62
   256
176
     0
 40
1.0
176
     0
 90
        2
176
     1
  1
strokes_ogs.tif
176
     1
290
     0
176
     1
 40
1.0
176
     1
 40
1.0
176
     1
  0
VISUALSTYLE
  5
34
102
{ACAD_REACTORS
330
29
102
}
330
29
100
AcDbVisualStyle
  2
Dim
 70
    11
177
     3
291
     1
 70
    58
 90
        2
176
     1
 90
        2
176
     1
 90
        0
176
     1
 90
        0
176
     1
 40
0.6
176
     1
 40
30.0
176
     1
 62
     7
420
 16777215
176
     1
 90
        1
176
     1
 90
        4
176
     1
 62
     7
176
     1
 62
   257
176
     1
 90
        1
176
     1
 90
        1
176
     1
 40
1.0
176
     1
 90
        8
176
     1
 62
     7
176
     1
 40
1.0
176
     1
 90
        1
176
     1
 90
        6
176
     1
 90
        2
176
     1
 62
     7
176
     1
 90
        5
176
     1
 90
        0
176
     1
 90
        0
176
     1
290
     0
176
     1
 90
        1
176
     1
 40
-50.0
176
     1
 90
        0
176
     1
290
     0
176
     1
290
     1
176
     1
290
     1
176
     1
290
     0
176
     1
290
     0
176
     1
290
     0
176
     1
290
     0
176
     1
290
     0
176
     1
290
     0
176
     1
 90
       50
176
     1
 40
0.0
176
     1
 40
1.0
176
     1
 90
        0
176
     1
 62
    18
420
        0
176
     1
 90
       50
176
     1
 90
        3
176
     1
 62
     5
420
      255
176
     1
290
     0
176
     1
 90
       50
176
     1
 90
       50
176
     1
 90
       50
176
     1
290
     0
176
     1
 90
       50
176
     1
 62
   256
176
     0
 40
1.0
176
     0
 90
        2
176
     1
  1
strokes_ogs.tif
176
     1
290
     0
176
     1
 40
1.0
176
     1
 40
1.0
176
     1
  0
VISUALSTYLE
  5
41
102
{ACAD_REACTORS
330
29
102
}
330
29
100
AcDbVisualStyle
  2
EdgeColorOff
 70
    22
177
     3
291
     1
 70
    58
 90
        2
176
     0
 90
        2
176
     0
 90
        0
176
     0
 90
        0
176
     0
 40
0.6
176
     0
 40
30.0
176
     0
 62
     7
420
 16777215
176
     0
 90
        1
176
     0
 90
        4
176
     0
 62
     7
176
     0
 62
   257
176
     0
 90
        1
176
     0
 90
        1
176
     0
 40
1.0
176
     0
 90
        8
176
     2
 62
     7
176
     0
 40
1.0
176
     0
 90
        1
176
     0
 90
        6
176
     0
 90
        2
176
     0
 62
     7
176
     0
 90
        5
176
     0
 90
        0
176
     0
 90
        0
176
     0
290
     0
176
     0
 90
        1
176
     0
 40
0.0
176
     0
 90
        0
176
     0
290
     0
176
     1
290
     1
176
     1
290
     1
176
     1
290
     0
176
     1
290
     0
176
     1
290
     0
176
     1
290
     0
176
     1
290
     0
176
     1
290
     0
176
     1
 90
       50
176
     0
 40
0.0
176
     0
 40
1.0
176
     0
 90
        0
176
     0
 62
    18
420
        0
176
     0
 90
       50
176
     0
 90
        3
176
     0
 62
     5
420
      255
176
     0
290
     0
176
     1
 90
       50
176
     0
 90
       50
176
     0
 90
       50
176
     0
290
     0
176
     1
 90
       50
176
     0
 62
   256
176
     0
 40
1.0
176
     0
 90
        2
176
     0
  1
strokes_ogs.tif
176
     0
290
     0
176
     1
 40
1.0
176
     0
 40
1.0
176
     0
  0
VISUALSTYLE
  5
38
102
{ACAD_REACTORS
330
29
102
}
330
29
100
AcDbVisualStyle
  2
Facepattern
 70
    15
177
     3
291
     1
 70
    58
 90
        2
176
     1
 90
        2
176
     1
 90
        0
176
     1
 90
        0
176
     1
 40
0.6
176
     1
 40
30.0
176
     1
 62
     7
420
 16777215
176
     1
 90
        1
176
     1
 90
        4
176
     1
 62
     7
176
     1
 62
   257
176
     1
 90
        1
176
     1
 90
        1
176
     1
 40
1.0
176
     1
 90
        8
176
     1
 62
     7
176
     1
 40
1.0
176
     1
 90
        1
176
     1
 90
        6
176
     1
 90
        2
176
     1
 62
     7
176
     1
 90
        5
176
     1
 90
        0
176
     1
 90
        0
176
     1
290
     0
176
     1
 90
        1
176
     1
 40
0.0
176
     1
 90
        0
176
     1
290
     0
176
     1
290
     1
176
     1
290
     1
176
     1
290
     0
176
     1
290
     0
176
     1
290
     0
176
     1
290
     0
176
     1
290
     0
176
     1
290
     0
176
     1
 90
       50
176
     1
 40
0.0
176
     1
 40
1.0
176
     1
 90
        0
176
     1
 62
    18
420
        0
176
     1
 90
       50
176
     1
 90
        3
176
     1
 62
     5
420
      255
176
     1
290
     0
176
     1
 90
       50
176
     1
 90
       50
176
     1
 90
       50
176
     1
290
     0
176
     1
 90
       50
176
     1
 62
   256
176
     0
 40
1.0
176
     0
 90
        2
176
     1
  1
strokes_ogs.tif
176
     1
290
     0
176
     1
 40
1.0
176
     1
 40
1.0
176
     1
  0
VISUALSTYLE
  5
2A
102
{ACAD_REACTORS
330
29
102
}
330
29
100
AcDbVisualStyle
  2
Flat
 70
     0
177
     3
291
     1
 70
    58
 90
        2
176
     1
 90
        1
176
     1
 90
        1
176
     1
 90
        2
176
     1
 40
0.6
176
     1
 40
30.0
176
     1
 62
     7
420
 16777215
176
     1
 90
        0
176
     1
 90
        0
176
     1
 62
     7
176
     1
 62
   257
176
     1
 90
        1
176
     1
 90
        1
176
     1
 40
1.0
176
     1
 90
        8
176
     1
 62
     7
176
     1
 40
1.0
176
     1
 90
        1
176
     1
 90
        6
176
     1
 90
        2
176
     1
 62
     7
176
     1
 90
        5
176
     1
 90
        0
176
     1
 90
        0
176
     1
290
     0
176
     1
 90
       13
176
     1
 40
0.0
176
     1
 90
        0
176
     1
290
     0
176
     1
290
     1
176
     1
290
     1
176
     1
290
     0
176
     1
290
     0
176
     1
290
     0
176
     1
290
     0
176
     1
290
     0
176
     1
290
     0
176
     1
 90
       50
176
     1
 40
0.0
176
     1
 40
1.0
176
     1
 90
        0
176
     1
 62
    18
420
        0
176
     1
 90
       50
176
     1
 90
        3
176
     1
 62
     5
420
      255
176
     1
290
     0
176
     1
 90
       50
176
     1
 90
       50
176
     1
 90
       50
176
     1
290
     0
176
     1
 90
       50
176
     1
 62
   256
176
     0
 40
1.0
176
     0
 90
        2
176
     1
  1
strokes_ogs.tif
176
     1
290
     0
176
     1
 40
1.0
176
     1
 40
1.0
176
     1
  0
VISUALSTYLE
  5
2B
102
{ACAD_REACTORS
330
29
102
}
330
29
100
AcDbVisualStyle
  2
FlatWithEdges
 70
     1
177
     3
291
     1
 70
    58
 90
        2
176
     1
 90
        1
176
     1
 90
        1
176
     1
 90
        2
176
     1
 40
0.6
176
     1
 40
30.0
176
     1
 62
     7
420
 16777215
176
     1
 90
        1
176
     1
 90
        0
176
     1
 62
     7
176
     1
 62
   257
176
     1
 90
        1
176
     1
 90
        1
176
     1
 40
1.0
176
     1
 90
        0
176
     1
 62
   257
176
     1
 40
1.0
176
     1
 90
        1
176
     1
 90
        6
176
     1
 90
        2
176
     1
 62
     7
176
     1
 90
        5
176
     1
 90
        0
176
     1
 90
        0
176
     1
290
     0
176
     1
 90
       13
176
     1
 40
0.0
176
     1
 90
        0
176
     1
290
     0
176
     1
290
     1
176
     1
290
     1
176
     1
290
     0
176
     1
290
     0
176
     1
290
     0
176
     1
290
     0
176
     1
290
     0
176
     1
290
     0
176
     1
 90
       50
176
     1
 40
0.0
176
     1
 40
1.0
176
     1
 90
        0
176
     1
 62
    18
420
        0
176
     1
 90
       50
176
     1
 90
        3
176
     1
 62
     5
420
      255
176
     1
290
     0
176
     1
 90
       50
176
     1
 90
       50
176
     1
 90
       50
176
     1
290
     0
176
     1
 90
       50
176
     1
 62
   256
176
     0
 40
1.0
176
     0
 90
        2
176
     1
  1
strokes_ogs.tif
176
     1
290
     0
176
     1
 40
1.0
176
     1
 40
1.0
176
     1
  0
VISUALSTYLE
  5
2C
102
{ACAD_REACTORS
330
29
102
}
330
29
100
AcDbVisualStyle
  2
Gouraud
 70
     2
177
     3
291
     1
 70
    58
 90
        2
176
     1
 90
        2
176
     1
 90
        1
176
     1
 90
        2
176
     1
 40
0.6
176
     1
 40
30.0
176
     1
 62
     7
420
 16777215
176
     1
 90
        0
176
     1
 90
        0
176
     1
 62
     7
176
     1
 62
   257
176
     1
 90
        1
176
     1
 90
        1
176
     1
 40
1.0
176
     1
 90
        0
176
     1
 62
     7
176
     1
 40
1.0
176
     1
 90
        1
176
     1
 90
        6
176
     1
 90
        2
176
     1
 62
     7
176
     1
 90
        5
176
     1
 90
        0
176
     1
 90
        0
176
     1
290
     0
176
     1
 90
       13
176
     1
 40
0.0
176
     1
 90
        0
176
     1
290
     0
176
     1
290
     1
176
     1
290
     1
176
     1
290
     0
176
     1
290
     0
176
     1
290
     0
176
     1
290
     0
176
     1
290
     0
176
     1
290
     0
176
     1
 90
       50
176
     1
 40
0.0
176
     1
 40
1.0
176
     1
 90
        0
176
     1
 62
    18
420
        0
176
     1
 90
       50
176
     1
 90
        3
176
     1
 62
     5
420
      255
176
     1
290
     0
176
     1
 90
       50
176
     1
 90
       50
176
     1
 90
       50
176
     1
290
     0
176
     1
 90
       50
176
     1
 62
   256
176
     0
 40
1.0
176
     0
 90
        2
176
     1
  1
strokes_ogs.tif
176
     1
290
     0
176
     1
 40
1.0
176
     1
 40
1.0
176
     1
  0
VISUALSTYLE
  5
2D
102
{ACAD_REACTORS
330
29
102
}
330
29
100
AcDbVisualStyle
  2
GouraudWithEdges
 70
     3
177
     3
291
     1
 70
    58
 90
        2
176
     1
 90
        2
176
     1
 90
        1
176
     1
 90
        2
176
     1
 40
0.6
176
     1
 40
30.0
176
     1
 62
     7
420
 16777215
176
     1
 90
        1
176
     1
 90
        0
176
     1
 62
     7
176
     1
 62
   257
176
     1
 90
        1
176
     1
 90
        1
176
     1
 40
1.0
176
     1
 90
        0
176
     1
 62
   257
176
     1
 40
1.0
176
     1
 90
        1
176
     1
 90
        6
176
     1
 90
        2
176
     1
 62
     7
176
     1
 90
        5
176
     1
 90
        0
176
     1
 90
        0
176
     1
290
     0
176
     1
 90
       13
176
     1
 40
0.0
176
     1
 90
        0
176
     1
290
     0
176
     1
290
     1
176
     1
290
     1
176
     1
290
     0
176
     1
290
     0
176
     1
290
     0
176
     1
290
     0
176
     1
290
     0
176
     1
290
     0
176
     1
 90
       50
176
     1
 40
0.0
176
     1
 40
1.0
176
     1
 90
        0
176
     1
 62
    18
420
        0
176
     1
 90
       50
176
     1
 90
        3
176
     1
 62
     5
420
      255
176
     1
290
     0
176
     1
 90
       50
176
     1
 90
       50
176
     1
 90
       50
176
     1
290
     0
176
     1
 90
       50
176
     1
 62
   256
176
     0
 40
1.0
176
     0
 90
        2
176
     1
  1
strokes_ogs.tif
176
     1
290
     0
176
     1
 40
1.0
176
     1
 40
1.0
176
     1
  0
VISUALSTYLE
  5
31
102
{ACAD_REACTORS
330
29
102
}
330
29
100
AcDbVisualStyle
  2
Hidden
 70
     6
177
     3
291
     0
 70
    58
 90
        1
176
     1
 90
        2
176
     1
 90
        2
176
     1
 90
        0
176
     1
 40
0.6
176
     1
 40
30.0
176
     1
 62
     7
420
 16777215
176
     1
 90
        2
176
     1
 90
        2
176
     1
 62
     7
176
     1
 62
   257
176
     1
 90
        2
176
     1
 90
        1
176
     1
 40
40.0
176
     1
 90
        0
176
     1
 62
   257
176
     1
 40
1.0
176
     1
 90
        1
176
     1
 90
        6
176
     1
 90
        2
176
     1
 62
     7
176
     1
 90
        3
176
     1
 90
        0
176
     1
 90
        0
176
     1
290
     0
176
     1
 90
        1
176
     1
 40
0.0
176
     1
 90
        0
176
     1
290
     0
176
     1
290
     1
176
     1
290
     1
176
     1
290
     0
176
     1
290
     0
176
     1
290
     0
176
     1
290
     0
176
     1
290
     0
176
     1
290
     0
176
     1
 90
       50
176
     1
 40
0.0
176
     1
 40
1.0
176
     1
 90
        0
176
     1
 62
    18
420
        0
176
     1
 90
       50
176
     1
 90
        3
176
     1
 62
     5
420
      255
176
     1
290
     0
176
     1
 90
       50
176
     1
 90
       50
176
     1
 90
       50
176
     1
290
     0
176
     1
 90
       50
176
     1
 62
   256
176
     0
 40
1.0
176
     0
 90
        2
176
     1
  1
strokes_ogs.tif
176
     1
290
     0
176
     1
 40
1.0
176
     1
 40
1.0
176
     1
  0
VISUALSTYLE
  5
3F
102
{ACAD_REACTORS
330
29
102
}
330
29
100
AcDbVisualStyle
  2
JitterOff
 70
    20
177
     3
291
     1
 70
    58
 90
        2
176
     0
 90
        2
176
     0
 90
        0
176
     0
 90
        0
176
     0
 40
0.6
176
     0
 40
30.0
176
     0
 62
     7
420
 16777215
176
     0
 90
        1
176
     0
 90
        4
176
     0
 62
     7
176
     0
 62
   257
176
     0
 90
        1
176
     0
 90
        1
176
     0
 40
1.0
176
     0
 90
       10
176
     2
 62
     7
176
     0
 40
1.0
176
     0
 90
        1
176
     0
 90
        6
176
     0
 90
        2
176
     0
 62
     7
176
     0
 90
        5
176
     0
 90
        0
176
     0
 90
        0
176
     0
290
     0
176
     0
 90
        1
176
     0
 40
0.0
176
     0
 90
        0
176
     0
290
     0
176
     1
290
     1
176
     1
290
     1
176
     1
290
     0
176
     1
290
     0
176
     1
290
     0
176
     1
290
     0
176
     1
290
     0
176
     1
290
     0
176
     1
 90
       50
176
     0
 40
0.0
176
     0
 40
1.0
176
     0
 90
        0
176
     0
 62
    18
420
        0
176
     0
 90
       50
176
     0
 90
        3
176
     0
 62
     5
420
      255
176
     0
290
     0
176
     1
 90
       50
176
     0
 90
       50
176
     0
 90
       50
176
     0
290
     0
176
     1
 90
       50
176
     0
 62
   256
176
     0
 40
1.0
176
     0
 90
        2
176
     0
  1
strokes_ogs.tif
176
     0
290
     0
176
     1
 40
1.0
176
     0
 40
1.0
176
     0
  0
VISUALSTYLE
  5
37
102
{ACAD_REACTORS
330
29
102
}
330
29
100
AcDbVisualStyle
  2
Linepattern
 70
    14
177
     3
291
     1
 70
    58
 90
        2
176
     1
 90
        2
176
     1
 90
        0
176
     1
 90
        0
176
     1
 40
0.6
176
     1
 40
30.0
176
     1
 62
     7
420
 16777215
176
     1
 90
        1
176
     1
 90
        4
176
     1
 62
     7
176
     1
 62
   257
176
     1
 90
        7
176
     1
 90
        7
176
     1
 40
1.0
176
     1
 90
        8
176
     1
 62
     7
176
     1
 40
1.0
176
     1
 90
        1
176
     1
 90
        6
176
     1
 90
        2
176
     1
 62
     7
176
     1
 90
        5
176
     1
 90
        0
176
     1
 90
        0
176
     1
290
     0
176
     1
 90
        1
176
     1
 40
0.0
176
     1
 90
        0
176
     1
290
     0
176
     1
290
     1
176
     1
290
     1
176
     1
290
     0
176
     1
290
     0
176
     1
290
     0
176
     1
290
     0
176
     1
290
     0
176
     1
290
     0
176
     1
 90
       50
176
     1
 40
0.0
176
     1
 40
1.0
176
     1
 90
        0
176
     1
 62
    18
420
        0
176
     1
 90
       50
176
     1
 90
        3
176
     1
 62
     5
420
      255
176
     1
290
     0
176
     1
 90
       50
176
     1
 90
       50
176
     1
 90
       50
176
     1
290
     0
176
     1
 90
       50
176
     1
 62
   256
176
     0
 40
1.0
176
     0
 90
        2
176
     1
  1
strokes_ogs.tif
176
     1
290
     0
176
     1
 40
1.0
176
     1
 40
1.0
176
     1
  0
VISUALSTYLE
  5
40
102
{ACAD_REACTORS
330
29
102
}
330
29
100
AcDbVisualStyle
  2
OverhangOff
 70
    21
177
     3
291
     1
 70
    58
 90
        2
176
     0
 90
        2
176
     0
 90
        0
176
     0
 90
        0
176
     0
 40
0.6
176
     0
 40
30.0
176
     0
 62
     7
420
 16777215
176
     0
 90
        1
176
     0
 90
        4
176
     0
 62
     7
176
     0
 62
   257
176
     0
 90
        1
176
     0
 90
        1
176
     0
 40
1.0
176
     0
 90
        9
176
     2
 62
     7
176
     0
 40
1.0
176
     0
 90
        1
176
     0
 90
        6
176
     0
 90
        2
176
     0
 62
     7
176
     0
 90
        5
176
     0
 90
        0
176
     0
 90
        0
176
     0
290
     0
176
     0
 90
        1
176
     0
 40
0.0
176
     0
 90
        0
176
     0
290
     0
176
     1
290
     1
176
     1
290
     1
176
     1
290
     0
176
     1
290
     0
176
     1
290
     0
176
     1
290
     0
176
     1
290
     0
176
     1
290
     0
176
     1
 90
       50
176
     0
 40
0.0
176
     0
 40
1.0
176
     0
 90
        0
176
     0
 62
    18
420
        0
176
     0
 90
       50
176
     0
 90
        3
176
     0
 62
     5
420
      255
176
     0
290
     0
176
     1
 90
       50
176
     0
 90
       50
176
     0
 90
       50
176
     0
290
     0
176
     1
 90
       50
176
     0
 62
   256
176
     0
 40
1.0
176
     0
 90
        2
176
     0
  1
strokes_ogs.tif
176
     0
290
     0
176
     1
 40
1.0
176
     0
 40
1.0
176
     0
  0
VISUALSTYLE
  5
33
102
{ACAD_REACTORS
330
29
102
}
330
29
100
AcDbVisualStyle
  2
Realistic
 70
     8
177
     3
291
     0
 70
    58
 90
        2
176
     1
 90
        3
176
     1
 90
        0
176
     1
 90
        2
176
     1
 40
0.6
176
     1
 40
30.0
176
     1
 62
     7
420
 16777215
176
     1
 90
        0
176
     1
 90
        0
176
     1
 62
     7
176
     1
 62
   257
176
     1
 90
        1
176
     1
 90
        1
176
     1
 40
1.0
176
     1
 90
        8
176
     1
 62
   257
176
     1
 40
1.0
176
     1
 90
        1
176
     1
 90
        6
176
     1
 90
        2
176
     1
 62
     7
176
     1
 90
        3
176
     1
 90
        0
176
     1
 90
        0
176
     1
290
     0
176
     1
 90
       13
176
     1
 40
0.0
176
     1
 90
        0
176
     1
290
     0
176
     1
290
     1
176
     1
290
     1
176
     1
290
     0
176
     1
290
     0
176
     1
290
     0
176
     1
290
     0
176
     1
290
     0
176
     1
290
     0
176
     1
 90
       50
176
     1
 40
0.0
176
     1
 40
1.0
176
     1
 90
        0
176
     1
 62
    18
420
        0
176
     1
 90
       50
176
     1
 90
        3
176
     1
 62
     5
420
      255
176
     1
290
     0
176
     1
 90
       50
176
     1
 90
       50
176
     1
 90
       50
176
     1
290
     0
176
     1
 90
       50
176
     1
 62
   256
176
     0
 40
1.0
176
     0
 90
        2
176
     1
  1
strokes_ogs.tif
176
     1
290
     0
176
     1
 40
1.0
176
     1
 40
1.0
176
     1
  0
VISUALSTYLE
  5
3E
102
{ACAD_REACTORS
330
29
102
}
330
29
100
AcDbVisualStyle
  2
Shaded
 70
    27
177
     3
291
     0
 70
    58
 90
        2
176
     1
 90
        2
176
     1
 90
        1
176
     1
 90
        2
176
     1
 40
0.6
176
     1
 40
30.0
176
     1
 62
     7
420
 16777215
176
     1
 90
        0
176
     1
 90
        4
176
     1
 62
     7
176
     1
 62
   257
176
     1
 90
        1
176
     1
 90
        1
176
     1
 40
1.0
176
     1
 90
        8
176
     1
 62
   257
176
     1
 40
1.0
176
     1
 90
        1
176
     1
 90
        6
176
     1
 90
        2
176
     1
 62
     8
420
  7895160
176
     1
 90
        3
176
     1
 90
        0
176
     1
 90
        0
176
     1
290
     0
176
     1
 90
        5
176
     1
 40
0.0
176
     1
 90
        0
176
     1
290
     0
176
     1
290
     1
176
     1
290
     1
176
     1
290
     0
176
     1
290
     0
176
     1
290
     0
176
     1
290
     0
176
     1
290
     0
176
     1
290
     0
176
     1
 90
       50
176
     1
 40
0.0
176
     1
 40
1.0
176
     1
 90
        0
176
     1
 62
    18
420
        0
176
     1
 90
       50
176
     1
 90
        3
176
     1
 62
     5
420
      255
176
     1
290
     0
176
     1
 90
       50
176
     1
 90
       50
176
     1
 90
       50
176
     1
290
     0
176
     1
 90
       50
176
     1
 62
   256
176
     0
 40
1.0
176
     0
 90
        2
176
     1
  1
strokes_ogs.tif
176
     1
290
     0
176
     1
 40
1.0
176
     1
 40
1.0
176
     1
  0
VISUALSTYLE
  5
3D
102
{ACAD_REACTORS
330
29
102
}
330
29
100
AcDbVisualStyle
  2
Shaded with edges
 70
    26
177
     3
291
     0
 70
    58
 90
        2
176
     1
 90
        2
176
     1
 90
        1
176
     1
 90
        2
176
     1
 40
0.6
176
     1
 40
30.0
176
     1
 62
     7
420
 16777215
176
     1
 90
        1
176
     1
 90
        2
176
     1
 62
     7
176
     1
 62
   257
176
     1
 90
        2
176
     1
 90
        1
176
     1
 40
1.0
176
     1
 90
        8
176
     1
 62
   257
176
     1
 40
1.0
176
     1
 90
        1
176
     1
 90
        6
176
     1
 90
        2
176
     1
 62
     7
176
     1
 90
        3
176
     1
 90
        0
176
     1
 90
        0
176
     1
290
     0
176
     1
 90
        5
176
     1
 40
0.0
176
     1
 90
        0
176
     1
290
     0
176
     1
290
     1
176
     1
290
     1
176
     1
290
     0
176
     1
290
     0
176
     1
290
     0
176
     1
290
     0
176
     1
290
     0
176
     1
290
     0
176
     1
 90
       50
176
     1
 40
0.0
176
     1
 40
1.0
176
     1
 90
        0
176
     1
 62
    18
420
        0
176
     1
 90
       50
176
     1
 90
        3
176
     1
 62
     5
420
      255
176
     1
290
     0
176
     1
 90
       50
176
     1
 90
       50
176
     1
 90
       50
176
     1
290
     0
176
     1
 90
       50
176
     1
 62
   256
176
     0
 40
1.0
176
     0
 90
        2
176
     1
  1
strokes_ogs.tif
176
     1
290
     0
176
     1
 40
1.0
176
     1
 40
1.0
176
     1
  0
VISUALSTYLE
  5
3A
102
{ACAD_REACTORS
330
29
102
}
330
29
100
AcDbVisualStyle
  2
Shades of Gray
 70
    23
177
     3
291
     0
 70
    58
 90
        2
176
     1
 90
        2
176
     1
 90
        3
176
     1
 90
        0
176
     1
 40
0.6
176
     1
 40
30.0
176
     1
 62
     7
420
 16777215
176
     1
 90
        2
176
     1
 90
        2
176
     1
 62
     7
176
     1
 62
     7
176
     1
 90
        1
176
     1
 90
        1
176
     1
 40
40.0
176
     1
 90
        8
176
     1
 62
     7
176
     1
 40
1.0
176
     1
 90
        1
176
     1
 90
        6
176
     1
 90
        2
176
     1
 62
     7
176
     1
 90
        3
176
     1
 90
        0
176
     1
 90
        0
176
     1
290
     0
176
     1
 90
        1
176
     1
 40
0.0
176
     1
 90
        0
176
     1
290
     0
176
     1
290
     1
176
     1
290
     1
176
     1
290
     0
176
     1
290
     0
176
     1
290
     0
176
     1
290
     0
176
     1
290
     0
176
     1
290
     0
176
     1
 90
       50
176
     1
 40
0.0
176
     1
 40
1.0
176
     1
 90
        0
176
     1
 62
    18
420
        0
176
     1
 90
       50
176
     1
 90
        3
176
     1
 62
     5
420
      255
176
     1
290
     0
176
     1
 90
       50
176
     1
 90
       50
176
     1
 90
       50
176
     1
290
     0
176
     1
 90
       50
176
     1
 62
   256
176
     0
 40
1.0
176
     0
 90
        2
176
     1
  1
strokes_ogs.tif
176
     1
290
     0
176
     1
 40
1.0
176
     1
 40
1.0
176
     1
  0
VISUALSTYLE
  5
3B
102
{ACAD_REACTORS
330
29
102
}
330
29
100
AcDbVisualStyle
  2
Sketchy
 70
    24
177
     3
291
     0
 70
    58
 90
        1
176
     1
 90
        2
176
     1
 90
        2
176
     1
 90
        0
176
     1
 40
0.6
176
     1
 40
30.0
176
     1
 62
     7
420
 16777215
176
     1
 90
        2
176
     1
 90
        2
176
     1
 62
     7
176
     1
 62
     7
176
     1
 90
        1
176
     1
 90
        1
176
     1
 40
40.0
176
     1
 90
       11
176
     1
 62
     7
176
     1
 40
1.0
176
     1
 90
        1
176
     1
 90
        6
176
     1
 90
        2
176
     1
 62
     7
176
     1
 90
        6
176
     1
 90
        0
176
     1
 90
        0
176
     1
290
     0
176
     1
 90
        1
176
     1
 40
0.0
176
     1
 90
        0
176
     1
290
     0
176
     1
290
     1
176
     1
290
     1
176
     1
290
     0
176
     1
290
     0
176
     1
290
     0
176
     1
290
     0
176
     1
290
     0
176
     1
290
     0
176
     1
 90
       50
176
     1
 40
0.0
176
     1
 40
1.0
176
     1
 90
        0
176
     1
 62
    18
420
        0
176
     1
 90
       50
176
     1
 90
        3
176
     1
 62
     5
420
      255
176
     1
290
     0
176
     1
 90
       50
176
     1
 90
       50
176
     1
 90
       50
176
     1
290
     0
176
     1
 90
       50
176
     1
 62
   256
176
     0
 40
1.0
176
     0
 90
        2
176
     1
  1
strokes_ogs.tif
176
     1
290
     0
176
     1
 40
1.0
176
     1
 40
1.0
176
     1
  0
VISUALSTYLE
  5
36
102
{ACAD_REACTORS
330
29
102
}
330
29
100
AcDbVisualStyle
  2
Thicken
 70
    13
177
     3
291
     1
 70
    58
 90
        2
176
     1
 90
        2
176
     1
 90
        0
176
     1
 90
        0
176
     1
 40
0.6
176
     1
 40
30.0
176
     1
 62
     7
420
 16777215
176
     1
 90
        1
176
     1
 90
        4
176
     1
 62
     7
176
     1
 62
   257
176
     1
 90
        1
176
     1
 90
        1
176
     1
 40
1.0
176
     1
 90
       12
176
     1
 62
     7
176
     1
 40
1.0
176
     1
 90
        1
176
     1
 90
        6
176
     1
 90
        2
176
     1
 62
     7
176
     1
 90
        5
176
     1
 90
        0
176
     1
 90
        0
176
     1
290
     0
176
     1
 90
        1
176
     1
 40
0.0
176
     1
 90
        0
176
     1
290
     0
176
     1
290
     1
176
     1
290
     1
176
     1
290
     0
176
     1
290
     0
176
     1
290
     0
176
     1
290
     0
176
     1
290
     0
176
     1
290
     0
176
     1
 90
       50
176
     1
 40
0.0
176
     1
 40
1.0
176
     1
 90
        0
176
     1
 62
    18
420
        0
176
     1
 90
       50
176
     1
 90
        3
176
     1
 62
     5
420
      255
176
     1
290
     0
176
     1
 90
       50
176
     1
 90
       50
176
     1
 90
       50
176
     1
290
     0
176
     1
 90
       50
176
     1
 62
   256
176
     0
 40
1.0
176
     0
 90
        2
176
     1
  1
strokes_ogs.tif
176
     1
290
     0
176
     1
 40
1.0
176
     1
 40
1.0
176
     1
  0
VISUALSTYLE
  5
30
102
{ACAD_REACTORS
330
29
102
}
330
29
100
AcDbVisualStyle
  2
Wireframe
 70
     5
177
     3
291
     0
 70
    58
 90
        0
176
     1
 90
        2
176
     1
 90
        0
176
     1
 90
        0
176
     1
 40
0.6
176
     1
 40
30.0
176
     1
 62
     7
420
 16777215
176
     1
 90
        1
176
     1
 90
        4
176
     1
 62
     7
176
     1
 62
   257
176
     1
 90
        1
176
     1
 90
        1
176
     1
 40
1.0
176
     1
 90
        0
176
     1
 62
   257
176
     1
 40
1.0
176
     1
 90
        1
176
     1
 90
        6
176
     1
 90
        2
176
     1
 62
     7
176
     1
 90
        3
176
     1
 90
        0
176
     1
 90
        0
176
     1
290
     0
176
     1
 90
        1
176
     1
 40
0.0
176
     1
 90
        0
176
     1
290
     0
176
     1
290
     1
176
     1
290
     1
176
     1
290
     0
176
     1
290
     0
176
     1
290
     0
176
     1
290
     0
176
     1
290
     0
176
     1
290
     0
176
     1
 90
       50
176
     1
 40
0.0
176
     1
 40
1.0
176
     1
 90
        0
176
     1
 62
    18
420
        0
176
     1
 90
       50
176
     1
 90
        3
176
     1
 62
     5
420
      255
176
     1
290
     0
176
     1
 90
       50
176
     1
 90
       50
176
     1
 90
       50
176
     1
290
     0
176
     1
 90
       50
176
     1
 62
   256
176
     0
 40
1.0
176
     0
 90
        2
176
     1
  1
strokes_ogs.tif
176
     1
290
     0
176
     1
 40
1.0
176
     1
 40
1.0
176
     1
  0
VISUALSTYLE
  5
3C
102
{ACAD_REACTORS
330
29
102
}
330
29
100
AcDbVisualStyle
  2
X-Ray
 70
    25
177
     3
291
     0
 70
    58
 90
        2
176
     1
 90
        2
176
     1
 90
        1
176
     1
 90
        1
176
     1
 40
0.5
176
     1
 40
30.0
176
     1
 62
     7
420
 16777215
176
     1
 90
        1
176
     1
 90
        0
176
     1
 62
     7
176
     1
 62
   257
176
     1
 90
        1
176
     1
 90
        1
176
     1
 40
1.0
176
     1
 90
        8
176
     1
 62
     7
176
     1
 40
1.0
176
     1
 90
        1
176
     1
 90
        6
176
     1
 90
        2
176
     1
 62
     7
176
     1
 90
        3
176
     1
 90
        0
176
     1
 90
        0
176
     1
290
     0
176
     1
 90
       13
176
     1
 40
0.0
176
     1
 90
        0
176
     1
290
     0
176
     1
290
     1
176
     1
290
     1
176
     1
290
     0
176
     1
290
     0
176
     1
290
     0
176
     1
290
     0
176
     1
290
     0
176
     1
290
     0
176
     1
 90
       50
176
     1
 40
0.0
176
     1
 40
1.0
176
     1
 90
        0
176
     1
 62
    18
420
        0
176
     1
 90
       50
176
     1
 90
        3
176
     1
 62
     5
420
      255
176
     1
290
     0
176
     1
 90
       50
176
     1
 90
       50
176
     1
 90
       50
176
     1
290
     0
176
     1
 90
       50
176
     1
 62
   256
176
     0
 40
1.0
176
     0
 90
        2
176
     1
  1
strokes_ogs.tif
176
     1
290
     0
176
     1
 40
1.0
176
     1
 40
1.0
176
     1
  0
DICTIONARYVAR
  5
28A
102
{ACAD_REACTORS
330
284
102
}
330
284
100
DictionaryVariables
280
     0
  1
1:1
  0
DICTIONARYVAR
  5
286
102
{ACAD_REACTORS
330
284
102
}
330
284
100
DictionaryVariables
280
     0
  1
STANDARD
  0
DICTIONARYVAR
  5
285
102
{ACAD_REACTORS
330
284
102
}
330
284
100
DictionaryVariables
280
     0
  1
STANDARD
  0
DICTIONARYVAR
  5
287
102
{ACAD_REACTORS
330
284
102
}
330
284
100
DictionaryVariables
280
     0
  1
Imperial24
  0
DICTIONARYVAR
  5
288
102
{ACAD_REACTORS
330
284
102
}
330
284
100
DictionaryVariables
280
     0
  1
Imperial24
  0
DICTIONARYVAR
  5
28C
102
{ACAD_REACTORS
330
284
102
}
330
284
100
DictionaryVariables
280
     0
  1
1
  0
DICTIONARYVAR
  5
28D
102
{ACAD_REACTORS
330
284
102
}
330
284
100
DictionaryVariables
280
     0
  1
15
  0
DICTIONARYVAR
  5
28B
102
{ACAD_REACTORS
330
284
102
}
330
284
100
DictionaryVariables
280
     0
  1
0
  0
DICTIONARYVAR
  5
289
102
{ACAD_REACTORS
330
284
102
}
330
284
100
DictionaryVariables
280
     0
  1
0
  0
DICTIONARY
  5
1A
330
19
100
AcDbDictionary
280
     1
281
     1
  3
BUMPTILE
360
1C
  3
DIFFUSETILE
360
1B
  3
OPACITYTILE
360
1F
  3
REFLECTIONTILE
360
1E
  3
REFRACTIONTILE
360
20
  3
SPECULARTILE
360
1D
  0
DICTIONARY
  5
12
330
11
100
AcDbDictionary
280
     1
281
     1
  3
BUMPTILE
360
14
  3
DIFFUSETILE
360
13
  3
OPACITYTILE
360
17
  3
REFLECTIONTILE
360
16
  3
REFRACTIONTILE
360
18
  3
SPECULARTILE
360
15
  0
DICTIONARY
  5
22
330
21
100
AcDbDictionary
280
     1
281
     1
  3
BUMPTILE
360
24
  3
DIFFUSETILE
360
23
  3
OPACITYTILE
360
27
  3
REFLECTIONTILE
360
26
  3
REFRACTIONTILE
360
28
  3
SPECULARTILE
360
25
  0
DICTIONARY
  5
326
330
64
100
AcDbDictionary
280
     1
281
     1
  3
ACAD_ROUNDTRIP_2008_TABLESTYLE_CELLSTYLEMAP
360
327
  0
XRECORD
  5
1C
102
{ACAD_REACTORS
330
1A
102
}
330
1A
100
AcDbXrecord
280
     1
270
     1
271
     1
  0
XRECORD
  5
1B
102
{ACAD_REACTORS
330
1A
102
}
330
1A
100
AcDbXrecord
280
     1
270
     1
271
     1
  0
XRECORD
  5
1F
102
{ACAD_REACTORS
330
1A
102
}
330
1A
100
AcDbXrecord
280
     1
270
     1
271
     1
  0
XRECORD
  5
1E
102
{ACAD_REACTORS
330
1A
102
}
330
1A
100
AcDbXrecord
280
     1
270
     1
271
     1
  0
XRECORD
  5
20
102
{ACAD_REACTORS
330
1A
102
}
330
1A
100
AcDbXrecord
280
     1
270
     1
271
     1
  0
XRECORD
  5
1D
102
{ACAD_REACTORS
330
1A
102
}
330
1A
100
AcDbXrecord
280
     1
270
     1
271
     1
  0
XRECORD
  5
14
102
{ACAD_REACTORS
330
12
102
}
330
12
100
AcDbXrecord
280
     1
270
     1
271
     1
  0
XRECORD
  5
13
102
{ACAD_REACTORS
330
12
102
}
330
12
100
AcDbXrecord
280
     1
270
     1
271
     1
  0
XRECORD
  5
17
102
{ACAD_REACTORS
330
12
102
}
330
12
100
AcDbXrecord
280
     1
270
     1
271
     1
  0
XRECORD
  5
16
102
{ACAD_REACTORS
330
12
102
}
330
12
100
AcDbXrecord
280
     1
270
     1
271
     1
  0
XRECORD
  5
18
102
{ACAD_REACTORS
330
12
102
}
330
12
100
AcDbXrecord
280
     1
270
     1
271
     1
  0
XRECORD
  5
15
102
{ACAD_REACTORS
330
12
102
}
330
12
100
AcDbXrecord
280
     1
270
     1
271
     1
  0
XRECORD
  5
24
102
{ACAD_REACTORS
330
22
102
}
330
22
100
AcDbXrecord
280
     1
270
     1
271
     1
  0
XRECORD
  5
23
102
{ACAD_REACTORS
330
22
102
}
330
22
100
AcDbXrecord
280
     1
270
     1
271
     1
  0
XRECORD
  5
27
102
{ACAD_REACTORS
330
22
102
}
330
22
100
AcDbXrecord
280
     1
270
     1
271
     1
  0
XRECORD
  5
26
102
{ACAD_REACTORS
330
22
102
}
330
22
100
AcDbXrecord
280
     1
270
     1
271
     1
  0
XRECORD
  5
28
102
{ACAD_REACTORS
330
22
102
}
330
22
100
AcDbXrecord
280
     1
270
     1
271
     1
  0
XRECORD
  5
25
102
{ACAD_REACTORS
330
22
102
}
330
22
100
AcDbXrecord
280
     1
270
     1
271
     1
  0
CELLSTYLEMAP
  5
327
102
{ACAD_REACTORS
330
326
102
}
330
326
100
AcDbCellStyleMap
 90
        3
300
CELLSTYLE
  1
TABLEFORMAT_BEGIN
 90
        5
170
     1
 91
        0
 92
    32768
 62
   257
 93
        1
300
CONTENTFORMAT
  1
CONTENTFORMAT_BEGIN
 90
        0
 91
        0
 92
      512
 93
        0
300

 40
0.0
140
1.0
 94
        5
 62
     0
340
55
144
0.25
309
CONTENTFORMAT_END
171
     0
 94
        0
309
TABLEFORMAT_END
  1
CELLSTYLE_BEGIN
 90
        1
 91
        1
300
_TITLE
309
CELLSTYLE_END
300
CELLSTYLE
  1
TABLEFORMAT_BEGIN
 90
        5
170
     1
 91
        0
 92
        0
 62
   257
 93
        1
300
CONTENTFORMAT
  1
CONTENTFORMAT_BEGIN
 90
        0
 91
        0
 92
      512
 93
        0
300

 40
0.0
140
1.0
 94
        5
 62
     0
340
55
144
0.18
309
CONTENTFORMAT_END
171
     0
 94
        0
309
TABLEFORMAT_END
  1
CELLSTYLE_BEGIN
 90
        2
 91
        1
300
_HEADER
309
CELLSTYLE_END
300
CELLSTYLE
  1
TABLEFORMAT_BEGIN
 90
        5
170
     1
 91
        0
 92
        0
 62
   257
 93
        1
300
CONTENTFORMAT
  1
CONTENTFORMAT_BEGIN
 90
        0
 91
        0
 92
      512
 93
        0
300

 40
0.0
140
1.0
 94
        2
 62
     0
340
55
144
0.18
309
CONTENTFORMAT_END
171
     0
 94
        0
309
TABLEFORMAT_END
  1
CELLSTYLE_BEGIN
 90
        3
 91
        2
300
_DATA
309
CELLSTYLE_END
  0
ENDSEC
  0
SECTION
  2
ACDSDATA
 70
     2
 71
     8
  0
ACDSSCHEMA
 90
        0
  1
AcDb_Thumbnail_Schema
  2
AcDbDs::ID
280
    10
 91
        8
  2
Thumbnail_Data
280
    15
 91
        0
101
ACDSRECORD
 95
        0
 90
        1
  2
AcDbDs::TreatedAsObjectData
280
     1
291
     1
101
ACDSRECORD
 95
        0
 90
        2
  2
AcDbDs::Legacy
280
     1
291
     1
101
ACDSRECORD
  1
AcDbDs::ID
 90
        3
  2
AcDs:Indexable
280
     1
291
     1
101
ACDSRECORD
  1
AcDbDs::ID
 90
        4
  2
AcDbDs::HandleAttribute
280
     7
282
     1
  0
ACDSSCHEMA
 90
        1
  1
AcDbDs::TreatedAsObjectDataSchema
  2
AcDbDs::TreatedAsObjectData
280
     1
 91
        0
  0
ACDSSCHEMA
 90
        2
  1
AcDbDs::LegacySchema
  2
AcDbDs::Legacy
280
     1
 91
        0
  0
ACDSSCHEMA
 90
        3
  1
AcDbDs::IndexedPropertySchema
  2
AcDs:Indexable
280
     1
 91
        0
  0
ACDSSCHEMA
 90
        4
  1
AcDbDs::HandleAttributeSchema
  2
AcDbDs::HandleAttribute
280
     7
 91
        1
284
     1
  0
ACDSRECORD
 90
        0
  2
AcDbDs::ID
280
    10
320
72
  2
Thumbnail_Data
280
    15
 94
     1136
310
89504E470D0A1A0A0000000D4948445200000100000000870803000000CE6E778000000300504C5445212830FFFFFF2128300000000000000000000000000000000000000000000000000000330000660000990000CC0000FF0033000033330033660033990033CC0033FF0066000066330066660066990066CC0066FF0099
310
000099330099660099990099CC0099FF00CC0000CC3300CC6600CC9900CCCC00CCFF00FF0000FF3300FF6600FF9900FFCC00FFFF3300003300333300663300993300CC3300FF3333003333333333663333993333CC3333FF3366003366333366663366993366CC3366FF3399003399333399663399993399CC3399FF33CC00
310
33CC3333CC6633CC9933CCCC33CCFF33FF0033FF3333FF6633FF9933FFCC33FFFF6600006600336600666600996600CC6600FF6633006633336633666633996633CC6633FF6666006666336666666666996666CC6666FF6699006699336699666699996699CC6699FF66CC0066CC3366CC6666CC9966CCCC66CCFF66FF0066
310
FF3366FF6666FF9966FFCC66FFFF9900009900339900669900999900CC9900FF9933009933339933669933999933CC9933FF9966009966339966669966999966CC9966FF9999009999339999669999999999CC9999FF99CC0099CC3399CC6699CC9999CCCC99CCFF99FF0099FF3399FF6699FF9999FFCC99FFFFCC0000CC00
310
33CC0066CC0099CC00CCCC00FFCC3300CC3333CC3366CC3399CC33CCCC33FFCC6600CC6633CC6666CC6699CC66CCCC66FFCC9900CC9933CC9966CC9999CC99CCCC99FFCCCC00CCCC33CCCC66CCCC99CCCCCCCCCCFFCCFF00CCFF33CCFF66CCFF99CCFFCCCCFFFFFF0000FF0033FF0066FF0099FF00CCFF00FFFF3300FF3333
310
FF3366FF3399FF33CCFF33FFFF6600FF6633FF6666FF6699FF66CCFF66FFFF9900FF9933FF9966FF9999FF99CCFF99FFFFCC00FFCC33FFCC66FFCC99FFCCCCFFCCFFFFFF00FFFF33FFFF66FFFF99FFFFCCFFFFFF0000000D0D0D1A1A1A2828283535354343435050505D5D5D6B6B6B787878868686939393A1A1A1AEAEAEBB
310
BBBBC9C9C9D6D6D6E4E4E4F1F1F1FFFFFF0000000000000000000000000000000000000000000000000000000000002E4550F10000011D4944415478DAEDDAE10E82201000E07BFFF7E57F33D3A868458B76C6F7E5A8099B46E78164040000000000000000000000000070ABFCDD813A4FEB87F277403C948D8A9EB6517DF3
310
B41DB0C4E67272A5F16A54F4B4DD2A325F03E79F29F6E26E6B54F4B4DDF6E5EE0011F0A31C90B503FEF250FD673528028E300CEE6F0372C0B6AD15C93B60E428B01622207907C465C4AECBCB59BFD8F5BC6D5473C02209CE3B0FC8DD01DB5C6DE04C30750EB84ED8271D0544409D10BF3C0ADC5648823A60D64B200EB02436
310
3409C6F4C3E0FA4904488296C444801C601410017240B65160FFE3A60C8AB02AD24440DA1CF078F9964F734039E092582BD95F6FF2DE4DF6F54DE0E196C4A68E002B42533F2435FD637200000000000000000040462702185453C166C48D0000000049454E44AE4260825A8F0000000049454E44AE426082
  0
ENDSEC
  0
EOF
