  0
SECTION
  2
HEADER
  9
$ANGBASE
  50
0.0
  9
$ANGDIR
  70
1
  9
$MEASUREMENT
  70
1
  0
ENDSEC
  0
SECTION
  2
TABLES
  0
TABLE
  2
LTYPE
  70
4
  0
LTYPE
  5
40F
  2
CONTINUOUS
  70
0
  3
Solid line
  72
65
  73
0
  40
0.0
  0
LTYPE
  5
410
  2
DASHDOT
 70
0
  3
Dash Dot ____ _ ____ _
 72
65
 73
4
 40
2.0
 49
1.25
 49
-0.25
 49
0.25
 49
-0.25
  0
LTYPE
  5
411
  2
DASHED
 70
0
  3
Dashed __ __ __ __ __
 72
65
 73
2
 40
0.75
 49
0.5
 49
-0.25
  0
LTYPE
  5
43B
  2
DOTTED
 70
0
  3
Dotted .  .  .  .
 72
65
 73
2
 40
0.2
 49
0.0
 49
-0.2
  0
ENDTAB
  0
TABLE
  2
STYLE
  70
4
  0
STYLE
  2
KICAD
  70
0
  40
0
  41
1
  42
1
  50
0
  71
0
  3
isocp.shx
  0
STYLE
  2
KICADB
  70
0
  40
0
  41
1
  42
1
  50
0
  71
0
  3
isocp.shx
  0
STYLE
  2
KICADI
  70
0
  40
0
  41
1
  42
1
  50
15
  71
0
  3
isocp.shx
  0
STYLE
  2
KICADBI
  70
0
  40
0
  41
1
  42
1
  50
15
  71
0
  3
isocp.shx
  0
ENDTAB
  0
TABLE
  2
LAYER
  70
1
  0
LAYER
  2
BLACK
  70
0
  62
7
  6
CONTINUOUS
  0
ENDTAB
  0
ENDSEC
  0
SECTION
  2
ENTITIES
0
LINE
8
BLACK
6
CONTINUOUS
10
58.2812
20
-117.631
11
58.2812
21
-117.631
0
LINE
8
BLACK
6
CONTINUOUS
10
58.2812
20
-117.631
11
58.2849
21
-117.631
0
LINE
8
BLACK
6
CONTINUOUS
10
58.2849
20
-117.631
11
58.2896
21
-117.633
0
LINE
8
BLACK
6
CONTINUOUS
10
58.2896
20
-117.633
11
58.294
21
-117.635
0
LINE
8
BLACK
6
CONTINUOUS
10
58.294
20
-117.635
11
58.2978
21
-117.638
0
LINE
8
BLACK
6
CONTINUOUS
10
58.2978
20
-117.638
11
58.3009
21
-117.642
0
LINE
8
BLACK
6
CONTINUOUS
10
58.3009
20
-117.642
11
58.3032
21
-117.646
0
LINE
8
BLACK
6
CONTINUOUS
10
58.3032
20
-117.646
11
58.3046
21
-117.651
0
LINE
8
BLACK
6
CONTINUOUS
10
58.3046
20
-117.651
11
58.3051
21
-117.656
0
LINE
8
BLACK
6
CONTINUOUS
10
58.3051
20
-117.656
11
58.305
21
-117.657
0
LINE
8
BLACK
6
CONTINUOUS
10
58.305
20
-117.657
11
58.305
21
-125.955
0
LINE
8
BLACK
6
CONTINUOUS
10
58.305
20
-125.955
11
58.3051
21
-125.956
0
LINE
8
BLACK
6
CONTINUOUS
10
58.3051
20
-125.956
11
58.305
21
-125.957
0
LINE
8
BLACK
6
CONTINUOUS
10
58.305
20
-125.957
11
58.305
21
-125.957
0
LINE
8
BLACK
6
CONTINUOUS
10
58.305
20
-125.957
11
58.3046
21
-125.961
0
LINE
8
BLACK
6
CONTINUOUS
10
58.3046
20
-125.961
11
58.3032
21
-125.966
0
LINE
8
BLACK
6
CONTINUOUS
10
58.3032
20
-125.966
11
58.3009
21
-125.97
0
LINE
8
BLACK
6
CONTINUOUS
10
58.3009
20
-125.97
11
58.2978
21
-125.974
0
LINE
8
BLACK
6
CONTINUOUS
10
58.2978
20
-125.974
11
58.294
21
-125.977
0
LINE
8
BLACK
6
CONTINUOUS
10
58.294
20
-125.977
11
58.2896
21
-125.979
0
LINE
8
BLACK
6
CONTINUOUS
10
58.2896
20
-125.979
11
58.2849
21
-125.981
0
LINE
8
BLACK
6
CONTINUOUS
10
58.2849
20
-125.981
11
58.28
21
-125.981
0
LINE
8
BLACK
6
CONTINUOUS
10
58.28
20
-125.981
11
58.2788
21
-125.981
0
LINE
8
BLACK
6
CONTINUOUS
10
58.2788
20
-125.981
11
53.3812
21
-125.981
0
LINE
8
BLACK
6
CONTINUOUS
10
53.3812
20
-125.981
11
53.38
21
-125.981
0
LINE
8
BLACK
6
CONTINUOUS
10
53.38
20
-125.981
11
53.3751
21
-125.981
0
LINE
8
BLACK
6
CONTINUOUS
10
53.3751
20
-125.981
11
53.3704
21
-125.979
0
LINE
8
BLACK
6
CONTINUOUS
10
53.3704
20
-125.979
11
53.366
21
-125.977
0
LINE
8
BLACK
6
CONTINUOUS
10
53.366
20
-125.977
11
53.3622
21
-125.974
0
LINE
8
BLACK
6
CONTINUOUS
10
53.3622
20
-125.974
11
53.3591
21
-125.97
0
LINE
8
BLACK
6
CONTINUOUS
10
53.3591
20
-125.97
11
53.3568
21
-125.966
0
LINE
8
BLACK
6
CONTINUOUS
10
53.3568
20
-125.966
11
53.3554
21
-125.961
0
LINE
8
BLACK
6
CONTINUOUS
10
53.3554
20
-125.961
11
53.3549
21
-125.956
0
LINE
8
BLACK
6
CONTINUOUS
10
53.3549
20
-125.956
11
53.355
21
-125.955
0
LINE
8
BLACK
6
CONTINUOUS
10
53.355
20
-125.955
11
53.355
21
-117.657
0
LINE
8
BLACK
6
CONTINUOUS
10
53.355
20
-117.657
11
53.3549
21
-117.656
0
LINE
8
BLACK
6
CONTINUOUS
10
53.3549
20
-117.656
11
53.3554
21
-117.651
0
LINE
8
BLACK
6
CONTINUOUS
10
53.3554
20
-117.651
11
53.3568
21
-117.646
0
LINE
8
BLACK
6
CONTINUOUS
10
53.3568
20
-117.646
11
53.3591
21
-117.642
0
LINE
8
BLACK
6
CONTINUOUS
10
53.3591
20
-117.642
11
53.3622
21
-117.638
0
LINE
8
BLACK
6
CONTINUOUS
10
53.3622
20
-117.638
11
53.366
21
-117.635
0
LINE
8
BLACK
6
CONTINUOUS
10
53.366
20
-117.635
11
53.3704
21
-117.633
0
LINE
8
BLACK
6
CONTINUOUS
10
53.3704
20
-117.633
11
53.3751
21
-117.631
0
LINE
8
BLACK
6
CONTINUOUS
10
53.3751
20
-117.631
11
53.3788
21
-117.631
0
LINE
8
BLACK
6
CONTINUOUS
10
53.3788
20
-117.631
11
53.3788
21
-117.631
0
LINE
8
BLACK
6
CONTINUOUS
10
53.3788
20
-117.631
11
53.38
21
-117.631
0
LINE
8
BLACK
6
CONTINUOUS
10
53.38
20
-117.631
11
53.3812
21
-117.631
0
LINE
8
BLACK
6
CONTINUOUS
10
53.3812
20
-117.631
11
58.2788
21
-117.631
0
LINE
8
BLACK
6
CONTINUOUS
10
58.2788
20
-117.631
11
58.28
21
-117.631
0
LINE
8
BLACK
6
CONTINUOUS
10
58.28
20
-117.631
11
58.2812
21
-117.631
0
LINE
8
BLACK
6
CONTINUOUS
10
53.405
20
-117.681
11
53.405
21
-125.931
0
LINE
8
BLACK
6
CONTINUOUS
10
53.405
20
-125.931
11
58.255
21
-125.931
0
LINE
8
BLACK
6
CONTINUOUS
10
58.255
20
-125.931
11
58.255
21
-117.681
0
LINE
8
BLACK
6
CONTINUOUS
10
58.255
20
-117.681
11
53.405
21
-117.681
0
LINE
8
BLACK
6
CONTINUOUS
10
229.833
20
-117.593
11
229.833
21
-117.593
0
LINE
8
BLACK
6
CONTINUOUS
10
229.833
20
-117.593
11
229.837
21
-117.593
0
LINE
8
BLACK
6
CONTINUOUS
10
229.837
20
-117.593
11
229.842
21
-117.595
0
LINE
8
BLACK
6
CONTINUOUS
10
229.842
20
-117.595
11
229.846
21
-117.597
0
LINE
8
BLACK
6
CONTINUOUS
10
229.846
20
-117.597
11
229.85
21
-117.6
0
LINE
8
BLACK
6
CONTINUOUS
10
229.85
20
-117.6
11
229.853
21
-117.604
0
LINE
8
BLACK
6
CONTINUOUS
10
229.853
20
-117.604
11
229.855
21
-117.608
0
LINE
8
BLACK
6
CONTINUOUS
10
229.855
20
-117.608
11
229.857
21
-117.613
0
LINE
8
BLACK
6
CONTINUOUS
10
229.857
20
-117.613
11
229.857
21
-117.618
0
LINE
8
BLACK
6
CONTINUOUS
10
229.857
20
-117.618
11
229.857
21
-117.619
0
LINE
8
BLACK
6
CONTINUOUS
10
229.857
20
-117.619
11
229.857
21
-125.917
0
LINE
8
BLACK
6
CONTINUOUS
10
229.857
20
-125.917
11
229.857
21
-125.918
0
LINE
8
BLACK
6
CONTINUOUS
10
229.857
20
-125.918
11
229.857
21
-125.919
0
LINE
8
BLACK
6
CONTINUOUS
10
229.857
20
-125.919
11
229.857
21
-125.919
0
LINE
8
BLACK
6
CONTINUOUS
10
229.857
20
-125.919
11
229.857
21
-125.923
0
LINE
8
BLACK
6
CONTINUOUS
10
229.857
20
-125.923
11
229.855
21
-125.928
0
LINE
8
BLACK
6
CONTINUOUS
10
229.855
20
-125.928
11
229.853
21
-125.932
0
LINE
8
BLACK
6
CONTINUOUS
10
229.853
20
-125.932
11
229.85
21
-125.936
0
LINE
8
BLACK
6
CONTINUOUS
10
229.85
20
-125.936
11
229.846
21
-125.939
0
LINE
8
BLACK
6
CONTINUOUS
10
229.846
20
-125.939
11
229.842
21
-125.941
0
LINE
8
BLACK
6
CONTINUOUS
10
229.842
20
-125.941
11
229.837
21
-125.943
0
LINE
8
BLACK
6
CONTINUOUS
10
229.837
20
-125.943
11
229.832
21
-125.943
0
LINE
8
BLACK
6
CONTINUOUS
10
229.832
20
-125.943
11
229.831
21
-125.943
0
LINE
8
BLACK
6
CONTINUOUS
10
229.831
20
-125.943
11
224.933
21
-125.943
0
LINE
8
BLACK
6
CONTINUOUS
10
224.933
20
-125.943
11
224.932
21
-125.943
0
LINE
8
BLACK
6
CONTINUOUS
10
224.932
20
-125.943
11
224.927
21
-125.943
0
LINE
8
BLACK
6
CONTINUOUS
10
224.927
20
-125.943
11
224.922
21
-125.941
0
LINE
8
BLACK
6
CONTINUOUS
10
224.922
20
-125.941
11
224.918
21
-125.939
0
LINE
8
BLACK
6
CONTINUOUS
10
224.918
20
-125.939
11
224.914
21
-125.936
0
LINE
8
BLACK
6
CONTINUOUS
10
224.914
20
-125.936
11
224.914
21
-125.935
0
LINE
8
BLACK
6
CONTINUOUS
10
224.914
20
-125.935
11
224.911
21
-125.932
0
LINE
8
BLACK
6
CONTINUOUS
10
224.911
20
-125.932
11
224.909
21
-125.928
0
LINE
8
BLACK
6
CONTINUOUS
10
224.909
20
-125.928
11
224.907
21
-125.923
0
LINE
8
BLACK
6
CONTINUOUS
10
224.907
20
-125.923
11
224.907
21
-125.918
0
LINE
8
BLACK
6
CONTINUOUS
10
224.907
20
-125.918
11
224.907
21
-125.917
0
LINE
8
BLACK
6
CONTINUOUS
10
224.907
20
-125.917
11
224.907
21
-117.619
0
LINE
8
BLACK
6
CONTINUOUS
10
224.907
20
-117.619
11
224.907
21
-117.618
0
LINE
8
BLACK
6
CONTINUOUS
10
224.907
20
-117.618
11
224.907
21
-117.613
0
LINE
8
BLACK
6
CONTINUOUS
10
224.907
20
-117.613
11
224.909
21
-117.608
0
LINE
8
BLACK
6
CONTINUOUS
10
224.909
20
-117.608
11
224.911
21
-117.604
0
LINE
8
BLACK
6
CONTINUOUS
10
224.911
20
-117.604
11
224.914
21
-117.6
0
LINE
8
BLACK
6
CONTINUOUS
10
224.914
20
-117.6
11
224.918
21
-117.597
0
LINE
8
BLACK
6
CONTINUOUS
10
224.918
20
-117.597
11
224.922
21
-117.595
0
LINE
8
BLACK
6
CONTINUOUS
10
224.922
20
-117.595
11
224.927
21
-117.593
0
LINE
8
BLACK
6
CONTINUOUS
10
224.927
20
-117.593
11
224.931
21
-117.593
0
LINE
8
BLACK
6
CONTINUOUS
10
224.931
20
-117.593
11
224.931
21
-117.593
0
LINE
8
BLACK
6
CONTINUOUS
10
224.931
20
-117.593
11
224.932
21
-117.593
0
LINE
8
BLACK
6
CONTINUOUS
10
224.932
20
-117.593
11
224.933
21
-117.593
0
LINE
8
BLACK
6
CONTINUOUS
10
224.933
20
-117.593
11
229.831
21
-117.593
0
LINE
8
BLACK
6
CONTINUOUS
10
229.831
20
-117.593
11
229.832
21
-117.593
0
LINE
8
BLACK
6
CONTINUOUS
10
229.832
20
-117.593
11
229.833
21
-117.593
0
LINE
8
BLACK
6
CONTINUOUS
10
224.957
20
-117.643
11
224.957
21
-125.893
0
LINE
8
BLACK
6
CONTINUOUS
10
224.957
20
-125.893
11
229.807
21
-125.893
0
LINE
8
BLACK
6
CONTINUOUS
10
229.807
20
-125.893
11
229.807
21
-117.643
0
LINE
8
BLACK
6
CONTINUOUS
10
229.807
20
-117.643
11
224.957
21
-117.643
0
LINE
8
BLACK
6
CONTINUOUS
10
286.944
20
-117.378
11
286.944
21
-117.378
0
LINE
8
BLACK
6
CONTINUOUS
10
286.944
20
-117.378
11
286.948
21
-117.378
0
LINE
8
BLACK
6
CONTINUOUS
10
286.948
20
-117.378
11
286.953
21
-117.38
0
LINE
8
BLACK
6
CONTINUOUS
10
286.953
20
-117.38
11
286.957
21
-117.382
0
LINE
8
BLACK
6
CONTINUOUS
10
286.957
20
-117.382
11
286.961
21
-117.385
0
LINE
8
BLACK
6
CONTINUOUS
10
286.961
20
-117.385
11
286.964
21
-117.389
0
LINE
8
BLACK
6
CONTINUOUS
10
286.964
20
-117.389
11
286.966
21
-117.393
0
LINE
8
BLACK
6
CONTINUOUS
10
286.966
20
-117.393
11
286.968
21
-117.398
0
LINE
8
BLACK
6
CONTINUOUS
10
286.968
20
-117.398
11
286.968
21
-117.403
0
LINE
8
BLACK
6
CONTINUOUS
10
286.968
20
-117.403
11
286.968
21
-117.404
0
LINE
8
BLACK
6
CONTINUOUS
10
286.968
20
-117.404
11
286.968
21
-125.702
0
LINE
8
BLACK
6
CONTINUOUS
10
286.968
20
-125.702
11
286.968
21
-125.703
0
LINE
8
BLACK
6
CONTINUOUS
10
286.968
20
-125.703
11
286.968
21
-125.704
0
LINE
8
BLACK
6
CONTINUOUS
10
286.968
20
-125.704
11
286.968
21
-125.704
0
LINE
8
BLACK
6
CONTINUOUS
10
286.968
20
-125.704
11
286.968
21
-125.708
0
LINE
8
BLACK
6
CONTINUOUS
10
286.968
20
-125.708
11
286.966
21
-125.713
0
LINE
8
BLACK
6
CONTINUOUS
10
286.966
20
-125.713
11
286.964
21
-125.717
0
LINE
8
BLACK
6
CONTINUOUS
10
286.964
20
-125.717
11
286.961
21
-125.721
0
LINE
8
BLACK
6
CONTINUOUS
10
286.961
20
-125.721
11
286.957
21
-125.724
0
LINE
8
BLACK
6
CONTINUOUS
10
286.957
20
-125.724
11
286.953
21
-125.726
0
LINE
8
BLACK
6
CONTINUOUS
10
286.953
20
-125.726
11
286.948
21
-125.728
0
LINE
8
BLACK
6
CONTINUOUS
10
286.948
20
-125.728
11
286.943
21
-125.728
0
LINE
8
BLACK
6
CONTINUOUS
10
286.943
20
-125.728
11
286.942
21
-125.728
0
LINE
8
BLACK
6
CONTINUOUS
10
286.942
20
-125.728
11
282.044
21
-125.728
0
LINE
8
BLACK
6
CONTINUOUS
10
282.044
20
-125.728
11
282.043
21
-125.728
0
LINE
8
BLACK
6
CONTINUOUS
10
282.043
20
-125.728
11
282.038
21
-125.728
0
LINE
8
BLACK
6
CONTINUOUS
10
282.038
20
-125.728
11
282.033
21
-125.726
0
LINE
8
BLACK
6
CONTINUOUS
10
282.033
20
-125.726
11
282.029
21
-125.724
0
LINE
8
BLACK
6
CONTINUOUS
10
282.029
20
-125.724
11
282.025
21
-125.721
0
LINE
8
BLACK
6
CONTINUOUS
10
282.025
20
-125.721
11
282.022
21
-125.717
0
LINE
8
BLACK
6
CONTINUOUS
10
282.022
20
-125.717
11
282.02
21
-125.713
0
LINE
8
BLACK
6
CONTINUOUS
10
282.02
20
-125.713
11
282.018
21
-125.708
0
LINE
8
BLACK
6
CONTINUOUS
10
282.018
20
-125.708
11
282.018
21
-125.703
0
LINE
8
BLACK
6
CONTINUOUS
10
282.018
20
-125.703
11
282.018
21
-125.702
0
LINE
8
BLACK
6
CONTINUOUS
10
282.018
20
-125.702
11
282.018
21
-117.404
0
LINE
8
BLACK
6
CONTINUOUS
10
282.018
20
-117.404
11
282.018
21
-117.403
0
LINE
8
BLACK
6
CONTINUOUS
10
282.018
20
-117.403
11
282.018
21
-117.398
0
LINE
8
BLACK
6
CONTINUOUS
10
282.018
20
-117.398
11
282.02
21
-117.393
0
LINE
8
BLACK
6
CONTINUOUS
10
282.02
20
-117.393
11
282.022
21
-117.389
0
LINE
8
BLACK
6
CONTINUOUS
10
282.022
20
-117.389
11
282.025
21
-117.385
0
LINE
8
BLACK
6
CONTINUOUS
10
282.025
20
-117.385
11
282.029
21
-117.382
0
LINE
8
BLACK
6
CONTINUOUS
10
282.029
20
-117.382
11
282.033
21
-117.38
0
LINE
8
BLACK
6
CONTINUOUS
10
282.033
20
-117.38
11
282.038
21
-117.378
0
LINE
8
BLACK
6
CONTINUOUS
10
282.038
20
-117.378
11
282.042
21
-117.378
0
LINE
8
BLACK
6
CONTINUOUS
10
282.042
20
-117.378
11
282.042
21
-117.378
0
LINE
8
BLACK
6
CONTINUOUS
10
282.042
20
-117.378
11
282.043
21
-117.378
0
LINE
8
BLACK
6
CONTINUOUS
10
282.043
20
-117.378
11
282.044
21
-117.378
0
LINE
8
BLACK
6
CONTINUOUS
10
282.044
20
-117.378
11
286.942
21
-117.378
0
LINE
8
BLACK
6
CONTINUOUS
10
286.942
20
-117.378
11
286.943
21
-117.378
0
LINE
8
BLACK
6
CONTINUOUS
10
286.943
20
-117.378
11
286.944
21
-117.378
0
LINE
8
BLACK
6
CONTINUOUS
10
282.068
20
-117.428
11
282.068
21
-125.678
0
LINE
8
BLACK
6
CONTINUOUS
10
282.068
20
-125.678
11
286.918
21
-125.678
0
LINE
8
BLACK
6
CONTINUOUS
10
286.918
20
-125.678
11
286.918
21
-117.428
0
LINE
8
BLACK
6
CONTINUOUS
10
286.918
20
-117.428
11
282.068
21
-117.428
0
LINE
8
BLACK
6
CONTINUOUS
10
115.622
20
-117.378
11
115.622
21
-117.378
0
LINE
8
BLACK
6
CONTINUOUS
10
115.622
20
-117.378
11
115.626
21
-117.378
0
LINE
8
BLACK
6
CONTINUOUS
10
115.626
20
-117.378
11
115.631
21
-117.38
0
LINE
8
BLACK
6
CONTINUOUS
10
115.631
20
-117.38
11
115.635
21
-117.382
0
LINE
8
BLACK
6
CONTINUOUS
10
115.635
20
-117.382
11
115.639
21
-117.385
0
LINE
8
BLACK
6
CONTINUOUS
10
115.639
20
-117.385
11
115.642
21
-117.389
0
LINE
8
BLACK
6
CONTINUOUS
10
115.642
20
-117.389
11
115.644
21
-117.393
0
LINE
8
BLACK
6
CONTINUOUS
10
115.644
20
-117.393
11
115.646
21
-117.398
0
LINE
8
BLACK
6
CONTINUOUS
10
115.646
20
-117.398
11
115.646
21
-117.403
0
LINE
8
BLACK
6
CONTINUOUS
10
115.646
20
-117.403
11
115.646
21
-117.404
0
LINE
8
BLACK
6
CONTINUOUS
10
115.646
20
-117.404
11
115.646
21
-125.702
0
LINE
8
BLACK
6
CONTINUOUS
10
115.646
20
-125.702
11
115.646
21
-125.703
0
LINE
8
BLACK
6
CONTINUOUS
10
115.646
20
-125.703
11
115.646
21
-125.704
0
LINE
8
BLACK
6
CONTINUOUS
10
115.646
20
-125.704
11
115.646
21
-125.704
0
LINE
8
BLACK
6
CONTINUOUS
10
115.646
20
-125.704
11
115.646
21
-125.708
0
LINE
8
BLACK
6
CONTINUOUS
10
115.646
20
-125.708
11
115.644
21
-125.713
0
LINE
8
BLACK
6
CONTINUOUS
10
115.644
20
-125.713
11
115.642
21
-125.717
0
LINE
8
BLACK
6
CONTINUOUS
10
115.642
20
-125.717
11
115.639
21
-125.721
0
LINE
8
BLACK
6
CONTINUOUS
10
115.639
20
-125.721
11
115.635
21
-125.724
0
LINE
8
BLACK
6
CONTINUOUS
10
115.635
20
-125.724
11
115.631
21
-125.726
0
LINE
8
BLACK
6
CONTINUOUS
10
115.631
20
-125.726
11
115.626
21
-125.728
0
LINE
8
BLACK
6
CONTINUOUS
10
115.626
20
-125.728
11
115.621
21
-125.728
0
LINE
8
BLACK
6
CONTINUOUS
10
115.621
20
-125.728
11
115.62
21
-125.728
0
LINE
8
BLACK
6
CONTINUOUS
10
115.62
20
-125.728
11
110.722
21
-125.728
0
LINE
8
BLACK
6
CONTINUOUS
10
110.722
20
-125.728
11
110.721
21
-125.728
0
LINE
8
BLACK
6
CONTINUOUS
10
110.721
20
-125.728
11
110.716
21
-125.728
0
LINE
8
BLACK
6
CONTINUOUS
10
110.716
20
-125.728
11
110.711
21
-125.726
0
LINE
8
BLACK
6
CONTINUOUS
10
110.711
20
-125.726
11
110.707
21
-125.724
0
LINE
8
BLACK
6
CONTINUOUS
10
110.707
20
-125.724
11
110.703
21
-125.721
0
LINE
8
BLACK
6
CONTINUOUS
10
110.703
20
-125.721
11
110.7
21
-125.717
0
LINE
8
BLACK
6
CONTINUOUS
10
110.7
20
-125.717
11
110.698
21
-125.713
0
LINE
8
BLACK
6
CONTINUOUS
10
110.698
20
-125.713
11
110.696
21
-125.708
0
LINE
8
BLACK
6
CONTINUOUS
10
110.696
20
-125.708
11
110.696
21
-125.703
0
LINE
8
BLACK
6
CONTINUOUS
10
110.696
20
-125.703
11
110.696
21
-125.702
0
LINE
8
BLACK
6
CONTINUOUS
10
110.696
20
-125.702
11
110.696
21
-117.404
0
LINE
8
BLACK
6
CONTINUOUS
10
110.696
20
-117.404
11
110.696
21
-117.403
0
LINE
8
BLACK
6
CONTINUOUS
10
110.696
20
-117.403
11
110.696
21
-117.398
0
LINE
8
BLACK
6
CONTINUOUS
10
110.696
20
-117.398
11
110.698
21
-117.393
0
LINE
8
BLACK
6
CONTINUOUS
10
110.698
20
-117.393
11
110.7
21
-117.389
0
LINE
8
BLACK
6
CONTINUOUS
10
110.7
20
-117.389
11
110.703
21
-117.385
0
LINE
8
BLACK
6
CONTINUOUS
10
110.703
20
-117.385
11
110.707
21
-117.382
0
LINE
8
BLACK
6
CONTINUOUS
10
110.707
20
-117.382
11
110.711
21
-117.38
0
LINE
8
BLACK
6
CONTINUOUS
10
110.711
20
-117.38
11
110.716
21
-117.378
0
LINE
8
BLACK
6
CONTINUOUS
10
110.716
20
-117.378
11
110.72
21
-117.378
0
LINE
8
BLACK
6
CONTINUOUS
10
110.72
20
-117.378
11
110.72
21
-117.378
0
LINE
8
BLACK
6
CONTINUOUS
10
110.72
20
-117.378
11
110.721
21
-117.378
0
LINE
8
BLACK
6
CONTINUOUS
10
110.721
20
-117.378
11
110.722
21
-117.378
0
LINE
8
BLACK
6
CONTINUOUS
10
110.722
20
-117.378
11
115.62
21
-117.378
0
LINE
8
BLACK
6
CONTINUOUS
10
115.62
20
-117.378
11
115.621
21
-117.378
0
LINE
8
BLACK
6
CONTINUOUS
10
115.621
20
-117.378
11
115.622
21
-117.378
0
LINE
8
BLACK
6
CONTINUOUS
10
110.746
20
-117.428
11
110.746
21
-125.678
0
LINE
8
BLACK
6
CONTINUOUS
10
110.746
20
-125.678
11
115.596
21
-125.678
0
LINE
8
BLACK
6
CONTINUOUS
10
115.596
20
-125.678
11
115.596
21
-117.428
0
LINE
8
BLACK
6
CONTINUOUS
10
115.596
20
-117.428
11
110.746
21
-117.428
0
LINE
8
BLACK
6
CONTINUOUS
10
320.751
20
-23.7125
11
320.751
21
-23.7125
0
LINE
8
BLACK
6
CONTINUOUS
10
320.751
20
-23.7125
11
320.755
21
-23.7129
0
LINE
8
BLACK
6
CONTINUOUS
10
320.755
20
-23.7129
11
320.76
21
-23.7143
0
LINE
8
BLACK
6
CONTINUOUS
10
320.76
20
-23.7143
11
320.764
21
-23.7166
0
LINE
8
BLACK
6
CONTINUOUS
10
320.764
20
-23.7166
11
320.768
21
-23.7197
0
LINE
8
BLACK
6
CONTINUOUS
10
320.768
20
-23.7197
11
320.771
21
-23.7235
0
LINE
8
BLACK
6
CONTINUOUS
10
320.771
20
-23.7235
11
320.773
21
-23.7279
0
LINE
8
BLACK
6
CONTINUOUS
10
320.773
20
-23.7279
11
320.775
21
-23.7326
0
LINE
8
BLACK
6
CONTINUOUS
10
320.775
20
-23.7326
11
320.775
21
-23.7375
0
LINE
8
BLACK
6
CONTINUOUS
10
320.775
20
-23.7375
11
320.775
21
-23.7387
0
LINE
8
BLACK
6
CONTINUOUS
10
320.775
20
-23.7387
11
320.775
21
-42.8363
0
LINE
8
BLACK
6
CONTINUOUS
10
320.775
20
-42.8363
11
320.775
21
-42.8375
0
LINE
8
BLACK
6
CONTINUOUS
10
320.775
20
-42.8375
11
320.775
21
-42.8387
0
LINE
8
BLACK
6
CONTINUOUS
10
320.775
20
-42.8387
11
320.775
21
-42.8424
0
LINE
8
BLACK
6
CONTINUOUS
10
320.775
20
-42.8424
11
320.773
21
-42.8471
0
LINE
8
BLACK
6
CONTINUOUS
10
320.773
20
-42.8471
11
320.771
21
-42.8515
0
LINE
8
BLACK
6
CONTINUOUS
10
320.771
20
-42.8515
11
320.768
21
-42.8553
0
LINE
8
BLACK
6
CONTINUOUS
10
320.768
20
-42.8553
11
320.764
21
-42.8584
0
LINE
8
BLACK
6
CONTINUOUS
10
320.764
20
-42.8584
11
320.76
21
-42.8607
0
LINE
8
BLACK
6
CONTINUOUS
10
320.76
20
-42.8607
11
320.755
21
-42.8621
0
LINE
8
BLACK
6
CONTINUOUS
10
320.755
20
-42.8621
11
320.75
21
-42.8626
0
LINE
8
BLACK
6
CONTINUOUS
10
320.75
20
-42.8626
11
320.749
21
-42.8625
0
LINE
8
BLACK
6
CONTINUOUS
10
320.749
20
-42.8625
11
301.651
21
-42.8625
0
LINE
8
BLACK
6
CONTINUOUS
10
301.651
20
-42.8625
11
301.65
21
-42.8626
0
LINE
8
BLACK
6
CONTINUOUS
10
301.65
20
-42.8626
11
301.649
21
-42.8625
0
LINE
8
BLACK
6
CONTINUOUS
10
301.649
20
-42.8625
11
301.649
21
-42.8625
0
LINE
8
BLACK
6
CONTINUOUS
10
301.649
20
-42.8625
11
301.645
21
-42.8621
0
LINE
8
BLACK
6
CONTINUOUS
10
301.645
20
-42.8621
11
301.64
21
-42.8607
0
LINE
8
BLACK
6
CONTINUOUS
10
301.64
20
-42.8607
11
301.636
21
-42.8584
0
LINE
8
BLACK
6
CONTINUOUS
10
301.636
20
-42.8584
11
301.632
21
-42.8553
0
LINE
8
BLACK
6
CONTINUOUS
10
301.632
20
-42.8553
11
301.629
21
-42.8515
0
LINE
8
BLACK
6
CONTINUOUS
10
301.629
20
-42.8515
11
301.627
21
-42.8471
0
LINE
8
BLACK
6
CONTINUOUS
10
301.627
20
-42.8471
11
301.625
21
-42.8424
0
LINE
8
BLACK
6
CONTINUOUS
10
301.625
20
-42.8424
11
301.625
21
-42.8375
0
LINE
8
BLACK
6
CONTINUOUS
10
301.625
20
-42.8375
11
301.625
21
-42.8363
0
LINE
8
BLACK
6
CONTINUOUS
10
301.625
20
-42.8363
11
301.625
21
-23.7387
0
LINE
8
BLACK
6
CONTINUOUS
10
301.625
20
-23.7387
11
301.625
21
-23.7375
0
LINE
8
BLACK
6
CONTINUOUS
10
301.625
20
-23.7375
11
301.625
21
-23.7326
0
LINE
8
BLACK
6
CONTINUOUS
10
301.625
20
-23.7326
11
301.627
21
-23.7279
0
LINE
8
BLACK
6
CONTINUOUS
10
301.627
20
-23.7279
11
301.629
21
-23.7235
0
LINE
8
BLACK
6
CONTINUOUS
10
301.629
20
-23.7235
11
301.632
21
-23.7197
0
LINE
8
BLACK
6
CONTINUOUS
10
301.632
20
-23.7197
11
301.636
21
-23.7166
0
LINE
8
BLACK
6
CONTINUOUS
10
301.636
20
-23.7166
11
301.64
21
-23.7143
0
LINE
8
BLACK
6
CONTINUOUS
10
301.64
20
-23.7143
11
301.645
21
-23.7129
0
LINE
8
BLACK
6
CONTINUOUS
10
301.645
20
-23.7129
11
301.649
21
-23.7125
0
LINE
8
BLACK
6
CONTINUOUS
10
301.649
20
-23.7125
11
301.65
21
-23.7124
0
LINE
8
BLACK
6
CONTINUOUS
10
301.65
20
-23.7124
11
301.651
21
-23.7125
0
LINE
8
BLACK
6
CONTINUOUS
10
301.651
20
-23.7125
11
320.749
21
-23.7125
0
LINE
8
BLACK
6
CONTINUOUS
10
320.749
20
-23.7125
11
320.75
21
-23.7124
0
LINE
8
BLACK
6
CONTINUOUS
10
320.75
20
-23.7124
11
320.751
21
-23.7125
0
LINE
8
BLACK
6
CONTINUOUS
10
301.675
20
-23.7625
11
301.675
21
-42.8125
0
LINE
8
BLACK
6
CONTINUOUS
10
301.675
20
-42.8125
11
320.725
21
-42.8125
0
LINE
8
BLACK
6
CONTINUOUS
10
320.725
20
-42.8125
11
320.725
21
-23.7625
0
LINE
8
BLACK
6
CONTINUOUS
10
320.725
20
-23.7625
11
301.675
21
-23.7625
  0
ENDSEC
  0
EOF
