  0
SECTION
  2
HEADER
  9
$ANGBASE
  50
0.0
  9
$ANGDIR
  70
1
  9
$MEASUREMENT
  70
1
  0
ENDSEC
  0
SECTION
  2
TABLES
  0
TABLE
  2
LTYPE
  70
4
  0
LTYPE
  5
40F
  2
CONTINUOUS
  70
0
  3
Solid line
  72
65
  73
0
  40
0.0
  0
LTYPE
  5
410
  2
DASHDOT
 70
0
  3
Dash Dot ____ _ ____ _
 72
65
 73
4
 40
2.0
 49
1.25
 49
-0.25
 49
0.25
 49
-0.25
  0
LTYPE
  5
411
  2
DASHED
 70
0
  3
Dashed __ __ __ __ __
 72
65
 73
2
 40
0.75
 49
0.5
 49
-0.25
  0
LTYPE
  5
43B
  2
DOTTED
 70
0
  3
Dotted .  .  .  .
 72
65
 73
2
 40
0.2
 49
0.0
 49
-0.2
  0
ENDTAB
  0
TABLE
  2
STYLE
  70
4
  0
STYLE
  2
KICAD
  70
0
  40
0
  41
1
  42
1
  50
0
  71
0
  3
isocp.shx
  0
STYLE
  2
KICADB
  70
0
  40
0
  41
1
  42
1
  50
0
  71
0
  3
isocp.shx
  0
STYLE
  2
KICADI
  70
0
  40
0
  41
1
  42
1
  50
15
  71
0
  3
isocp.shx
  0
STYLE
  2
KICADBI
  70
0
  40
0
  41
1
  42
1
  50
15
  71
0
  3
isocp.shx
  0
ENDTAB
  0
TABLE
  2
LAYER
  70
1
  0
LAYER
  2
BLACK
  70
0
  62
7
  6
CONTINUOUS
  0
ENDTAB
  0
ENDSEC
  0
SECTION
  2
ENTITIES
0
LINE
8
BLACK
6
CONTINUOUS
10
15.8726
20
-141.312
11
15.8726
21
-141.312
0
LINE
8
BLACK
6
CONTINUOUS
10
15.8726
20
-141.312
11
15.2559
21
-141.252
0
LINE
8
BLACK
6
CONTINUOUS
10
15.2559
20
-141.252
11
15.2555
21
-141.252
0
LINE
8
BLACK
6
CONTINUOUS
10
15.2555
20
-141.252
11
15.2533
21
-141.251
0
LINE
8
BLACK
6
CONTINUOUS
10
15.2533
20
-141.251
11
15.2511
21
-141.251
0
LINE
8
BLACK
6
CONTINUOUS
10
15.2511
20
-141.251
11
14.6579
21
-141.072
0
LINE
8
BLACK
6
CONTINUOUS
10
14.6579
20
-141.072
11
14.6575
21
-141.072
0
LINE
8
BLACK
6
CONTINUOUS
10
14.6575
20
-141.072
11
14.6555
21
-141.071
0
LINE
8
BLACK
6
CONTINUOUS
10
14.6555
20
-141.071
11
14.6534
21
-141.07
0
LINE
8
BLACK
6
CONTINUOUS
10
14.6534
20
-141.07
11
14.1062
21
-140.779
0
LINE
8
BLACK
6
CONTINUOUS
10
14.1062
20
-140.779
11
14.1059
21
-140.779
0
LINE
8
BLACK
6
CONTINUOUS
10
14.1059
20
-140.779
11
14.1041
21
-140.778
0
LINE
8
BLACK
6
CONTINUOUS
10
14.1041
20
-140.778
11
14.1022
21
-140.776
0
LINE
8
BLACK
6
CONTINUOUS
10
14.1022
20
-140.776
11
13.622
21
-140.385
0
LINE
8
BLACK
6
CONTINUOUS
10
13.622
20
-140.385
11
13.6217
21
-140.385
0
LINE
8
BLACK
6
CONTINUOUS
10
13.6217
20
-140.385
11
13.6201
21
-140.383
0
LINE
8
BLACK
6
CONTINUOUS
10
13.6201
20
-140.383
11
13.6185
21
-140.381
0
LINE
8
BLACK
6
CONTINUOUS
10
13.6185
20
-140.381
11
13.2235
21
-139.904
0
LINE
8
BLACK
6
CONTINUOUS
10
13.2235
20
-139.904
11
13.2233
21
-139.904
0
LINE
8
BLACK
6
CONTINUOUS
10
13.2233
20
-139.904
11
13.2221
21
-139.902
0
LINE
8
BLACK
6
CONTINUOUS
10
13.2221
20
-139.902
11
13.2208
21
-139.9
0
LINE
8
BLACK
6
CONTINUOUS
10
13.2208
20
-139.9
11
12.9261
21
-139.355
0
LINE
8
BLACK
6
CONTINUOUS
10
12.9261
20
-139.355
11
12.9259
21
-139.354
0
LINE
8
BLACK
6
CONTINUOUS
10
12.9259
20
-139.354
11
12.9251
21
-139.352
0
LINE
8
BLACK
6
CONTINUOUS
10
12.9251
20
-139.352
11
12.9242
21
-139.35
0
LINE
8
BLACK
6
CONTINUOUS
10
12.9242
20
-139.35
11
12.741
21
-138.758
0
LINE
8
BLACK
6
CONTINUOUS
10
12.741
20
-138.758
11
12.7409
21
-138.758
0
LINE
8
BLACK
6
CONTINUOUS
10
12.7409
20
-138.758
11
12.7404
21
-138.756
0
LINE
8
BLACK
6
CONTINUOUS
10
12.7404
20
-138.756
11
12.74
21
-138.754
0
LINE
8
BLACK
6
CONTINUOUS
10
12.74
20
-138.754
11
12.6752
21
-138.137
0
LINE
8
BLACK
6
CONTINUOUS
10
12.6752
20
-138.137
11
12.6752
21
-138.137
0
LINE
8
BLACK
6
CONTINUOUS
10
12.6752
20
-138.137
11
12.6752
21
-138.136
0
LINE
8
BLACK
6
CONTINUOUS
10
12.6752
20
-138.136
11
12.6751
21
-138.135
0
LINE
8
BLACK
6
CONTINUOUS
10
12.6751
20
-138.135
11
12.675
21
-138.114
0
LINE
8
BLACK
6
CONTINUOUS
10
12.675
20
-138.114
11
12.675
21
-138.114
0
LINE
8
BLACK
6
CONTINUOUS
10
12.675
20
-138.114
11
12.675
21
-138.113
0
LINE
8
BLACK
6
CONTINUOUS
10
12.675
20
-138.113
11
12.675
21
-138.113
0
LINE
8
BLACK
6
CONTINUOUS
10
12.675
20
-138.113
11
12.675
21
-138.112
0
LINE
8
BLACK
6
CONTINUOUS
10
12.675
20
-138.112
11
12.675
21
-58.7376
0
LINE
8
BLACK
6
CONTINUOUS
10
12.675
20
-58.7376
11
12.675
21
-58.7333
0
LINE
8
BLACK
6
CONTINUOUS
10
12.675
20
-58.7333
11
12.6592
21
-58.5829
0
LINE
8
BLACK
6
CONTINUOUS
10
12.6592
20
-58.5829
11
12.6148
21
-58.4396
0
LINE
8
BLACK
6
CONTINUOUS
10
12.6148
20
-58.4396
11
12.5435
21
-58.3077
0
LINE
8
BLACK
6
CONTINUOUS
10
12.5435
20
-58.3077
11
12.4479
21
-58.1921
0
LINE
8
BLACK
6
CONTINUOUS
10
12.4479
20
-58.1921
11
12.3316
21
-58.0973
0
LINE
8
BLACK
6
CONTINUOUS
10
12.3316
20
-58.0973
11
12.1992
21
-58.0269
0
LINE
8
BLACK
6
CONTINUOUS
10
12.1992
20
-58.0269
11
12.0555
21
-57.9835
0
LINE
8
BLACK
6
CONTINUOUS
10
12.0555
20
-57.9835
11
11.905
21
-57.9688
0
LINE
8
BLACK
6
CONTINUOUS
10
11.905
20
-57.9688
11
7.14253
21
-57.9688
0
LINE
8
BLACK
6
CONTINUOUS
10
7.14253
20
-57.9688
11
7.14132
21
-57.9686
0
LINE
8
BLACK
6
CONTINUOUS
10
7.14132
20
-57.9686
11
7.14131
21
-57.9686
0
LINE
8
BLACK
6
CONTINUOUS
10
7.14131
20
-57.9686
11
6.98714
21
-57.9535
0
LINE
8
BLACK
6
CONTINUOUS
10
6.98714
20
-57.9535
11
6.98679
21
-57.9535
0
LINE
8
BLACK
6
CONTINUOUS
10
6.98679
20
-57.9535
11
6.98454
21
-57.953
0
LINE
8
BLACK
6
CONTINUOUS
10
6.98454
20
-57.953
11
6.98235
21
-57.9526
0
LINE
8
BLACK
6
CONTINUOUS
10
6.98235
20
-57.9526
11
6.83405
21
-57.9078
0
LINE
8
BLACK
6
CONTINUOUS
10
6.83405
20
-57.9078
11
6.83372
21
-57.9077
0
LINE
8
BLACK
6
CONTINUOUS
10
6.83372
20
-57.9077
11
6.83163
21
-57.9068
0
LINE
8
BLACK
6
CONTINUOUS
10
6.83163
20
-57.9068
11
6.82954
21
-57.9059
0
LINE
8
BLACK
6
CONTINUOUS
10
6.82954
20
-57.9059
11
6.69276
21
-57.8332
0
LINE
8
BLACK
6
CONTINUOUS
10
6.69276
20
-57.8332
11
6.69245
21
-57.833
0
LINE
8
BLACK
6
CONTINUOUS
10
6.69245
20
-57.833
11
6.69059
21
-57.8318
0
LINE
8
BLACK
6
CONTINUOUS
10
6.69059
20
-57.8318
11
6.68869
21
-57.8305
0
LINE
8
BLACK
6
CONTINUOUS
10
6.68869
20
-57.8305
11
6.56865
21
-57.7326
0
LINE
8
BLACK
6
CONTINUOUS
10
6.56865
20
-57.7326
11
6.56838
21
-57.7324
0
LINE
8
BLACK
6
CONTINUOUS
10
6.56838
20
-57.7324
11
6.5668
21
-57.7308
0
LINE
8
BLACK
6
CONTINUOUS
10
6.5668
20
-57.7308
11
6.56518
21
-57.7292
0
LINE
8
BLACK
6
CONTINUOUS
10
6.56518
20
-57.7292
11
6.46644
21
-57.6098
0
LINE
8
BLACK
6
CONTINUOUS
10
6.46644
20
-57.6098
11
6.46622
21
-57.6095
0
LINE
8
BLACK
6
CONTINUOUS
10
6.46622
20
-57.6095
11
6.46498
21
-57.6076
0
LINE
8
BLACK
6
CONTINUOUS
10
6.46498
20
-57.6076
11
6.46371
21
-57.6058
0
LINE
8
BLACK
6
CONTINUOUS
10
6.46371
20
-57.6058
11
6.39003
21
-57.4695
0
LINE
8
BLACK
6
CONTINUOUS
10
6.39003
20
-57.4695
11
6.38987
21
-57.4692
0
LINE
8
BLACK
6
CONTINUOUS
10
6.38987
20
-57.4692
11
6.38902
21
-57.4671
0
LINE
8
BLACK
6
CONTINUOUS
10
6.38902
20
-57.4671
11
6.38814
21
-57.465
0
LINE
8
BLACK
6
CONTINUOUS
10
6.38814
20
-57.465
11
6.34233
21
-57.317
0
LINE
8
BLACK
6
CONTINUOUS
10
6.34233
20
-57.317
11
6.34223
21
-57.3167
0
LINE
8
BLACK
6
CONTINUOUS
10
6.34223
20
-57.3167
11
6.3418
21
-57.3144
0
LINE
8
BLACK
6
CONTINUOUS
10
6.3418
20
-57.3144
11
6.34135
21
-57.3122
0
LINE
8
BLACK
6
CONTINUOUS
10
6.34135
20
-57.3122
11
6.32516
21
-57.1582
0
LINE
8
BLACK
6
CONTINUOUS
10
6.32516
20
-57.1582
11
6.32512
21
-57.1578
0
LINE
8
BLACK
6
CONTINUOUS
10
6.32512
20
-57.1578
11
6.32513
21
-57.1567
0
LINE
8
BLACK
6
CONTINUOUS
10
6.32513
20
-57.1567
11
6.32502
21
-57.1556
0
LINE
8
BLACK
6
CONTINUOUS
10
6.32502
20
-57.1556
11
6.325
21
-57.1512
0
LINE
8
BLACK
6
CONTINUOUS
10
6.325
20
-57.1512
11
6.325
21
-57.1512
0
LINE
8
BLACK
6
CONTINUOUS
10
6.325
20
-57.1512
11
6.325
21
-57.1504
0
LINE
8
BLACK
6
CONTINUOUS
10
6.325
20
-57.1504
11
6.325
21
-57.1501
0
LINE
8
BLACK
6
CONTINUOUS
10
6.325
20
-57.1501
11
6.325
21
-57.1497
0
LINE
8
BLACK
6
CONTINUOUS
10
6.325
20
-57.1497
11
6.325
21
-47.6238
0
LINE
8
BLACK
6
CONTINUOUS
10
6.325
20
-47.6238
11
6.32512
21
-47.6226
0
LINE
8
BLACK
6
CONTINUOUS
10
6.32512
20
-47.6226
11
6.32512
21
-47.6226
0
LINE
8
BLACK
6
CONTINUOUS
10
6.32512
20
-47.6226
11
6.34024
21
-47.4684
0
LINE
8
BLACK
6
CONTINUOUS
10
6.34024
20
-47.4684
11
6.34027
21
-47.468
0
LINE
8
BLACK
6
CONTINUOUS
10
6.34027
20
-47.468
11
6.34075
21
-47.4658
0
LINE
8
BLACK
6
CONTINUOUS
10
6.34075
20
-47.4658
11
6.34118
21
-47.4636
0
LINE
8
BLACK
6
CONTINUOUS
10
6.34118
20
-47.4636
11
6.38596
21
-47.3153
0
LINE
8
BLACK
6
CONTINUOUS
10
6.38596
20
-47.3153
11
6.38606
21
-47.315
0
LINE
8
BLACK
6
CONTINUOUS
10
6.38606
20
-47.315
11
6.38696
21
-47.3129
0
LINE
8
BLACK
6
CONTINUOUS
10
6.38696
20
-47.3129
11
6.38782
21
-47.3108
0
LINE
8
BLACK
6
CONTINUOUS
10
6.38782
20
-47.3108
11
6.46054
21
-47.174
0
LINE
8
BLACK
6
CONTINUOUS
10
6.46054
20
-47.174
11
6.46071
21
-47.1737
0
LINE
8
BLACK
6
CONTINUOUS
10
6.46071
20
-47.1737
11
6.46198
21
-47.1718
0
LINE
8
BLACK
6
CONTINUOUS
10
6.46198
20
-47.1718
11
6.46324
21
-47.1699
0
LINE
8
BLACK
6
CONTINUOUS
10
6.46324
20
-47.1699
11
6.56115
21
-47.0499
0
LINE
8
BLACK
6
CONTINUOUS
10
6.56115
20
-47.0499
11
6.56138
21
-47.0496
0
LINE
8
BLACK
6
CONTINUOUS
10
6.56138
20
-47.0496
11
6.56298
21
-47.0481
0
LINE
8
BLACK
6
CONTINUOUS
10
6.56298
20
-47.0481
11
6.56459
21
-47.0464
0
LINE
8
BLACK
6
CONTINUOUS
10
6.56459
20
-47.0464
11
6.68396
21
-46.9477
0
LINE
8
BLACK
6
CONTINUOUS
10
6.68396
20
-46.9477
11
6.68423
21
-46.9475
0
LINE
8
BLACK
6
CONTINUOUS
10
6.68423
20
-46.9475
11
6.68614
21
-46.9462
0
LINE
8
BLACK
6
CONTINUOUS
10
6.68614
20
-46.9462
11
6.688
21
-46.945
0
LINE
8
BLACK
6
CONTINUOUS
10
6.688
20
-46.945
11
6.82426
21
-46.8713
0
LINE
8
BLACK
6
CONTINUOUS
10
6.82426
20
-46.8713
11
6.82427
21
-46.8713
0
LINE
8
BLACK
6
CONTINUOUS
10
6.82427
20
-46.8713
11
6.82427
21
-46.8713
0
LINE
8
BLACK
6
CONTINUOUS
10
6.82427
20
-46.8713
11
6.82458
21
-46.8711
0
LINE
8
BLACK
6
CONTINUOUS
10
6.82458
20
-46.8711
11
6.8267
21
-46.8703
0
LINE
8
BLACK
6
CONTINUOUS
10
6.8267
20
-46.8703
11
6.82877
21
-46.8694
0
LINE
8
BLACK
6
CONTINUOUS
10
6.82877
20
-46.8694
11
6.97675
21
-46.8236
0
LINE
8
BLACK
6
CONTINUOUS
10
6.97675
20
-46.8236
11
6.97708
21
-46.8235
0
LINE
8
BLACK
6
CONTINUOUS
10
6.97708
20
-46.8235
11
6.97932
21
-46.8231
0
LINE
8
BLACK
6
CONTINUOUS
10
6.97932
20
-46.8231
11
6.98153
21
-46.8226
0
LINE
8
BLACK
6
CONTINUOUS
10
6.98153
20
-46.8226
11
7.1356
21
-46.8064
0
LINE
8
BLACK
6
CONTINUOUS
10
7.1356
20
-46.8064
11
7.13594
21
-46.8064
0
LINE
8
BLACK
6
CONTINUOUS
10
7.13594
20
-46.8064
11
7.13704
21
-46.8064
0
LINE
8
BLACK
6
CONTINUOUS
10
7.13704
20
-46.8064
11
7.13812
21
-46.8063
0
LINE
8
BLACK
6
CONTINUOUS
10
7.13812
20
-46.8063
11
7.14249
21
-46.8063
0
LINE
8
BLACK
6
CONTINUOUS
10
7.14249
20
-46.8063
11
7.14253
21
-46.8062
0
LINE
8
BLACK
6
CONTINUOUS
10
7.14253
20
-46.8062
11
11.9062
21
-46.8062
0
LINE
8
BLACK
6
CONTINUOUS
10
11.9062
20
-46.8062
11
11.9104
21
-46.8062
0
LINE
8
BLACK
6
CONTINUOUS
10
11.9104
20
-46.8062
11
12.0608
21
-46.7904
0
LINE
8
BLACK
6
CONTINUOUS
10
12.0608
20
-46.7904
11
12.2041
21
-46.7461
0
LINE
8
BLACK
6
CONTINUOUS
10
12.2041
20
-46.7461
11
12.3361
21
-46.6747
0
LINE
8
BLACK
6
CONTINUOUS
10
12.3361
20
-46.6747
11
12.4516
21
-46.5791
0
LINE
8
BLACK
6
CONTINUOUS
10
12.4516
20
-46.5791
11
12.5465
21
-46.4629
0
LINE
8
BLACK
6
CONTINUOUS
10
12.5465
20
-46.4629
11
12.6169
21
-46.3304
0
LINE
8
BLACK
6
CONTINUOUS
10
12.6169
20
-46.3304
11
12.6602
21
-46.1868
0
LINE
8
BLACK
6
CONTINUOUS
10
12.6602
20
-46.1868
11
12.675
21
-46.0363
0
LINE
8
BLACK
6
CONTINUOUS
10
12.675
20
-46.0363
11
12.675
21
-23.8113
0
LINE
8
BLACK
6
CONTINUOUS
10
12.675
20
-23.8113
11
12.6751
21
-23.8101
0
LINE
8
BLACK
6
CONTINUOUS
10
12.6751
20
-23.8101
11
12.6751
21
-23.8101
0
LINE
8
BLACK
6
CONTINUOUS
10
12.6751
20
-23.8101
11
12.7356
21
-23.1934
0
LINE
8
BLACK
6
CONTINUOUS
10
12.7356
20
-23.1934
11
12.7356
21
-23.193
0
LINE
8
BLACK
6
CONTINUOUS
10
12.7356
20
-23.193
11
12.7361
21
-23.1908
0
LINE
8
BLACK
6
CONTINUOUS
10
12.7361
20
-23.1908
11
12.7365
21
-23.1886
0
LINE
8
BLACK
6
CONTINUOUS
10
12.7365
20
-23.1886
11
12.9156
21
-22.5954
0
LINE
8
BLACK
6
CONTINUOUS
10
12.9156
20
-22.5954
11
12.9157
21
-22.595
0
LINE
8
BLACK
6
CONTINUOUS
10
12.9157
20
-22.595
11
12.9166
21
-22.593
0
LINE
8
BLACK
6
CONTINUOUS
10
12.9166
20
-22.593
11
12.9175
21
-22.5909
0
LINE
8
BLACK
6
CONTINUOUS
10
12.9175
20
-22.5909
11
13.2084
21
-22.0437
0
LINE
8
BLACK
6
CONTINUOUS
10
13.2084
20
-22.0437
11
13.2086
21
-22.0434
0
LINE
8
BLACK
6
CONTINUOUS
10
13.2086
20
-22.0434
11
13.2098
21
-22.0416
0
LINE
8
BLACK
6
CONTINUOUS
10
13.2098
20
-22.0416
11
13.2111
21
-22.0397
0
LINE
8
BLACK
6
CONTINUOUS
10
13.2111
20
-22.0397
11
13.6027
21
-21.5595
0
LINE
8
BLACK
6
CONTINUOUS
10
13.6027
20
-21.5595
11
13.603
21
-21.5592
0
LINE
8
BLACK
6
CONTINUOUS
10
13.603
20
-21.5592
11
13.6046
21
-21.5576
0
LINE
8
BLACK
6
CONTINUOUS
10
13.6046
20
-21.5576
11
13.6062
21
-21.556
0
LINE
8
BLACK
6
CONTINUOUS
10
13.6062
20
-21.556
11
14.0836
21
-21.161
0
LINE
8
BLACK
6
CONTINUOUS
10
14.0836
20
-21.161
11
14.0839
21
-21.1608
0
LINE
8
BLACK
6
CONTINUOUS
10
14.0839
20
-21.1608
11
14.0858
21
-21.1596
0
LINE
8
BLACK
6
CONTINUOUS
10
14.0858
20
-21.1596
11
14.0877
21
-21.1583
0
LINE
8
BLACK
6
CONTINUOUS
10
14.0877
20
-21.1583
11
14.6327
21
-20.8636
0
LINE
8
BLACK
6
CONTINUOUS
10
14.6327
20
-20.8636
11
14.6331
21
-20.8634
0
LINE
8
BLACK
6
CONTINUOUS
10
14.6331
20
-20.8634
11
14.6352
21
-20.8626
0
LINE
8
BLACK
6
CONTINUOUS
10
14.6352
20
-20.8626
11
14.6372
21
-20.8617
0
LINE
8
BLACK
6
CONTINUOUS
10
14.6372
20
-20.8617
11
15.2292
21
-20.6785
0
LINE
8
BLACK
6
CONTINUOUS
10
15.2292
20
-20.6785
11
15.2292
21
-20.6785
0
LINE
8
BLACK
6
CONTINUOUS
10
15.2292
20
-20.6785
11
15.2295
21
-20.6784
0
LINE
8
BLACK
6
CONTINUOUS
10
15.2295
20
-20.6784
11
15.2318
21
-20.6779
0
LINE
8
BLACK
6
CONTINUOUS
10
15.2318
20
-20.6779
11
15.234
21
-20.6775
0
LINE
8
BLACK
6
CONTINUOUS
10
15.234
20
-20.6775
11
15.8502
21
-20.6127
0
LINE
8
BLACK
6
CONTINUOUS
10
15.8502
20
-20.6127
11
15.8506
21
-20.6127
0
LINE
8
BLACK
6
CONTINUOUS
10
15.8506
20
-20.6127
11
15.8517
21
-20.6127
0
LINE
8
BLACK
6
CONTINUOUS
10
15.8517
20
-20.6127
11
15.8527
21
-20.6126
0
LINE
8
BLACK
6
CONTINUOUS
10
15.8527
20
-20.6126
11
15.8737
21
-20.6125
0
LINE
8
BLACK
6
CONTINUOUS
10
15.8737
20
-20.6125
11
15.8738
21
-20.6125
0
LINE
8
BLACK
6
CONTINUOUS
10
15.8738
20
-20.6125
11
339.726
21
-20.6125
0
LINE
8
BLACK
6
CONTINUOUS
10
339.726
20
-20.6125
11
339.727
21
-20.6126
0
LINE
8
BLACK
6
CONTINUOUS
10
339.727
20
-20.6126
11
339.727
21
-20.6126
0
LINE
8
BLACK
6
CONTINUOUS
10
339.727
20
-20.6126
11
340.344
21
-20.6731
0
LINE
8
BLACK
6
CONTINUOUS
10
340.344
20
-20.6731
11
340.344
21
-20.6731
0
LINE
8
BLACK
6
CONTINUOUS
10
340.344
20
-20.6731
11
340.347
21
-20.6736
0
LINE
8
BLACK
6
CONTINUOUS
10
340.347
20
-20.6736
11
340.349
21
-20.674
0
LINE
8
BLACK
6
CONTINUOUS
10
340.349
20
-20.674
11
340.942
21
-20.8531
0
LINE
8
BLACK
6
CONTINUOUS
10
340.942
20
-20.8531
11
340.942
21
-20.8532
0
LINE
8
BLACK
6
CONTINUOUS
10
340.942
20
-20.8532
11
340.945
21
-20.8541
0
LINE
8
BLACK
6
CONTINUOUS
10
340.945
20
-20.8541
11
340.947
21
-20.855
0
LINE
8
BLACK
6
CONTINUOUS
10
340.947
20
-20.855
11
341.494
21
-21.1459
0
LINE
8
BLACK
6
CONTINUOUS
10
341.494
20
-21.1459
11
341.494
21
-21.1461
0
LINE
8
BLACK
6
CONTINUOUS
10
341.494
20
-21.1461
11
341.496
21
-21.1473
0
LINE
8
BLACK
6
CONTINUOUS
10
341.496
20
-21.1473
11
341.498
21
-21.1486
0
LINE
8
BLACK
6
CONTINUOUS
10
341.498
20
-21.1486
11
341.978
21
-21.5402
0
LINE
8
BLACK
6
CONTINUOUS
10
341.978
20
-21.5402
11
341.978
21
-21.5405
0
LINE
8
BLACK
6
CONTINUOUS
10
341.978
20
-21.5405
11
341.98
21
-21.5421
0
LINE
8
BLACK
6
CONTINUOUS
10
341.98
20
-21.5421
11
341.981
21
-21.5437
0
LINE
8
BLACK
6
CONTINUOUS
10
341.981
20
-21.5437
11
342.376
21
-22.0211
0
LINE
8
BLACK
6
CONTINUOUS
10
342.376
20
-22.0211
11
342.377
21
-22.0214
0
LINE
8
BLACK
6
CONTINUOUS
10
342.377
20
-22.0214
11
342.378
21
-22.0233
0
LINE
8
BLACK
6
CONTINUOUS
10
342.378
20
-22.0233
11
342.379
21
-22.0252
0
LINE
8
BLACK
6
CONTINUOUS
10
342.379
20
-22.0252
11
342.674
21
-22.5702
0
LINE
8
BLACK
6
CONTINUOUS
10
342.674
20
-22.5702
11
342.674
21
-22.5706
0
LINE
8
BLACK
6
CONTINUOUS
10
342.674
20
-22.5706
11
342.675
21
-22.5727
0
LINE
8
BLACK
6
CONTINUOUS
10
342.675
20
-22.5727
11
342.676
21
-22.5747
0
LINE
8
BLACK
6
CONTINUOUS
10
342.676
20
-22.5747
11
342.859
21
-23.1667
0
LINE
8
BLACK
6
CONTINUOUS
10
342.859
20
-23.1667
11
342.859
21
-23.167
0
LINE
8
BLACK
6
CONTINUOUS
10
342.859
20
-23.167
11
342.86
21
-23.1693
0
LINE
8
BLACK
6
CONTINUOUS
10
342.86
20
-23.1693
11
342.86
21
-23.1715
0
LINE
8
BLACK
6
CONTINUOUS
10
342.86
20
-23.1715
11
342.925
21
-23.7877
0
LINE
8
BLACK
6
CONTINUOUS
10
342.925
20
-23.7877
11
342.925
21
-23.7881
0
LINE
8
BLACK
6
CONTINUOUS
10
342.925
20
-23.7881
11
342.925
21
-23.7892
0
LINE
8
BLACK
6
CONTINUOUS
10
342.925
20
-23.7892
11
342.925
21
-23.7902
0
LINE
8
BLACK
6
CONTINUOUS
10
342.925
20
-23.7902
11
342.925
21
-23.8112
0
LINE
8
BLACK
6
CONTINUOUS
10
342.925
20
-23.8112
11
342.925
21
-23.8113
0
LINE
8
BLACK
6
CONTINUOUS
10
342.925
20
-23.8113
11
342.925
21
-138.114
0
LINE
8
BLACK
6
CONTINUOUS
10
342.925
20
-138.114
11
342.925
21
-138.115
0
LINE
8
BLACK
6
CONTINUOUS
10
342.925
20
-138.115
11
342.925
21
-138.115
0
LINE
8
BLACK
6
CONTINUOUS
10
342.925
20
-138.115
11
342.864
21
-138.732
0
LINE
8
BLACK
6
CONTINUOUS
10
342.864
20
-138.732
11
342.864
21
-138.732
0
LINE
8
BLACK
6
CONTINUOUS
10
342.864
20
-138.732
11
342.864
21
-138.734
0
LINE
8
BLACK
6
CONTINUOUS
10
342.864
20
-138.734
11
342.863
21
-138.736
0
LINE
8
BLACK
6
CONTINUOUS
10
342.863
20
-138.736
11
342.684
21
-139.33
0
LINE
8
BLACK
6
CONTINUOUS
10
342.684
20
-139.33
11
342.684
21
-139.33
0
LINE
8
BLACK
6
CONTINUOUS
10
342.684
20
-139.33
11
342.683
21
-139.332
0
LINE
8
BLACK
6
CONTINUOUS
10
342.683
20
-139.332
11
342.683
21
-139.334
0
LINE
8
BLACK
6
CONTINUOUS
10
342.683
20
-139.334
11
342.392
21
-139.881
0
LINE
8
BLACK
6
CONTINUOUS
10
342.392
20
-139.881
11
342.391
21
-139.882
0
LINE
8
BLACK
6
CONTINUOUS
10
342.391
20
-139.882
11
342.39
21
-139.883
0
LINE
8
BLACK
6
CONTINUOUS
10
342.39
20
-139.883
11
342.389
21
-139.885
0
LINE
8
BLACK
6
CONTINUOUS
10
342.389
20
-139.885
11
341.997
21
-140.366
0
LINE
8
BLACK
6
CONTINUOUS
10
341.997
20
-140.366
11
341.997
21
-140.366
0
LINE
8
BLACK
6
CONTINUOUS
10
341.997
20
-140.366
11
341.995
21
-140.367
0
LINE
8
BLACK
6
CONTINUOUS
10
341.995
20
-140.367
11
341.994
21
-140.369
0
LINE
8
BLACK
6
CONTINUOUS
10
341.994
20
-140.369
11
341.516
21
-140.764
0
LINE
8
BLACK
6
CONTINUOUS
10
341.516
20
-140.764
11
341.516
21
-140.764
0
LINE
8
BLACK
6
CONTINUOUS
10
341.516
20
-140.764
11
341.514
21
-140.765
0
LINE
8
BLACK
6
CONTINUOUS
10
341.514
20
-140.765
11
341.512
21
-140.767
0
LINE
8
BLACK
6
CONTINUOUS
10
341.512
20
-140.767
11
340.967
21
-141.061
0
LINE
8
BLACK
6
CONTINUOUS
10
340.967
20
-141.061
11
340.967
21
-141.062
0
LINE
8
BLACK
6
CONTINUOUS
10
340.967
20
-141.062
11
340.965
21
-141.062
0
LINE
8
BLACK
6
CONTINUOUS
10
340.965
20
-141.062
11
340.963
21
-141.063
0
LINE
8
BLACK
6
CONTINUOUS
10
340.963
20
-141.063
11
340.371
21
-141.247
0
LINE
8
BLACK
6
CONTINUOUS
10
340.371
20
-141.247
11
340.37
21
-141.247
0
LINE
8
BLACK
6
CONTINUOUS
10
340.37
20
-141.247
11
340.368
21
-141.247
0
LINE
8
BLACK
6
CONTINUOUS
10
340.368
20
-141.247
11
340.366
21
-141.248
0
LINE
8
BLACK
6
CONTINUOUS
10
340.366
20
-141.248
11
339.75
21
-141.312
0
LINE
8
BLACK
6
CONTINUOUS
10
339.75
20
-141.312
11
339.749
21
-141.312
0
LINE
8
BLACK
6
CONTINUOUS
10
339.749
20
-141.312
11
339.748
21
-141.312
0
LINE
8
BLACK
6
CONTINUOUS
10
339.748
20
-141.312
11
339.747
21
-141.312
0
LINE
8
BLACK
6
CONTINUOUS
10
339.747
20
-141.312
11
339.726
21
-141.312
0
LINE
8
BLACK
6
CONTINUOUS
10
339.726
20
-141.312
11
339.726
21
-141.312
0
LINE
8
BLACK
6
CONTINUOUS
10
339.726
20
-141.312
11
15.8738
21
-141.312
0
LINE
8
BLACK
6
CONTINUOUS
10
15.8738
20
-141.312
11
15.8726
21
-141.312
0
LINE
8
BLACK
6
CONTINUOUS
10
7.13956
20
-46.8563
11
6.9892
21
-46.8721
0
LINE
8
BLACK
6
CONTINUOUS
10
6.9892
20
-46.8721
11
6.84589
21
-46.9164
0
LINE
8
BLACK
6
CONTINUOUS
10
6.84589
20
-46.9164
11
6.71394
21
-46.9878
0
LINE
8
BLACK
6
CONTINUOUS
10
6.71394
20
-46.9878
11
6.59835
21
-47.0834
0
LINE
8
BLACK
6
CONTINUOUS
10
6.59835
20
-47.0834
11
6.50354
21
-47.1996
0
LINE
8
BLACK
6
CONTINUOUS
10
6.50354
20
-47.1996
11
6.43312
21
-47.3321
0
LINE
8
BLACK
6
CONTINUOUS
10
6.43312
20
-47.3321
11
6.38976
21
-47.4757
0
LINE
8
BLACK
6
CONTINUOUS
10
6.38976
20
-47.4757
11
6.375
21
-47.6262
0
LINE
8
BLACK
6
CONTINUOUS
10
6.375
20
-47.6262
11
6.375
21
-57.1499
0
LINE
8
BLACK
6
CONTINUOUS
10
6.375
20
-57.1499
11
6.37501
21
-57.1542
0
LINE
8
BLACK
6
CONTINUOUS
10
6.37501
20
-57.1542
11
6.39082
21
-57.3046
0
LINE
8
BLACK
6
CONTINUOUS
10
6.39082
20
-57.3046
11
6.43518
21
-57.4479
0
LINE
8
BLACK
6
CONTINUOUS
10
6.43518
20
-57.4479
11
6.50652
21
-57.5798
0
LINE
8
BLACK
6
CONTINUOUS
10
6.50652
20
-57.5798
11
6.60215
21
-57.6954
0
LINE
8
BLACK
6
CONTINUOUS
10
6.60215
20
-57.6954
11
6.7184
21
-57.7902
0
LINE
8
BLACK
6
CONTINUOUS
10
6.7184
20
-57.7902
11
6.85085
21
-57.8606
0
LINE
8
BLACK
6
CONTINUOUS
10
6.85085
20
-57.8606
11
6.99445
21
-57.904
0
LINE
8
BLACK
6
CONTINUOUS
10
6.99445
20
-57.904
11
7.14497
21
-57.9187
0
LINE
8
BLACK
6
CONTINUOUS
10
7.14497
20
-57.9187
11
11.9075
21
-57.9187
0
LINE
8
BLACK
6
CONTINUOUS
10
11.9075
20
-57.9187
11
11.9087
21
-57.9189
0
LINE
8
BLACK
6
CONTINUOUS
10
11.9087
20
-57.9189
11
11.9087
21
-57.9189
0
LINE
8
BLACK
6
CONTINUOUS
10
11.9087
20
-57.9189
11
12.0629
21
-57.934
0
LINE
8
BLACK
6
CONTINUOUS
10
12.0629
20
-57.934
11
12.0629
21
-57.934
0
LINE
8
BLACK
6
CONTINUOUS
10
12.0629
20
-57.934
11
12.0632
21
-57.934
0
LINE
8
BLACK
6
CONTINUOUS
10
12.0632
20
-57.934
11
12.0654
21
-57.9345
0
LINE
8
BLACK
6
CONTINUOUS
10
12.0654
20
-57.9345
11
12.0676
21
-57.9349
0
LINE
8
BLACK
6
CONTINUOUS
10
12.0676
20
-57.9349
11
12.216
21
-57.9797
0
LINE
8
BLACK
6
CONTINUOUS
10
12.216
20
-57.9797
11
12.2163
21
-57.9798
0
LINE
8
BLACK
6
CONTINUOUS
10
12.2163
20
-57.9798
11
12.2184
21
-57.9807
0
LINE
8
BLACK
6
CONTINUOUS
10
12.2184
20
-57.9807
11
12.2205
21
-57.9816
0
LINE
8
BLACK
6
CONTINUOUS
10
12.2205
20
-57.9816
11
12.3572
21
-58.0543
0
LINE
8
BLACK
6
CONTINUOUS
10
12.3572
20
-58.0543
11
12.3575
21
-58.0545
0
LINE
8
BLACK
6
CONTINUOUS
10
12.3575
20
-58.0545
11
12.3594
21
-58.0557
0
LINE
8
BLACK
6
CONTINUOUS
10
12.3594
20
-58.0557
11
12.3613
21
-58.057
0
LINE
8
BLACK
6
CONTINUOUS
10
12.3613
20
-58.057
11
12.4814
21
-58.1549
0
LINE
8
BLACK
6
CONTINUOUS
10
12.4814
20
-58.1549
11
12.4816
21
-58.1551
0
LINE
8
BLACK
6
CONTINUOUS
10
12.4816
20
-58.1551
11
12.4832
21
-58.1567
0
LINE
8
BLACK
6
CONTINUOUS
10
12.4832
20
-58.1567
11
12.4848
21
-58.1583
0
LINE
8
BLACK
6
CONTINUOUS
10
12.4848
20
-58.1583
11
12.5836
21
-58.2777
0
LINE
8
BLACK
6
CONTINUOUS
10
12.5836
20
-58.2777
11
12.5838
21
-58.278
0
LINE
8
BLACK
6
CONTINUOUS
10
12.5838
20
-58.278
11
12.585
21
-58.2799
0
LINE
8
BLACK
6
CONTINUOUS
10
12.585
20
-58.2799
11
12.5863
21
-58.2817
0
LINE
8
BLACK
6
CONTINUOUS
10
12.5863
20
-58.2817
11
12.66
21
-58.418
0
LINE
8
BLACK
6
CONTINUOUS
10
12.66
20
-58.418
11
12.66
21
-58.418
0
LINE
8
BLACK
6
CONTINUOUS
10
12.66
20
-58.418
11
12.66
21
-58.418
0
LINE
8
BLACK
6
CONTINUOUS
10
12.66
20
-58.418
11
12.6601
21
-58.4183
0
LINE
8
BLACK
6
CONTINUOUS
10
12.6601
20
-58.4183
11
12.661
21
-58.4204
0
LINE
8
BLACK
6
CONTINUOUS
10
12.661
20
-58.4204
11
12.6619
21
-58.4225
0
LINE
8
BLACK
6
CONTINUOUS
10
12.6619
20
-58.4225
11
12.7077
21
-58.5705
0
LINE
8
BLACK
6
CONTINUOUS
10
12.7077
20
-58.5705
11
12.7078
21
-58.5708
0
LINE
8
BLACK
6
CONTINUOUS
10
12.7078
20
-58.5708
11
12.7082
21
-58.5731
0
LINE
8
BLACK
6
CONTINUOUS
10
12.7082
20
-58.5731
11
12.7087
21
-58.5753
0
LINE
8
BLACK
6
CONTINUOUS
10
12.7087
20
-58.5753
11
12.7248
21
-58.7293
0
LINE
8
BLACK
6
CONTINUOUS
10
12.7248
20
-58.7293
11
12.7249
21
-58.7297
0
LINE
8
BLACK
6
CONTINUOUS
10
12.7249
20
-58.7297
11
12.7249
21
-58.7308
0
LINE
8
BLACK
6
CONTINUOUS
10
12.7249
20
-58.7308
11
12.725
21
-58.7319
0
LINE
8
BLACK
6
CONTINUOUS
10
12.725
20
-58.7319
11
12.725
21
-58.7362
0
LINE
8
BLACK
6
CONTINUOUS
10
12.725
20
-58.7362
11
12.725
21
-58.7363
0
LINE
8
BLACK
6
CONTINUOUS
10
12.725
20
-58.7363
11
12.725
21
-138.112
0
LINE
8
BLACK
6
CONTINUOUS
10
12.725
20
-138.112
11
12.7251
21
-138.133
0
LINE
8
BLACK
6
CONTINUOUS
10
12.7251
20
-138.133
11
12.7895
21
-138.746
0
LINE
8
BLACK
6
CONTINUOUS
10
12.7895
20
-138.746
11
12.9712
21
-139.333
0
LINE
8
BLACK
6
CONTINUOUS
10
12.9712
20
-139.333
11
13.2636
21
-139.874
0
LINE
8
BLACK
6
CONTINUOUS
10
13.2636
20
-139.874
11
13.6555
21
-140.348
0
LINE
8
BLACK
6
CONTINUOUS
10
13.6555
20
-140.348
11
14.1319
21
-140.736
0
LINE
8
BLACK
6
CONTINUOUS
10
14.1319
20
-140.736
11
14.6747
21
-141.025
0
LINE
8
BLACK
6
CONTINUOUS
10
14.6747
20
-141.025
11
15.2632
21
-141.202
0
LINE
8
BLACK
6
CONTINUOUS
10
15.2632
20
-141.202
11
15.8762
21
-141.262
0
LINE
8
BLACK
6
CONTINUOUS
10
15.8762
20
-141.262
11
339.725
21
-141.262
0
LINE
8
BLACK
6
CONTINUOUS
10
339.725
20
-141.262
11
339.746
21
-141.262
0
LINE
8
BLACK
6
CONTINUOUS
10
339.746
20
-141.262
11
340.358
21
-141.198
0
LINE
8
BLACK
6
CONTINUOUS
10
340.358
20
-141.198
11
340.946
21
-141.016
0
LINE
8
BLACK
6
CONTINUOUS
10
340.946
20
-141.016
11
341.486
21
-140.724
0
LINE
8
BLACK
6
CONTINUOUS
10
341.486
20
-140.724
11
341.96
21
-140.332
0
LINE
8
BLACK
6
CONTINUOUS
10
341.96
20
-140.332
11
342.349
21
-139.856
0
LINE
8
BLACK
6
CONTINUOUS
10
342.349
20
-139.856
11
342.637
21
-139.313
0
LINE
8
BLACK
6
CONTINUOUS
10
342.637
20
-139.313
11
342.815
21
-138.724
0
LINE
8
BLACK
6
CONTINUOUS
10
342.815
20
-138.724
11
342.875
21
-138.111
0
LINE
8
BLACK
6
CONTINUOUS
10
342.875
20
-138.111
11
342.875
21
-23.8126
0
LINE
8
BLACK
6
CONTINUOUS
10
342.875
20
-23.8126
11
342.875
21
-23.8126
0
LINE
8
BLACK
6
CONTINUOUS
10
342.875
20
-23.8126
11
342.875
21
-23.7917
0
LINE
8
BLACK
6
CONTINUOUS
10
342.875
20
-23.7917
11
342.811
21
-23.1791
0
LINE
8
BLACK
6
CONTINUOUS
10
342.811
20
-23.1791
11
342.629
21
-22.5919
0
LINE
8
BLACK
6
CONTINUOUS
10
342.629
20
-22.5919
11
342.336
21
-22.0511
0
LINE
8
BLACK
6
CONTINUOUS
10
342.336
20
-22.0511
11
341.945
21
-21.5774
0
LINE
8
BLACK
6
CONTINUOUS
10
341.945
20
-21.5774
11
341.468
21
-21.1889
0
LINE
8
BLACK
6
CONTINUOUS
10
341.468
20
-21.1889
11
340.925
21
-20.9003
0
LINE
8
BLACK
6
CONTINUOUS
10
340.925
20
-20.9003
11
340.337
21
-20.7226
0
LINE
8
BLACK
6
CONTINUOUS
10
340.337
20
-20.7226
11
339.724
21
-20.6625
0
LINE
8
BLACK
6
CONTINUOUS
10
339.724
20
-20.6625
11
15.8751
21
-20.6625
0
LINE
8
BLACK
6
CONTINUOUS
10
15.8751
20
-20.6625
11
15.8542
21
-20.6626
0
LINE
8
BLACK
6
CONTINUOUS
10
15.8542
20
-20.6626
11
15.2416
21
-20.727
0
LINE
8
BLACK
6
CONTINUOUS
10
15.2416
20
-20.727
11
14.6544
21
-20.9087
0
LINE
8
BLACK
6
CONTINUOUS
10
14.6544
20
-20.9087
11
14.1136
21
-21.2011
0
LINE
8
BLACK
6
CONTINUOUS
10
14.1136
20
-21.2011
11
13.6399
21
-21.593
0
LINE
8
BLACK
6
CONTINUOUS
10
13.6399
20
-21.593
11
13.2514
21
-22.0694
0
LINE
8
BLACK
6
CONTINUOUS
10
13.2514
20
-22.0694
11
12.9628
21
-22.6122
0
LINE
8
BLACK
6
CONTINUOUS
10
12.9628
20
-22.6122
11
12.7851
21
-23.2007
0
LINE
8
BLACK
6
CONTINUOUS
10
12.7851
20
-23.2007
11
12.725
21
-23.8137
0
LINE
8
BLACK
6
CONTINUOUS
10
12.725
20
-23.8137
11
12.725
21
-46.0387
0
LINE
8
BLACK
6
CONTINUOUS
10
12.725
20
-46.0387
11
12.7249
21
-46.0399
0
LINE
8
BLACK
6
CONTINUOUS
10
12.7249
20
-46.0399
11
12.7249
21
-46.0399
0
LINE
8
BLACK
6
CONTINUOUS
10
12.7249
20
-46.0399
11
12.7098
21
-46.1941
0
LINE
8
BLACK
6
CONTINUOUS
10
12.7098
20
-46.1941
11
12.7097
21
-46.1945
0
LINE
8
BLACK
6
CONTINUOUS
10
12.7097
20
-46.1945
11
12.7092
21
-46.1967
0
LINE
8
BLACK
6
CONTINUOUS
10
12.7092
20
-46.1967
11
12.7088
21
-46.1989
0
LINE
8
BLACK
6
CONTINUOUS
10
12.7088
20
-46.1989
11
12.664
21
-46.3472
0
LINE
8
BLACK
6
CONTINUOUS
10
12.664
20
-46.3472
11
12.6639
21
-46.3475
0
LINE
8
BLACK
6
CONTINUOUS
10
12.6639
20
-46.3475
11
12.663
21
-46.3496
0
LINE
8
BLACK
6
CONTINUOUS
10
12.663
20
-46.3496
11
12.6622
21
-46.3517
0
LINE
8
BLACK
6
CONTINUOUS
10
12.6622
20
-46.3517
11
12.5895
21
-46.4885
0
LINE
8
BLACK
6
CONTINUOUS
10
12.5895
20
-46.4885
11
12.5893
21
-46.4888
0
LINE
8
BLACK
6
CONTINUOUS
10
12.5893
20
-46.4888
11
12.588
21
-46.4907
0
LINE
8
BLACK
6
CONTINUOUS
10
12.588
20
-46.4907
11
12.5868
21
-46.4926
0
LINE
8
BLACK
6
CONTINUOUS
10
12.5868
20
-46.4926
11
12.4888
21
-46.6126
0
LINE
8
BLACK
6
CONTINUOUS
10
12.4888
20
-46.6126
11
12.4886
21
-46.6129
0
LINE
8
BLACK
6
CONTINUOUS
10
12.4886
20
-46.6129
11
12.487
21
-46.6144
0
LINE
8
BLACK
6
CONTINUOUS
10
12.487
20
-46.6144
11
12.4854
21
-46.6161
0
LINE
8
BLACK
6
CONTINUOUS
10
12.4854
20
-46.6161
11
12.366
21
-46.7148
0
LINE
8
BLACK
6
CONTINUOUS
10
12.366
20
-46.7148
11
12.3658
21
-46.715
0
LINE
8
BLACK
6
CONTINUOUS
10
12.3658
20
-46.715
11
12.3639
21
-46.7163
0
LINE
8
BLACK
6
CONTINUOUS
10
12.3639
20
-46.7163
11
12.362
21
-46.7175
0
LINE
8
BLACK
6
CONTINUOUS
10
12.362
20
-46.7175
11
12.2257
21
-46.7912
0
LINE
8
BLACK
6
CONTINUOUS
10
12.2257
20
-46.7912
11
12.2254
21
-46.7914
0
LINE
8
BLACK
6
CONTINUOUS
10
12.2254
20
-46.7914
11
12.2233
21
-46.7922
0
LINE
8
BLACK
6
CONTINUOUS
10
12.2233
20
-46.7922
11
12.2212
21
-46.7931
0
LINE
8
BLACK
6
CONTINUOUS
10
12.2212
20
-46.7931
11
12.0732
21
-46.8389
0
LINE
8
BLACK
6
CONTINUOUS
10
12.0732
20
-46.8389
11
12.0729
21
-46.839
0
LINE
8
BLACK
6
CONTINUOUS
10
12.0729
20
-46.839
11
12.0707
21
-46.8394
0
LINE
8
BLACK
6
CONTINUOUS
10
12.0707
20
-46.8394
11
12.0685
21
-46.8399
0
LINE
8
BLACK
6
CONTINUOUS
10
12.0685
20
-46.8399
11
11.9144
21
-46.8561
0
LINE
8
BLACK
6
CONTINUOUS
10
11.9144
20
-46.8561
11
11.9141
21
-46.8561
0
LINE
8
BLACK
6
CONTINUOUS
10
11.9141
20
-46.8561
11
11.913
21
-46.8561
0
LINE
8
BLACK
6
CONTINUOUS
10
11.913
20
-46.8561
11
11.9119
21
-46.8562
0
LINE
8
BLACK
6
CONTINUOUS
10
11.9119
20
-46.8562
11
11.9075
21
-46.8562
0
LINE
8
BLACK
6
CONTINUOUS
10
11.9075
20
-46.8562
11
11.9075
21
-46.8562
0
LINE
8
BLACK
6
CONTINUOUS
10
11.9075
20
-46.8562
11
7.14384
21
-46.8562
0
LINE
8
BLACK
6
CONTINUOUS
10
7.14384
20
-46.8562
11
7.13956
21
-46.8563
0
LINE
8
BLACK
6
CONTINUOUS
10
56.9576
20
-119.948
11
56.9598
21
-119.949
0
LINE
8
BLACK
6
CONTINUOUS
10
56.9598
20
-119.949
11
56.962
21
-119.949
0
LINE
8
BLACK
6
CONTINUOUS
10
56.962
20
-119.949
11
57.1302
21
-120
0
LINE
8
BLACK
6
CONTINUOUS
10
57.1302
20
-120
11
57.1305
21
-120
0
LINE
8
BLACK
6
CONTINUOUS
10
57.1305
20
-120
11
57.1326
21
-120.001
0
LINE
8
BLACK
6
CONTINUOUS
10
57.1326
20
-120.001
11
57.1347
21
-120.002
0
LINE
8
BLACK
6
CONTINUOUS
10
57.1347
20
-120.002
11
57.2898
21
-120.084
0
LINE
8
BLACK
6
CONTINUOUS
10
57.2898
20
-120.084
11
57.2901
21
-120.084
0
LINE
8
BLACK
6
CONTINUOUS
10
57.2901
20
-120.084
11
57.292
21
-120.086
0
LINE
8
BLACK
6
CONTINUOUS
10
57.292
20
-120.086
11
57.2939
21
-120.087
0
LINE
8
BLACK
6
CONTINUOUS
10
57.2939
20
-120.087
11
57.43
21
-120.198
0
LINE
8
BLACK
6
CONTINUOUS
10
57.43
20
-120.198
11
57.43
21
-120.198
0
LINE
8
BLACK
6
CONTINUOUS
10
57.43
20
-120.198
11
57.43
21
-120.198
0
LINE
8
BLACK
6
CONTINUOUS
10
57.43
20
-120.198
11
57.4302
21
-120.198
0
LINE
8
BLACK
6
CONTINUOUS
10
57.4302
20
-120.198
11
57.4318
21
-120.2
0
LINE
8
BLACK
6
CONTINUOUS
10
57.4318
20
-120.2
11
57.4334
21
-120.201
0
LINE
8
BLACK
6
CONTINUOUS
10
57.4334
20
-120.201
11
57.5454
21
-120.337
0
LINE
8
BLACK
6
CONTINUOUS
10
57.5454
20
-120.337
11
57.5456
21
-120.337
0
LINE
8
BLACK
6
CONTINUOUS
10
57.5456
20
-120.337
11
57.5469
21
-120.339
0
LINE
8
BLACK
6
CONTINUOUS
10
57.5469
20
-120.339
11
57.5481
21
-120.341
0
LINE
8
BLACK
6
CONTINUOUS
10
57.5481
20
-120.341
11
57.6317
21
-120.495
0
LINE
8
BLACK
6
CONTINUOUS
10
57.6317
20
-120.495
11
57.6317
21
-120.495
0
LINE
8
BLACK
6
CONTINUOUS
10
57.6317
20
-120.495
11
57.6317
21
-120.495
0
LINE
8
BLACK
6
CONTINUOUS
10
57.6317
20
-120.495
11
57.6318
21
-120.496
0
LINE
8
BLACK
6
CONTINUOUS
10
57.6318
20
-120.496
11
57.6327
21
-120.498
0
LINE
8
BLACK
6
CONTINUOUS
10
57.6327
20
-120.498
11
57.6336
21
-120.5
0
LINE
8
BLACK
6
CONTINUOUS
10
57.6336
20
-120.5
11
57.6855
21
-120.668
0
LINE
8
BLACK
6
CONTINUOUS
10
57.6855
20
-120.668
11
57.6856
21
-120.668
0
LINE
8
BLACK
6
CONTINUOUS
10
57.6856
20
-120.668
11
57.686
21
-120.67
0
LINE
8
BLACK
6
CONTINUOUS
10
57.686
20
-120.67
11
57.6865
21
-120.672
0
LINE
8
BLACK
6
CONTINUOUS
10
57.6865
20
-120.672
11
57.7048
21
-120.847
0
LINE
8
BLACK
6
CONTINUOUS
10
57.7048
20
-120.847
11
57.7049
21
-120.847
0
LINE
8
BLACK
6
CONTINUOUS
10
57.7049
20
-120.847
11
57.7049
21
-120.849
0
LINE
8
BLACK
6
CONTINUOUS
10
57.7049
20
-120.849
11
57.705
21
-120.85
0
LINE
8
BLACK
6
CONTINUOUS
10
57.705
20
-120.85
11
57.705
21
-120.855
0
LINE
8
BLACK
6
CONTINUOUS
10
57.705
20
-120.855
11
57.705
21
-120.855
0
LINE
8
BLACK
6
CONTINUOUS
10
57.705
20
-120.855
11
57.705
21
-122.757
0
LINE
8
BLACK
6
CONTINUOUS
10
57.705
20
-122.757
11
57.7049
21
-122.758
0
LINE
8
BLACK
6
CONTINUOUS
10
57.7049
20
-122.758
11
57.7049
21
-122.758
0
LINE
8
BLACK
6
CONTINUOUS
10
57.7049
20
-122.758
11
57.6877
21
-122.933
0
LINE
8
BLACK
6
CONTINUOUS
10
57.6877
20
-122.933
11
57.6877
21
-122.934
0
LINE
8
BLACK
6
CONTINUOUS
10
57.6877
20
-122.934
11
57.6872
21
-122.936
0
LINE
8
BLACK
6
CONTINUOUS
10
57.6872
20
-122.936
11
57.6868
21
-122.938
0
LINE
8
BLACK
6
CONTINUOUS
10
57.6868
20
-122.938
11
57.636
21
-123.106
0
LINE
8
BLACK
6
CONTINUOUS
10
57.636
20
-123.106
11
57.6359
21
-123.107
0
LINE
8
BLACK
6
CONTINUOUS
10
57.6359
20
-123.107
11
57.635
21
-123.109
0
LINE
8
BLACK
6
CONTINUOUS
10
57.635
20
-123.109
11
57.6342
21
-123.111
0
LINE
8
BLACK
6
CONTINUOUS
10
57.6342
20
-123.111
11
57.5517
21
-123.266
0
LINE
8
BLACK
6
CONTINUOUS
10
57.5517
20
-123.266
11
57.5515
21
-123.266
0
LINE
8
BLACK
6
CONTINUOUS
10
57.5515
20
-123.266
11
57.5502
21
-123.268
0
LINE
8
BLACK
6
CONTINUOUS
10
57.5502
20
-123.268
11
57.549
21
-123.27
0
LINE
8
BLACK
6
CONTINUOUS
10
57.549
20
-123.27
11
57.438
21
-123.406
0
LINE
8
BLACK
6
CONTINUOUS
10
57.438
20
-123.406
11
57.4378
21
-123.406
0
LINE
8
BLACK
6
CONTINUOUS
10
57.4378
20
-123.406
11
57.4361
21
-123.408
0
LINE
8
BLACK
6
CONTINUOUS
10
57.4361
20
-123.408
11
57.4345
21
-123.409
0
LINE
8
BLACK
6
CONTINUOUS
10
57.4345
20
-123.409
11
57.2992
21
-123.521
0
LINE
8
BLACK
6
CONTINUOUS
10
57.2992
20
-123.521
11
57.2989
21
-123.522
0
LINE
8
BLACK
6
CONTINUOUS
10
57.2989
20
-123.522
11
57.297
21
-123.523
0
LINE
8
BLACK
6
CONTINUOUS
10
57.297
20
-123.523
11
57.2952
21
-123.524
0
LINE
8
BLACK
6
CONTINUOUS
10
57.2952
20
-123.524
11
57.1407
21
-123.608
0
LINE
8
BLACK
6
CONTINUOUS
10
57.1407
20
-123.608
11
57.1403
21
-123.608
0
LINE
8
BLACK
6
CONTINUOUS
10
57.1403
20
-123.608
11
57.1382
21
-123.609
0
LINE
8
BLACK
6
CONTINUOUS
10
57.1382
20
-123.609
11
57.1362
21
-123.61
0
LINE
8
BLACK
6
CONTINUOUS
10
57.1362
20
-123.61
11
56.9684
21
-123.661
0
LINE
8
BLACK
6
CONTINUOUS
10
56.9684
20
-123.661
11
56.968
21
-123.662
0
LINE
8
BLACK
6
CONTINUOUS
10
56.968
20
-123.662
11
56.9658
21
-123.662
0
LINE
8
BLACK
6
CONTINUOUS
10
56.9658
20
-123.662
11
56.9636
21
-123.662
0
LINE
8
BLACK
6
CONTINUOUS
10
56.9636
20
-123.662
11
56.7889
21
-123.681
0
LINE
8
BLACK
6
CONTINUOUS
10
56.7889
20
-123.681
11
56.7885
21
-123.681
0
LINE
8
BLACK
6
CONTINUOUS
10
56.7885
20
-123.681
11
56.7875
21
-123.681
0
LINE
8
BLACK
6
CONTINUOUS
10
56.7875
20
-123.681
11
56.7864
21
-123.681
0
LINE
8
BLACK
6
CONTINUOUS
10
56.7864
20
-123.681
11
56.7813
21
-123.681
0
LINE
8
BLACK
6
CONTINUOUS
10
56.7813
20
-123.681
11
56.7812
21
-123.681
0
LINE
8
BLACK
6
CONTINUOUS
10
56.7812
20
-123.681
11
54.8788
21
-123.681
0
LINE
8
BLACK
6
CONTINUOUS
10
54.8788
20
-123.681
11
54.8776
21
-123.681
0
LINE
8
BLACK
6
CONTINUOUS
10
54.8776
20
-123.681
11
54.8776
21
-123.681
0
LINE
8
BLACK
6
CONTINUOUS
10
54.8776
20
-123.681
11
54.7027
21
-123.664
0
LINE
8
BLACK
6
CONTINUOUS
10
54.7027
20
-123.664
11
54.7024
21
-123.664
0
LINE
8
BLACK
6
CONTINUOUS
10
54.7024
20
-123.664
11
54.7002
21
-123.663
0
LINE
8
BLACK
6
CONTINUOUS
10
54.7002
20
-123.663
11
54.698
21
-123.663
0
LINE
8
BLACK
6
CONTINUOUS
10
54.698
20
-123.663
11
54.5298
21
-123.612
0
LINE
8
BLACK
6
CONTINUOUS
10
54.5298
20
-123.612
11
54.5295
21
-123.612
0
LINE
8
BLACK
6
CONTINUOUS
10
54.5295
20
-123.612
11
54.5274
21
-123.611
0
LINE
8
BLACK
6
CONTINUOUS
10
54.5274
20
-123.611
11
54.5253
21
-123.61
0
LINE
8
BLACK
6
CONTINUOUS
10
54.5253
20
-123.61
11
54.3702
21
-123.528
0
LINE
8
BLACK
6
CONTINUOUS
10
54.3702
20
-123.528
11
54.3699
21
-123.528
0
LINE
8
BLACK
6
CONTINUOUS
10
54.3699
20
-123.528
11
54.368
21
-123.526
0
LINE
8
BLACK
6
CONTINUOUS
10
54.368
20
-123.526
11
54.3661
21
-123.525
0
LINE
8
BLACK
6
CONTINUOUS
10
54.3661
20
-123.525
11
54.23
21
-123.414
0
LINE
8
BLACK
6
CONTINUOUS
10
54.23
20
-123.414
11
54.2298
21
-123.414
0
LINE
8
BLACK
6
CONTINUOUS
10
54.2298
20
-123.414
11
54.2281
21
-123.412
0
LINE
8
BLACK
6
CONTINUOUS
10
54.2281
20
-123.412
11
54.2266
21
-123.411
0
LINE
8
BLACK
6
CONTINUOUS
10
54.2266
20
-123.411
11
54.1146
21
-123.275
0
LINE
8
BLACK
6
CONTINUOUS
10
54.1146
20
-123.275
11
54.1144
21
-123.275
0
LINE
8
BLACK
6
CONTINUOUS
10
54.1144
20
-123.275
11
54.1131
21
-123.273
0
LINE
8
BLACK
6
CONTINUOUS
10
54.1131
20
-123.273
11
54.1119
21
-123.271
0
LINE
8
BLACK
6
CONTINUOUS
10
54.1119
20
-123.271
11
54.0283
21
-123.117
0
LINE
8
BLACK
6
CONTINUOUS
10
54.0283
20
-123.117
11
54.0282
21
-123.116
0
LINE
8
BLACK
6
CONTINUOUS
10
54.0282
20
-123.116
11
54.0273
21
-123.114
0
LINE
8
BLACK
6
CONTINUOUS
10
54.0273
20
-123.114
11
54.0264
21
-123.112
0
LINE
8
BLACK
6
CONTINUOUS
10
54.0264
20
-123.112
11
53.9745
21
-122.944
0
LINE
8
BLACK
6
CONTINUOUS
10
53.9745
20
-122.944
11
53.9744
21
-122.944
0
LINE
8
BLACK
6
CONTINUOUS
10
53.9744
20
-122.944
11
53.974
21
-122.942
0
LINE
8
BLACK
6
CONTINUOUS
10
53.974
20
-122.942
11
53.9735
21
-122.94
0
LINE
8
BLACK
6
CONTINUOUS
10
53.9735
20
-122.94
11
53.9552
21
-122.765
0
LINE
8
BLACK
6
CONTINUOUS
10
53.9552
20
-122.765
11
53.9551
21
-122.765
0
LINE
8
BLACK
6
CONTINUOUS
10
53.9551
20
-122.765
11
53.9551
21
-122.763
0
LINE
8
BLACK
6
CONTINUOUS
10
53.9551
20
-122.763
11
53.955
21
-122.762
0
LINE
8
BLACK
6
CONTINUOUS
10
53.955
20
-122.762
11
53.955
21
-122.757
0
LINE
8
BLACK
6
CONTINUOUS
10
53.955
20
-122.757
11
53.955
21
-122.757
0
LINE
8
BLACK
6
CONTINUOUS
10
53.955
20
-122.757
11
53.955
21
-122.756
0
LINE
8
BLACK
6
CONTINUOUS
10
53.955
20
-122.756
11
53.955
21
-122.756
0
LINE
8
BLACK
6
CONTINUOUS
10
53.955
20
-122.756
11
53.955
21
-122.756
0
LINE
8
BLACK
6
CONTINUOUS
10
53.955
20
-122.756
11
53.955
21
-120.855
0
LINE
8
BLACK
6
CONTINUOUS
10
53.955
20
-120.855
11
53.9551
21
-120.854
0
LINE
8
BLACK
6
CONTINUOUS
10
53.9551
20
-120.854
11
53.9551
21
-120.854
0
LINE
8
BLACK
6
CONTINUOUS
10
53.9551
20
-120.854
11
53.9723
21
-120.679
0
LINE
8
BLACK
6
CONTINUOUS
10
53.9723
20
-120.679
11
53.9723
21
-120.678
0
LINE
8
BLACK
6
CONTINUOUS
10
53.9723
20
-120.678
11
53.9728
21
-120.676
0
LINE
8
BLACK
6
CONTINUOUS
10
53.9728
20
-120.676
11
53.9732
21
-120.674
0
LINE
8
BLACK
6
CONTINUOUS
10
53.9732
20
-120.674
11
54.024
21
-120.506
0
LINE
8
BLACK
6
CONTINUOUS
10
54.024
20
-120.506
11
54.0241
21
-120.505
0
LINE
8
BLACK
6
CONTINUOUS
10
54.0241
20
-120.505
11
54.025
21
-120.503
0
LINE
8
BLACK
6
CONTINUOUS
10
54.025
20
-120.503
11
54.0258
21
-120.501
0
LINE
8
BLACK
6
CONTINUOUS
10
54.0258
20
-120.501
11
54.1083
21
-120.346
0
LINE
8
BLACK
6
CONTINUOUS
10
54.1083
20
-120.346
11
54.1085
21
-120.346
0
LINE
8
BLACK
6
CONTINUOUS
10
54.1085
20
-120.346
11
54.1097
21
-120.344
0
LINE
8
BLACK
6
CONTINUOUS
10
54.1097
20
-120.344
11
54.111
21
-120.342
0
LINE
8
BLACK
6
CONTINUOUS
10
54.111
20
-120.342
11
54.222
21
-120.206
0
LINE
8
BLACK
6
CONTINUOUS
10
54.222
20
-120.206
11
54.222
21
-120.206
0
LINE
8
BLACK
6
CONTINUOUS
10
54.222
20
-120.206
11
54.222
21
-120.206
0
LINE
8
BLACK
6
CONTINUOUS
10
54.222
20
-120.206
11
54.2222
21
-120.206
0
LINE
8
BLACK
6
CONTINUOUS
10
54.2222
20
-120.206
11
54.2239
21
-120.204
0
LINE
8
BLACK
6
CONTINUOUS
10
54.2239
20
-120.204
11
54.2254
21
-120.203
0
LINE
8
BLACK
6
CONTINUOUS
10
54.2254
20
-120.203
11
54.3608
21
-120.091
0
LINE
8
BLACK
6
CONTINUOUS
10
54.3608
20
-120.091
11
54.3611
21
-120.09
0
LINE
8
BLACK
6
CONTINUOUS
10
54.3611
20
-120.09
11
54.363
21
-120.089
0
LINE
8
BLACK
6
CONTINUOUS
10
54.363
20
-120.089
11
54.3648
21
-120.088
0
LINE
8
BLACK
6
CONTINUOUS
10
54.3648
20
-120.088
11
54.5193
21
-120.004
0
LINE
8
BLACK
6
CONTINUOUS
10
54.5193
20
-120.004
11
54.5193
21
-120.004
0
LINE
8
BLACK
6
CONTINUOUS
10
54.5193
20
-120.004
11
54.5193
21
-120.004
0
LINE
8
BLACK
6
CONTINUOUS
10
54.5193
20
-120.004
11
54.5197
21
-120.004
0
LINE
8
BLACK
6
CONTINUOUS
10
54.5197
20
-120.004
11
54.5218
21
-120.003
0
LINE
8
BLACK
6
CONTINUOUS
10
54.5218
20
-120.003
11
54.5238
21
-120.002
0
LINE
8
BLACK
6
CONTINUOUS
10
54.5238
20
-120.002
11
54.6916
21
-119.95
0
LINE
8
BLACK
6
CONTINUOUS
10
54.6916
20
-119.95
11
54.692
21
-119.95
0
LINE
8
BLACK
6
CONTINUOUS
10
54.692
20
-119.95
11
54.6942
21
-119.95
0
LINE
8
BLACK
6
CONTINUOUS
10
54.6942
20
-119.95
11
54.6964
21
-119.95
0
LINE
8
BLACK
6
CONTINUOUS
10
54.6964
20
-119.95
11
54.8711
21
-119.931
0
LINE
8
BLACK
6
CONTINUOUS
10
54.8711
20
-119.931
11
54.8715
21
-119.931
0
LINE
8
BLACK
6
CONTINUOUS
10
54.8715
20
-119.931
11
54.8725
21
-119.931
0
LINE
8
BLACK
6
CONTINUOUS
10
54.8725
20
-119.931
11
54.8736
21
-119.931
0
LINE
8
BLACK
6
CONTINUOUS
10
54.8736
20
-119.931
11
54.8787
21
-119.931
0
LINE
8
BLACK
6
CONTINUOUS
10
54.8787
20
-119.931
11
54.8788
21
-119.931
0
LINE
8
BLACK
6
CONTINUOUS
10
54.8788
20
-119.931
11
56.7812
21
-119.931
0
LINE
8
BLACK
6
CONTINUOUS
10
56.7812
20
-119.931
11
56.7824
21
-119.931
0
LINE
8
BLACK
6
CONTINUOUS
10
56.7824
20
-119.931
11
56.7824
21
-119.931
0
LINE
8
BLACK
6
CONTINUOUS
10
56.7824
20
-119.931
11
56.9572
21
-119.948
0
LINE
8
BLACK
6
CONTINUOUS
10
56.9572
20
-119.948
11
56.9573
21
-119.948
0
LINE
8
BLACK
6
CONTINUOUS
10
56.9573
20
-119.948
11
56.9576
21
-119.948
0
LINE
8
BLACK
6
CONTINUOUS
10
54.8801
20
-119.981
11
54.8751
21
-119.981
0
LINE
8
BLACK
6
CONTINUOUS
10
54.8751
20
-119.981
11
54.7041
21
-119.999
0
LINE
8
BLACK
6
CONTINUOUS
10
54.7041
20
-119.999
11
54.541
21
-120.049
0
LINE
8
BLACK
6
CONTINUOUS
10
54.541
20
-120.049
11
54.3908
21
-120.131
0
LINE
8
BLACK
6
CONTINUOUS
10
54.3908
20
-120.131
11
54.2592
21
-120.24
0
LINE
8
BLACK
6
CONTINUOUS
10
54.2592
20
-120.24
11
54.1513
21
-120.372
0
LINE
8
BLACK
6
CONTINUOUS
10
54.1513
20
-120.372
11
54.0711
21
-120.523
0
LINE
8
BLACK
6
CONTINUOUS
10
54.0711
20
-120.523
11
54.0218
21
-120.686
0
LINE
8
BLACK
6
CONTINUOUS
10
54.0218
20
-120.686
11
54.005
21
-120.857
0
LINE
8
BLACK
6
CONTINUOUS
10
54.005
20
-120.857
11
54.005
21
-122.756
0
LINE
8
BLACK
6
CONTINUOUS
10
54.005
20
-122.756
11
54.005
21
-122.761
0
LINE
8
BLACK
6
CONTINUOUS
10
54.005
20
-122.761
11
54.023
21
-122.932
0
LINE
8
BLACK
6
CONTINUOUS
10
54.023
20
-122.932
11
54.0735
21
-123.095
0
LINE
8
BLACK
6
CONTINUOUS
10
54.0735
20
-123.095
11
54.1547
21
-123.245
0
LINE
8
BLACK
6
CONTINUOUS
10
54.1547
20
-123.245
11
54.2635
21
-123.377
0
LINE
8
BLACK
6
CONTINUOUS
10
54.2635
20
-123.377
11
54.3958
21
-123.485
0
LINE
8
BLACK
6
CONTINUOUS
10
54.3958
20
-123.485
11
54.5466
21
-123.565
0
LINE
8
BLACK
6
CONTINUOUS
10
54.5466
20
-123.565
11
54.7101
21
-123.614
0
LINE
8
BLACK
6
CONTINUOUS
10
54.7101
20
-123.614
11
54.8812
21
-123.631
0
LINE
8
BLACK
6
CONTINUOUS
10
54.8812
20
-123.631
11
56.7799
21
-123.631
0
LINE
8
BLACK
6
CONTINUOUS
10
56.7799
20
-123.631
11
56.7849
21
-123.631
0
LINE
8
BLACK
6
CONTINUOUS
10
56.7849
20
-123.631
11
56.9559
21
-123.613
0
LINE
8
BLACK
6
CONTINUOUS
10
56.9559
20
-123.613
11
57.119
21
-123.563
0
LINE
8
BLACK
6
CONTINUOUS
10
57.119
20
-123.563
11
57.2692
21
-123.481
0
LINE
8
BLACK
6
CONTINUOUS
10
57.2692
20
-123.481
11
57.4008
21
-123.372
0
LINE
8
BLACK
6
CONTINUOUS
10
57.4008
20
-123.372
11
57.5087
21
-123.24
0
LINE
8
BLACK
6
CONTINUOUS
10
57.5087
20
-123.24
11
57.5889
21
-123.089
0
LINE
8
BLACK
6
CONTINUOUS
10
57.5889
20
-123.089
11
57.6382
21
-122.926
0
LINE
8
BLACK
6
CONTINUOUS
10
57.6382
20
-122.926
11
57.655
21
-122.755
0
LINE
8
BLACK
6
CONTINUOUS
10
57.655
20
-122.755
11
57.655
21
-120.856
0
LINE
8
BLACK
6
CONTINUOUS
10
57.655
20
-120.856
11
57.655
21
-120.856
0
LINE
8
BLACK
6
CONTINUOUS
10
57.655
20
-120.856
11
57.655
21
-120.851
0
LINE
8
BLACK
6
CONTINUOUS
10
57.655
20
-120.851
11
57.637
21
-120.68
0
LINE
8
BLACK
6
CONTINUOUS
10
57.637
20
-120.68
11
57.5865
21
-120.517
0
LINE
8
BLACK
6
CONTINUOUS
10
57.5865
20
-120.517
11
57.5053
21
-120.367
0
LINE
8
BLACK
6
CONTINUOUS
10
57.5053
20
-120.367
11
57.3965
21
-120.235
0
LINE
8
BLACK
6
CONTINUOUS
10
57.3965
20
-120.235
11
57.2642
21
-120.127
0
LINE
8
BLACK
6
CONTINUOUS
10
57.2642
20
-120.127
11
57.1134
21
-120.047
0
LINE
8
BLACK
6
CONTINUOUS
10
57.1134
20
-120.047
11
56.9499
21
-119.998
0
LINE
8
BLACK
6
CONTINUOUS
10
56.9499
20
-119.998
11
56.7788
21
-119.981
0
LINE
8
BLACK
6
CONTINUOUS
10
56.7788
20
-119.981
11
54.8801
21
-119.981
0
LINE
8
BLACK
6
CONTINUOUS
10
228.51
20
-119.91
11
228.512
21
-119.911
0
LINE
8
BLACK
6
CONTINUOUS
10
228.512
20
-119.911
11
228.514
21
-119.911
0
LINE
8
BLACK
6
CONTINUOUS
10
228.514
20
-119.911
11
228.682
21
-119.962
0
LINE
8
BLACK
6
CONTINUOUS
10
228.682
20
-119.962
11
228.683
21
-119.962
0
LINE
8
BLACK
6
CONTINUOUS
10
228.683
20
-119.962
11
228.685
21
-119.963
0
LINE
8
BLACK
6
CONTINUOUS
10
228.685
20
-119.963
11
228.687
21
-119.964
0
LINE
8
BLACK
6
CONTINUOUS
10
228.687
20
-119.964
11
228.842
21
-120.046
0
LINE
8
BLACK
6
CONTINUOUS
10
228.842
20
-120.046
11
228.842
21
-120.046
0
LINE
8
BLACK
6
CONTINUOUS
10
228.842
20
-120.046
11
228.844
21
-120.048
0
LINE
8
BLACK
6
CONTINUOUS
10
228.844
20
-120.048
11
228.846
21
-120.049
0
LINE
8
BLACK
6
CONTINUOUS
10
228.846
20
-120.049
11
228.982
21
-120.16
0
LINE
8
BLACK
6
CONTINUOUS
10
228.982
20
-120.16
11
228.982
21
-120.16
0
LINE
8
BLACK
6
CONTINUOUS
10
228.982
20
-120.16
11
228.982
21
-120.16
0
LINE
8
BLACK
6
CONTINUOUS
10
228.982
20
-120.16
11
228.982
21
-120.16
0
LINE
8
BLACK
6
CONTINUOUS
10
228.982
20
-120.16
11
228.984
21
-120.162
0
LINE
8
BLACK
6
CONTINUOUS
10
228.984
20
-120.162
11
228.985
21
-120.163
0
LINE
8
BLACK
6
CONTINUOUS
10
228.985
20
-120.163
11
229.097
21
-120.299
0
LINE
8
BLACK
6
CONTINUOUS
10
229.097
20
-120.299
11
229.098
21
-120.299
0
LINE
8
BLACK
6
CONTINUOUS
10
229.098
20
-120.299
11
229.099
21
-120.301
0
LINE
8
BLACK
6
CONTINUOUS
10
229.099
20
-120.301
11
229.1
21
-120.303
0
LINE
8
BLACK
6
CONTINUOUS
10
229.1
20
-120.303
11
229.184
21
-120.457
0
LINE
8
BLACK
6
CONTINUOUS
10
229.184
20
-120.457
11
229.184
21
-120.457
0
LINE
8
BLACK
6
CONTINUOUS
10
229.184
20
-120.457
11
229.184
21
-120.457
0
LINE
8
BLACK
6
CONTINUOUS
10
229.184
20
-120.457
11
229.184
21
-120.458
0
LINE
8
BLACK
6
CONTINUOUS
10
229.184
20
-120.458
11
229.185
21
-120.46
0
LINE
8
BLACK
6
CONTINUOUS
10
229.185
20
-120.46
11
229.186
21
-120.462
0
LINE
8
BLACK
6
CONTINUOUS
10
229.186
20
-120.462
11
229.237
21
-120.63
0
LINE
8
BLACK
6
CONTINUOUS
10
229.237
20
-120.63
11
229.238
21
-120.63
0
LINE
8
BLACK
6
CONTINUOUS
10
229.238
20
-120.63
11
229.238
21
-120.632
0
LINE
8
BLACK
6
CONTINUOUS
10
229.238
20
-120.632
11
229.238
21
-120.634
0
LINE
8
BLACK
6
CONTINUOUS
10
229.238
20
-120.634
11
229.257
21
-120.809
0
LINE
8
BLACK
6
CONTINUOUS
10
229.257
20
-120.809
11
229.257
21
-120.809
0
LINE
8
BLACK
6
CONTINUOUS
10
229.257
20
-120.809
11
229.257
21
-120.811
0
LINE
8
BLACK
6
CONTINUOUS
10
229.257
20
-120.811
11
229.257
21
-120.812
0
LINE
8
BLACK
6
CONTINUOUS
10
229.257
20
-120.812
11
229.257
21
-120.817
0
LINE
8
BLACK
6
CONTINUOUS
10
229.257
20
-120.817
11
229.257
21
-120.817
0
LINE
8
BLACK
6
CONTINUOUS
10
229.257
20
-120.817
11
229.257
21
-122.719
0
LINE
8
BLACK
6
CONTINUOUS
10
229.257
20
-122.719
11
229.257
21
-122.72
0
LINE
8
BLACK
6
CONTINUOUS
10
229.257
20
-122.72
11
229.257
21
-122.72
0
LINE
8
BLACK
6
CONTINUOUS
10
229.257
20
-122.72
11
229.24
21
-122.895
0
LINE
8
BLACK
6
CONTINUOUS
10
229.24
20
-122.895
11
229.24
21
-122.896
0
LINE
8
BLACK
6
CONTINUOUS
10
229.24
20
-122.896
11
229.239
21
-122.898
0
LINE
8
BLACK
6
CONTINUOUS
10
229.239
20
-122.898
11
229.239
21
-122.9
0
LINE
8
BLACK
6
CONTINUOUS
10
229.239
20
-122.9
11
229.188
21
-123.068
0
LINE
8
BLACK
6
CONTINUOUS
10
229.188
20
-123.068
11
229.188
21
-123.069
0
LINE
8
BLACK
6
CONTINUOUS
10
229.188
20
-123.069
11
229.187
21
-123.071
0
LINE
8
BLACK
6
CONTINUOUS
10
229.187
20
-123.071
11
229.186
21
-123.073
0
LINE
8
BLACK
6
CONTINUOUS
10
229.186
20
-123.073
11
229.104
21
-123.228
0
LINE
8
BLACK
6
CONTINUOUS
10
229.104
20
-123.228
11
229.104
21
-123.228
0
LINE
8
BLACK
6
CONTINUOUS
10
229.104
20
-123.228
11
229.102
21
-123.23
0
LINE
8
BLACK
6
CONTINUOUS
10
229.102
20
-123.23
11
229.101
21
-123.232
0
LINE
8
BLACK
6
CONTINUOUS
10
229.101
20
-123.232
11
228.99
21
-123.368
0
LINE
8
BLACK
6
CONTINUOUS
10
228.99
20
-123.368
11
228.99
21
-123.368
0
LINE
8
BLACK
6
CONTINUOUS
10
228.99
20
-123.368
11
228.988
21
-123.37
0
LINE
8
BLACK
6
CONTINUOUS
10
228.988
20
-123.37
11
228.987
21
-123.371
0
LINE
8
BLACK
6
CONTINUOUS
10
228.987
20
-123.371
11
228.851
21
-123.483
0
LINE
8
BLACK
6
CONTINUOUS
10
228.851
20
-123.483
11
228.851
21
-123.484
0
LINE
8
BLACK
6
CONTINUOUS
10
228.851
20
-123.484
11
228.849
21
-123.485
0
LINE
8
BLACK
6
CONTINUOUS
10
228.849
20
-123.485
11
228.847
21
-123.486
0
LINE
8
BLACK
6
CONTINUOUS
10
228.847
20
-123.486
11
228.693
21
-123.57
0
LINE
8
BLACK
6
CONTINUOUS
10
228.693
20
-123.57
11
228.692
21
-123.57
0
LINE
8
BLACK
6
CONTINUOUS
10
228.692
20
-123.57
11
228.69
21
-123.571
0
LINE
8
BLACK
6
CONTINUOUS
10
228.69
20
-123.571
11
228.688
21
-123.572
0
LINE
8
BLACK
6
CONTINUOUS
10
228.688
20
-123.572
11
228.52
21
-123.623
0
LINE
8
BLACK
6
CONTINUOUS
10
228.52
20
-123.623
11
228.52
21
-123.624
0
LINE
8
BLACK
6
CONTINUOUS
10
228.52
20
-123.624
11
228.518
21
-123.624
0
LINE
8
BLACK
6
CONTINUOUS
10
228.518
20
-123.624
11
228.516
21
-123.624
0
LINE
8
BLACK
6
CONTINUOUS
10
228.516
20
-123.624
11
228.341
21
-123.643
0
LINE
8
BLACK
6
CONTINUOUS
10
228.341
20
-123.643
11
228.341
21
-123.643
0
LINE
8
BLACK
6
CONTINUOUS
10
228.341
20
-123.643
11
228.339
21
-123.643
0
LINE
8
BLACK
6
CONTINUOUS
10
228.339
20
-123.643
11
228.338
21
-123.643
0
LINE
8
BLACK
6
CONTINUOUS
10
228.338
20
-123.643
11
228.333
21
-123.643
0
LINE
8
BLACK
6
CONTINUOUS
10
228.333
20
-123.643
11
228.333
21
-123.643
0
LINE
8
BLACK
6
CONTINUOUS
10
228.333
20
-123.643
11
226.431
21
-123.643
0
LINE
8
BLACK
6
CONTINUOUS
10
226.431
20
-123.643
11
226.43
21
-123.643
0
LINE
8
BLACK
6
CONTINUOUS
10
226.43
20
-123.643
11
226.43
21
-123.643
0
LINE
8
BLACK
6
CONTINUOUS
10
226.43
20
-123.643
11
226.255
21
-123.626
0
LINE
8
BLACK
6
CONTINUOUS
10
226.255
20
-123.626
11
226.254
21
-123.626
0
LINE
8
BLACK
6
CONTINUOUS
10
226.254
20
-123.626
11
226.252
21
-123.625
0
LINE
8
BLACK
6
CONTINUOUS
10
226.252
20
-123.625
11
226.25
21
-123.625
0
LINE
8
BLACK
6
CONTINUOUS
10
226.25
20
-123.625
11
226.082
21
-123.574
0
LINE
8
BLACK
6
CONTINUOUS
10
226.082
20
-123.574
11
226.081
21
-123.574
0
LINE
8
BLACK
6
CONTINUOUS
10
226.081
20
-123.574
11
226.079
21
-123.573
0
LINE
8
BLACK
6
CONTINUOUS
10
226.079
20
-123.573
11
226.077
21
-123.572
0
LINE
8
BLACK
6
CONTINUOUS
10
226.077
20
-123.572
11
225.922
21
-123.49
0
LINE
8
BLACK
6
CONTINUOUS
10
225.922
20
-123.49
11
225.922
21
-123.49
0
LINE
8
BLACK
6
CONTINUOUS
10
225.922
20
-123.49
11
225.92
21
-123.488
0
LINE
8
BLACK
6
CONTINUOUS
10
225.92
20
-123.488
11
225.918
21
-123.487
0
LINE
8
BLACK
6
CONTINUOUS
10
225.918
20
-123.487
11
225.782
21
-123.376
0
LINE
8
BLACK
6
CONTINUOUS
10
225.782
20
-123.376
11
225.782
21
-123.376
0
LINE
8
BLACK
6
CONTINUOUS
10
225.782
20
-123.376
11
225.78
21
-123.374
0
LINE
8
BLACK
6
CONTINUOUS
10
225.78
20
-123.374
11
225.779
21
-123.373
0
LINE
8
BLACK
6
CONTINUOUS
10
225.779
20
-123.373
11
225.667
21
-123.237
0
LINE
8
BLACK
6
CONTINUOUS
10
225.667
20
-123.237
11
225.666
21
-123.237
0
LINE
8
BLACK
6
CONTINUOUS
10
225.666
20
-123.237
11
225.665
21
-123.235
0
LINE
8
BLACK
6
CONTINUOUS
10
225.665
20
-123.235
11
225.664
21
-123.233
0
LINE
8
BLACK
6
CONTINUOUS
10
225.664
20
-123.233
11
225.58
21
-123.079
0
LINE
8
BLACK
6
CONTINUOUS
10
225.58
20
-123.079
11
225.58
21
-123.078
0
LINE
8
BLACK
6
CONTINUOUS
10
225.58
20
-123.078
11
225.579
21
-123.076
0
LINE
8
BLACK
6
CONTINUOUS
10
225.579
20
-123.076
11
225.578
21
-123.074
0
LINE
8
BLACK
6
CONTINUOUS
10
225.578
20
-123.074
11
225.526
21
-122.906
0
LINE
8
BLACK
6
CONTINUOUS
10
225.526
20
-122.906
11
225.526
21
-122.906
0
LINE
8
BLACK
6
CONTINUOUS
10
225.526
20
-122.906
11
225.526
21
-122.904
0
LINE
8
BLACK
6
CONTINUOUS
10
225.526
20
-122.904
11
225.526
21
-122.902
0
LINE
8
BLACK
6
CONTINUOUS
10
225.526
20
-122.902
11
225.507
21
-122.727
0
LINE
8
BLACK
6
CONTINUOUS
10
225.507
20
-122.727
11
225.507
21
-122.727
0
LINE
8
BLACK
6
CONTINUOUS
10
225.507
20
-122.727
11
225.507
21
-122.725
0
LINE
8
BLACK
6
CONTINUOUS
10
225.507
20
-122.725
11
225.507
21
-122.724
0
LINE
8
BLACK
6
CONTINUOUS
10
225.507
20
-122.724
11
225.507
21
-122.719
0
LINE
8
BLACK
6
CONTINUOUS
10
225.507
20
-122.719
11
225.507
21
-122.719
0
LINE
8
BLACK
6
CONTINUOUS
10
225.507
20
-122.719
11
225.507
21
-122.718
0
LINE
8
BLACK
6
CONTINUOUS
10
225.507
20
-122.718
11
225.507
21
-122.718
0
LINE
8
BLACK
6
CONTINUOUS
10
225.507
20
-122.718
11
225.507
21
-122.718
0
LINE
8
BLACK
6
CONTINUOUS
10
225.507
20
-122.718
11
225.507
21
-120.817
0
LINE
8
BLACK
6
CONTINUOUS
10
225.507
20
-120.817
11
225.507
21
-120.816
0
LINE
8
BLACK
6
CONTINUOUS
10
225.507
20
-120.816
11
225.507
21
-120.816
0
LINE
8
BLACK
6
CONTINUOUS
10
225.507
20
-120.816
11
225.524
21
-120.641
0
LINE
8
BLACK
6
CONTINUOUS
10
225.524
20
-120.641
11
225.524
21
-120.64
0
LINE
8
BLACK
6
CONTINUOUS
10
225.524
20
-120.64
11
225.525
21
-120.638
0
LINE
8
BLACK
6
CONTINUOUS
10
225.525
20
-120.638
11
225.525
21
-120.636
0
LINE
8
BLACK
6
CONTINUOUS
10
225.525
20
-120.636
11
225.576
21
-120.468
0
LINE
8
BLACK
6
CONTINUOUS
10
225.576
20
-120.468
11
225.576
21
-120.467
0
LINE
8
BLACK
6
CONTINUOUS
10
225.576
20
-120.467
11
225.577
21
-120.465
0
LINE
8
BLACK
6
CONTINUOUS
10
225.577
20
-120.465
11
225.578
21
-120.463
0
LINE
8
BLACK
6
CONTINUOUS
10
225.578
20
-120.463
11
225.66
21
-120.308
0
LINE
8
BLACK
6
CONTINUOUS
10
225.66
20
-120.308
11
225.66
21
-120.308
0
LINE
8
BLACK
6
CONTINUOUS
10
225.66
20
-120.308
11
225.662
21
-120.306
0
LINE
8
BLACK
6
CONTINUOUS
10
225.662
20
-120.306
11
225.663
21
-120.304
0
LINE
8
BLACK
6
CONTINUOUS
10
225.663
20
-120.304
11
225.774
21
-120.168
0
LINE
8
BLACK
6
CONTINUOUS
10
225.774
20
-120.168
11
225.774
21
-120.168
0
LINE
8
BLACK
6
CONTINUOUS
10
225.774
20
-120.168
11
225.774
21
-120.168
0
LINE
8
BLACK
6
CONTINUOUS
10
225.774
20
-120.168
11
225.774
21
-120.168
0
LINE
8
BLACK
6
CONTINUOUS
10
225.774
20
-120.168
11
225.776
21
-120.166
0
LINE
8
BLACK
6
CONTINUOUS
10
225.776
20
-120.166
11
225.777
21
-120.165
0
LINE
8
BLACK
6
CONTINUOUS
10
225.777
20
-120.165
11
225.913
21
-120.053
0
LINE
8
BLACK
6
CONTINUOUS
10
225.913
20
-120.053
11
225.913
21
-120.052
0
LINE
8
BLACK
6
CONTINUOUS
10
225.913
20
-120.052
11
225.915
21
-120.051
0
LINE
8
BLACK
6
CONTINUOUS
10
225.915
20
-120.051
11
225.917
21
-120.05
0
LINE
8
BLACK
6
CONTINUOUS
10
225.917
20
-120.05
11
226.071
21
-119.966
0
LINE
8
BLACK
6
CONTINUOUS
10
226.071
20
-119.966
11
226.071
21
-119.966
0
LINE
8
BLACK
6
CONTINUOUS
10
226.071
20
-119.966
11
226.071
21
-119.966
0
LINE
8
BLACK
6
CONTINUOUS
10
226.071
20
-119.966
11
226.072
21
-119.966
0
LINE
8
BLACK
6
CONTINUOUS
10
226.072
20
-119.966
11
226.074
21
-119.965
0
LINE
8
BLACK
6
CONTINUOUS
10
226.074
20
-119.965
11
226.076
21
-119.964
0
LINE
8
BLACK
6
CONTINUOUS
10
226.076
20
-119.964
11
226.244
21
-119.912
0
LINE
8
BLACK
6
CONTINUOUS
10
226.244
20
-119.912
11
226.244
21
-119.912
0
LINE
8
BLACK
6
CONTINUOUS
10
226.244
20
-119.912
11
226.246
21
-119.912
0
LINE
8
BLACK
6
CONTINUOUS
10
226.246
20
-119.912
11
226.248
21
-119.912
0
LINE
8
BLACK
6
CONTINUOUS
10
226.248
20
-119.912
11
226.423
21
-119.893
0
LINE
8
BLACK
6
CONTINUOUS
10
226.423
20
-119.893
11
226.423
21
-119.893
0
LINE
8
BLACK
6
CONTINUOUS
10
226.423
20
-119.893
11
226.425
21
-119.893
0
LINE
8
BLACK
6
CONTINUOUS
10
226.425
20
-119.893
11
226.426
21
-119.893
0
LINE
8
BLACK
6
CONTINUOUS
10
226.426
20
-119.893
11
226.431
21
-119.893
0
LINE
8
BLACK
6
CONTINUOUS
10
226.431
20
-119.893
11
226.431
21
-119.893
0
LINE
8
BLACK
6
CONTINUOUS
10
226.431
20
-119.893
11
228.333
21
-119.893
0
LINE
8
BLACK
6
CONTINUOUS
10
228.333
20
-119.893
11
228.334
21
-119.893
0
LINE
8
BLACK
6
CONTINUOUS
10
228.334
20
-119.893
11
228.334
21
-119.893
0
LINE
8
BLACK
6
CONTINUOUS
10
228.334
20
-119.893
11
228.509
21
-119.91
0
LINE
8
BLACK
6
CONTINUOUS
10
228.509
20
-119.91
11
228.509
21
-119.91
0
LINE
8
BLACK
6
CONTINUOUS
10
228.509
20
-119.91
11
228.51
21
-119.91
0
LINE
8
BLACK
6
CONTINUOUS
10
226.432
20
-119.943
11
226.427
21
-119.943
0
LINE
8
BLACK
6
CONTINUOUS
10
226.427
20
-119.943
11
226.256
21
-119.961
0
LINE
8
BLACK
6
CONTINUOUS
10
226.256
20
-119.961
11
226.093
21
-120.011
0
LINE
8
BLACK
6
CONTINUOUS
10
226.093
20
-120.011
11
225.943
21
-120.093
0
LINE
8
BLACK
6
CONTINUOUS
10
225.943
20
-120.093
11
225.811
21
-120.202
0
LINE
8
BLACK
6
CONTINUOUS
10
225.811
20
-120.202
11
225.703
21
-120.334
0
LINE
8
BLACK
6
CONTINUOUS
10
225.703
20
-120.334
11
225.623
21
-120.485
0
LINE
8
BLACK
6
CONTINUOUS
10
225.623
20
-120.485
11
225.574
21
-120.648
0
LINE
8
BLACK
6
CONTINUOUS
10
225.574
20
-120.648
11
225.557
21
-120.819
0
LINE
8
BLACK
6
CONTINUOUS
10
225.557
20
-120.819
11
225.557
21
-122.718
0
LINE
8
BLACK
6
CONTINUOUS
10
225.557
20
-122.718
11
225.557
21
-122.723
0
LINE
8
BLACK
6
CONTINUOUS
10
225.557
20
-122.723
11
225.575
21
-122.894
0
LINE
8
BLACK
6
CONTINUOUS
10
225.575
20
-122.894
11
225.625
21
-123.057
0
LINE
8
BLACK
6
CONTINUOUS
10
225.625
20
-123.057
11
225.707
21
-123.207
0
LINE
8
BLACK
6
CONTINUOUS
10
225.707
20
-123.207
11
225.816
21
-123.339
0
LINE
8
BLACK
6
CONTINUOUS
10
225.816
20
-123.339
11
225.948
21
-123.447
0
LINE
8
BLACK
6
CONTINUOUS
10
225.948
20
-123.447
11
226.099
21
-123.527
0
LINE
8
BLACK
6
CONTINUOUS
10
226.099
20
-123.527
11
226.262
21
-123.576
0
LINE
8
BLACK
6
CONTINUOUS
10
226.262
20
-123.576
11
226.433
21
-123.593
0
LINE
8
BLACK
6
CONTINUOUS
10
226.433
20
-123.593
11
228.332
21
-123.593
0
LINE
8
BLACK
6
CONTINUOUS
10
228.332
20
-123.593
11
228.337
21
-123.593
0
LINE
8
BLACK
6
CONTINUOUS
10
228.337
20
-123.593
11
228.508
21
-123.575
0
LINE
8
BLACK
6
CONTINUOUS
10
228.508
20
-123.575
11
228.671
21
-123.525
0
LINE
8
BLACK
6
CONTINUOUS
10
228.671
20
-123.525
11
228.821
21
-123.443
0
LINE
8
BLACK
6
CONTINUOUS
10
228.821
20
-123.443
11
228.953
21
-123.334
0
LINE
8
BLACK
6
CONTINUOUS
10
228.953
20
-123.334
11
229.061
21
-123.202
0
LINE
8
BLACK
6
CONTINUOUS
10
229.061
20
-123.202
11
229.141
21
-123.051
0
LINE
8
BLACK
6
CONTINUOUS
10
229.141
20
-123.051
11
229.19
21
-122.888
0
LINE
8
BLACK
6
CONTINUOUS
10
229.19
20
-122.888
11
229.207
21
-122.717
0
LINE
8
BLACK
6
CONTINUOUS
10
229.207
20
-122.717
11
229.207
21
-120.818
0
LINE
8
BLACK
6
CONTINUOUS
10
229.207
20
-120.818
11
229.207
21
-120.818
0
LINE
8
BLACK
6
CONTINUOUS
10
229.207
20
-120.818
11
229.207
21
-120.813
0
LINE
8
BLACK
6
CONTINUOUS
10
229.207
20
-120.813
11
229.189
21
-120.642
0
LINE
8
BLACK
6
CONTINUOUS
10
229.189
20
-120.642
11
229.139
21
-120.479
0
LINE
8
BLACK
6
CONTINUOUS
10
229.139
20
-120.479
11
229.057
21
-120.329
0
LINE
8
BLACK
6
CONTINUOUS
10
229.057
20
-120.329
11
228.948
21
-120.197
0
LINE
8
BLACK
6
CONTINUOUS
10
228.948
20
-120.197
11
228.816
21
-120.089
0
LINE
8
BLACK
6
CONTINUOUS
10
228.816
20
-120.089
11
228.665
21
-120.009
0
LINE
8
BLACK
6
CONTINUOUS
10
228.665
20
-120.009
11
228.502
21
-119.96
0
LINE
8
BLACK
6
CONTINUOUS
10
228.502
20
-119.96
11
228.331
21
-119.943
0
LINE
8
BLACK
6
CONTINUOUS
10
228.331
20
-119.943
11
226.432
21
-119.943
0
LINE
8
BLACK
6
CONTINUOUS
10
114.299
20
-119.695
11
114.301
21
-119.696
0
LINE
8
BLACK
6
CONTINUOUS
10
114.301
20
-119.696
11
114.303
21
-119.696
0
LINE
8
BLACK
6
CONTINUOUS
10
114.303
20
-119.696
11
114.471
21
-119.747
0
LINE
8
BLACK
6
CONTINUOUS
10
114.471
20
-119.747
11
114.472
21
-119.747
0
LINE
8
BLACK
6
CONTINUOUS
10
114.472
20
-119.747
11
114.474
21
-119.748
0
LINE
8
BLACK
6
CONTINUOUS
10
114.474
20
-119.748
11
114.476
21
-119.749
0
LINE
8
BLACK
6
CONTINUOUS
10
114.476
20
-119.749
11
114.631
21
-119.831
0
LINE
8
BLACK
6
CONTINUOUS
10
114.631
20
-119.831
11
114.631
21
-119.831
0
LINE
8
BLACK
6
CONTINUOUS
10
114.631
20
-119.831
11
114.633
21
-119.833
0
LINE
8
BLACK
6
CONTINUOUS
10
114.633
20
-119.833
11
114.635
21
-119.834
0
LINE
8
BLACK
6
CONTINUOUS
10
114.635
20
-119.834
11
114.771
21
-119.945
0
LINE
8
BLACK
6
CONTINUOUS
10
114.771
20
-119.945
11
114.771
21
-119.945
0
LINE
8
BLACK
6
CONTINUOUS
10
114.771
20
-119.945
11
114.771
21
-119.945
0
LINE
8
BLACK
6
CONTINUOUS
10
114.771
20
-119.945
11
114.771
21
-119.945
0
LINE
8
BLACK
6
CONTINUOUS
10
114.771
20
-119.945
11
114.773
21
-119.947
0
LINE
8
BLACK
6
CONTINUOUS
10
114.773
20
-119.947
11
114.774
21
-119.948
0
LINE
8
BLACK
6
CONTINUOUS
10
114.774
20
-119.948
11
114.886
21
-120.084
0
LINE
8
BLACK
6
CONTINUOUS
10
114.886
20
-120.084
11
114.887
21
-120.084
0
LINE
8
BLACK
6
CONTINUOUS
10
114.887
20
-120.084
11
114.888
21
-120.086
0
LINE
8
BLACK
6
CONTINUOUS
10
114.888
20
-120.086
11
114.889
21
-120.088
0
LINE
8
BLACK
6
CONTINUOUS
10
114.889
20
-120.088
11
114.973
21
-120.242
0
LINE
8
BLACK
6
CONTINUOUS
10
114.973
20
-120.242
11
114.973
21
-120.242
0
LINE
8
BLACK
6
CONTINUOUS
10
114.973
20
-120.242
11
114.973
21
-120.242
0
LINE
8
BLACK
6
CONTINUOUS
10
114.973
20
-120.242
11
114.973
21
-120.243
0
LINE
8
BLACK
6
CONTINUOUS
10
114.973
20
-120.243
11
114.974
21
-120.245
0
LINE
8
BLACK
6
CONTINUOUS
10
114.974
20
-120.245
11
114.975
21
-120.247
0
LINE
8
BLACK
6
CONTINUOUS
10
114.975
20
-120.247
11
115.026
21
-120.415
0
LINE
8
BLACK
6
CONTINUOUS
10
115.026
20
-120.415
11
115.027
21
-120.415
0
LINE
8
BLACK
6
CONTINUOUS
10
115.027
20
-120.415
11
115.027
21
-120.417
0
LINE
8
BLACK
6
CONTINUOUS
10
115.027
20
-120.417
11
115.027
21
-120.419
0
LINE
8
BLACK
6
CONTINUOUS
10
115.027
20
-120.419
11
115.046
21
-120.594
0
LINE
8
BLACK
6
CONTINUOUS
10
115.046
20
-120.594
11
115.046
21
-120.594
0
LINE
8
BLACK
6
CONTINUOUS
10
115.046
20
-120.594
11
115.046
21
-120.596
0
LINE
8
BLACK
6
CONTINUOUS
10
115.046
20
-120.596
11
115.046
21
-120.597
0
LINE
8
BLACK
6
CONTINUOUS
10
115.046
20
-120.597
11
115.046
21
-120.602
0
LINE
8
BLACK
6
CONTINUOUS
10
115.046
20
-120.602
11
115.046
21
-120.602
0
LINE
8
BLACK
6
CONTINUOUS
10
115.046
20
-120.602
11
115.046
21
-122.504
0
LINE
8
BLACK
6
CONTINUOUS
10
115.046
20
-122.504
11
115.046
21
-122.505
0
LINE
8
BLACK
6
CONTINUOUS
10
115.046
20
-122.505
11
115.046
21
-122.505
0
LINE
8
BLACK
6
CONTINUOUS
10
115.046
20
-122.505
11
115.029
21
-122.68
0
LINE
8
BLACK
6
CONTINUOUS
10
115.029
20
-122.68
11
115.029
21
-122.681
0
LINE
8
BLACK
6
CONTINUOUS
10
115.029
20
-122.681
11
115.028
21
-122.683
0
LINE
8
BLACK
6
CONTINUOUS
10
115.028
20
-122.683
11
115.028
21
-122.685
0
LINE
8
BLACK
6
CONTINUOUS
10
115.028
20
-122.685
11
114.977
21
-122.853
0
LINE
8
BLACK
6
CONTINUOUS
10
114.977
20
-122.853
11
114.977
21
-122.854
0
LINE
8
BLACK
6
CONTINUOUS
10
114.977
20
-122.854
11
114.976
21
-122.856
0
LINE
8
BLACK
6
CONTINUOUS
10
114.976
20
-122.856
11
114.975
21
-122.858
0
LINE
8
BLACK
6
CONTINUOUS
10
114.975
20
-122.858
11
114.893
21
-123.013
0
LINE
8
BLACK
6
CONTINUOUS
10
114.893
20
-123.013
11
114.893
21
-123.013
0
LINE
8
BLACK
6
CONTINUOUS
10
114.893
20
-123.013
11
114.891
21
-123.015
0
LINE
8
BLACK
6
CONTINUOUS
10
114.891
20
-123.015
11
114.89
21
-123.017
0
LINE
8
BLACK
6
CONTINUOUS
10
114.89
20
-123.017
11
114.779
21
-123.153
0
LINE
8
BLACK
6
CONTINUOUS
10
114.779
20
-123.153
11
114.779
21
-123.153
0
LINE
8
BLACK
6
CONTINUOUS
10
114.779
20
-123.153
11
114.777
21
-123.155
0
LINE
8
BLACK
6
CONTINUOUS
10
114.777
20
-123.155
11
114.776
21
-123.156
0
LINE
8
BLACK
6
CONTINUOUS
10
114.776
20
-123.156
11
114.64
21
-123.268
0
LINE
8
BLACK
6
CONTINUOUS
10
114.64
20
-123.268
11
114.64
21
-123.269
0
LINE
8
BLACK
6
CONTINUOUS
10
114.64
20
-123.269
11
114.638
21
-123.27
0
LINE
8
BLACK
6
CONTINUOUS
10
114.638
20
-123.27
11
114.636
21
-123.271
0
LINE
8
BLACK
6
CONTINUOUS
10
114.636
20
-123.271
11
114.482
21
-123.355
0
LINE
8
BLACK
6
CONTINUOUS
10
114.482
20
-123.355
11
114.481
21
-123.355
0
LINE
8
BLACK
6
CONTINUOUS
10
114.481
20
-123.355
11
114.479
21
-123.356
0
LINE
8
BLACK
6
CONTINUOUS
10
114.479
20
-123.356
11
114.477
21
-123.357
0
LINE
8
BLACK
6
CONTINUOUS
10
114.477
20
-123.357
11
114.309
21
-123.408
0
LINE
8
BLACK
6
CONTINUOUS
10
114.309
20
-123.408
11
114.309
21
-123.409
0
LINE
8
BLACK
6
CONTINUOUS
10
114.309
20
-123.409
11
114.307
21
-123.409
0
LINE
8
BLACK
6
CONTINUOUS
10
114.307
20
-123.409
11
114.305
21
-123.409
0
LINE
8
BLACK
6
CONTINUOUS
10
114.305
20
-123.409
11
114.13
21
-123.428
0
LINE
8
BLACK
6
CONTINUOUS
10
114.13
20
-123.428
11
114.13
21
-123.428
0
LINE
8
BLACK
6
CONTINUOUS
10
114.13
20
-123.428
11
114.128
21
-123.428
0
LINE
8
BLACK
6
CONTINUOUS
10
114.128
20
-123.428
11
114.127
21
-123.428
0
LINE
8
BLACK
6
CONTINUOUS
10
114.127
20
-123.428
11
114.122
21
-123.428
0
LINE
8
BLACK
6
CONTINUOUS
10
114.122
20
-123.428
11
114.122
21
-123.428
0
LINE
8
BLACK
6
CONTINUOUS
10
114.122
20
-123.428
11
112.22
21
-123.428
0
LINE
8
BLACK
6
CONTINUOUS
10
112.22
20
-123.428
11
112.219
21
-123.428
0
LINE
8
BLACK
6
CONTINUOUS
10
112.219
20
-123.428
11
112.219
21
-123.428
0
LINE
8
BLACK
6
CONTINUOUS
10
112.219
20
-123.428
11
112.044
21
-123.411
0
LINE
8
BLACK
6
CONTINUOUS
10
112.044
20
-123.411
11
112.043
21
-123.411
0
LINE
8
BLACK
6
CONTINUOUS
10
112.043
20
-123.411
11
112.041
21
-123.41
0
LINE
8
BLACK
6
CONTINUOUS
10
112.041
20
-123.41
11
112.039
21
-123.41
0
LINE
8
BLACK
6
CONTINUOUS
10
112.039
20
-123.41
11
111.871
21
-123.359
0
LINE
8
BLACK
6
CONTINUOUS
10
111.871
20
-123.359
11
111.87
21
-123.359
0
LINE
8
BLACK
6
CONTINUOUS
10
111.87
20
-123.359
11
111.868
21
-123.358
0
LINE
8
BLACK
6
CONTINUOUS
10
111.868
20
-123.358
11
111.866
21
-123.357
0
LINE
8
BLACK
6
CONTINUOUS
10
111.866
20
-123.357
11
111.711
21
-123.275
0
LINE
8
BLACK
6
CONTINUOUS
10
111.711
20
-123.275
11
111.711
21
-123.275
0
LINE
8
BLACK
6
CONTINUOUS
10
111.711
20
-123.275
11
111.709
21
-123.273
0
LINE
8
BLACK
6
CONTINUOUS
10
111.709
20
-123.273
11
111.707
21
-123.272
0
LINE
8
BLACK
6
CONTINUOUS
10
111.707
20
-123.272
11
111.571
21
-123.161
0
LINE
8
BLACK
6
CONTINUOUS
10
111.571
20
-123.161
11
111.571
21
-123.161
0
LINE
8
BLACK
6
CONTINUOUS
10
111.571
20
-123.161
11
111.569
21
-123.159
0
LINE
8
BLACK
6
CONTINUOUS
10
111.569
20
-123.159
11
111.568
21
-123.158
0
LINE
8
BLACK
6
CONTINUOUS
10
111.568
20
-123.158
11
111.456
21
-123.022
0
LINE
8
BLACK
6
CONTINUOUS
10
111.456
20
-123.022
11
111.455
21
-123.022
0
LINE
8
BLACK
6
CONTINUOUS
10
111.455
20
-123.022
11
111.454
21
-123.02
0
LINE
8
BLACK
6
CONTINUOUS
10
111.454
20
-123.02
11
111.453
21
-123.018
0
LINE
8
BLACK
6
CONTINUOUS
10
111.453
20
-123.018
11
111.369
21
-122.864
0
LINE
8
BLACK
6
CONTINUOUS
10
111.369
20
-122.864
11
111.369
21
-122.863
0
LINE
8
BLACK
6
CONTINUOUS
10
111.369
20
-122.863
11
111.368
21
-122.861
0
LINE
8
BLACK
6
CONTINUOUS
10
111.368
20
-122.861
11
111.367
21
-122.859
0
LINE
8
BLACK
6
CONTINUOUS
10
111.367
20
-122.859
11
111.316
21
-122.691
0
LINE
8
BLACK
6
CONTINUOUS
10
111.316
20
-122.691
11
111.315
21
-122.691
0
LINE
8
BLACK
6
CONTINUOUS
10
111.315
20
-122.691
11
111.315
21
-122.689
0
LINE
8
BLACK
6
CONTINUOUS
10
111.315
20
-122.689
11
111.315
21
-122.687
0
LINE
8
BLACK
6
CONTINUOUS
10
111.315
20
-122.687
11
111.296
21
-122.512
0
LINE
8
BLACK
6
CONTINUOUS
10
111.296
20
-122.512
11
111.296
21
-122.512
0
LINE
8
BLACK
6
CONTINUOUS
10
111.296
20
-122.512
11
111.296
21
-122.51
0
LINE
8
BLACK
6
CONTINUOUS
10
111.296
20
-122.51
11
111.296
21
-122.509
0
LINE
8
BLACK
6
CONTINUOUS
10
111.296
20
-122.509
11
111.296
21
-122.504
0
LINE
8
BLACK
6
CONTINUOUS
10
111.296
20
-122.504
11
111.296
21
-122.504
0
LINE
8
BLACK
6
CONTINUOUS
10
111.296
20
-122.504
11
111.296
21
-122.503
0
LINE
8
BLACK
6
CONTINUOUS
10
111.296
20
-122.503
11
111.296
21
-122.503
0
LINE
8
BLACK
6
CONTINUOUS
10
111.296
20
-122.503
11
111.296
21
-122.503
0
LINE
8
BLACK
6
CONTINUOUS
10
111.296
20
-122.503
11
111.296
21
-120.602
0
LINE
8
BLACK
6
CONTINUOUS
10
111.296
20
-120.602
11
111.296
21
-120.601
0
LINE
8
BLACK
6
CONTINUOUS
10
111.296
20
-120.601
11
111.296
21
-120.601
0
LINE
8
BLACK
6
CONTINUOUS
10
111.296
20
-120.601
11
111.313
21
-120.426
0
LINE
8
BLACK
6
CONTINUOUS
10
111.313
20
-120.426
11
111.313
21
-120.425
0
LINE
8
BLACK
6
CONTINUOUS
10
111.313
20
-120.425
11
111.314
21
-120.423
0
LINE
8
BLACK
6
CONTINUOUS
10
111.314
20
-120.423
11
111.314
21
-120.421
0
LINE
8
BLACK
6
CONTINUOUS
10
111.314
20
-120.421
11
111.365
21
-120.253
0
LINE
8
BLACK
6
CONTINUOUS
10
111.365
20
-120.253
11
111.365
21
-120.252
0
LINE
8
BLACK
6
CONTINUOUS
10
111.365
20
-120.252
11
111.366
21
-120.25
0
LINE
8
BLACK
6
CONTINUOUS
10
111.366
20
-120.25
11
111.367
21
-120.248
0
LINE
8
BLACK
6
CONTINUOUS
10
111.367
20
-120.248
11
111.449
21
-120.093
0
LINE
8
BLACK
6
CONTINUOUS
10
111.449
20
-120.093
11
111.449
21
-120.093
0
LINE
8
BLACK
6
CONTINUOUS
10
111.449
20
-120.093
11
111.451
21
-120.091
0
LINE
8
BLACK
6
CONTINUOUS
10
111.451
20
-120.091
11
111.452
21
-120.089
0
LINE
8
BLACK
6
CONTINUOUS
10
111.452
20
-120.089
11
111.563
21
-119.953
0
LINE
8
BLACK
6
CONTINUOUS
10
111.563
20
-119.953
11
111.563
21
-119.953
0
LINE
8
BLACK
6
CONTINUOUS
10
111.563
20
-119.953
11
111.563
21
-119.953
0
LINE
8
BLACK
6
CONTINUOUS
10
111.563
20
-119.953
11
111.563
21
-119.953
0
LINE
8
BLACK
6
CONTINUOUS
10
111.563
20
-119.953
11
111.565
21
-119.951
0
LINE
8
BLACK
6
CONTINUOUS
10
111.565
20
-119.951
11
111.566
21
-119.95
0
LINE
8
BLACK
6
CONTINUOUS
10
111.566
20
-119.95
11
111.702
21
-119.838
0
LINE
8
BLACK
6
CONTINUOUS
10
111.702
20
-119.838
11
111.702
21
-119.837
0
LINE
8
BLACK
6
CONTINUOUS
10
111.702
20
-119.837
11
111.704
21
-119.836
0
LINE
8
BLACK
6
CONTINUOUS
10
111.704
20
-119.836
11
111.706
21
-119.835
0
LINE
8
BLACK
6
CONTINUOUS
10
111.706
20
-119.835
11
111.86
21
-119.751
0
LINE
8
BLACK
6
CONTINUOUS
10
111.86
20
-119.751
11
111.86
21
-119.751
0
LINE
8
BLACK
6
CONTINUOUS
10
111.86
20
-119.751
11
111.86
21
-119.751
0
LINE
8
BLACK
6
CONTINUOUS
10
111.86
20
-119.751
11
111.861
21
-119.751
0
LINE
8
BLACK
6
CONTINUOUS
10
111.861
20
-119.751
11
111.863
21
-119.75
0
LINE
8
BLACK
6
CONTINUOUS
10
111.863
20
-119.75
11
111.865
21
-119.749
0
LINE
8
BLACK
6
CONTINUOUS
10
111.865
20
-119.749
11
112.033
21
-119.697
0
LINE
8
BLACK
6
CONTINUOUS
10
112.033
20
-119.697
11
112.033
21
-119.697
0
LINE
8
BLACK
6
CONTINUOUS
10
112.033
20
-119.697
11
112.035
21
-119.697
0
LINE
8
BLACK
6
CONTINUOUS
10
112.035
20
-119.697
11
112.037
21
-119.697
0
LINE
8
BLACK
6
CONTINUOUS
10
112.037
20
-119.697
11
112.212
21
-119.678
0
LINE
8
BLACK
6
CONTINUOUS
10
112.212
20
-119.678
11
112.212
21
-119.678
0
LINE
8
BLACK
6
CONTINUOUS
10
112.212
20
-119.678
11
112.214
21
-119.678
0
LINE
8
BLACK
6
CONTINUOUS
10
112.214
20
-119.678
11
112.215
21
-119.678
0
LINE
8
BLACK
6
CONTINUOUS
10
112.215
20
-119.678
11
112.22
21
-119.678
0
LINE
8
BLACK
6
CONTINUOUS
10
112.22
20
-119.678
11
112.22
21
-119.678
0
LINE
8
BLACK
6
CONTINUOUS
10
112.22
20
-119.678
11
114.122
21
-119.678
0
LINE
8
BLACK
6
CONTINUOUS
10
114.122
20
-119.678
11
114.123
21
-119.678
0
LINE
8
BLACK
6
CONTINUOUS
10
114.123
20
-119.678
11
114.123
21
-119.678
0
LINE
8
BLACK
6
CONTINUOUS
10
114.123
20
-119.678
11
114.298
21
-119.695
0
LINE
8
BLACK
6
CONTINUOUS
10
114.298
20
-119.695
11
114.298
21
-119.695
0
LINE
8
BLACK
6
CONTINUOUS
10
114.298
20
-119.695
11
114.299
21
-119.695
0
LINE
8
BLACK
6
CONTINUOUS
10
112.221
20
-119.728
11
112.216
21
-119.728
0
LINE
8
BLACK
6
CONTINUOUS
10
112.216
20
-119.728
11
112.045
21
-119.746
0
LINE
8
BLACK
6
CONTINUOUS
10
112.045
20
-119.746
11
111.882
21
-119.796
0
LINE
8
BLACK
6
CONTINUOUS
10
111.882
20
-119.796
11
111.732
21
-119.878
0
LINE
8
BLACK
6
CONTINUOUS
10
111.732
20
-119.878
11
111.6
21
-119.987
0
LINE
8
BLACK
6
CONTINUOUS
10
111.6
20
-119.987
11
111.492
21
-120.119
0
LINE
8
BLACK
6
CONTINUOUS
10
111.492
20
-120.119
11
111.412
21
-120.27
0
LINE
8
BLACK
6
CONTINUOUS
10
111.412
20
-120.27
11
111.363
21
-120.433
0
LINE
8
BLACK
6
CONTINUOUS
10
111.363
20
-120.433
11
111.346
21
-120.604
0
LINE
8
BLACK
6
CONTINUOUS
10
111.346
20
-120.604
11
111.346
21
-122.503
0
LINE
8
BLACK
6
CONTINUOUS
10
111.346
20
-122.503
11
111.346
21
-122.508
0
LINE
8
BLACK
6
CONTINUOUS
10
111.346
20
-122.508
11
111.364
21
-122.679
0
LINE
8
BLACK
6
CONTINUOUS
10
111.364
20
-122.679
11
111.414
21
-122.842
0
LINE
8
BLACK
6
CONTINUOUS
10
111.414
20
-122.842
11
111.496
21
-122.992
0
LINE
8
BLACK
6
CONTINUOUS
10
111.496
20
-122.992
11
111.605
21
-123.124
0
LINE
8
BLACK
6
CONTINUOUS
10
111.605
20
-123.124
11
111.737
21
-123.232
0
LINE
8
BLACK
6
CONTINUOUS
10
111.737
20
-123.232
11
111.888
21
-123.312
0
LINE
8
BLACK
6
CONTINUOUS
10
111.888
20
-123.312
11
112.051
21
-123.361
0
LINE
8
BLACK
6
CONTINUOUS
10
112.051
20
-123.361
11
112.222
21
-123.378
0
LINE
8
BLACK
6
CONTINUOUS
10
112.222
20
-123.378
11
114.121
21
-123.378
0
LINE
8
BLACK
6
CONTINUOUS
10
114.121
20
-123.378
11
114.126
21
-123.378
0
LINE
8
BLACK
6
CONTINUOUS
10
114.126
20
-123.378
11
114.297
21
-123.36
0
LINE
8
BLACK
6
CONTINUOUS
10
114.297
20
-123.36
11
114.46
21
-123.31
0
LINE
8
BLACK
6
CONTINUOUS
10
114.46
20
-123.31
11
114.61
21
-123.228
0
LINE
8
BLACK
6
CONTINUOUS
10
114.61
20
-123.228
11
114.742
21
-123.119
0
LINE
8
BLACK
6
CONTINUOUS
10
114.742
20
-123.119
11
114.85
21
-122.987
0
LINE
8
BLACK
6
CONTINUOUS
10
114.85
20
-122.987
11
114.93
21
-122.836
0
LINE
8
BLACK
6
CONTINUOUS
10
114.93
20
-122.836
11
114.979
21
-122.673
0
LINE
8
BLACK
6
CONTINUOUS
10
114.979
20
-122.673
11
114.996
21
-122.502
0
LINE
8
BLACK
6
CONTINUOUS
10
114.996
20
-122.502
11
114.996
21
-120.603
0
LINE
8
BLACK
6
CONTINUOUS
10
114.996
20
-120.603
11
114.996
21
-120.603
0
LINE
8
BLACK
6
CONTINUOUS
10
114.996
20
-120.603
11
114.996
21
-120.598
0
LINE
8
BLACK
6
CONTINUOUS
10
114.996
20
-120.598
11
114.978
21
-120.427
0
LINE
8
BLACK
6
CONTINUOUS
10
114.978
20
-120.427
11
114.928
21
-120.264
0
LINE
8
BLACK
6
CONTINUOUS
10
114.928
20
-120.264
11
114.846
21
-120.114
0
LINE
8
BLACK
6
CONTINUOUS
10
114.846
20
-120.114
11
114.737
21
-119.982
0
LINE
8
BLACK
6
CONTINUOUS
10
114.737
20
-119.982
11
114.605
21
-119.874
0
LINE
8
BLACK
6
CONTINUOUS
10
114.605
20
-119.874
11
114.454
21
-119.794
0
LINE
8
BLACK
6
CONTINUOUS
10
114.454
20
-119.794
11
114.291
21
-119.745
0
LINE
8
BLACK
6
CONTINUOUS
10
114.291
20
-119.745
11
114.12
21
-119.728
0
LINE
8
BLACK
6
CONTINUOUS
10
114.12
20
-119.728
11
112.221
21
-119.728
0
LINE
8
BLACK
6
CONTINUOUS
10
285.621
20
-119.695
11
285.623
21
-119.696
0
LINE
8
BLACK
6
CONTINUOUS
10
285.623
20
-119.696
11
285.625
21
-119.696
0
LINE
8
BLACK
6
CONTINUOUS
10
285.625
20
-119.696
11
285.793
21
-119.747
0
LINE
8
BLACK
6
CONTINUOUS
10
285.793
20
-119.747
11
285.794
21
-119.747
0
LINE
8
BLACK
6
CONTINUOUS
10
285.794
20
-119.747
11
285.796
21
-119.748
0
LINE
8
BLACK
6
CONTINUOUS
10
285.796
20
-119.748
11
285.798
21
-119.749
0
LINE
8
BLACK
6
CONTINUOUS
10
285.798
20
-119.749
11
285.953
21
-119.831
0
LINE
8
BLACK
6
CONTINUOUS
10
285.953
20
-119.831
11
285.953
21
-119.831
0
LINE
8
BLACK
6
CONTINUOUS
10
285.953
20
-119.831
11
285.955
21
-119.833
0
LINE
8
BLACK
6
CONTINUOUS
10
285.955
20
-119.833
11
285.957
21
-119.834
0
LINE
8
BLACK
6
CONTINUOUS
10
285.957
20
-119.834
11
286.093
21
-119.945
0
LINE
8
BLACK
6
CONTINUOUS
10
286.093
20
-119.945
11
286.093
21
-119.945
0
LINE
8
BLACK
6
CONTINUOUS
10
286.093
20
-119.945
11
286.093
21
-119.945
0
LINE
8
BLACK
6
CONTINUOUS
10
286.093
20
-119.945
11
286.093
21
-119.945
0
LINE
8
BLACK
6
CONTINUOUS
10
286.093
20
-119.945
11
286.095
21
-119.947
0
LINE
8
BLACK
6
CONTINUOUS
10
286.095
20
-119.947
11
286.096
21
-119.948
0
LINE
8
BLACK
6
CONTINUOUS
10
286.096
20
-119.948
11
286.208
21
-120.084
0
LINE
8
BLACK
6
CONTINUOUS
10
286.208
20
-120.084
11
286.209
21
-120.084
0
LINE
8
BLACK
6
CONTINUOUS
10
286.209
20
-120.084
11
286.21
21
-120.086
0
LINE
8
BLACK
6
CONTINUOUS
10
286.21
20
-120.086
11
286.211
21
-120.088
0
LINE
8
BLACK
6
CONTINUOUS
10
286.211
20
-120.088
11
286.295
21
-120.242
0
LINE
8
BLACK
6
CONTINUOUS
10
286.295
20
-120.242
11
286.295
21
-120.242
0
LINE
8
BLACK
6
CONTINUOUS
10
286.295
20
-120.242
11
286.295
21
-120.242
0
LINE
8
BLACK
6
CONTINUOUS
10
286.295
20
-120.242
11
286.295
21
-120.243
0
LINE
8
BLACK
6
CONTINUOUS
10
286.295
20
-120.243
11
286.296
21
-120.245
0
LINE
8
BLACK
6
CONTINUOUS
10
286.296
20
-120.245
11
286.297
21
-120.247
0
LINE
8
BLACK
6
CONTINUOUS
10
286.297
20
-120.247
11
286.349
21
-120.415
0
LINE
8
BLACK
6
CONTINUOUS
10
286.349
20
-120.415
11
286.349
21
-120.415
0
LINE
8
BLACK
6
CONTINUOUS
10
286.349
20
-120.415
11
286.349
21
-120.417
0
LINE
8
BLACK
6
CONTINUOUS
10
286.349
20
-120.417
11
286.349
21
-120.419
0
LINE
8
BLACK
6
CONTINUOUS
10
286.349
20
-120.419
11
286.368
21
-120.594
0
LINE
8
BLACK
6
CONTINUOUS
10
286.368
20
-120.594
11
286.368
21
-120.594
0
LINE
8
BLACK
6
CONTINUOUS
10
286.368
20
-120.594
11
286.368
21
-120.596
0
LINE
8
BLACK
6
CONTINUOUS
10
286.368
20
-120.596
11
286.368
21
-120.597
0
LINE
8
BLACK
6
CONTINUOUS
10
286.368
20
-120.597
11
286.368
21
-120.602
0
LINE
8
BLACK
6
CONTINUOUS
10
286.368
20
-120.602
11
286.368
21
-120.602
0
LINE
8
BLACK
6
CONTINUOUS
10
286.368
20
-120.602
11
286.368
21
-122.504
0
LINE
8
BLACK
6
CONTINUOUS
10
286.368
20
-122.504
11
286.368
21
-122.505
0
LINE
8
BLACK
6
CONTINUOUS
10
286.368
20
-122.505
11
286.368
21
-122.505
0
LINE
8
BLACK
6
CONTINUOUS
10
286.368
20
-122.505
11
286.351
21
-122.68
0
LINE
8
BLACK
6
CONTINUOUS
10
286.351
20
-122.68
11
286.351
21
-122.681
0
LINE
8
BLACK
6
CONTINUOUS
10
286.351
20
-122.681
11
286.35
21
-122.683
0
LINE
8
BLACK
6
CONTINUOUS
10
286.35
20
-122.683
11
286.35
21
-122.685
0
LINE
8
BLACK
6
CONTINUOUS
10
286.35
20
-122.685
11
286.299
21
-122.853
0
LINE
8
BLACK
6
CONTINUOUS
10
286.299
20
-122.853
11
286.299
21
-122.854
0
LINE
8
BLACK
6
CONTINUOUS
10
286.299
20
-122.854
11
286.298
21
-122.856
0
LINE
8
BLACK
6
CONTINUOUS
10
286.298
20
-122.856
11
286.297
21
-122.858
0
LINE
8
BLACK
6
CONTINUOUS
10
286.297
20
-122.858
11
286.215
21
-123.013
0
LINE
8
BLACK
6
CONTINUOUS
10
286.215
20
-123.013
11
286.215
21
-123.013
0
LINE
8
BLACK
6
CONTINUOUS
10
286.215
20
-123.013
11
286.213
21
-123.015
0
LINE
8
BLACK
6
CONTINUOUS
10
286.213
20
-123.015
11
286.212
21
-123.017
0
LINE
8
BLACK
6
CONTINUOUS
10
286.212
20
-123.017
11
286.101
21
-123.153
0
LINE
8
BLACK
6
CONTINUOUS
10
286.101
20
-123.153
11
286.101
21
-123.153
0
LINE
8
BLACK
6
CONTINUOUS
10
286.101
20
-123.153
11
286.099
21
-123.155
0
LINE
8
BLACK
6
CONTINUOUS
10
286.099
20
-123.155
11
286.098
21
-123.156
0
LINE
8
BLACK
6
CONTINUOUS
10
286.098
20
-123.156
11
285.962
21
-123.268
0
LINE
8
BLACK
6
CONTINUOUS
10
285.962
20
-123.268
11
285.962
21
-123.269
0
LINE
8
BLACK
6
CONTINUOUS
10
285.962
20
-123.269
11
285.96
21
-123.27
0
LINE
8
BLACK
6
CONTINUOUS
10
285.96
20
-123.27
11
285.958
21
-123.271
0
LINE
8
BLACK
6
CONTINUOUS
10
285.958
20
-123.271
11
285.804
21
-123.355
0
LINE
8
BLACK
6
CONTINUOUS
10
285.804
20
-123.355
11
285.803
21
-123.355
0
LINE
8
BLACK
6
CONTINUOUS
10
285.803
20
-123.355
11
285.801
21
-123.356
0
LINE
8
BLACK
6
CONTINUOUS
10
285.801
20
-123.356
11
285.799
21
-123.357
0
LINE
8
BLACK
6
CONTINUOUS
10
285.799
20
-123.357
11
285.631
21
-123.408
0
LINE
8
BLACK
6
CONTINUOUS
10
285.631
20
-123.408
11
285.631
21
-123.409
0
LINE
8
BLACK
6
CONTINUOUS
10
285.631
20
-123.409
11
285.629
21
-123.409
0
LINE
8
BLACK
6
CONTINUOUS
10
285.629
20
-123.409
11
285.627
21
-123.409
0
LINE
8
BLACK
6
CONTINUOUS
10
285.627
20
-123.409
11
285.452
21
-123.428
0
LINE
8
BLACK
6
CONTINUOUS
10
285.452
20
-123.428
11
285.452
21
-123.428
0
LINE
8
BLACK
6
CONTINUOUS
10
285.452
20
-123.428
11
285.45
21
-123.428
0
LINE
8
BLACK
6
CONTINUOUS
10
285.45
20
-123.428
11
285.449
21
-123.428
0
LINE
8
BLACK
6
CONTINUOUS
10
285.449
20
-123.428
11
285.444
21
-123.428
0
LINE
8
BLACK
6
CONTINUOUS
10
285.444
20
-123.428
11
285.444
21
-123.428
0
LINE
8
BLACK
6
CONTINUOUS
10
285.444
20
-123.428
11
283.542
21
-123.428
0
LINE
8
BLACK
6
CONTINUOUS
10
283.542
20
-123.428
11
283.541
21
-123.428
0
LINE
8
BLACK
6
CONTINUOUS
10
283.541
20
-123.428
11
283.541
21
-123.428
0
LINE
8
BLACK
6
CONTINUOUS
10
283.541
20
-123.428
11
283.366
21
-123.411
0
LINE
8
BLACK
6
CONTINUOUS
10
283.366
20
-123.411
11
283.365
21
-123.411
0
LINE
8
BLACK
6
CONTINUOUS
10
283.365
20
-123.411
11
283.363
21
-123.41
0
LINE
8
BLACK
6
CONTINUOUS
10
283.363
20
-123.41
11
283.361
21
-123.41
0
LINE
8
BLACK
6
CONTINUOUS
10
283.361
20
-123.41
11
283.193
21
-123.359
0
LINE
8
BLACK
6
CONTINUOUS
10
283.193
20
-123.359
11
283.192
21
-123.359
0
LINE
8
BLACK
6
CONTINUOUS
10
283.192
20
-123.359
11
283.19
21
-123.358
0
LINE
8
BLACK
6
CONTINUOUS
10
283.19
20
-123.358
11
283.188
21
-123.357
0
LINE
8
BLACK
6
CONTINUOUS
10
283.188
20
-123.357
11
283.033
21
-123.275
0
LINE
8
BLACK
6
CONTINUOUS
10
283.033
20
-123.275
11
283.033
21
-123.275
0
LINE
8
BLACK
6
CONTINUOUS
10
283.033
20
-123.275
11
283.031
21
-123.273
0
LINE
8
BLACK
6
CONTINUOUS
10
283.031
20
-123.273
11
283.029
21
-123.272
0
LINE
8
BLACK
6
CONTINUOUS
10
283.029
20
-123.272
11
282.893
21
-123.161
0
LINE
8
BLACK
6
CONTINUOUS
10
282.893
20
-123.161
11
282.893
21
-123.161
0
LINE
8
BLACK
6
CONTINUOUS
10
282.893
20
-123.161
11
282.891
21
-123.159
0
LINE
8
BLACK
6
CONTINUOUS
10
282.891
20
-123.159
11
282.89
21
-123.158
0
LINE
8
BLACK
6
CONTINUOUS
10
282.89
20
-123.158
11
282.778
21
-123.022
0
LINE
8
BLACK
6
CONTINUOUS
10
282.778
20
-123.022
11
282.777
21
-123.022
0
LINE
8
BLACK
6
CONTINUOUS
10
282.777
20
-123.022
11
282.776
21
-123.02
0
LINE
8
BLACK
6
CONTINUOUS
10
282.776
20
-123.02
11
282.775
21
-123.018
0
LINE
8
BLACK
6
CONTINUOUS
10
282.775
20
-123.018
11
282.691
21
-122.864
0
LINE
8
BLACK
6
CONTINUOUS
10
282.691
20
-122.864
11
282.691
21
-122.863
0
LINE
8
BLACK
6
CONTINUOUS
10
282.691
20
-122.863
11
282.69
21
-122.861
0
LINE
8
BLACK
6
CONTINUOUS
10
282.69
20
-122.861
11
282.689
21
-122.859
0
LINE
8
BLACK
6
CONTINUOUS
10
282.689
20
-122.859
11
282.637
21
-122.691
0
LINE
8
BLACK
6
CONTINUOUS
10
282.637
20
-122.691
11
282.637
21
-122.691
0
LINE
8
BLACK
6
CONTINUOUS
10
282.637
20
-122.691
11
282.637
21
-122.689
0
LINE
8
BLACK
6
CONTINUOUS
10
282.637
20
-122.689
11
282.637
21
-122.687
0
LINE
8
BLACK
6
CONTINUOUS
10
282.637
20
-122.687
11
282.618
21
-122.512
0
LINE
8
BLACK
6
CONTINUOUS
10
282.618
20
-122.512
11
282.618
21
-122.512
0
LINE
8
BLACK
6
CONTINUOUS
10
282.618
20
-122.512
11
282.618
21
-122.51
0
LINE
8
BLACK
6
CONTINUOUS
10
282.618
20
-122.51
11
282.618
21
-122.509
0
LINE
8
BLACK
6
CONTINUOUS
10
282.618
20
-122.509
11
282.618
21
-122.504
0
LINE
8
BLACK
6
CONTINUOUS
10
282.618
20
-122.504
11
282.618
21
-122.504
0
LINE
8
BLACK
6
CONTINUOUS
10
282.618
20
-122.504
11
282.618
21
-122.503
0
LINE
8
BLACK
6
CONTINUOUS
10
282.618
20
-122.503
11
282.618
21
-122.503
0
LINE
8
BLACK
6
CONTINUOUS
10
282.618
20
-122.503
11
282.618
21
-122.503
0
LINE
8
BLACK
6
CONTINUOUS
10
282.618
20
-122.503
11
282.618
21
-120.602
0
LINE
8
BLACK
6
CONTINUOUS
10
282.618
20
-120.602
11
282.618
21
-120.601
0
LINE
8
BLACK
6
CONTINUOUS
10
282.618
20
-120.601
11
282.618
21
-120.601
0
LINE
8
BLACK
6
CONTINUOUS
10
282.618
20
-120.601
11
282.635
21
-120.426
0
LINE
8
BLACK
6
CONTINUOUS
10
282.635
20
-120.426
11
282.635
21
-120.425
0
LINE
8
BLACK
6
CONTINUOUS
10
282.635
20
-120.425
11
282.636
21
-120.423
0
LINE
8
BLACK
6
CONTINUOUS
10
282.636
20
-120.423
11
282.636
21
-120.421
0
LINE
8
BLACK
6
CONTINUOUS
10
282.636
20
-120.421
11
282.687
21
-120.253
0
LINE
8
BLACK
6
CONTINUOUS
10
282.687
20
-120.253
11
282.687
21
-120.252
0
LINE
8
BLACK
6
CONTINUOUS
10
282.687
20
-120.252
11
282.688
21
-120.25
0
LINE
8
BLACK
6
CONTINUOUS
10
282.688
20
-120.25
11
282.689
21
-120.248
0
LINE
8
BLACK
6
CONTINUOUS
10
282.689
20
-120.248
11
282.771
21
-120.093
0
LINE
8
BLACK
6
CONTINUOUS
10
282.771
20
-120.093
11
282.771
21
-120.093
0
LINE
8
BLACK
6
CONTINUOUS
10
282.771
20
-120.093
11
282.773
21
-120.091
0
LINE
8
BLACK
6
CONTINUOUS
10
282.773
20
-120.091
11
282.774
21
-120.089
0
LINE
8
BLACK
6
CONTINUOUS
10
282.774
20
-120.089
11
282.885
21
-119.953
0
LINE
8
BLACK
6
CONTINUOUS
10
282.885
20
-119.953
11
282.885
21
-119.953
0
LINE
8
BLACK
6
CONTINUOUS
10
282.885
20
-119.953
11
282.885
21
-119.953
0
LINE
8
BLACK
6
CONTINUOUS
10
282.885
20
-119.953
11
282.885
21
-119.953
0
LINE
8
BLACK
6
CONTINUOUS
10
282.885
20
-119.953
11
282.887
21
-119.951
0
LINE
8
BLACK
6
CONTINUOUS
10
282.887
20
-119.951
11
282.888
21
-119.95
0
LINE
8
BLACK
6
CONTINUOUS
10
282.888
20
-119.95
11
283.024
21
-119.838
0
LINE
8
BLACK
6
CONTINUOUS
10
283.024
20
-119.838
11
283.024
21
-119.837
0
LINE
8
BLACK
6
CONTINUOUS
10
283.024
20
-119.837
11
283.026
21
-119.836
0
LINE
8
BLACK
6
CONTINUOUS
10
283.026
20
-119.836
11
283.028
21
-119.835
0
LINE
8
BLACK
6
CONTINUOUS
10
283.028
20
-119.835
11
283.182
21
-119.751
0
LINE
8
BLACK
6
CONTINUOUS
10
283.182
20
-119.751
11
283.182
21
-119.751
0
LINE
8
BLACK
6
CONTINUOUS
10
283.182
20
-119.751
11
283.182
21
-119.751
0
LINE
8
BLACK
6
CONTINUOUS
10
283.182
20
-119.751
11
283.183
21
-119.751
0
LINE
8
BLACK
6
CONTINUOUS
10
283.183
20
-119.751
11
283.185
21
-119.75
0
LINE
8
BLACK
6
CONTINUOUS
10
283.185
20
-119.75
11
283.187
21
-119.749
0
LINE
8
BLACK
6
CONTINUOUS
10
283.187
20
-119.749
11
283.355
21
-119.697
0
LINE
8
BLACK
6
CONTINUOUS
10
283.355
20
-119.697
11
283.355
21
-119.697
0
LINE
8
BLACK
6
CONTINUOUS
10
283.355
20
-119.697
11
283.357
21
-119.697
0
LINE
8
BLACK
6
CONTINUOUS
10
283.357
20
-119.697
11
283.359
21
-119.697
0
LINE
8
BLACK
6
CONTINUOUS
10
283.359
20
-119.697
11
283.534
21
-119.678
0
LINE
8
BLACK
6
CONTINUOUS
10
283.534
20
-119.678
11
283.534
21
-119.678
0
LINE
8
BLACK
6
CONTINUOUS
10
283.534
20
-119.678
11
283.536
21
-119.678
0
LINE
8
BLACK
6
CONTINUOUS
10
283.536
20
-119.678
11
283.537
21
-119.678
0
LINE
8
BLACK
6
CONTINUOUS
10
283.537
20
-119.678
11
283.542
21
-119.678
0
LINE
8
BLACK
6
CONTINUOUS
10
283.542
20
-119.678
11
283.542
21
-119.678
0
LINE
8
BLACK
6
CONTINUOUS
10
283.542
20
-119.678
11
285.444
21
-119.678
0
LINE
8
BLACK
6
CONTINUOUS
10
285.444
20
-119.678
11
285.445
21
-119.678
0
LINE
8
BLACK
6
CONTINUOUS
10
285.445
20
-119.678
11
285.445
21
-119.678
0
LINE
8
BLACK
6
CONTINUOUS
10
285.445
20
-119.678
11
285.62
21
-119.695
0
LINE
8
BLACK
6
CONTINUOUS
10
285.62
20
-119.695
11
285.62
21
-119.695
0
LINE
8
BLACK
6
CONTINUOUS
10
285.62
20
-119.695
11
285.621
21
-119.695
0
LINE
8
BLACK
6
CONTINUOUS
10
283.543
20
-119.728
11
283.538
21
-119.728
0
LINE
8
BLACK
6
CONTINUOUS
10
283.538
20
-119.728
11
283.367
21
-119.746
0
LINE
8
BLACK
6
CONTINUOUS
10
283.367
20
-119.746
11
283.204
21
-119.796
0
LINE
8
BLACK
6
CONTINUOUS
10
283.204
20
-119.796
11
283.054
21
-119.878
0
LINE
8
BLACK
6
CONTINUOUS
10
283.054
20
-119.878
11
282.922
21
-119.987
0
LINE
8
BLACK
6
CONTINUOUS
10
282.922
20
-119.987
11
282.814
21
-120.119
0
LINE
8
BLACK
6
CONTINUOUS
10
282.814
20
-120.119
11
282.734
21
-120.27
0
LINE
8
BLACK
6
CONTINUOUS
10
282.734
20
-120.27
11
282.685
21
-120.433
0
LINE
8
BLACK
6
CONTINUOUS
10
282.685
20
-120.433
11
282.668
21
-120.604
0
LINE
8
BLACK
6
CONTINUOUS
10
282.668
20
-120.604
11
282.668
21
-122.503
0
LINE
8
BLACK
6
CONTINUOUS
10
282.668
20
-122.503
11
282.668
21
-122.508
0
LINE
8
BLACK
6
CONTINUOUS
10
282.668
20
-122.508
11
282.686
21
-122.679
0
LINE
8
BLACK
6
CONTINUOUS
10
282.686
20
-122.679
11
282.736
21
-122.842
0
LINE
8
BLACK
6
CONTINUOUS
10
282.736
20
-122.842
11
282.818
21
-122.992
0
LINE
8
BLACK
6
CONTINUOUS
10
282.818
20
-122.992
11
282.927
21
-123.124
0
LINE
8
BLACK
6
CONTINUOUS
10
282.927
20
-123.124
11
283.059
21
-123.232
0
LINE
8
BLACK
6
CONTINUOUS
10
283.059
20
-123.232
11
283.21
21
-123.312
0
LINE
8
BLACK
6
CONTINUOUS
10
283.21
20
-123.312
11
283.373
21
-123.361
0
LINE
8
BLACK
6
CONTINUOUS
10
283.373
20
-123.361
11
283.544
21
-123.378
0
LINE
8
BLACK
6
CONTINUOUS
10
283.544
20
-123.378
11
285.443
21
-123.378
0
LINE
8
BLACK
6
CONTINUOUS
10
285.443
20
-123.378
11
285.448
21
-123.378
0
LINE
8
BLACK
6
CONTINUOUS
10
285.448
20
-123.378
11
285.619
21
-123.36
0
LINE
8
BLACK
6
CONTINUOUS
10
285.619
20
-123.36
11
285.782
21
-123.31
0
LINE
8
BLACK
6
CONTINUOUS
10
285.782
20
-123.31
11
285.932
21
-123.228
0
LINE
8
BLACK
6
CONTINUOUS
10
285.932
20
-123.228
11
286.064
21
-123.119
0
LINE
8
BLACK
6
CONTINUOUS
10
286.064
20
-123.119
11
286.172
21
-122.987
0
LINE
8
BLACK
6
CONTINUOUS
10
286.172
20
-122.987
11
286.252
21
-122.836
0
LINE
8
BLACK
6
CONTINUOUS
10
286.252
20
-122.836
11
286.301
21
-122.673
0
LINE
8
BLACK
6
CONTINUOUS
10
286.301
20
-122.673
11
286.318
21
-122.502
0
LINE
8
BLACK
6
CONTINUOUS
10
286.318
20
-122.502
11
286.318
21
-120.603
0
LINE
8
BLACK
6
CONTINUOUS
10
286.318
20
-120.603
11
286.318
21
-120.603
0
LINE
8
BLACK
6
CONTINUOUS
10
286.318
20
-120.603
11
286.318
21
-120.598
0
LINE
8
BLACK
6
CONTINUOUS
10
286.318
20
-120.598
11
286.3
21
-120.427
0
LINE
8
BLACK
6
CONTINUOUS
10
286.3
20
-120.427
11
286.25
21
-120.264
0
LINE
8
BLACK
6
CONTINUOUS
10
286.25
20
-120.264
11
286.168
21
-120.114
0
LINE
8
BLACK
6
CONTINUOUS
10
286.168
20
-120.114
11
286.059
21
-119.982
0
LINE
8
BLACK
6
CONTINUOUS
10
286.059
20
-119.982
11
285.927
21
-119.874
0
LINE
8
BLACK
6
CONTINUOUS
10
285.927
20
-119.874
11
285.776
21
-119.794
0
LINE
8
BLACK
6
CONTINUOUS
10
285.776
20
-119.794
11
285.613
21
-119.745
0
LINE
8
BLACK
6
CONTINUOUS
10
285.613
20
-119.745
11
285.442
21
-119.728
0
LINE
8
BLACK
6
CONTINUOUS
10
285.442
20
-119.728
11
283.543
21
-119.728
  0
ENDSEC
  0
EOF
